<?xml version="1.0" standalone="no"?>
<!DOCTYPE svg PUBLIC "-//W3C//DTD SVG 20010904//EN"
 "http://www.w3.org/TR/2001/REC-SVG-20010904/DTD/svg10.dtd">
<svg version="1.0" xmlns="http://www.w3.org/2000/svg"
 width="700.000000pt" height="700.000000pt" viewBox="0 0 700.000000 700.000000"
 preserveAspectRatio="xMidYMid meet">
<metadata>
Created by potrace 1.11, written by Peter Selinger 2001-2013
</metadata>
<g transform="translate(0.000000,700.000000) scale(0.100000,-0.100000)"
fill="#000000" stroke="none">
<path d="M3220 6994 c-223 -26 -317 -40 -440 -66 -1363 -286 -2428 -1353
-2709 -2713 -55 -265 -66 -381 -66 -715 0 -336 11 -453 67 -720 192 -913 732
-1702 1518 -2215 442 -289 916 -464 1460 -540 157 -22 581 -31 752 -15 832 75
1584 426 2173 1015 523 521 858 1170 979 1897 14 78 30 203 36 276 16 171 7
594 -15 752 -110 793 -445 1471 -999 2026 -553 553 -1230 887 -2026 1000 -109
15 -640 28 -730 18z m643 -649 c450 -61 856 -213 1219 -454 181 -121 279 -202
439 -361 233 -232 399 -460 543 -750 403 -810 405 -1733 6 -2545 -322 -655
-857 -1143 -1558 -1419 -315 -125 -767 -198 -1117 -181 -432 20 -783 109
-1160 295 -467 229 -851 569 -1137 1005 -79 120 -192 332 -243 455 -15 36 -44
103 -65 150 -42 92 -103 364 -137 610 -23 173 -23 528 1 705 46 341 134 630
281 926 414 833 1219 1418 2138 1554 247 37 561 41 790 10z"/>
<path d="M3540 6198 c14 -6 72 -32 130 -58 241 -105 468 -268 706 -505 176
-175 293 -316 412 -496 88 -133 59 -119 277 -139 296 -28 590 -114 778 -228
37 -22 67 -38 67 -34 0 15 -120 214 -185 307 -431 619 -1093 1028 -1835 1135
-172 24 -387 36 -350 18z"/>
<path d="M3113 6019 c128 -128 258 -297 382 -500 87 -143 247 -437 285 -526
16 -37 28 -53 41 -53 10 0 74 9 141 20 163 26 380 48 561 56 81 4 147 10 147
14 0 11 -103 152 -189 260 -41 52 -139 158 -216 235 -367 368 -779 580 -1168
602 l-98 6 114 -114z"/>
<path d="M2654 6066 c-62 -27 -120 -154 -151 -333 -21 -121 -23 -497 -5 -683
14 -136 61 -472 67 -478 2 -2 74 23 162 56 279 105 568 193 845 258 l78 18
-94 180 c-357 691 -703 1068 -902 982z"/>
<path d="M2287 5861 c-306 -252 -517 -687 -602 -1241 -16 -104 -34 -530 -22
-530 4 0 44 24 89 54 133 86 270 162 471 263 103 52 187 98 187 103 0 5 -11
83 -25 172 -42 281 -57 469 -58 713 0 228 9 342 39 458 8 33 14 63 12 69 -2 6
-43 -22 -91 -61z"/>
<path d="M1806 5614 c-60 -48 -159 -136 -220 -198 -432 -433 -694 -970 -778
-1596 -14 -104 -18 -562 -5 -594 6 -16 16 -6 53 61 25 44 75 120 112 169 80
108 314 344 438 442 l91 72 6 268 c4 200 11 302 27 407 64 419 179 734 374
1028 10 15 16 27 14 27 -2 0 -53 -39 -112 -86z"/>
<path d="M4405 4853 c-184 -15 -511 -58 -523 -68 -1 -1 32 -82 73 -179 87
-204 211 -535 280 -746 26 -80 49 -147 51 -149 2 -2 200 59 439 135 l436 139
-5 27 c-10 49 -118 330 -178 464 -32 71 -89 186 -126 255 l-68 124 -170 1
c-93 0 -187 -1 -209 -3z"/>
<path d="M5044 4703 c106 -212 232 -519 261 -636 4 -15 12 -27 17 -27 6 0 174
53 374 117 412 132 377 108 324 218 -110 229 -433 396 -888 459 -182 26 -173
40 -88 -131z"/>
<path d="M3560 4721 c-280 -68 -577 -161 -827 -260 -115 -46 -133 -56 -133
-75 0 -52 106 -499 181 -761 80 -281 110 -367 125 -361 7 3 285 92 616 197
332 106 605 194 608 196 13 11 -198 597 -313 868 -98 233 -94 225 -119 224
-13 0 -75 -13 -138 -28z"/>
<path d="M2235 4236 c-263 -135 -550 -310 -563 -344 -10 -26 26 -298 63 -480
32 -154 107 -438 124 -469 4 -8 140 32 440 128 238 76 435 140 437 141 1 2
-17 68 -42 148 -73 236 -151 531 -201 755 -25 115 -49 213 -52 217 -3 4 -96
-39 -206 -96z"/>
<path d="M5713 3996 c-188 -61 -344 -113 -347 -116 -3 -3 4 -39 14 -80 28
-108 67 -307 86 -440 9 -63 17 -116 19 -118 2 -2 44 33 94 77 179 161 327 345
406 506 58 119 104 288 78 284 -5 -1 -162 -51 -350 -113z"/>
<path d="M6122 3752 c-28 -59 -82 -149 -120 -201 -83 -116 -282 -324 -406
-426 l-93 -75 -6 -288 c-5 -298 -18 -419 -67 -647 -57 -263 -200 -607 -326
-782 -9 -13 -14 -23 -11 -23 17 0 222 176 320 274 423 421 687 954 773 1561
26 183 23 717 -4 715 -4 -1 -31 -49 -60 -108z"/>
<path d="M4775 3696 c-225 -72 -417 -135 -426 -138 -15 -6 -14 -17 13 -105 41
-139 131 -494 164 -650 15 -73 31 -133 36 -133 13 0 256 123 364 185 54 31
168 102 252 158 175 116 162 88 137 284 -15 115 -74 420 -95 496 -6 20 -16 37
-23 36 -7 0 -196 -60 -422 -133z"/>
<path d="M1475 3750 c-22 -17 -84 -72 -137 -121 -270 -249 -438 -528 -455
-754 -4 -58 0 -84 21 -152 15 -46 32 -83 38 -83 10 0 759 238 764 243 2 1 -11
47 -27 102 -67 223 -122 485 -156 738 l-8 59 -40 -32z"/>
<path d="M3705 3354 c-247 -79 -521 -167 -607 -195 l-157 -50 43 -122 c119
-334 291 -747 311 -747 32 0 418 104 575 155 158 52 471 169 519 194 18 10 18
13 -5 123 -31 145 -136 565 -172 688 -18 60 -33 96 -42 97 -8 1 -217 -63 -465
-143z"/>
<path d="M2355 2923 c-231 -74 -424 -139 -429 -143 -17 -17 175 -445 271 -602
l34 -58 98 0 c116 0 308 14 476 35 133 17 308 45 314 51 2 2 -19 56 -47 121
-90 210 -206 513 -277 721 -2 6 -8 12 -12 11 -4 0 -197 -62 -428 -136z"/>
<path d="M5270 2883 c-123 -84 -335 -206 -505 -291 -93 -47 -172 -86 -174 -88
-1 -1 9 -83 23 -181 73 -495 83 -888 30 -1138 -8 -38 -18 -83 -21 -99 l-6 -30
59 46 c96 74 229 219 305 335 166 250 279 566 333 933 22 143 41 499 30 532
l-9 26 -65 -45z"/>
<path d="M1383 2612 c-214 -69 -363 -122 -363 -129 0 -7 35 -39 78 -73 81 -63
208 -131 327 -173 137 -49 443 -106 567 -107 l46 0 -82 163 c-45 89 -106 224
-136 299 -30 76 -59 137 -65 137 -5 0 -173 -53 -372 -117z"/>
<path d="M4280 2374 c-191 -77 -503 -178 -723 -234 -104 -26 -190 -50 -193
-53 -7 -6 111 -242 194 -387 239 -420 491 -715 663 -775 201 -71 313 218 296
760 -10 290 -65 746 -91 744 -6 0 -72 -25 -146 -55z"/>
<path d="M1160 2133 c18 -32 62 -101 98 -153 434 -634 1102 -1052 1852 -1160
171 -24 376 -36 340 -19 -14 7 -69 31 -123 55 -397 174 -820 555 -1122 1011
l-60 91 -85 7 c-380 31 -620 84 -839 186 -46 21 -86 39 -88 39 -3 0 10 -26 27
-57z"/>
<path d="M3129 2046 c-15 -15 -446 -66 -686 -82 -57 -3 -103 -9 -103 -11 0
-12 142 -203 218 -293 106 -127 316 -329 433 -417 249 -187 500 -307 739 -353
115 -23 270 -36 270 -24 -1 5 -21 25 -46 44 -181 139 -477 572 -705 1033 -51
102 -55 107 -85 107 -17 0 -33 -2 -35 -4z"/>
</g>
</svg>
