<?xml version="1.0" standalone="no"?>
<!DOCTYPE svg PUBLIC "-//W3C//DTD SVG 20010904//EN"
 "http://www.w3.org/TR/2001/REC-SVG-20010904/DTD/svg10.dtd">
<svg version="1.0" xmlns="http://www.w3.org/2000/svg"
 width="524.000000pt" height="524.000000pt" viewBox="0 0 524.000000 524.000000"
 preserveAspectRatio="xMidYMid meet">
<metadata>
Created by potrace 1.11, written by Peter Selinger 2001-2013
</metadata>
<g transform="translate(0.000000,524.000000) scale(0.100000,-0.100000)"
fill="#000000" stroke="none">
<path d="M2440 4549 c-528 -50 -1024 -312 -1351 -715 -192 -235 -338 -543
-398 -839 -126 -621 75 -1280 530 -1734 592 -592 1502 -746 2257 -381 203 98
353 203 516 360 602 581 761 1455 401 2206 -102 213 -217 377 -381 540 -408
405 -1000 618 -1574 563z m419 -257 l34 -7 -86 -53 c-139 -85 -243 -168 -394
-315 l-142 -139 -108 26 c-204 48 -297 59 -500 60 -106 1 -192 4 -190 8 5 15
147 122 232 175 213 133 463 220 725 253 81 10 374 5 429 -8z m530 -168 c167
-49 258 -301 231 -640 -9 -105 -47 -344 -55 -344 -2 0 -72 46 -157 103 -237
159 -504 302 -741 397 -65 27 -120 50 -123 53 -8 8 169 166 274 245 53 40 142
95 197 122 155 77 267 96 374 64z m511 -376 c57 -62 167 -213 214 -294 95
-163 166 -361 202 -559 22 -123 25 -413 5 -524 l-13 -73 -39 71 c-89 165 -216
327 -388 495 l-102 100 25 105 c51 220 60 296 60 508 1 112 2 203 4 203 1 0
16 -15 32 -32z m-2145 -128 c104 -8 333 -45 343 -55 2 -2 -23 -41 -55 -87
-175 -247 -327 -523 -443 -808 -26 -62 -51 -115 -57 -117 -5 -2 -46 37 -91 86
-300 328 -414 616 -315 793 57 101 201 170 388 187 49 5 95 9 100 9 6 1 64 -3
130 -8z m790 -197 c271 -107 604 -291 843 -467 90 -67 102 -79 96 -99 -51
-167 -238 -560 -359 -752 -65 -104 -178 -267 -228 -328 l-23 -29 -157 62
c-183 72 -404 180 -564 277 -109 66 -318 208 -376 257 l-28 23 46 124 c105
279 303 643 484 887 71 96 86 112 105 106 11 -3 84 -31 161 -61z m-1580 -543
c73 -145 184 -288 357 -466 l138 -141 -24 -104 c-51 -217 -60 -294 -60 -506
l-1 -202 -29 27 c-62 59 -188 242 -251 363 -145 283 -212 606 -186 900 11 115
20 179 27 179 2 0 15 -23 29 -50z m2967 -448 c83 -111 158 -250 188 -350 28
-93 25 -205 -8 -268 -93 -180 -428 -244 -859 -163 -62 12 -113 23 -113 26 0 2
31 48 69 101 156 220 343 564 442 816 l43 109 84 -89 c46 -49 116 -131 154
-182z m-2115 -426 c243 -165 500 -303 765 -411 65 -26 115 -52 112 -57 -3 -5
-55 -53 -116 -108 -248 -223 -475 -338 -647 -328 -157 9 -253 114 -296 323
-22 104 -23 325 -1 465 16 107 37 210 42 210 1 0 65 -42 141 -94z m1259 -570
c180 -44 294 -59 499 -65 l199 -6 -66 -52 c-226 -180 -522 -311 -813 -359
-119 -20 -435 -25 -509 -8 l-38 9 89 54 c120 71 284 205 418 340 60 61 112
111 116 111 3 0 51 -11 105 -24z"/>
</g>
</svg>
