<svg xmlns="http://www.w3.org/2000/svg" viewBox="0 0 254.98 1111.97"><title>Ресурс 8</title><g id="Слой_2" data-name="Слой 2"><g id="содержание"><rect y="502.98" width="254.98" height="6.13"/><rect y="490.71" width="254.98" height="6.13"/><rect y="466.18" width="254.98" height="12.27"/><rect y="447.78" width="254.98" height="6.13"/><rect y="435.51" width="254.98" height="6.13"/><rect y="404.84" width="254.98" height="12.27"/><rect y="380.3" width="254.98" height="12.27"/><rect y="361.9" width="254.98" height="12.27"/><rect y="343.5" width="254.98" height="12.27"/><rect y="318.96" width="254.98" height="12.27"/><rect y="306.7" width="254.98" height="6.13"/><rect y="276.03" width="254.98" height="24.54"/><rect y="251.49" width="254.98" height="12.27"/><rect y="233.09" width="254.98" height="12.27"/><rect y="220.82" width="254.98" height="6.13"/><rect y="208.55" width="254.98" height="6.13"/><rect y="196.28" width="254.98" height="6.13"/><rect y="165.62" width="254.98" height="6.13"/><rect y="147.21" width="254.98" height="12.27"/><rect y="128.81" width="254.98" height="12.27"/><rect y="104.28" width="254.98" height="12.27"/><rect y="79.74" width="254.98" height="12.27"/><rect y="67.47" width="254.98" height="6.13"/><rect y="55.21" width="254.98" height="6.13"/><rect y="24.54" width="254.98" height="6.13"/><rect width="254.98" height="18.4"/><rect y="1105.84" width="254.98" height="6.13"/><rect y="1093.57" width="254.98" height="6.13"/><rect y="1069.03" width="254.98" height="12.27"/><rect y="1050.63" width="254.98" height="6.13"/><rect y="1038.36" width="254.98" height="6.13"/><rect y="1007.69" width="254.98" height="12.27"/><rect y="983.16" width="254.98" height="12.27"/><rect y="964.76" width="254.98" height="12.27"/><rect y="946.35" width="254.98" height="12.27"/><rect y="921.82" width="254.98" height="12.27"/><rect y="909.55" width="254.98" height="6.13"/><rect y="878.88" width="254.98" height="24.54"/><rect y="854.35" width="254.98" height="12.27"/><rect y="835.94" width="254.98" height="12.27"/><rect y="823.68" width="254.98" height="6.13"/><rect y="811.41" width="254.98" height="6.13"/><rect y="799.14" width="254.98" height="6.13"/><rect y="768.47" width="254.98" height="6.13"/><rect y="750.07" width="254.98" height="12.27"/><rect y="731.67" width="254.98" height="12.27"/><rect y="707.13" width="254.98" height="12.27"/><rect y="682.6" width="254.98" height="12.27"/><rect y="670.33" width="254.98" height="6.13"/><rect y="658.06" width="254.98" height="6.13"/><rect y="627.39" width="254.98" height="6.13"/><rect y="602.86" width="254.98" height="18.4"/><rect y="578.32" width="254.98" height="12.27"/><rect y="559.92" width="254.98" height="12.27"/><rect y="541.52" width="254.98" height="6.13"/><rect y="515.83" width="254.98" height="19.55"/></g></g></svg>