<svg xmlns="http://www.w3.org/2000/svg" viewBox="0 0 206.83 118.55"><defs><style>.cls-1{fill:#ffd800;}</style></defs><title>Ресурс 3</title><g id="Слой_2" data-name="Слой 2"><g id="Слой_1-2" data-name="Слой 1"><path class="cls-1" d="M83.55,7.62h0C32.38,27.27,7.38,82.34,6.38,84.67L4.91,88,0,99l11,4.89,3.3,1.47c2.34,1,57.79,25.19,108.94,5.54s76.18-74.72,77.22-77l1.47-3.31,4.9-11-11-4.89-3.3-1.47c-2.34-1-57.79-25.19-108.94-5.54Z"/><path d="M157.47,72.26c-10.35,10.39-23.34,20.18-39,26.21h0c-46.08,17.7-96.64-4.33-98.77-5.28l-2.14-1,1-2.15c1-2.13,23.76-52.35,69.83-70.05s96.64,4.33,98.77,5.28l2.15.95-1,2.15A161.92,161.92,0,0,1,157.47,72.26ZM116.76,94.09c39-15,61.22-55.52,66.17-65.39-10.29-4-54-19.23-92.94-4.27S28.78,79.94,23.83,89.81c10.29,4,54,19.23,92.93,4.28Z"/><path d="M124.63,80.45a30,30,0,1,1,6.75-31.95h0a30.08,30.08,0,0,1-6.76,32ZM85.45,41.38a25.33,25.33,0,1,0,8.85-5.75A25.32,25.32,0,0,0,85.45,41.38Z"/></g></g></svg>