<svg xmlns="http://www.w3.org/2000/svg" viewBox="0 0 1112 299.93"><defs><style>.cls-1,.cls-2{fill:none;}.cls-1{stroke:#fff;stroke-miterlimit:10;stroke-width:2px;}.cls-3{fill:#fff;}.cls-4{fill:#ffd800;}</style></defs><title>Ресурс 6</title><g id="Слой_2" data-name="Слой 2"><g id="содержание"><line class="cls-1" x1="134.63" y1="18.54" x2="6.11" y2="18.54"/><line class="cls-1" x1="273.38" y1="18.54" x2="144.85" y2="18.54"/><line class="cls-1" x1="412.12" y1="18.54" x2="283.6" y2="18.54"/><line class="cls-1" x1="550.87" y1="18.54" x2="422.34" y2="18.54"/><line class="cls-1" x1="1" y1="30.57" x2="1" y2="144.83"/><line class="cls-1" x1="36.38" y1="65.42" x2="104.36" y2="65.42"/><line class="cls-1" x1="30.56" y1="61.27" x2="10.37" y2="30.15"/><line class="cls-1" x1="30.56" y1="71.68" x2="5.79" y2="144.83"/><line class="cls-1" x1="139.74" y1="30.57" x2="139.74" y2="144.83"/><line class="cls-1" x1="110.19" y1="61.27" x2="130.37" y2="30.15"/><line class="cls-1" x1="110.19" y1="71.68" x2="134.96" y2="144.83"/><line class="cls-1" x1="134.63" y1="158.74" x2="6.11" y2="158.74"/><line class="cls-1" x1="273.38" y1="158.74" x2="144.85" y2="158.74"/><line class="cls-1" x1="412.12" y1="158.74" x2="283.6" y2="158.74"/><line class="cls-1" x1="550.87" y1="158.74" x2="422.34" y2="158.74"/><line class="cls-1" x1="555.98" y1="30.57" x2="555.98" y2="144.83"/><line class="cls-1" x1="1" y1="170.77" x2="1" y2="285.03"/><line class="cls-1" x1="36.38" y1="205.61" x2="104.36" y2="205.61"/><line class="cls-1" x1="30.56" y1="201.46" x2="10.37" y2="170.35"/><line class="cls-1" x1="30.56" y1="211.88" x2="5.79" y2="285.03"/><line class="cls-1" x1="139.74" y1="170.77" x2="139.74" y2="285.03"/><line class="cls-1" x1="110.19" y1="201.46" x2="130.37" y2="170.35"/><line class="cls-1" x1="110.19" y1="211.88" x2="134.96" y2="285.03"/><line class="cls-1" x1="134.63" y1="298.93" x2="6.11" y2="298.93"/><line class="cls-1" x1="273.38" y1="298.93" x2="144.85" y2="298.93"/><line class="cls-1" x1="412.12" y1="298.93" x2="283.6" y2="298.93"/><line class="cls-1" x1="550.87" y1="298.93" x2="422.34" y2="298.93"/><line class="cls-1" x1="689.66" y1="18.54" x2="561.13" y2="18.54"/><line class="cls-1" x1="828.4" y1="18.54" x2="699.88" y2="18.54"/><line class="cls-1" x1="967.15" y1="18.54" x2="838.62" y2="18.54"/><line class="cls-1" x1="1105.89" y1="18.54" x2="977.37" y2="18.54"/><line class="cls-1" x1="591.41" y1="65.42" x2="659.38" y2="65.42"/><line class="cls-1" x1="585.58" y1="61.27" x2="565.39" y2="30.15"/><line class="cls-1" x1="585.58" y1="71.68" x2="560.81" y2="144.83"/><line class="cls-1" x1="694.77" y1="30.57" x2="694.77" y2="144.83"/><line class="cls-1" x1="665.21" y1="61.27" x2="685.4" y2="30.15"/><line class="cls-1" x1="665.21" y1="71.68" x2="689.98" y2="144.83"/><line class="cls-1" x1="730.15" y1="65.42" x2="798.13" y2="65.42"/><line class="cls-1" x1="724.32" y1="61.27" x2="704.14" y2="30.15"/><line class="cls-1" x1="724.32" y1="71.68" x2="699.55" y2="144.83"/><line class="cls-1" x1="833.51" y1="30.57" x2="833.51" y2="144.83"/><line class="cls-1" x1="803.96" y1="61.27" x2="824.14" y2="30.15"/><line class="cls-1" x1="803.96" y1="71.68" x2="828.73" y2="144.83"/><line class="cls-1" x1="868.9" y1="65.42" x2="936.87" y2="65.42"/><line class="cls-1" x1="863.07" y1="61.27" x2="842.88" y2="30.15"/><line class="cls-1" x1="863.07" y1="71.68" x2="838.3" y2="144.83"/><line class="cls-1" x1="972.26" y1="30.57" x2="972.26" y2="144.83"/><line class="cls-1" x1="942.7" y1="61.27" x2="962.88" y2="30.15"/><line class="cls-1" x1="942.7" y1="71.68" x2="967.47" y2="144.83"/><line class="cls-1" x1="1007.64" y1="65.42" x2="1075.62" y2="65.42"/><line class="cls-1" x1="1001.81" y1="61.27" x2="981.63" y2="30.15"/><line class="cls-1" x1="1001.81" y1="71.68" x2="977.04" y2="144.83"/><line class="cls-1" x1="1111" y1="30.57" x2="1111" y2="144.83"/><line class="cls-1" x1="1081.44" y1="61.27" x2="1101.63" y2="30.15"/><line class="cls-1" x1="1081.44" y1="71.68" x2="1106.21" y2="144.83"/><line class="cls-1" x1="689.66" y1="158.74" x2="561.13" y2="158.74"/><line class="cls-1" x1="828.4" y1="158.74" x2="699.88" y2="158.74"/><line class="cls-1" x1="967.15" y1="158.74" x2="838.62" y2="158.74"/><line class="cls-1" x1="1105.89" y1="158.74" x2="977.37" y2="158.74"/><line class="cls-1" x1="651" y1="205.61" x2="659.34" y2="205.61"/><line class="cls-2" x1="585.53" y1="201.46" x2="565.35" y2="170.35"/><line class="cls-2" x1="585.53" y1="211.88" x2="560.76" y2="285.03"/><line class="cls-1" x1="694.72" y1="170.77" x2="694.72" y2="285.03"/><line class="cls-1" x1="665.17" y1="201.46" x2="685.35" y2="170.35"/><line class="cls-1" x1="665.17" y1="211.88" x2="689.93" y2="285.03"/><line class="cls-1" x1="730.1" y1="205.61" x2="798.08" y2="205.61"/><line class="cls-1" x1="724.28" y1="201.46" x2="704.09" y2="170.35"/><line class="cls-1" x1="724.28" y1="211.88" x2="699.51" y2="285.03"/><line class="cls-1" x1="833.46" y1="170.77" x2="833.46" y2="285.03"/><line class="cls-1" x1="803.91" y1="201.46" x2="824.09" y2="170.35"/><line class="cls-1" x1="803.91" y1="211.88" x2="828.68" y2="285.03"/><line class="cls-1" x1="868.85" y1="205.61" x2="936.83" y2="205.61"/><line class="cls-1" x1="863.02" y1="201.46" x2="842.84" y2="170.35"/><line class="cls-1" x1="863.02" y1="211.88" x2="838.25" y2="285.03"/><line class="cls-1" x1="972.21" y1="170.77" x2="972.21" y2="285.03"/><line class="cls-1" x1="942.65" y1="201.46" x2="962.84" y2="170.35"/><line class="cls-1" x1="942.65" y1="211.88" x2="967.42" y2="285.03"/><line class="cls-1" x1="1007.64" y1="205.61" x2="1075.62" y2="205.61"/><line class="cls-1" x1="1001.81" y1="201.46" x2="981.63" y2="170.35"/><line class="cls-1" x1="1001.81" y1="211.88" x2="977.04" y2="285.03"/><line class="cls-1" x1="1111" y1="170.77" x2="1111" y2="285.03"/><line class="cls-1" x1="1081.44" y1="201.46" x2="1101.63" y2="170.35"/><line class="cls-1" x1="1081.44" y1="211.88" x2="1106.21" y2="285.03"/><line class="cls-1" x1="689.66" y1="298.93" x2="561.13" y2="298.93"/><line class="cls-1" x1="828.4" y1="298.93" x2="699.88" y2="298.93"/><line class="cls-1" x1="967.15" y1="298.93" x2="838.62" y2="298.93"/><line class="cls-1" x1="1105.89" y1="298.93" x2="977.37" y2="298.93"/><path class="cls-3" d="M215.89,180.15c1.74,0,3.68,0,5.79.14a35.52,35.52,0,0,1,6.49.9,32.53,32.53,0,0,1,6.56,2.27,23,23,0,0,1,6,4.14,25.47,25.47,0,0,1,5,7.25q2.26,4.62,2.27,12.49t-2.21,13a25.47,25.47,0,0,1-5,7.73,22.89,22.89,0,0,1-6.42,4.76,33.22,33.22,0,0,1-7,2.55,36.35,36.35,0,0,1-6.83,1q-3.32.13-6.07.14H188.56v40.29H178.35v-96.6Zm-27.33,47.61h25.26a55.54,55.54,0,0,0,9.24-.83,17.5,17.5,0,0,0,9-4.41,16.6,16.6,0,0,0,3.87-5.45,21.79,21.79,0,0,0,1.65-9.18,19.25,19.25,0,0,0-1.65-8.56,20.11,20.11,0,0,0-3.45-5.1,16.37,16.37,0,0,0-4.35-2.9,24.81,24.81,0,0,0-5-1.66,34.33,34.33,0,0,0-5-.69c-1.62-.09-3.06-.13-4.35-.13H188.56Z"/><path class="cls-3" d="M270.81,180.15h41a74.74,74.74,0,0,1,14.28,1.24,21,21,0,0,1,11.11,6.21,27.91,27.91,0,0,1,4.48,6.84,25.06,25.06,0,0,1,2.14,11.1,31.92,31.92,0,0,1-1.24,9,21.88,21.88,0,0,1-4.55,8.15,19.55,19.55,0,0,1-5.73,4.69,31.7,31.7,0,0,1-5.31,2.21v.27a15.35,15.35,0,0,1,5.52,2.35,27,27,0,0,1,2.9,2.35,16.5,16.5,0,0,1,3,4.07,17.47,17.47,0,0,1,1.59,4.48,33,33,0,0,1,.62,4.69c.09,1.57.14,3.13.14,4.69l.27,10.91q.13,2.47.56,5.93a16.88,16.88,0,0,0,3.17,7.45h-11a25.4,25.4,0,0,1-1.79-3.93,28.77,28.77,0,0,1-1.38-8.63L330.15,254c-.09-1.65-.16-3.22-.21-4.69a20.45,20.45,0,0,0-.55-4.21,16.2,16.2,0,0,0-1.38-3.72,11,11,0,0,0-2.69-3.25,13.76,13.76,0,0,0-3.45-2.14,21.94,21.94,0,0,0-3.66-1.17,20.16,20.16,0,0,0-3.58-.48c-1.16,0-2.19-.07-3.11-.07H281v42.5H270.81ZM281,225.55h29.81a35.36,35.36,0,0,0,9.38-1.24,16.82,16.82,0,0,0,7.32-3.86,18,18,0,0,0,3.86-6.14,22,22,0,0,0,1.52-8.21,18.83,18.83,0,0,0-1.52-8.21,13.11,13.11,0,0,0-3.45-4.63,14.63,14.63,0,0,0-4.27-2.55,24.87,24.87,0,0,0-4.77-1.31,32.3,32.3,0,0,0-4.69-.48c-1.52,0-2.83-.07-3.93-.07H281Z"/><path class="cls-3" d="M433,222.38v8.69H381.35v37h58.1v8.69H371.14v-96.6h66.65v8.7H381.35v33.53Z"/><path class="cls-3" d="M465,246.25a21,21,0,0,0,2,10.22,25.44,25.44,0,0,0,4.34,6.34,22.91,22.91,0,0,0,10.42,6.08,44.15,44.15,0,0,0,12.08,1.79,41.18,41.18,0,0,0,11.45-1.59,21,21,0,0,0,9-4.9,19.29,19.29,0,0,0,3.86-5.65,17.25,17.25,0,0,0,1.52-7.32,16.88,16.88,0,0,0-1.24-6.48,16.2,16.2,0,0,0-3-5,14.91,14.91,0,0,0-4.2-3.11,46.64,46.64,0,0,0-10.35-3.79c-1.62-.37-2.93-.64-3.94-.83l-9.66-1.79q-3-.56-6.35-1.31a55.64,55.64,0,0,1-6.55-1.94,38.09,38.09,0,0,1-6.21-2.89,21.25,21.25,0,0,1-5.18-4.21,27.36,27.36,0,0,1-3.86-6,21,21,0,0,1-1.79-9.31,24.61,24.61,0,0,1,3.31-13,26.16,26.16,0,0,1,8.28-8.63,28,28,0,0,1,6.83-3.24,49.35,49.35,0,0,1,7-1.73,60.1,60.1,0,0,1,6.07-.69c1.79-.09,3.2-.13,4.21-.13a49.42,49.42,0,0,1,9.45.82,44.5,44.5,0,0,1,7.38,2.07,28.44,28.44,0,0,1,5.52,2.83,35.34,35.34,0,0,1,4,3.11c.27.27.82.9,1.65,1.86a26.49,26.49,0,0,1,2.62,3.8,33.46,33.46,0,0,1,2.56,5.65,31.85,31.85,0,0,1,1.58,7.59H517.55a21.44,21.44,0,0,0-6.35-13.38,19,19,0,0,0-8.62-4.42,44.37,44.37,0,0,0-10.42-1.24c-.55,0-1.43,0-2.62.07a30.84,30.84,0,0,0-4.07.48,45.58,45.58,0,0,0-4.83,1.18,19.61,19.61,0,0,0-4.63,2,16.16,16.16,0,0,0-5.93,6.14,16.85,16.85,0,0,0-2.07,8.21,12.56,12.56,0,0,0,1.24,5.93,18.49,18.49,0,0,0,2.49,3.73,17.83,17.83,0,0,0,7.52,4.55,78.74,78.74,0,0,0,9.59,2.49l9.11,1.79a111.48,111.48,0,0,1,14.42,3.73,29.59,29.59,0,0,1,11,6.34,23.28,23.28,0,0,1,7,17.81,30.86,30.86,0,0,1-2.21,11.93,25,25,0,0,1-6.07,8.9,25.84,25.84,0,0,1-6.63,4.42,36.23,36.23,0,0,1-7.31,2.48A52.3,52.3,0,0,1,501,279.1q-3.45.27-6.21.27-3.72,0-7.79-.34a51.88,51.88,0,0,1-8.22-1.38,36.29,36.29,0,0,1-8-3,28.82,28.82,0,0,1-7.18-5.31,34.52,34.52,0,0,1-6.07-9,31.22,31.22,0,0,1-2.9-14.08Z"/><path class="cls-3" d="M559.92,246.25a21,21,0,0,0,2,10.22,25.18,25.18,0,0,0,4.35,6.34,22.93,22.93,0,0,0,10.41,6.08,44.21,44.21,0,0,0,12.08,1.79,41.18,41.18,0,0,0,11.45-1.59,21,21,0,0,0,9-4.9,19.31,19.31,0,0,0,3.87-5.65,17.4,17.4,0,0,0,1.52-7.32,16.89,16.89,0,0,0-1.25-6.48,16.19,16.19,0,0,0-3-5,15.11,15.11,0,0,0-4.21-3.11,46.64,46.64,0,0,0-10.35-3.79c-1.61-.37-2.92-.64-3.93-.83l-9.66-1.79c-2-.37-4.14-.81-6.35-1.31a55.23,55.23,0,0,1-6.56-1.94,38.09,38.09,0,0,1-6.21-2.89,21,21,0,0,1-5.17-4.21,27.36,27.36,0,0,1-3.87-6,21.19,21.19,0,0,1-1.79-9.31,24.61,24.61,0,0,1,3.31-13,26.16,26.16,0,0,1,8.28-8.63,28.17,28.17,0,0,1,6.83-3.24,49.68,49.68,0,0,1,7-1.73,60.1,60.1,0,0,1,6.07-.69c1.8-.09,3.2-.13,4.21-.13a49.28,49.28,0,0,1,9.45.82,44.91,44.91,0,0,1,7.39,2.07,29,29,0,0,1,5.52,2.83,35.16,35.16,0,0,1,4,3.11c.28.27.83.9,1.66,1.86a27.33,27.33,0,0,1,2.62,3.8,32.71,32.71,0,0,1,2.55,5.65,32.33,32.33,0,0,1,1.59,7.59H612.5a21.44,21.44,0,0,0-6.35-13.38,19,19,0,0,0-8.63-4.42,44.37,44.37,0,0,0-10.42-1.24c-.55,0-1.42,0-2.62.07a31,31,0,0,0-4.07.48,45.58,45.58,0,0,0-4.83,1.18,19.72,19.72,0,0,0-4.62,2,16.12,16.12,0,0,0-5.94,6.14,16.85,16.85,0,0,0-2.07,8.21,12.56,12.56,0,0,0,1.25,5.93,18.09,18.09,0,0,0,2.48,3.73,17.89,17.89,0,0,0,7.52,4.55,78.74,78.74,0,0,0,9.59,2.49l9.11,1.79a111.48,111.48,0,0,1,14.42,3.73,29.51,29.51,0,0,1,11,6.34,24.68,24.68,0,0,1,4.9,6.9,24.34,24.34,0,0,1,2.14,10.91,30.86,30.86,0,0,1-2.21,11.93,25,25,0,0,1-6.07,8.9,25.62,25.62,0,0,1-6.62,4.42,36.32,36.32,0,0,1-7.32,2.48,52.16,52.16,0,0,1-7.17,1.11c-2.31.18-4.37.27-6.21.27q-3.74,0-7.8-.34a51.76,51.76,0,0,1-8.21-1.38,36.56,36.56,0,0,1-8-3,29,29,0,0,1-7.17-5.31,34.28,34.28,0,0,1-6.07-9,31.09,31.09,0,0,1-2.9-14.08Z"/><path class="cls-3" d="M181.51,106.51a21,21,0,0,0,2,10.2,25.63,25.63,0,0,0,4.34,6.34,22.81,22.81,0,0,0,10.4,6.06,43.64,43.64,0,0,0,12.06,1.79,41.48,41.48,0,0,0,11.44-1.58,21.12,21.12,0,0,0,8.95-4.89,19.42,19.42,0,0,0,3.86-5.65,17.36,17.36,0,0,0,1.52-7.31,17.05,17.05,0,0,0-1.24-6.47,16.51,16.51,0,0,0-3-5,15.29,15.29,0,0,0-4.21-3.1,44,44,0,0,0-5.23-2.27,46.14,46.14,0,0,0-5.1-1.52c-1.61-.36-2.92-.64-3.93-.82l-9.65-1.79q-3-.56-6.33-1.31a57,57,0,0,1-6.55-1.93,37.65,37.65,0,0,1-6.2-2.9,20.75,20.75,0,0,1-5.17-4.2,27.19,27.19,0,0,1-3.86-6,21.2,21.2,0,0,1-1.79-9.3,24.57,24.57,0,0,1,3.31-13,26.06,26.06,0,0,1,8.27-8.61A27.93,27.93,0,0,1,192.19,40a48.82,48.82,0,0,1,7-1.72,54.67,54.67,0,0,1,6.06-.69c1.79-.09,3.19-.14,4.2-.14a49.2,49.2,0,0,1,9.44.83,42.77,42.77,0,0,1,7.37,2.07,28.17,28.17,0,0,1,5.52,2.82,35,35,0,0,1,4,3.1c.28.28.83.9,1.66,1.86a26.94,26.94,0,0,1,2.61,3.79,33.06,33.06,0,0,1,2.55,5.65,32.25,32.25,0,0,1,1.59,7.58H234a20.92,20.92,0,0,0-2.2-7.72,21.2,21.2,0,0,0-4.14-5.65,19.09,19.09,0,0,0-8.61-4.41,44.8,44.8,0,0,0-10.4-1.24c-.56,0-1.43,0-2.62.07a29.39,29.39,0,0,0-4.07.49,43.5,43.5,0,0,0-4.82,1.17,19.72,19.72,0,0,0-4.62,2A16.11,16.11,0,0,0,186.61,56a16.82,16.82,0,0,0-2.07,8.2,12.52,12.52,0,0,0,1.24,5.92,18.4,18.4,0,0,0,2.48,3.72,17.85,17.85,0,0,0,7.51,4.55,78.57,78.57,0,0,0,9.58,2.48l9.09,1.79a110.77,110.77,0,0,1,14.4,3.72,29.6,29.6,0,0,1,11,6.34,23.28,23.28,0,0,1,7,17.78,30.8,30.8,0,0,1-2.21,11.92,25.07,25.07,0,0,1-6.06,8.89,26.37,26.37,0,0,1-6.62,4.41,36.77,36.77,0,0,1-7.3,2.48,53.42,53.42,0,0,1-7.17,1.1q-3.43.27-6.2.27-3.72,0-7.78-.34a51.64,51.64,0,0,1-8.2-1.38,36.68,36.68,0,0,1-8-3,28.78,28.78,0,0,1-7.17-5.31,34.37,34.37,0,0,1-6.06-9,31.19,31.19,0,0,1-2.9-14.06Z"/><path class="cls-3" d="M269.5,84.05h163v6.61h-163Z"/><path class="cls-3" d="M455.65,137h-11L481.28,40.5h11.44L529.37,137H518.21L508,109.27H466ZM505,100.59l-18.05-50.3-18.05,50.3Z"/><circle class="cls-4" cx="709.43" cy="50.45" r="50.45" transform="translate(11.07 185.1) rotate(-14.98)"/><polyline class="cls-4" points="690.62 84.33 651.49 101.54 673.43 64.72"/><path d="M707.58,13.33l5.08,26.54L714.52,63l-4.89.94L702.8,41.76l-5.08-26.54Zm1.3,60.19,9.87-1.89,2.06,10.75-9.87,1.89Z"/><path class="cls-4" d="M939.17,123.58h0C888,143.23,863,198.3,862,200.63l-1.47,3.31-4.91,11,11,4.89,3.3,1.47c2.34,1,57.79,25.19,108.94,5.54s76.18-74.72,77.22-77l1.47-3.31,4.9-11-11-4.89-3.3-1.47c-2.34-1-57.79-25.19-108.94-5.54Z"/><path d="M1013.09,188.22c-10.35,10.39-23.34,20.18-39,26.21h0c-46.08,17.7-96.64-4.33-98.77-5.28l-2.14-1,1-2.15c.95-2.13,23.76-52.35,69.83-70.05s96.64,4.33,98.77,5.28l2.15.95-1,2.15A162,162,0,0,1,1013.09,188.22Zm-40.71,21.83c39-15,61.22-55.52,66.17-65.39-10.29-4-54-19.23-92.94-4.27s-61.21,55.51-66.16,65.38c10.29,4,54,19.23,92.93,4.28Z"/><path d="M980.25,196.41A30,30,0,1,1,987,164.46h0a30.07,30.07,0,0,1-6.76,31.95Zm-39.18-39.07a25.32,25.32,0,1,0,8.85-5.75A25.21,25.21,0,0,0,941.07,157.34Z"/></g></g></svg>