<svg xmlns="http://www.w3.org/2000/svg" viewBox="0 0 1112 282.39"><defs><style>.cls-1,.cls-2{fill:none;}.cls-1{stroke:#fff;stroke-miterlimit:10;stroke-width:2px;}.cls-3{fill:#fff;}</style></defs><title>Ресурс 1</title><g id="Слой_2" data-name="Слой 2"><g id="Слой_1-2" data-name="Слой 1"><line class="cls-1" x1="134.63" y1="1" x2="6.11" y2="1"/><line class="cls-1" x1="273.38" y1="1" x2="144.85" y2="1"/><line class="cls-1" x1="412.12" y1="1" x2="283.6" y2="1"/><line class="cls-1" x1="550.87" y1="1" x2="422.34" y2="1"/><line class="cls-1" x1="1" y1="13.03" x2="1" y2="127.29"/><line class="cls-1" x1="36.38" y1="47.88" x2="104.36" y2="47.88"/><line class="cls-1" x1="30.56" y1="43.73" x2="10.37" y2="12.61"/><line class="cls-1" x1="30.56" y1="54.14" x2="5.79" y2="127.29"/><line class="cls-1" x1="139.74" y1="13.03" x2="139.74" y2="127.29"/><line class="cls-1" x1="110.19" y1="43.73" x2="130.37" y2="12.61"/><line class="cls-1" x1="110.19" y1="54.14" x2="134.96" y2="127.29"/><line class="cls-1" x1="134.63" y1="141.2" x2="6.11" y2="141.2"/><line class="cls-1" x1="273.38" y1="141.2" x2="144.85" y2="141.2"/><line class="cls-1" x1="412.12" y1="141.2" x2="283.6" y2="141.2"/><line class="cls-1" x1="550.87" y1="141.2" x2="422.34" y2="141.2"/><line class="cls-1" x1="555.98" y1="13.03" x2="555.98" y2="127.29"/><line class="cls-1" x1="1" y1="153.23" x2="1" y2="267.49"/><line class="cls-1" x1="36.38" y1="188.07" x2="104.36" y2="188.07"/><line class="cls-1" x1="30.56" y1="183.92" x2="10.37" y2="152.81"/><line class="cls-1" x1="30.56" y1="194.34" x2="5.79" y2="267.49"/><line class="cls-1" x1="139.74" y1="153.23" x2="139.74" y2="267.49"/><line class="cls-1" x1="110.19" y1="183.92" x2="130.37" y2="152.81"/><line class="cls-1" x1="110.19" y1="194.34" x2="134.96" y2="267.49"/><line class="cls-1" x1="134.63" y1="281.39" x2="6.11" y2="281.39"/><line class="cls-1" x1="273.38" y1="281.39" x2="144.85" y2="281.39"/><line class="cls-1" x1="412.12" y1="281.39" x2="283.6" y2="281.39"/><line class="cls-1" x1="550.87" y1="281.39" x2="422.34" y2="281.39"/><line class="cls-1" x1="689.66" y1="1" x2="561.13" y2="1"/><line class="cls-1" x1="828.4" y1="1" x2="699.88" y2="1"/><line class="cls-1" x1="967.15" y1="1" x2="838.62" y2="1"/><line class="cls-1" x1="1105.89" y1="1" x2="977.37" y2="1"/><line class="cls-1" x1="591.41" y1="47.88" x2="659.38" y2="47.88"/><line class="cls-1" x1="585.58" y1="43.73" x2="565.39" y2="12.61"/><line class="cls-1" x1="585.58" y1="54.14" x2="560.81" y2="127.29"/><line class="cls-1" x1="694.77" y1="13.03" x2="694.77" y2="127.29"/><line class="cls-1" x1="665.21" y1="43.73" x2="685.4" y2="12.61"/><line class="cls-1" x1="665.21" y1="54.14" x2="689.98" y2="127.29"/><line class="cls-1" x1="730.15" y1="47.88" x2="798.13" y2="47.88"/><line class="cls-1" x1="724.32" y1="43.73" x2="704.14" y2="12.61"/><line class="cls-1" x1="724.32" y1="54.14" x2="699.55" y2="127.29"/><line class="cls-1" x1="833.51" y1="13.03" x2="833.51" y2="127.29"/><line class="cls-1" x1="803.96" y1="43.73" x2="824.14" y2="12.61"/><line class="cls-1" x1="803.96" y1="54.14" x2="828.73" y2="127.29"/><line class="cls-1" x1="868.9" y1="47.88" x2="936.87" y2="47.88"/><line class="cls-1" x1="863.07" y1="43.73" x2="842.88" y2="12.61"/><line class="cls-1" x1="863.07" y1="54.14" x2="838.3" y2="127.29"/><line class="cls-1" x1="972.26" y1="13.03" x2="972.26" y2="127.29"/><line class="cls-1" x1="942.7" y1="43.73" x2="962.88" y2="12.61"/><line class="cls-1" x1="942.7" y1="54.14" x2="967.47" y2="127.29"/><line class="cls-1" x1="1007.64" y1="47.88" x2="1075.62" y2="47.88"/><line class="cls-1" x1="1001.81" y1="43.73" x2="981.63" y2="12.61"/><line class="cls-1" x1="1001.81" y1="54.14" x2="977.04" y2="127.29"/><line class="cls-1" x1="1111" y1="13.03" x2="1111" y2="127.29"/><line class="cls-1" x1="1081.44" y1="43.73" x2="1101.63" y2="12.61"/><line class="cls-1" x1="1081.44" y1="54.14" x2="1106.21" y2="127.29"/><line class="cls-1" x1="689.66" y1="141.2" x2="561.13" y2="141.2"/><line class="cls-1" x1="828.4" y1="141.2" x2="699.88" y2="141.2"/><line class="cls-1" x1="967.15" y1="141.2" x2="838.62" y2="141.2"/><line class="cls-1" x1="1105.89" y1="141.2" x2="977.37" y2="141.2"/><line class="cls-1" x1="651" y1="188.07" x2="659.34" y2="188.07"/><line class="cls-2" x1="585.53" y1="183.92" x2="565.35" y2="152.81"/><line class="cls-2" x1="585.53" y1="194.34" x2="560.76" y2="267.49"/><line class="cls-1" x1="694.72" y1="153.23" x2="694.72" y2="267.49"/><line class="cls-1" x1="665.17" y1="183.92" x2="685.35" y2="152.81"/><line class="cls-1" x1="665.17" y1="194.34" x2="689.93" y2="267.49"/><line class="cls-1" x1="730.1" y1="188.07" x2="798.08" y2="188.07"/><line class="cls-1" x1="724.28" y1="183.92" x2="704.09" y2="152.81"/><line class="cls-1" x1="724.28" y1="194.34" x2="699.51" y2="267.49"/><line class="cls-1" x1="833.46" y1="153.23" x2="833.46" y2="267.49"/><line class="cls-1" x1="803.91" y1="183.92" x2="824.09" y2="152.81"/><line class="cls-1" x1="803.91" y1="194.34" x2="828.68" y2="267.49"/><line class="cls-1" x1="868.85" y1="188.07" x2="936.83" y2="188.07"/><line class="cls-1" x1="863.02" y1="183.92" x2="842.84" y2="152.81"/><line class="cls-1" x1="863.02" y1="194.34" x2="838.25" y2="267.49"/><line class="cls-1" x1="972.21" y1="153.23" x2="972.21" y2="267.49"/><line class="cls-1" x1="942.65" y1="183.92" x2="962.84" y2="152.81"/><line class="cls-1" x1="942.65" y1="194.34" x2="967.42" y2="267.49"/><line class="cls-1" x1="1007.64" y1="188.07" x2="1075.62" y2="188.07"/><line class="cls-1" x1="1001.81" y1="183.92" x2="981.63" y2="152.81"/><line class="cls-1" x1="1001.81" y1="194.34" x2="977.04" y2="267.49"/><line class="cls-1" x1="1111" y1="153.23" x2="1111" y2="267.49"/><line class="cls-1" x1="1081.44" y1="183.92" x2="1101.63" y2="152.81"/><line class="cls-1" x1="1081.44" y1="194.34" x2="1106.21" y2="267.49"/><line class="cls-1" x1="689.66" y1="281.39" x2="561.13" y2="281.39"/><line class="cls-1" x1="828.4" y1="281.39" x2="699.88" y2="281.39"/><line class="cls-1" x1="967.15" y1="281.39" x2="838.62" y2="281.39"/><line class="cls-1" x1="1105.89" y1="281.39" x2="977.37" y2="281.39"/><path class="cls-3" d="M215.89,162.61c1.74,0,3.68,0,5.79.14a35.46,35.46,0,0,1,6.49.9,32.45,32.45,0,0,1,6.56,2.27,23,23,0,0,1,6,4.14,25.32,25.32,0,0,1,5,7.25Q248,181.93,248,189.8a32.73,32.73,0,0,1-2.21,13,25.42,25.42,0,0,1-5,7.73,22.92,22.92,0,0,1-6.42,4.76,33,33,0,0,1-7,2.55,36.66,36.66,0,0,1-6.83,1c-2.21.09-4.24.13-6.07.14H188.56v40.29H178.35v-96.6Zm-27.33,47.61h25.26a56.08,56.08,0,0,0,9.24-.83,17.46,17.46,0,0,0,9-4.41,16.64,16.64,0,0,0,3.87-5.45,21.74,21.74,0,0,0,1.65-9.18,19.24,19.24,0,0,0-1.65-8.56,20.1,20.1,0,0,0-3.45-5.1,16.53,16.53,0,0,0-4.35-2.9,24.45,24.45,0,0,0-5-1.66,35.16,35.16,0,0,0-5-.69c-1.62-.09-3.06-.13-4.35-.13H188.56Z"/><path class="cls-3" d="M270.81,162.61h41a74.33,74.33,0,0,1,14.28,1.24,21,21,0,0,1,11.11,6.21,28,28,0,0,1,4.48,6.84,25.09,25.09,0,0,1,2.14,11.1,31.9,31.9,0,0,1-1.24,9,21.81,21.81,0,0,1-4.55,8.15,19.52,19.52,0,0,1-5.73,4.69,31.16,31.16,0,0,1-5.31,2.21v.27a15.28,15.28,0,0,1,5.52,2.35,27.31,27.31,0,0,1,2.9,2.35,16.42,16.42,0,0,1,3,4.07,17.34,17.34,0,0,1,1.59,4.48,32.21,32.21,0,0,1,.62,4.69c.09,1.57.14,3.13.14,4.69l.27,10.91c.09,1.65.27,3.62.56,5.93a16.89,16.89,0,0,0,3.17,7.45h-11a24.84,24.84,0,0,1-1.79-3.93,28.74,28.74,0,0,1-1.38-8.63l-.44-10.22c-.09-1.65-.16-3.22-.21-4.69a20.58,20.58,0,0,0-.55-4.21,16.48,16.48,0,0,0-1.38-3.72,11,11,0,0,0-2.69-3.25,13.82,13.82,0,0,0-3.45-2.14,21.36,21.36,0,0,0-3.66-1.17,19.63,19.63,0,0,0-3.58-.48c-1.16,0-2.19-.07-3.11-.07H281v42.5H270.81ZM281,208h29.81a35.38,35.38,0,0,0,9.38-1.24,16.83,16.83,0,0,0,7.32-3.86,18,18,0,0,0,3.86-6.14,21.94,21.94,0,0,0,1.52-8.21,19,19,0,0,0-1.52-8.21,13.11,13.11,0,0,0-3.45-4.63,14.59,14.59,0,0,0-4.27-2.55,25.33,25.33,0,0,0-4.77-1.31,33.58,33.58,0,0,0-4.69-.48c-1.52,0-2.83-.07-3.93-.07H281Z"/><path class="cls-3" d="M433,204.84v8.69H381.35v37h58.1v8.69H371.14v-96.6h66.65v8.7H381.35v33.53Z"/><path class="cls-3" d="M465,228.71a21.06,21.06,0,0,0,2,10.22,25.48,25.48,0,0,0,4.34,6.34,23,23,0,0,0,10.42,6.08,44.09,44.09,0,0,0,12.08,1.79,41.06,41.06,0,0,0,11.45-1.59,21.06,21.06,0,0,0,9-4.9,19.36,19.36,0,0,0,3.86-5.65,17.26,17.26,0,0,0,1.52-7.32,16.75,16.75,0,0,0-1.24-6.48,16.33,16.33,0,0,0-3-5,14.89,14.89,0,0,0-4.2-3.11,46.54,46.54,0,0,0-10.35-3.79c-1.62-.37-2.93-.64-3.94-.83l-9.66-1.79q-3-.56-6.35-1.31a55.29,55.29,0,0,1-6.55-1.94,37.65,37.65,0,0,1-6.21-2.89,21,21,0,0,1-5.18-4.21,27.43,27.43,0,0,1-3.86-6,21,21,0,0,1-1.79-9.31,24.57,24.57,0,0,1,3.31-13,26.18,26.18,0,0,1,8.28-8.63,28.33,28.33,0,0,1,6.83-3.24,49.69,49.69,0,0,1,7-1.73c2-.33,4-.56,6.07-.69,1.79-.09,3.2-.13,4.21-.13a49.12,49.12,0,0,1,9.45.82,44.91,44.91,0,0,1,7.38,2.07,28.48,28.48,0,0,1,5.52,2.83,35.4,35.4,0,0,1,4,3.11c.27.27.82.9,1.65,1.86a26.72,26.72,0,0,1,2.62,3.8,33.4,33.4,0,0,1,2.56,5.65,32.34,32.34,0,0,1,1.58,7.59H517.55A21.43,21.43,0,0,0,511.2,174a19,19,0,0,0-8.62-4.42,44.59,44.59,0,0,0-10.42-1.24c-.55,0-1.43,0-2.62.07a30.75,30.75,0,0,0-4.07.48,47.22,47.22,0,0,0-4.83,1.18,19.59,19.59,0,0,0-4.63,2,16.19,16.19,0,0,0-5.93,6.14,16.83,16.83,0,0,0-2.07,8.21,12.54,12.54,0,0,0,1.24,5.93,18.66,18.66,0,0,0,2.49,3.73,17.88,17.88,0,0,0,7.52,4.55,79,79,0,0,0,9.59,2.49l9.11,1.79a112.22,112.22,0,0,1,14.42,3.73,29.59,29.59,0,0,1,11,6.34,23.26,23.26,0,0,1,7,17.81,30.85,30.85,0,0,1-2.21,11.93,24.94,24.94,0,0,1-6.07,8.9,25.68,25.68,0,0,1-6.63,4.42,36.2,36.2,0,0,1-7.31,2.48,52.45,52.45,0,0,1-7.16,1.09q-3.45.27-6.21.27-3.72,0-7.79-.34a52.06,52.06,0,0,1-8.22-1.38,36.22,36.22,0,0,1-8-3,29,29,0,0,1-7.18-5.31,34.51,34.51,0,0,1-6.07-9,31.2,31.2,0,0,1-2.9-14.08Z"/><path class="cls-3" d="M559.92,228.71a21.06,21.06,0,0,0,2,10.22,25.25,25.25,0,0,0,4.35,6.34,22.93,22.93,0,0,0,10.41,6.08,44.09,44.09,0,0,0,12.08,1.79,41.06,41.06,0,0,0,11.45-1.59,21.06,21.06,0,0,0,9-4.9,19.2,19.2,0,0,0,3.87-5.65,17.41,17.41,0,0,0,1.52-7.32,17,17,0,0,0-1.25-6.48,16.33,16.33,0,0,0-3-5,15.13,15.13,0,0,0-4.21-3.11,46.54,46.54,0,0,0-10.35-3.79c-1.61-.37-2.92-.64-3.93-.83l-9.66-1.79c-2-.37-4.14-.81-6.35-1.31a55.45,55.45,0,0,1-6.56-1.94,37.65,37.65,0,0,1-6.21-2.89,21,21,0,0,1-5.17-4.21,27.1,27.1,0,0,1-3.87-6,21.28,21.28,0,0,1-1.79-9.31,24.57,24.57,0,0,1,3.31-13,26.18,26.18,0,0,1,8.28-8.63,28.33,28.33,0,0,1,6.83-3.24,49.69,49.69,0,0,1,7-1.73c2-.33,4-.56,6.07-.69,1.8-.09,3.2-.13,4.21-.13a49.12,49.12,0,0,1,9.45.82,45,45,0,0,1,7.39,2.07,28.48,28.48,0,0,1,5.52,2.83,35.4,35.4,0,0,1,4,3.11c.28.27.83.9,1.66,1.86a26.72,26.72,0,0,1,2.62,3.8,32.15,32.15,0,0,1,4.14,13.24H612.5A21.43,21.43,0,0,0,606.15,174a19,19,0,0,0-8.63-4.42,44.59,44.59,0,0,0-10.42-1.24c-.55,0-1.42,0-2.62.07a30.75,30.75,0,0,0-4.07.48,47.22,47.22,0,0,0-4.83,1.18,19.94,19.94,0,0,0-4.62,2,16.14,16.14,0,0,0-5.94,6.14,16.83,16.83,0,0,0-2.07,8.21,12.67,12.67,0,0,0,1.25,5.93,18.2,18.2,0,0,0,2.48,3.73,17.88,17.88,0,0,0,7.52,4.55,79,79,0,0,0,9.59,2.49l9.11,1.79a112.22,112.22,0,0,1,14.42,3.73,29.46,29.46,0,0,1,11,6.34,24.63,24.63,0,0,1,4.9,6.9,24.25,24.25,0,0,1,2.14,10.91,30.85,30.85,0,0,1-2.21,11.93,24.94,24.94,0,0,1-6.07,8.9,25.62,25.62,0,0,1-6.62,4.42,36.29,36.29,0,0,1-7.32,2.48,51.13,51.13,0,0,1-7.17,1.11c-2.31.18-4.37.27-6.21.27q-3.74,0-7.8-.34a51.94,51.94,0,0,1-8.21-1.38,36.41,36.41,0,0,1-8-3,29,29,0,0,1-7.17-5.31,34.26,34.26,0,0,1-6.07-9,31.07,31.07,0,0,1-2.9-14.08Z"/><path class="cls-3" d="M181.51,89a21,21,0,0,0,2,10.2,25.48,25.48,0,0,0,4.34,6.34,22.81,22.81,0,0,0,10.4,6.06,43.63,43.63,0,0,0,12.06,1.79,41.35,41.35,0,0,0,11.44-1.58,21,21,0,0,0,8.95-4.89,19.36,19.36,0,0,0,3.86-5.65,17.37,17.37,0,0,0,1.52-7.31,17.08,17.08,0,0,0-1.24-6.47,16.65,16.65,0,0,0-3-5,15.1,15.1,0,0,0-4.21-3.1,43.25,43.25,0,0,0-5.23-2.27,47.42,47.42,0,0,0-5.1-1.52c-1.61-.36-2.92-.64-3.93-.82L203.72,73q-3-.55-6.33-1.31a57.19,57.19,0,0,1-6.55-1.93,38,38,0,0,1-6.2-2.9,20.72,20.72,0,0,1-5.17-4.2,27.43,27.43,0,0,1-3.86-6,21.24,21.24,0,0,1-1.79-9.3,24.57,24.57,0,0,1,3.31-13,26,26,0,0,1,8.27-8.61,28.09,28.09,0,0,1,6.79-3.25,48.31,48.31,0,0,1,7-1.72,56.19,56.19,0,0,1,6.06-.69c1.79-.09,3.19-.14,4.2-.14a49,49,0,0,1,9.44.83,42.92,42.92,0,0,1,7.37,2.07,27.89,27.89,0,0,1,5.52,2.82,35.31,35.31,0,0,1,4,3.1c.28.28.83.9,1.66,1.86a26.56,26.56,0,0,1,2.61,3.79A32.59,32.59,0,0,1,242.6,40a32.18,32.18,0,0,1,1.59,7.58H234a21.07,21.07,0,0,0-2.2-7.72,21.33,21.33,0,0,0-4.14-5.65,19.16,19.16,0,0,0-8.61-4.41,45,45,0,0,0-10.4-1.24c-.56,0-1.43,0-2.62.07a29.18,29.18,0,0,0-4.07.49,44,44,0,0,0-4.82,1.17,19.94,19.94,0,0,0-4.62,2,16.06,16.06,0,0,0-5.91,6.14,16.76,16.76,0,0,0-2.07,8.2,12.47,12.47,0,0,0,1.24,5.92,18.27,18.27,0,0,0,2.48,3.72,17.9,17.9,0,0,0,7.51,4.55,77.43,77.43,0,0,0,9.58,2.48l9.09,1.79a111.47,111.47,0,0,1,14.4,3.72,29.59,29.59,0,0,1,11,6.34,23.27,23.27,0,0,1,7,17.78,30.8,30.8,0,0,1-2.21,11.92,25,25,0,0,1-6.06,8.89,26.28,26.28,0,0,1-6.62,4.41,37,37,0,0,1-7.3,2.48,52.61,52.61,0,0,1-7.17,1.1c-2.29.18-4.35.27-6.2.27q-3.72,0-7.78-.34a51.63,51.63,0,0,1-8.2-1.38,36.41,36.41,0,0,1-8-3,29,29,0,0,1-7.17-5.31,34.47,34.47,0,0,1-6.06-9,31.15,31.15,0,0,1-2.9-14.06Z"/><path class="cls-3" d="M269.5,66.51h163v6.61h-163Z"/><path class="cls-3" d="M455.65,119.46h-11L481.28,23h11.44l36.65,96.5H518.21L508,91.73H466ZM505,83.05,487,32.75,468.9,83.05Z"/></g></g></svg>