<svg xmlns="http://www.w3.org/2000/svg" viewBox="0 0 263.51 254.79"><defs><style>.cls-1,.cls-2,.cls-4{fill-rule:evenodd;}.cls-2{fill:#fff;}.cls-3,.cls-4{fill:#1d1d1b;}</style></defs><title>Ресурс 2</title><g id="Слой_2" data-name="Слой 2"><g id="Layer_1" data-name="Layer 1"><path class="cls-1" d="M131.77,204.39a102.2,102.2,0,1,1,101.7-102.68,102.2,102.2,0,0,1-101.7,102.68Z"/><path class="cls-2" d="M131.76,202.7a100.51,100.51,0,1,1,100-101,100.52,100.52,0,0,1-100,101Z"/><path class="cls-3" d="M160,17.66a2.23,2.23,0,1,1-2.77,1.53A2.24,2.24,0,0,1,160,17.66Z"/><path class="cls-3" d="M131.68,188a2.24,2.24,0,1,1-2.77,1.53,2.24,2.24,0,0,1,2.77-1.53Z"/><path d="M47.78,61.14h0Zm.23.07.13,0,0,0h0A.46.46,0,0,0,48.4,61l.18-.26.18-.21a.5.5,0,0,1,.19-.13h.11l.14,0a1,1,0,0,1,.25.13l1.37.85.81.5.82.52,0,0,2.42,1.52h0l.95.59,0,0,.85.54c.39.26.69.46.9.62l.11.08v0l.09.08h0l.23.21a1.77,1.77,0,0,1,.14.17h0a.13.13,0,0,1,0,.07v0l-.19.41A.42.42,0,0,0,58,67v0h0a.66.66,0,0,0,.06.2l0,.06.06.06.05,0a.48.48,0,0,0,.23.07h0a.51.51,0,0,0,.35-.17l.06-.08.06-.07v0l0-.05.79-1.34h0l3.66-5.85.22-.32.23-.33h0v0c.14-.2.28-.43.44-.68l.11-.16,0,0,.13-.2h0a.75.75,0,0,0,.07-.18l0-.06v0h0l2.5-4,.21-.31.25-.36.29-.45.37-.57,0,0a.71.71,0,0,0,.14-.35.15.15,0,0,1,0-.06.44.44,0,0,0-.21-.37l0,0-.08,0H68l-.13,0h0l-.08,0h0l-.1.06,0,.05s0,0,0,0l-.45.58a.35.35,0,0,1-.15.12h0l-.08,0h0l-.21-.05a2.33,2.33,0,0,1-.36-.15c-.21-.1-.49-.25-.82-.45l-.2-.12h0l-.22-.13h0l-.84-.52-.88-.54-2.44-1.54h0l-1.78-1.12L57.93,47c-.26-.17-.36-.32-.37-.44v0a.35.35,0,0,0,0-.06.54.54,0,0,1,0-.1l.17-.35a.55.55,0,0,0,.07-.25v0a.43.43,0,0,0-.21-.34.48.48,0,0,0-.23-.07l-.09,0a.39.39,0,0,0-.14,0,.82.82,0,0,0-.24.25h0L56.11,47l-1,1.54h0a.68.68,0,0,0-.13.32V49a.43.43,0,0,0,.2.37h0a.44.44,0,0,0,.22.07.45.45,0,0,0,.16,0,.47.47,0,0,0,.23-.21,2.81,2.81,0,0,1,.27-.36l.05-.06,0,0h0v0a.6.6,0,0,1,.13-.09.28.28,0,0,1,.13,0l0-.05v0l.15,0a1.8,1.8,0,0,1,.25.12h0l.56.35.89.56L60,50.68l2.3,1.44,1,.6.86.56h0l.67.45.37.28,0,0,.25.24v0h0v0L62.9,58.2h0v0l-.07,0,0,0-.05,0h0l0,0c-.23-.11-.53-.27-.88-.47l-.2-.13-.22-.13h0l-.84-.52-.88-.54L57.21,54.8l-1.41-.88-.39-.25h0L54.29,53l-.08,0h0c-.25-.16-.34-.31-.35-.43l0,0h0a.15.15,0,0,1,0-.06.29.29,0,0,1,0-.09l.18-.37a.56.56,0,0,0,.07-.24v0a.43.43,0,0,0-.2-.32h0a.31.31,0,0,0-.1-.05h-.05s0,0-.08,0a.41.41,0,0,0-.24.08.72.72,0,0,0-.24.25h0l0,0L52.39,53l-.92,1.37h0l0,0a.51.51,0,0,0-.1.27v0a.41.41,0,0,0,.18.35h0l0,0h0a.39.39,0,0,0,.2,0,.4.4,0,0,0,.15,0h0a.48.48,0,0,0,.21-.19h0l.06-.08a.76.76,0,0,1,.08-.11h0a.36.36,0,0,1,.1-.11l0,0h0l0,0a.34.34,0,0,1,.24-.1.88.88,0,0,1,.43.15l.64.41.72.45.78.48.86.54h0l2.44,1.53h0l1.35.86.24.16.23.14h0c.37.24.67.45.86.59h0l.12.09.07.06h0l.2.17v0h0l-2.43,3.89L59.11,64l0,0,0,0h0l0,0-.59-.31-.73-.43-.83-.51L56,62.18h0L53.7,60.74l-.79-.49-1.06-.66h0L50.91,59l-.36-.23-.08.13.07-.13h0c-.25-.16-.35-.31-.35-.43h0v-.06l0-.1.17-.36h0a.53.53,0,0,0,.06-.24v0a.41.41,0,0,0-.17-.31h0a.46.46,0,0,0-.24-.08.48.48,0,0,0-.24.07h0a.76.76,0,0,0-.24.26h0l-.81,1.39-1,1.53h0a.75.75,0,0,0-.12.32.13.13,0,0,0,0,.06.45.45,0,0,0,.2.36A.46.46,0,0,0,48,61.21Zm17.37-7v0h0Zm-6.09,9.87h0ZM64.58,58s0,0,0,0h0Zm-6.73,7.87Zm7.24-14.41Zm.27,2.82Zm52.29-30.59Zm.52-.57h0Zm8.73-1.18h0a.42.42,0,0,0-.19-.3.5.5,0,0,0-.27-.08h-.54l-.19,0h0a.43.43,0,0,1-.15-.06,2.08,2.08,0,0,1-.26-.18,3.43,3.43,0,0,1-.43-.47c-.15-.2-.31-.44-.48-.71h0l-1-1.69c-.31-.55-.62-1.09-.91-1.62h0c-.36-.63-.82-1.47-1.4-2.53l-.34-.62L120.4,13h0c-.3-.54-.58-1-.84-1.53l-.17-.3-.16-.3h0c-.06-.12-.12-.22-.17-.31h0l-.15-.21a.59.59,0,0,0-.27-.17h-.08s0,0,0,0h-.07a.43.43,0,0,0-.26.13.67.67,0,0,0-.14.19,3.29,3.29,0,0,0-.11.4v0l0,.07v0l0,.09,0-.05,0,.06L115.61,21.7a4.33,4.33,0,0,1-.24.82s0,.07,0,.11h0a.36.36,0,0,1,0,.09v0a.92.92,0,0,1-.36.35h0l-.1.05h.06l-.16,0-.43.06h0a.51.51,0,0,0-.31.12h0a.41.41,0,0,0-.14.31.13.13,0,0,0,0,.06h0a.43.43,0,0,0,.34.38.5.5,0,0,0,.18,0h.18L115,24l.48-.09h0l.49-.08c.13,0,.26,0,.4-.06l1.28-.13a.62.62,0,0,0,.46-.25h0a.31.31,0,0,0,.06-.13s0-.07,0-.11v-.05h0v0a.4.4,0,0,0-.25-.32.45.45,0,0,0-.2,0h-.08l-.17,0h-.27l0,0h0a.2.2,0,0,1,0-.05,1,1,0,0,1,0-.25,2.91,2.91,0,0,1,0-.4,1,1,0,0,1,0-.16l0-.17v0l0-.05v0L118,17.8h0l.72-4,1.87,3.63,0,0,.38.72v0L123,22h0v0a.76.76,0,0,0-.09.09.45.45,0,0,0-.1.27.15.15,0,0,0,0,.07h0a.43.43,0,0,0,.43.35h.1l.34,0,2.56-.31h0a.69.69,0,0,0,.48-.21h0a.35.35,0,0,0,.08-.13.68.68,0,0,0,0-.14h0v0Zm-11.6.77,0,0h0l0,0h0Zm2.32.07h0ZM123,22.1ZM93.7,18.37h0ZM102.48,21a6.81,6.81,0,0,0-.31-.74v0A7,7,0,0,0,100.61,18a5.62,5.62,0,0,0-2.18-1.27,6.39,6.39,0,0,0-1.94-.3l-.59,0a7.77,7.77,0,0,0-2.62.73A6.63,6.63,0,0,0,90.16,20h0a4.74,4.74,0,0,0-.34.72,6.64,6.64,0,0,0-.26.79h0v0a6.7,6.7,0,0,0-.24,1.78,5.44,5.44,0,0,0,0,.57A6.51,6.51,0,0,0,90,26.19a7.54,7.54,0,0,0,1.39,2.06,6.82,6.82,0,0,0,2,1.4,6,6,0,0,0,2.57.58,6.37,6.37,0,0,0,1.36-.15,4.81,4.81,0,0,0,.8-.23c.27-.09.55-.2.82-.32l0,0a7.1,7.1,0,0,0,2.29-1.64,6.21,6.21,0,0,0,1.36-2.37,6.57,6.57,0,0,0,.36-2.13,6.67,6.67,0,0,0-.21-1.65C102.64,21.47,102.56,21.23,102.48,21Zm-1.41,3.61a3,3,0,0,1,0,.42h0v0a4.15,4.15,0,0,1-.29,1.1,3.89,3.89,0,0,1-.62,1l0,.05a4.64,4.64,0,0,1-.6.54,5,5,0,0,1-.74.45,4.52,4.52,0,0,1-1.92.45h0a4.7,4.7,0,0,1-1.92-.44,5.68,5.68,0,0,1-2.39-2.07c-.13-.19-.26-.39-.37-.59s-.23-.43-.34-.67h0a6.7,6.7,0,0,1-.64-2.14,3.44,3.44,0,0,1,0-.54,4,4,0,0,1,1.65-3.24,4.61,4.61,0,0,1,.43-.29l.49-.25h0l0,0h0A4.41,4.41,0,0,1,95.45,18h.06a4.42,4.42,0,0,1,1.73.37,5.48,5.48,0,0,1,2.38,2l.37.59c.11.21.23.43.33.66h0a7.61,7.61,0,0,1,.72,2.55c0,.12,0,.25,0,.37ZM79.21,40.91l-.07,0-.06,0a.69.69,0,0,0-.2,0,.39.39,0,0,0-.25.08l-.53.33a.29.29,0,0,1-.19.06h0a1.39,1.39,0,0,1-.29-.21L77.49,41l-.08-.08h0l0,0c-.16-.16-.36-.39-.6-.68L76.63,40l-.16-.2h0l-.61-.76-.64-.82-.48-.62.66.12,2.3.38c1.31.2,2.27.34,2.88.41l.33,0,.25,0h1a3.63,3.63,0,0,0,.77-.14,3.51,3.51,0,0,0,.68-.32l.11-.07.14-.1.16-.11.17-.13.36-.28h0l.65-.51h0l0,0a.63.63,0,0,0,.23-.23.47.47,0,0,0,.08-.26.38.38,0,0,0-.09-.25h0a.36.36,0,0,0-.31-.15h-.11a.7.7,0,0,0-.27.14h0l-.08,0-.24.13-.36.17h0l-.07,0H84a3.76,3.76,0,0,1-.67.12,3.59,3.59,0,0,1-.47,0h-.26l-.53,0h0l-1-.08h0l-1.1-.14-.35,0-.41,0h0l-1.72-.22-1-.15h0l-1.41-.21c0-.18,0-.44.09-.76.07-.57.16-1.32.29-2.27v0c.07-.53.14-1,.18-1.33l0-.16v0l0-.13v0h0c0-.24,0-.4.07-.59h0l0-.38h0a3.51,3.51,0,0,1,.14-.58,3.26,3.26,0,0,1,.21-.5l0,0a2.67,2.67,0,0,1,.35-.49l.07-.07.07-.06h0a.53.53,0,0,0,.19-.26.68.68,0,0,0,0-.14.36.36,0,0,0-.09-.26v0h0l-.06,0a.33.33,0,0,0-.27-.12H76.2a1,1,0,0,0-.28.15l0,0h0l-1.2,1-1,.71h0l0,0a.58.58,0,0,0-.17.23h0a.4.4,0,0,0,0,.15.45.45,0,0,0,.09.26h0a.43.43,0,0,0,.34.15h0l.18,0,0,0s0,0,0,.08v0a.28.28,0,0,1,0,.08h0v.1c0,.09,0,.19,0,.32s0,.36-.05.6c0,0,0,0,0,0l-.16,1.47,0,.25h0v0l-.12,1.16-.12,1.17c0,.26,0,.48-.08.68L73.45,36l-.31-.41-1-1.27h0l-.76-1-.07-.09,0,0h0l0,0a.86.86,0,0,1-.19-.41v0a.38.38,0,0,1,.12-.26l.28-.27h0a.53.53,0,0,0,.17-.25h0a.31.31,0,0,0,0-.11.45.45,0,0,0-.09-.25h0a.44.44,0,0,0-.34-.17.57.57,0,0,0-.25.06l-.08.05h0l-.08.05h0l0,0-1.22,1L69,33l0,0h0l-.58.43-.13.1.05,0-.18.13h0a.67.67,0,0,0-.22.26.42.42,0,0,0,0,.46h0a.39.39,0,0,0,.33.16h0a.48.48,0,0,0,.3-.11l.26-.19.24-.13,0,0a.65.65,0,0,1,.19,0h.1a.5.5,0,0,1,.22.15l.06.06a.25.25,0,0,1,0,.07h0l.45.57.52.68h0l.09.13,1.1,1.39,1.77,2.28,1,1.27,0,0,.15.19v0l.17.22h0c.28.37.49.67.63.88l.08.12.06.09,0,0a2.23,2.23,0,0,1,.17.35v0a1.1,1.1,0,0,0,0,.11.11.11,0,0,1,0,0v.06s0,0,0,0h0l-.32.32a.41.41,0,0,0-.13.2h0a.59.59,0,0,0,0,.14h0v0h0v.08l0,.08,0,0a.42.42,0,0,0,.33.17h0a.53.53,0,0,0,.24-.06l.08,0,.08-.06,0,0,0,0h0l1.2-1,.14-.11.48-.34h0l.4-.3.48-.37a.62.62,0,0,0,.23-.26.54.54,0,0,0,0-.21.41.41,0,0,0-.09-.26Zm-5.08-10.8Zm-6,3.57Zm3.45-2.13h0Zm-3.62,2.87h0Zm5.56-4.86h0l0,0ZM51.74,92Zm-12.92.82c0,.18.1.31.15.45a2.64,2.64,0,0,0,.18.38h0l0,0A3.27,3.27,0,0,0,40.31,95a3.83,3.83,0,0,0,1.68.59,2.31,2.31,0,0,0,.37,0,3.29,3.29,0,0,0,1.14-.22,1.88,1.88,0,0,0,.3-.12l.29-.15h0a4.8,4.8,0,0,0,.95-.71,3.9,3.9,0,0,0,.51-.63l.8.61,1,.84.94.82q.43.39.78.75a6.8,6.8,0,0,1,.43.6,3.73,3.73,0,0,1,.28.57l0,.05.08.4a.31.31,0,0,0,0,.1v.16s0,.08,0,.12S50,99,50,99v0h0v.06s0,0,0,0a.54.54,0,0,0,0,.21l.1.15,0,.06.11.06h.13a.45.45,0,0,0,.39-.27,1.54,1.54,0,0,0,.09-.37v0l0-.08L51,98c0-.33.06-.61.07-.84V97h0c0-.05,0-.09,0-.13h0v0a3.12,3.12,0,0,0-.06-.41,3.17,3.17,0,0,0-.12-.41h0l0,0a4.33,4.33,0,0,0-.39-.6c-.16-.2-.34-.41-.55-.63h0c-.16-.16-.37-.35-.61-.57s-.54-.48-.88-.77h0l-2-1.59.18-1.46.19,0,1.13.14,1,.15h0c.44.06.8.12,1,.17l.14,0,.1,0h0a1.39,1.39,0,0,1,.29.1.67.67,0,0,1,.19.1.2.2,0,0,1,.06.07,1,1,0,0,1,0,.15l0,.73h0s0,0,0,0a.46.46,0,0,0,.06.23h0a.93.93,0,0,0,.13.15l0,0,.09,0h.08l0-.08v.08a.45.45,0,0,0,.37-.2v0a.76.76,0,0,0,.1-.3v0l0-.55.05-.5v0h0l0-.5c0-.16,0-.29,0-.4l.24-1.52h0v-.06a.19.19,0,0,0,0-.08.66.66,0,0,0,0-.21.43.43,0,0,0-.34-.3h-.17l0,0a.52.52,0,0,0-.17.12l0,0a.38.38,0,0,0-.16.26l-.12.45s0,0-.09.08h-1l-.46,0-.58-.06-1-.11-1-.13-2.86-.35-1.62-.2-.47-.06h0l-1.4-.18a.65.65,0,0,1-.41-.16.58.58,0,0,1-.14-.36h0a.53.53,0,0,1,0-.13v-.07q0-.12,0-.3h0c0-.05,0-.06,0-.08a.46.46,0,0,0-.06-.23.41.41,0,0,0-.3-.21h0l0,.15V86.1h-.05a.45.45,0,0,0-.37.2h0a.83.83,0,0,0-.1.29v.07l-.18,1.82c-.09.45-.15.72-.2,1l0,.19v0h0v0c0,.26-.09.49-.12.67v0l0,.09v.1h0a5.68,5.68,0,0,0-.05.81,5.18,5.18,0,0,0,.21,1.5Zm1-1.73v0a2.57,2.57,0,0,1,.07-.34c0-.16.08-.34.14-.54l.15-.49,0-.14,4.91.6a.81.81,0,0,1,.13.11l0,0a.51.51,0,0,1,0,.16v0c0,.09,0,.23,0,.4a2.8,2.8,0,0,1-.36,1.1,2.68,2.68,0,0,1-.78.84,3,3,0,0,1-1.64.58h-.37l-.4,0h0a2.81,2.81,0,0,1-1.08-.32,1.66,1.66,0,0,1-.63-.63,2,2,0,0,1-.21-.61,2.34,2.34,0,0,1,0-.38A2.53,2.53,0,0,1,39.81,91.12Zm.34-4.53v0h0Zm-.91,0s0,0,0,0v0Zm11.07,32.51h0a5.1,5.1,0,0,1,.6.16,2.18,2.18,0,0,1,.4.17.91.91,0,0,1,.38.37.69.69,0,0,0,0,.1l0,.09.06.44h0v0a.5.5,0,0,0,.11.26.44.44,0,0,0,.3.14h.11a.43.43,0,0,0,.33-.34.58.58,0,0,0,0-.19v-.15l0,0v0h0c0-.12-.05-.27-.08-.46l-.08-.47c0-.18-.06-.34-.08-.47s0-.27-.06-.42l-.13-1.27h0a.87.87,0,0,0-.12-.33.43.43,0,0,0-.36-.18h-.07a.41.41,0,0,0-.34.29.45.45,0,0,0,0,.16,0,0,0,0,0,0,0v.08h0l0,.14a.46.46,0,0,1,0,.1v.06l0,.11h0l0,0h0l-.27,0h-.17a4.56,4.56,0,0,1-.57-.08h0L47.37,117l-.46-3.25,3.66-2h0l0,0a.61.61,0,0,0,.16.12H51a.47.47,0,0,0,.37-.54.11.11,0,0,0,0,0v-.12c0-.05,0-.09,0-.14v0l-.31-2.56h0a.85.85,0,0,0-.11-.36.41.41,0,0,0-.38-.24H50.5a.43.43,0,0,0-.36.38v0a.22.22,0,0,0,0,.06v.07h0v.06s0,.08,0,.12,0,.09,0,.14v0a.57.57,0,0,1,0,.12,1.91,1.91,0,0,1,0,.2h0a.65.65,0,0,1-.13.27v0l0,.06-.06.07h0a2.92,2.92,0,0,1-.47.43,7.64,7.64,0,0,1-.73.49l-1.68.95-1.63.91-2.53,1.4-.61.34-.65.36h0c-.54.31-1,.59-1.54.85l-.3.17-.3.16h0l-.31.17-.2.14a.64.64,0,0,0-.18.28h0s0,0,0,.06h0v.06h0v0a.5.5,0,0,0,.13.25h0a.64.64,0,0,0,.19.13h0a2.35,2.35,0,0,0,.4.11h0l.07,0h0l.12,0h0Zm.37-7.46h0Zm-5,2.67.33,2.36L42.41,116Zm-1.94,20.19h0Zm4.84,10.41h0Zm-4.46-10.4h0Zm16.78,11H60.9l.15,0,.06,0,0,0,.22-.06.08,0h.22a.23.23,0,0,1,.11,0v0h0l.24.39a.45.45,0,0,0,.26.2l0,0h.21l.05,0,.12-.08a.45.45,0,0,0,.14-.32l-.09,0h.09a.65.65,0,0,0-.06-.26h0l0-.06,0,0-.7-1.41-2.91-6.25-.21-.5L58.8,137l0-.11h0c-.06-.14-.14-.3-.22-.49l-.28-.61h0a.89.89,0,0,0-.13-.18h0l0,0h0l-2-4.27h0l-.18-.42-.13-.32h0v0c-.08-.2-.19-.45-.32-.74l-.08-.17,0,0-.05-.11v0h0s0,0,0,0h0a.89.89,0,0,0-.21-.28l0,0a.44.44,0,0,0-.25-.08.53.53,0,0,0-.18,0l-.06,0-.06.07,0,0a.52.52,0,0,0-.08.19.31.31,0,0,0,0,.09.57.57,0,0,0,0,.18l.25.67a.89.89,0,0,1,0,.15v.07h0l0,0h0l-.14.13a2,2,0,0,1-.33.23l0,0c-.17.1-.44.25-.79.42h0l-.18.09h0l-.22.1h0L52,132l-.94.44-2.61,1.21h0l-1.3.61-.62.29h0l-.9.42-.38.18a1.15,1.15,0,0,1-.4.11.34.34,0,0,1-.16,0l-.07-.05-.06-.08h0l-.2-.33a.55.55,0,0,0-.19-.21.48.48,0,0,0-.21-.06.47.47,0,0,0-.17,0,.45.45,0,0,0-.27.4h0a.8.8,0,0,0,.08.33h0l.72,1.44.73,1.68h0a.93.93,0,0,0,.2.29h0a.48.48,0,0,0,.29.11.58.58,0,0,0,.18,0h0a.41.41,0,0,0,.25-.38v-.05s0-.06,0-.09l0-.07h0v0a2.74,2.74,0,0,1-.15-.4h0l0-.07,0-.07a.57.57,0,0,1,0-.12s0-.08,0-.11v0s0,0,0,0v0h0a.54.54,0,0,1,.11-.12.89.89,0,0,1,.24-.14l1.55-.73,1.51-.7.31-.14h0L52,134.29h0l1-.48.95-.42h-.06l1-.42.12,0,.09,0h0l.24-.07h0l0,0h0l2,4.21h0l0,0-.07,0,0,0-.06,0h0c-.16.1-.35.21-.57.32l-.76.38-1.29.61-.26.12-.27.13h0L51.44,140l-.86.4-1.07.49-1.28.6a1.15,1.15,0,0,1-.4.11h-.06a.32.32,0,0,1-.24-.16l-.2-.34a.43.43,0,0,0-.2-.2.36.36,0,0,0-.2-.06.45.45,0,0,0-.19,0h0a.47.47,0,0,0-.25.38v0a.75.75,0,0,0,.09.33v0l.71,1.41.65,1.51h0a.81.81,0,0,0,.21.29h0a.43.43,0,0,0,.27.1.33.33,0,0,0,.17,0,.41.41,0,0,0,.26-.3v0h0a.43.43,0,0,0,0,0,.46.46,0,0,0-.06-.23.46.46,0,0,1,0-.09l0-.12v0l0-.18h0v0h0v0a.28.28,0,0,1,0-.09.36.36,0,0,1,.15-.28h0l.11-.08.15-.08h0l.69-.32h0l.77-.36.32-.15,1.43-.67h0l2.6-1.2h0c.53-.25,1-.48,1.46-.67l.26-.12.25-.11h0l.07,0h0c.41-.19.74-.32,1-.41h-.05l.17-.05h0l.08,0h0l0,0,.21,0h0l0,0v-.05h0l1.95,4.21-.06,0h0l-.11.06h0l0,0c-.17.1-.36.21-.58.32s-.48.24-.76.38l-.34.16L57,145l0,0-2.43,1.13-2,.92-.75.35-.65.3h0a1.08,1.08,0,0,1-.37.1.35.35,0,0,1-.17,0l-.06-.05a.19.19,0,0,1-.07-.08h0l-.2-.34a.46.46,0,0,0-.19-.2h0a.39.39,0,0,0-.38,0,.44.44,0,0,0-.26.39h0a.82.82,0,0,0,.09.33h0l.72,1.44L51,151h0a.81.81,0,0,0,.21.29h0a.45.45,0,0,0,.27.1.37.37,0,0,0,.2,0,.38.38,0,0,0,.23-.29V151a.59.59,0,0,0,0-.22v0a1.38,1.38,0,0,1-.11-.27,2.76,2.76,0,0,1-.08-.27v0s0-.05,0-.08a.36.36,0,0,1,0-.11v0s0,0,0,0,0,0,0,0v0l.09-.09a.89.89,0,0,1,.24-.14l.77-.36.69-.32h0l1-.46h0l.76-.35h0l2.61-1.21h0c.54-.25,1-.48,1.46-.67l.27-.12.25-.12h0c.41-.18.74-.32,1-.41Zm2.32,15.1h0Zm-.42-.11s0,0,0,0h0ZM74,158.84a7.45,7.45,0,0,0-.46-.74c-.17-.24-.36-.48-.56-.72a8.67,8.67,0,0,0-.64-.72c-.19-.2-.39-.4-.6-.59s-.43-.38-.66-.56h0q-.34-.28-.63-.48a5.45,5.45,0,0,0-.53-.31h0l-.26-.09h0l-.15,0h0a.68.68,0,0,0-.27.07l-.28.13h0c-.16.09-.37.22-.64.4l0,0-.14.09h0l-.17.12h0l-.52.37-.27.22.1.11-.13-.07v0l0,0a.6.6,0,0,0-.16.25.41.41,0,0,0,0,.16.39.39,0,0,0,.11.27h0v0h0a.38.38,0,0,0,.29.12.57.57,0,0,0,.25-.06h0l.08,0,.08-.05h0l.24-.14.35-.16-.06,0a2.66,2.66,0,0,1,.47-.15H69a2.61,2.61,0,0,1,.57.08,2.21,2.21,0,0,1,.52.24h0a6.11,6.11,0,0,1,.84.68l.19.18.19.2v0l0,0a5.63,5.63,0,0,1,1.23,1.9,5.33,5.33,0,0,1,.34,1.89c0,.1,0,.2,0,.3a5.57,5.57,0,0,1-1.77,3.86,7.79,7.79,0,0,1-1.7,1.29,4.26,4.26,0,0,1-1.59.53h-.35a3.55,3.55,0,0,1-1.53-.35A6.4,6.4,0,0,1,64,165.63a7.46,7.46,0,0,1-.92-1.15,4.09,4.09,0,0,1-.48-1.09,2.28,2.28,0,0,1-.08-.61,1.69,1.69,0,0,1,.22-.86,1.67,1.67,0,0,1,.16-.24,1.51,1.51,0,0,1,.21-.23h0l0,0a.9.9,0,0,0,.2-.26h0a.54.54,0,0,0,0-.22.43.43,0,0,0-.11-.28.44.44,0,0,0-.31-.14h-.09a.92.92,0,0,0-.3.14h0a4.26,4.26,0,0,0-.43.36l0,.05-.07.05,0,0-.09.07h0c-.12.12-.23.23-.35.33l-.35.31-.36.29-.36.28h0a.56.56,0,0,0-.16.29s0,.05,0,.08h0a.58.58,0,0,0,.15.35v0h0l.6.83.6.83c.2.29.41.56.63.82s.45.52.68.76a7.88,7.88,0,0,0,3.87,2.36,5.66,5.66,0,0,0,.81.12l.5,0h.36a6.14,6.14,0,0,0,3.09-1,5.3,5.3,0,0,0,.54-.39c.18-.14.35-.3.52-.46h0a7.88,7.88,0,0,0,1.68-2.29,5.93,5.93,0,0,0,.57-2.55h0A6.7,6.7,0,0,0,74,158.84Zm14.49,26.63Zm2-5Zm-2,5Zm9.24-9.75h0l0,0L96.29,175l-1.82-1.17h0a5.07,5.07,0,0,0-2.55-.75h-.06l-.44,0a3.7,3.7,0,0,0-.48.09h0a3.61,3.61,0,0,0-2.31,1.76,3.64,3.64,0,0,0-.51,1.54c0,.1,0,.2,0,.3a3.53,3.53,0,0,0,.25,1.26,4.54,4.54,0,0,0,1.38,1.88c.13.1.25.2.39.29a3,3,0,0,0,.42.27h0l.44.26a1.65,1.65,0,0,1,.25.15,2,2,0,0,1,.24.16h0l.14.1-1.89,3.27c-.15.26-.3.37-.42.38h-.08a.47.47,0,0,1-.09,0l-.35-.15a.46.46,0,0,0-.23-.06H88.5a.38.38,0,0,0-.29.19h0v0a.4.4,0,0,0-.06.22.5.5,0,0,0,.19.36l.07.06.08.05h0l1.41.76,1.39.85h0l0,0h0a.57.57,0,0,0,.29.09h0a.4.4,0,0,0,.35-.16h0l0,0h0a.51.51,0,0,0,.07-.23.33.33,0,0,0,0-.17h0a.47.47,0,0,0-.21-.21l-.08-.06h0l-.11-.07-.17-.14,0,0,0,0a.41.41,0,0,1,0-.09.53.53,0,0,1-.05-.15v0a.5.5,0,0,1,0-.19v0l0-.07a.3.3,0,0,1,0-.08h0l.41-.7.43-.75h0l.88-1.54,0-.07h0l1.44-2.49c.21-.37.41-.7.58-1l.52-.89c.24-.39.44-.7.59-.92h0a.72.72,0,0,0,.07-.11l.07-.09h0a1.71,1.71,0,0,1,.21-.24l.16-.15a.22.22,0,0,1,.1,0h0l.42.17a.48.48,0,0,0,.18,0h0a.79.79,0,0,0,.22-.06l0,0,.09-.1,0-.07h0a.61.61,0,0,0,0-.15A.51.51,0,0,0,98,176,.69.69,0,0,0,97.72,175.73ZM92.23,180Zm2.41-4.24a1.57,1.57,0,0,1-.15.39h0a.83.83,0,0,1-.07.13,1,1,0,0,1-.08.14v0l-1.78,3.06-.19.33h0a.73.73,0,0,1-.11.14h0l-.13,0-.4-.2h0a2.91,2.91,0,0,1-1.31-1.44v.05c0-.17-.09-.29-.12-.41s0-.25-.06-.38h0c0-.14,0-.25,0-.36a3.48,3.48,0,0,1,.09-.79,4,4,0,0,1,.44-1.09v0a2.3,2.3,0,0,1,.63-.73,1.62,1.62,0,0,1,.77-.3h.23a1.51,1.51,0,0,1,.42.05,2.28,2.28,0,0,1,.65.25h0l.39.25.09.07L94,175l0,0,.24.22h0a2.25,2.25,0,0,1,.17.21.81.81,0,0,1,.15.3v0Zm-6.15,9.71h0ZM80,180.59Zm9.34-9.69,0,0,0,0ZM88.14,172l.21-.25.15-.13,0,0a.16.16,0,0,1,.09,0h0l.42.18a.53.53,0,0,0,.19,0,.58.58,0,0,0,.18,0h0l0,0h0l0,0,.09-.11a.2.2,0,0,0,0-.08.68.68,0,0,0,0-.14.46.46,0,0,0-.06-.23v0a.83.83,0,0,0-.24-.21l0,0h0L88,170.13l-.3-.19-.37-.24-.7-.42-.17-.1h0l-.17-.09h0a.81.81,0,0,0-.35-.12h0a.44.44,0,0,0-.38.23h0l0,.05,0,.08v.05a.58.58,0,0,0,0,.19v0a.38.38,0,0,0,.16.19h0l.61.43h0a.4.4,0,0,1,.11.12h0a.21.21,0,0,1,0,.06h0a.73.73,0,0,1,0,.21c0,.1-.08.23-.14.38h0c-.1.21-.24.48-.41.81l-.12.21-.13.22h0v0l-.47.83c-.27.46-.4.7-.52.89l-1.44,2.5-.74,1.27-.32.57h0l-.5.85-.21.37c-.15.26-.29.36-.41.38h-.09l-.1,0-.37-.16h0l0,0a.53.53,0,0,0-.28-.09h0a.38.38,0,0,0-.3.19v0h0v0h0v0h0a.38.38,0,0,0,0,.17.44.44,0,0,0,.08.25.73.73,0,0,0,.26.23h0l1.4.75,1.39.87h0a.72.72,0,0,0,.37.11h.11a.3.3,0,0,0,.14-.06.32.32,0,0,0,.1-.1v0h0v0a.49.49,0,0,0,.06-.22.41.41,0,0,0,0-.16l0-.05a.41.41,0,0,0-.19-.18h0l-.13-.08,0,0,0,0h0l-.1-.07-.06-.06,0,0A.31.31,0,0,1,83,181l0,0h0a.81.81,0,0,1,.14-.42h0l.44-.75.36-.64h0l1-1.66,1.44-2.5.58-1,.53-.89c.23-.38.42-.69.57-.9v0l.08-.11Zm-2.6.23h0l0,0Zm32,9.6a.72.72,0,0,0-.33-.15h0l-1.58-.31-2.08-.58h0a5.7,5.7,0,0,0-1.37-.17,4.32,4.32,0,0,0-1.31.19,3.61,3.61,0,0,0-.46.17,2.93,2.93,0,0,0-.43.23h0a3.79,3.79,0,0,0-1.1,1,3.74,3.74,0,0,0-.61,1.36h0a3.88,3.88,0,0,0-.09.82,3.33,3.33,0,0,0,.2,1.16,2.87,2.87,0,0,0,.15.37h0a3.13,3.13,0,0,0,.19.36h0a4.88,4.88,0,0,0,.74.93,5.37,5.37,0,0,0,.51.44,7.5,7.5,0,0,0-.68.51l-.15.13-.13.12v0l0,0,0,0a3.37,3.37,0,0,0-.77,1.15l-.09.26a2.13,2.13,0,0,0-.07.27h0a2.22,2.22,0,0,0-.07.57,2.56,2.56,0,0,0,.14.81,2.6,2.6,0,0,0,.1.25h0a1.49,1.49,0,0,0,.13.25h0a3.32,3.32,0,0,0,1.64,1.35,4.7,4.7,0,0,0,.45.17l.48.13h0l.57.12.19,0h.06l.73.15.1,0h.12l1.76.46h0a.91.91,0,0,0,.25,0l.14,0a.43.43,0,0,0,.33-.33h0s0-.06,0-.09a.45.45,0,0,0-.1-.27.41.41,0,0,0-.25-.15h0l-.29-.08-.26-.11a.56.56,0,0,1-.14-.09l-.07-.09,0,0s0,0,0-.05a.15.15,0,0,1,0-.07s0-.11,0-.17v0h0a1.85,1.85,0,0,1,0-.26l0-.12v0l0-.1v0l0-.16v0l0-.18.06-.27.08-.35.12-.48v0l.15-.63.21-.91.65-2.81c.15-.64.29-1.23.42-1.76l.08-.31v0l.07-.27h0c.13-.49.23-.84.31-1.07v0s0,0,0-.06l0-.08a2.67,2.67,0,0,1,.15-.27l0,0h0l.06,0H117s0,0,.06,0h0l.08,0h.1a.5.5,0,0,0,.26-.08l0,0h0l0,0h0l0,0,0,0,0-.07v-.06a.38.38,0,0,0,0-.1.41.41,0,0,0-.15-.33Zm-5.5,10.84h-.29l-.13,0-.23-.05a1.79,1.79,0,0,1-.77-.37,1.55,1.55,0,0,1-.46-.68v0a2.72,2.72,0,0,1-.16-.93c0-.1,0-.2,0-.3a2.19,2.19,0,0,1,0-.27v0c0-.06,0-.15,0-.25h0v-.05a2.49,2.49,0,0,1,.21-.56l0-.1.06-.08a2,2,0,0,1,.34-.4l.08-.07a.18.18,0,0,1,.07,0h0a.91.91,0,0,1,.31-.16l0,0h.07v0l.29,0,.56.12h0l.25.07.27.08.2.06Zm2.23-10a2.32,2.32,0,0,1,0,.37c0,.2-.08.45-.15.77l-.86,3.68-.07,0-.56-.12a3.88,3.88,0,0,1-.44-.13,3.17,3.17,0,0,1-.35-.14,2.09,2.09,0,0,1-.3-.21,2.93,2.93,0,0,1-.34-.3,3.18,3.18,0,0,1-.66-1.16c0-.08,0-.16-.08-.26s0-.17,0-.26h0a4,4,0,0,1,0-.6,4.67,4.67,0,0,1,0-.52l0-.22c0-.08,0-.16,0-.23v0a2,2,0,0,1,.64-1.15l.19-.14.21-.11h0a1.83,1.83,0,0,1,.62-.16h.15a2.81,2.81,0,0,1,.56.06l.29.08.36.13.33.15.24.14,0,0a.57.57,0,0,1,.19.24h0v0h0a0,0,0,0,1,0,0h0v.06Zm37.17,6.74Zm4.05,2.49h0v0ZM149,194.43Zm-3.44-12.84h0ZM160,191a.41.41,0,0,0-.25-.29.35.35,0,0,0-.17,0l-.14,0-.32.07-.28,0h0a.37.37,0,0,1-.2,0l0,0,0,0h0a.56.56,0,0,1-.09-.13,1.18,1.18,0,0,1-.1-.27l-.15-.59-.23-1v0l-.15-.59-.31-1.25h0v0l-1.82-7.35v0l-.05-.21h0a1,1,0,0,0-.16-.34.46.46,0,0,0-.35-.17H155a.49.49,0,0,0-.31.21.82.82,0,0,0-.14.28l-.11.27-.9,2c-.45,1-.94,2.13-1.46,3.25l-.3.65c-.09.18-.19.4-.31.66-.37.76-.72,1.5-1.07,2.2s-.57,1.18-.87,1.78l-1-4.09c-.1-.41-.2-.79-.27-1.1l-.24-1v0c-.07-.34-.13-.61-.18-.84s-.07-.39-.08-.51a1.89,1.89,0,0,1,0-.32,1.34,1.34,0,0,1,0-.21.22.22,0,0,1,0-.08l0,0,.43-.17a.46.46,0,0,0,.25-.21v0h0v-.05h0l0-.05v-.14a.46.46,0,0,0-.34-.33h-.13l-.23,0h0l-1.54.43-.39.08-.37.08h0a5.78,5.78,0,0,0-.57.12l-.65.16a.73.73,0,0,0-.32.15.42.42,0,0,0-.17.33.36.36,0,0,0,0,.11v.06l.05.07,0,0a.45.45,0,0,0,.14.1h0a.35.35,0,0,0,.18.05h0l.09,0h0l.7-.11h.06a.24.24,0,0,1,.14,0h0a.71.71,0,0,1,.11.17,2.71,2.71,0,0,1,.16.37v-.05c.07.2.13.39.2.62s.14.5.22.79.13.52.24.95.17.7.25,1l.7,2.8,1.09,4.39,0,.07,0,.11a.66.66,0,0,0,.32.46h0a.28.28,0,0,0,.13,0H149a.55.55,0,0,0,.34-.22.87.87,0,0,0,.14-.29c.45-1,.93-2.09,1.42-3.17l.29-.64h0l.3-.65,0,0,1.23-2.57.26-.55h0l.28-.58c.48-1,.87-1.79,1.21-2.46l.08-.17,1.88,7.57a1.18,1.18,0,0,1,.05.29.41.41,0,0,1-.08.28l-.06.05a.29.29,0,0,1-.08,0l-.36.14a.45.45,0,0,0-.26.19h0a.51.51,0,0,0-.06.21.34.34,0,0,0,0,.11v0h0a.44.44,0,0,0,.31.31h0l.14,0,.19,0h0l1.54-.44,1.79-.39h0a.62.62,0,0,0,.45-.3.57.57,0,0,0,0-.14v-.05a.31.31,0,0,0,0-.09Zm18.51-8.67h0Zm-2.17,1.32h0Zm5.81-3.91h0a.5.5,0,0,0-.26.08l-.28.15-.27.11-.17,0-.11,0h0a.38.38,0,0,1-.13-.1h0a1.24,1.24,0,0,1-.17-.23l-.48-.81-.34-.55h0c-.22-.38-.45-.77-.7-1.18l-.15-.24-.14-.25,0,0-1.46-2.45-.59-1-.52-.89h0c-.23-.4-.41-.72-.52-1a.66.66,0,0,1-.06-.12h0a1,1,0,0,0,0-.1h0a2.55,2.55,0,0,1-.1-.29.63.63,0,0,1-.05-.21v0a.2.2,0,0,1,0,0s0,0,0,0l.36-.29a.48.48,0,0,0,.17-.26h0v-.11h0v-.06l0-.09,0-.05a.42.42,0,0,0-.37-.22.57.57,0,0,0-.18,0l-.06,0s0,0,0,0h0l-.08,0h0l0,0h0l-1.33.85-.31.17-.37.2h0c-.2.1-.41.23-.66.38l-.15.08-.15.09h0l0,0a.83.83,0,0,0-.29.26.43.43,0,0,0-.08.24.41.41,0,0,0,.07.22l0,0,.11.09a.71.71,0,0,0,.26.06h.1l.09,0,0,0h0l.57-.27a.37.37,0,0,1,.16,0h.07a1,1,0,0,1,.26.24l.08.09.07.09v0h0q.21.28.51.75v0l.13.2.12.2,0,0,.49.82.54.88.4.68-1.51-.46-.65-.19-.7-.21h0l-2.25-.62a11.91,11.91,0,0,0-1.18-.27h0l-.53-.07-.4,0h-.17a3,3,0,0,0-.9.13l-.2.07h0a1.37,1.37,0,0,0-.25.09h0l-.13.06h0l-.15.08h0l-.14.08-.18.1,0,0-.36.21-.72.43a1.35,1.35,0,0,0-.31.25h0a.48.48,0,0,0-.11.29.34.34,0,0,0,.07.22h0v0a.41.41,0,0,0,.34.17h0a.66.66,0,0,0,.28-.09h0a.6.6,0,0,1,.17-.08h0l.05,0,.08,0h0a2.87,2.87,0,0,1,.38-.13h.05l.08,0a3.9,3.9,0,0,1,.59,0l.36,0h0l.18,0,.2,0h.09l.49.1,1,.21,1.12.27.35.09.38.1h0l1.67.43,1,.27h0l1.08.3.29.08q-.06.27-.18.75c-.13.55-.32,1.29-.56,2.21-.14.51-.26,1-.36,1.32l0,.18,0,.14h0a0,0,0,0,0,0,0l-.08.34-.15.6h0a4.66,4.66,0,0,1-.22.56,3,3,0,0,1-.27.47v0a2.55,2.55,0,0,1-.44.5l-.07.06h0l-.07,0h0a.59.59,0,0,0-.23.24.37.37,0,0,0,0,.18.45.45,0,0,0,.43.43h.06a.86.86,0,0,0,.31-.12h0l1.33-.86,1.06-.59h0a.61.61,0,0,0,.23-.22.5.5,0,0,0,0-.21.39.39,0,0,0-.06-.21.4.4,0,0,0-.29-.2h-.24l0,0h0v0a.19.19,0,0,1,0-.08.57.57,0,0,1,0-.12,4.82,4.82,0,0,1,.1-.6l0-.18,0-.19v0l.19-.85.21-.85.16-.71c.11-.5.23-1,.36-1.58h0l.15-.65.11.19h0c.17.3.32.55.47.8l.61,1,.27.45.45.76h0a.86.86,0,0,1,.14.41v0a.43.43,0,0,1-.14.25l-.33.25a.48.48,0,0,0-.19.21h0a.32.32,0,0,0,0,.16.4.4,0,0,0,.07.21l0,0a.37.37,0,0,0,.35.18h0a.82.82,0,0,0,.34-.12h0l1.35-.87.31-.17.36-.19.62-.36.14-.08.15-.09h0a.76.76,0,0,0,.26-.24.46.46,0,0,0,.08-.25.46.46,0,0,0-.06-.22A.42.42,0,0,0,182.17,179.7Zm21.59-18.91s0,0,0,0a.48.48,0,0,0-.09-.11h0a.45.45,0,0,0-.29-.12h-.08a.65.65,0,0,0-.27.17h0a2.33,2.33,0,0,1-.32.31l-.06.05-.06,0a.48.48,0,0,1-.16.08l-.1,0h0a.27.27,0,0,1-.16-.05,1.21,1.21,0,0,1-.23-.16h0l-1.19-1.07-1-.91-.21-.19-.22-.2,0,0-5.57-5,0,0-.11-.09a.87.87,0,0,0-.31-.19l-.15,0a.48.48,0,0,0-.33.15l0,0a.49.49,0,0,0-.12.3.07.07,0,0,0,0,.05.86.86,0,0,0,0,.27l.06.3.39,2.18c.21,1.12.41,2.29.61,3.5,0,.25.08.49.11.71s.06.39.11.72h0c.12.81.24,1.61.35,2.42l.27,2L191.41,163l-.84-.76h0l-.75-.69h0c-.24-.22-.45-.41-.6-.57s-.28-.28-.36-.37l0,0a2.67,2.67,0,0,1-.26-.36v0s0,0,0-.05l0,0v0a.25.25,0,0,1,0-.07h0l0,0,.26-.38a.5.5,0,0,0,.09-.24v-.05a.4.4,0,0,0,0-.15v-.06l0-.08,0,0a.39.39,0,0,0-.28-.12.48.48,0,0,0-.18,0,.76.76,0,0,0-.28.21l-1,1.23-.26.25-.3.32-.38.4-.45.49a.8.8,0,0,0-.18.3.36.36,0,0,0,0,.14.44.44,0,0,0,.15.32h0l0,0,.08,0h.16a.48.48,0,0,0,.2,0l0,0s0,0,0,0l0,0h0l.53-.5a.36.36,0,0,1,.18-.09h.06a1.51,1.51,0,0,1,.3.16l.09.06.11.07h0l.47.37.63.54h0l.73.65c.17.16.42.39.77.69l2.14,1.94,3.36,3,.05,0h0l.08.08h0a.67.67,0,0,0,.45.21h.07l.14,0a.34.34,0,0,0,.12-.09h0a.59.59,0,0,0,.13-.37.22.22,0,0,0,0-.08s0-.06,0-.09a.94.94,0,0,0,0-.09v0c-.2-1.08-.4-2.23-.6-3.42v0l-.11-.68-.12-.7h0c-.13-.8-.27-1.72-.43-2.76l-.08-.61-.09-.62h0c-.14-1-.26-1.92-.37-2.7l0-.21,5.8,5.23h0c.21.18.29.34.28.46v0a.17.17,0,0,1,0,.07.3.3,0,0,1,0,.08l-.23.32a.42.42,0,0,0-.11.3s0,.07,0,.1v0l0,.08.07.09h0a.45.45,0,0,0,.28.11.51.51,0,0,0,.17,0,.69.69,0,0,0,.28-.2v0h0l1-1.22,1.26-1.32h0a.69.69,0,0,0,.2-.43.43.43,0,0,0,0-.05A.24.24,0,0,0,203.76,160.79Zm-17.62,1.79h0l0,0ZM217.83,136h0l-9.38-5.28,0,0a5,5,0,0,1-.56-.34l-.06,0,0,0h0l0,0a.62.62,0,0,1-.13-.18.13.13,0,0,1,0-.06V130c0-.09.06-.21.1-.31l0-.07,0,0a.58.58,0,0,0,0-.19h0v-.05a.34.34,0,0,0,0-.09h0v0l0-.09-.09-.11-.09,0h0l-.17,0a.43.43,0,0,0-.29.1,1,1,0,0,0-.21.3h0l-.5,1.28-.63,1.37h0a.75.75,0,0,0-.09.34.06.06,0,0,0,0,0,.43.43,0,0,0,.27.39l.08,0h.13l.07,0h0l0,0h0a.5.5,0,0,0,.12-.08.4.4,0,0,0,.1-.15.15.15,0,0,0,0-.07h0a1.39,1.39,0,0,1,.06-.13l.15-.24h0l0-.06h0l.05-.07h0v0a.41.41,0,0,1,.15,0h0l.75.34,5.72,3-.63,0c-1.42,0-2.4.07-2.93.1h-.45l-4.25.28h0l-.44,0h-.14a1.06,1.06,0,0,0-.28.06.46.46,0,0,0-.3.24.39.39,0,0,0,0,.18.66.66,0,0,0,.13.37l.06.07h0l.06.07h0l.21.24.21.25h0l5.43,6.15-6.92-2.21-.12,0-.12,0-.11,0h0a.52.52,0,0,0,0-.11.39.39,0,0,0-.22-.28.45.45,0,0,0-.16,0,.61.61,0,0,0-.49.32l-.07.11h0a.75.75,0,0,1-.07.12v0h0l-.42,1-.66,1.54a1,1,0,0,0-.09.39.45.45,0,0,0,.27.43H201a.42.42,0,0,0,.23-.07.55.55,0,0,0,.18-.22h0a2,2,0,0,1,.1-.21l.1-.21a2,2,0,0,1,.19-.29l0-.06.06-.07h0a.63.63,0,0,1,.4-.21h.28a2.24,2.24,0,0,1,.37.05l.53.14h0l9.7,2.93a1.46,1.46,0,0,0,.42.08h.13l.13,0a.45.45,0,0,0,.14-.1l.06-.1v0a.47.47,0,0,0,0-.17.42.42,0,0,0-.05-.22,1.2,1.2,0,0,0-.19-.29l-7.12-7.93,10.75-.55a.78.78,0,0,0,.44-.12l.09-.07,0,0s0,0,0-.06v0h0a.52.52,0,0,0,0-.18.49.49,0,0,0-.09-.28A.91.91,0,0,0,217.83,136Zm-15,4.94v0h0Zm9.07-26.71Zm11.74-3.75a6.18,6.18,0,0,0-1.5-2.44,7,7,0,0,0-1.94-1.41,6.67,6.67,0,0,0-2.28-.65h0a8.43,8.43,0,0,0-.86,0,6.85,6.85,0,0,0-2.61.5c-.2.08-.41.18-.61.28s-.39.22-.58.35h0a5.93,5.93,0,0,0-2.41,3.17,6.87,6.87,0,0,0-.22.81,7.91,7.91,0,0,0-.13.87h0a6.38,6.38,0,0,0,0,.86,6.86,6.86,0,0,0,.27,2A6.25,6.25,0,0,0,212,117.1a6.71,6.71,0,0,0,3.17,2.08c.24.07.49.14.75.19s.52.09.79.12h0c.3,0,.59.05.88.05a6.23,6.23,0,0,0,2.85-.65c.21-.11.41-.23.61-.36s.38-.28.56-.44l-.06,0,.07,0h0a6.44,6.44,0,0,0,1.94-3.09,5.88,5.88,0,0,0,.19-.75,6.54,6.54,0,0,0,.11-.79h0a6.58,6.58,0,0,0,.05-.88A6.49,6.49,0,0,0,223.61,110.46Zm-11.73,3.78Zm10.79-1a4.24,4.24,0,0,1-.54,1.72,4.45,4.45,0,0,1-1.24,1.33,5,5,0,0,1-1.93.87,7.2,7.2,0,0,1-1.5.15,7.92,7.92,0,0,1-1-.05,7.53,7.53,0,0,1-2.56-.69l-.39-.22-.35-.24h0a3.65,3.65,0,0,1-1.07-1.25c0-.09-.09-.19-.13-.29v.06c-.06-.15-.09-.25-.13-.36v0h0a5.38,5.38,0,0,1-.19-.88c0-.14,0-.28,0-.42s0-.29,0-.44a4.43,4.43,0,0,1,1.11-2.56,4.93,4.93,0,0,1,.4-.39c.14-.12.29-.24.46-.36h0l0,0a5.44,5.44,0,0,1,2-.84,6.44,6.44,0,0,1,1.49-.15,8.09,8.09,0,0,1,1,0,7.1,7.1,0,0,1,2.18.55,4.41,4.41,0,0,1,1.49,1.11h0a3.67,3.67,0,0,1,.77,1.46,4.71,4.71,0,0,1,.12,1.83ZM211.48,94.35Zm10.06-15.18h0Zm-11.19,6.45h0Zm2.4-3.88-1,.18c-.45.08-.8.14-1.06.17h-.8l-.09,0h0a.05.05,0,0,1,0,0l-.15-.43a.37.37,0,0,0-.13-.21l0,0a.43.43,0,0,0-.14-.08l-.06,0h-.14a.46.46,0,0,0-.36.48h0v.08s0,.08,0,.11v0h0l.35,1.57.06.36.06.43,0,.06a4.69,4.69,0,0,0,.06.48c0,.22.09.44.13.66v0a.64.64,0,0,0,.12.27.45.45,0,0,0,.35.19h.14l.08,0,0,0a.6.6,0,0,0,.16-.26.51.51,0,0,0,0-.09l-.11,0h.11a.11.11,0,0,0,0,0h0v0l-.07-.7v0a.53.53,0,0,1,0-.14.15.15,0,0,1,0-.06h0l.17-.1.38-.14.57-.16.81-.17,1-.19,1-.2,1.28-.25,1.23,6.36-1.28.25-1.12.21-1,.18h0c-.45.08-.81.14-1.06.17l-.14,0h0l-.14,0h-.55l-.08,0s0,0,0,0l-.15-.43a.42.42,0,0,0-.2-.26l0,0h-.27a.43.43,0,0,0-.34.31.52.52,0,0,0,0,.17,1,1,0,0,0,0,.17v0h0l.35,1.57.06.36h0l.07.43v0c0,.18.06.36.1.56s.08.44.12.66a.63.63,0,0,0,.27.45h0l.13,0h.21l.08,0,0,0A.54.54,0,0,0,212,94s0,0,0-.08l-.06,0h0v-.07l-.07-.71v0a.49.49,0,0,1,0-.15h0l0,0,0,0h0a1.3,1.3,0,0,1,.32-.16h0l.09,0,.12,0h0l.56-.15c.24-.06.5-.12.82-.18l1-.19,1-.2,2.83-.55,1-.19,1.09-.21h0l1-.19.41-.08.25,0a.41.41,0,0,1,.31.1l.05.06a.56.56,0,0,1,0,.08l.12.4a.46.46,0,0,0,.14.24.39.39,0,0,0,.28.11h.07a.46.46,0,0,0,.36-.32,1,1,0,0,0,0-.17,1.41,1.41,0,0,0,0-.18v0h0l-.35-1.56-.3-1.82h0a.7.7,0,0,0-.13-.33.41.41,0,0,0-.35-.18h-.11a.4.4,0,0,0-.28.23.35.35,0,0,0,0,.2s0,.08,0,.11v0c0,.14,0,.24.05.32V88a1.7,1.7,0,0,1,0,.22v0h0a.39.39,0,0,1-.05.2h0l0,0,0,0h0a.56.56,0,0,1-.14.09,1.25,1.25,0,0,1-.27.08l-.81.16h0l-.9.17-1.09.21-.89.17-.1,0L216.81,83l.11,0,1.41-.27.35-.07.37-.07h0l1.48-.29h0l.24,0a.5.5,0,0,1,.23,0,.3.3,0,0,1,.18.2l.13.39a.5.5,0,0,0,.13.25h0a.39.39,0,0,0,.27.11h.1a.44.44,0,0,0,.34-.33.78.78,0,0,0,0-.16,1.37,1.37,0,0,0,0-.19v0L221.85,81l-.31-1.81v0a.71.71,0,0,0-.14-.34h0a.41.41,0,0,0-.33-.16H221a.38.38,0,0,0-.3.23h0a.34.34,0,0,0,0,.19s0,.07,0,.1a.08.08,0,0,0,0,0h0c0,.11,0,.19,0,.27v.31h0a.39.39,0,0,1-.05.2s0,0,0,0l0,0h0a.36.36,0,0,1-.13.09,1.25,1.25,0,0,1-.27.08l-1.54.3h0l-.23,0-1.66.32-2.84.56ZM201.11,59.12l0,0,0,0a5.93,5.93,0,0,0-.46,2.29c0,.15,0,.31,0,.46a7.72,7.72,0,0,0,2.63,5,6.44,6.44,0,0,0,2.43,1.24,7.09,7.09,0,0,0,1.81.24,6.75,6.75,0,0,0,2-.3,7.09,7.09,0,0,0,.73-.26c.25-.1.49-.22.73-.34h0a6.52,6.52,0,0,0,2.74-2.57c.11-.21.21-.42.3-.64s.16-.45.23-.69h0a6.91,6.91,0,0,0,.2-1.62,6.69,6.69,0,0,0-.32-2,6.48,6.48,0,0,0-.27-.72,6.59,6.59,0,0,0-.34-.71v0h0a6.67,6.67,0,0,0-2.95-3,6.21,6.21,0,0,0-.75-.31,6.69,6.69,0,0,0-.77-.2H209a7.08,7.08,0,0,0-2.37-.09,6.92,6.92,0,0,0-2.25.74h0a7.15,7.15,0,0,0-2.63,2.31c-.12.19-.24.38-.34.58S201.2,58.91,201.11,59.12Zm11.28-.23h0v0Zm-9.71,1.74a5.51,5.51,0,0,1,1.17-1.81,7.71,7.71,0,0,1,2-1.46,6.15,6.15,0,0,1,2.87-.82h.08a4.55,4.55,0,0,1,.52,0,3.88,3.88,0,0,1,.49.11h0a3.9,3.9,0,0,1,2,1.33,4.5,4.5,0,0,1,.3.42h0a4.48,4.48,0,0,1,.28.47h0a4.3,4.3,0,0,1,.51,1.73v.26a4.49,4.49,0,0,1-.28,1.54,5.4,5.4,0,0,1-1.89,2.48c-.18.14-.37.27-.57.4a6.35,6.35,0,0,1-.64.37h0a7.37,7.37,0,0,1-2.5.86l-.45,0h-.46a3.64,3.64,0,0,1-1.56-.43,1.91,1.91,0,0,1-.27-.16,2.22,2.22,0,0,1-.27-.19h0a3.92,3.92,0,0,1-.62-.6,4,4,0,0,1-.49-.72,4.6,4.6,0,0,1-.55-1.89c0-.08,0-.16,0-.24A4.72,4.72,0,0,1,202.68,60.63Zm7.14-3.94h0ZM188.53,46h0Zm5.87-12Zm0,0Zm-3.14,14.57Zm-4.54-3.82h0l.28.31v0c.11.13.23.25.36.39l.42.43a.67.67,0,0,0,.45.22h0l.15,0a.41.41,0,0,0,.11-.07l0,0,.05-.08v-.06a.61.61,0,0,0,0-.14v-.07a.42.42,0,0,0-.12-.25l-.38-.47a.31.31,0,0,1-.09-.19h0v0h0a1.12,1.12,0,0,1,.08-.18l.23-.32h0l.4-.46c.16-.18.35-.37.58-.6l.69-.7.73-.73h0l.56-.56c0,.43-.06,1-.09,1.57,0,.2,0,.42,0,.66s0,.48,0,.74v0q0,1.45-.06,2.34v.35a8.47,8.47,0,0,0,0,.86c0,.3.06.55.09.74v.08l0,.12h0v0l0,0,0,0a3,3,0,0,0,.38,1,1.4,1.4,0,0,0,.12.18l.12.16h0l0,0,.12.14h0l0,0h0l0,.05,0,0h0a1.3,1.3,0,0,0,.17.19l0,0h0l0,0h0l.33.32.59.59a1.24,1.24,0,0,0,.31.24.54.54,0,0,0,.22.05h0a.42.42,0,0,0,.28-.12h0a.36.36,0,0,0,.11-.28.47.47,0,0,0,0-.16.83.83,0,0,0-.18-.25h0l-.06-.08a1.83,1.83,0,0,1-.16-.22,2.26,2.26,0,0,1-.21-.34l0-.07,0,0h0a3.79,3.79,0,0,1-.21-.65,5.43,5.43,0,0,1-.1-.72h0c0-.11,0-.29,0-.55s0-.6,0-1c0-.13,0-.36,0-.68s0-.74,0-1.26c0-.69,0-1.26,0-1.73s0-.8,0-1h0c0-.64,0-1.11,0-1.42h.95c.54,0,1.24,0,2.1,0H199a5.6,5.6,0,0,1,.59.07,4.1,4.1,0,0,1,.53.15h0a2.9,2.9,0,0,1,.52.29l.07.06h0l.06.06h0a.5.5,0,0,0,.36.16h.1a.21.21,0,0,0,.11,0l.09-.06h0v0a.39.39,0,0,0,.11-.27.41.41,0,0,0,0-.16.56.56,0,0,0-.18-.26v0h0L200.26,40l-.82-.89,0,0a.63.63,0,0,0-.24-.16h0a.3.3,0,0,0-.12,0,.4.4,0,0,0-.3.13h0a.42.42,0,0,0-.11.29s0,.06,0,.07a.53.53,0,0,0,.05.2h0l0,0h0l-.09,0h0l-.1,0h-.07a5,5,0,0,1-.58.05h-2.17l-1.19,0-1.18,0h-.67l.15-.15.67-.67.83-.83,1-1,0,0a.8.8,0,0,1,.4-.25h.05A.49.49,0,0,1,196,37l.33.27a.42.42,0,0,0,.25.12h.07a.43.43,0,0,0,.3-.13h0a.43.43,0,0,0,.13-.3.41.41,0,0,0,0-.16h0a.69.69,0,0,0-.2-.29h0l-1.17-1.09-.23-.26h0l-.27-.3-.5-.52-.11-.11h0l-.12-.12h0a1,1,0,0,0-.3-.2h0l-.15,0a.43.43,0,0,0-.28.11l0,0h0a.4.4,0,0,0-.11.28.15.15,0,0,0,0,.07.5.5,0,0,0,.14.27h0a2.4,2.4,0,0,1,.22.24l.17.22h0a.47.47,0,0,1,.08.2,0,0,0,0,0,0,0h0v0h0a.4.4,0,0,1-.06.13,2.22,2.22,0,0,1-.18.22l-1.13,1.13-.89.88-.48.49h0l-2,2h0l-1.14,1.13-.21.2-.19.19h0c-.33.31-.59.56-.79.72v0l-.09.07h0l-.08.07a2.45,2.45,0,0,1-.36.24l-.06,0-.05,0h0l0,0s0,0,0,0h-.05l-.36-.28a.41.41,0,0,0-.23-.1h-.07l-.14,0h0l-.08,0,0,0h0a.38.38,0,0,0-.11.28.61.61,0,0,0,0,.15.85.85,0,0,0,.19.29l0,0,0,0h0l1.14,1.07Zm12-5.25,0,0h0Zm.07-.54h0ZM169,27.8h0Zm-1.82,2.8a.16.16,0,0,0,0,.07h0a2.19,2.19,0,0,0,.4.48,8.07,8.07,0,0,0,.69.57c.4.3.82.59,1.25.85l.26.15.26.15,0,0a6.75,6.75,0,0,0,3.34.94l.52,0a6.79,6.79,0,0,0,.75-.11,6.53,6.53,0,0,0,.76-.2h0a6.7,6.7,0,0,0,2.36-1.3A7.77,7.77,0,0,0,179.51,30l-.13-.08.13.08a7.05,7.05,0,0,0,.86-2.56c0-.23,0-.45,0-.68a6.06,6.06,0,0,0-.31-1.87v0a6.32,6.32,0,0,0-1.26-2.22h0a7.81,7.81,0,0,0-2.12-1.67,10.3,10.3,0,0,0-1.68-.77h0l-.26-.09-.31-.08h0l-.62-.11c-.23,0-.46-.05-.7-.06h0a.76.76,0,0,0-.43.14h0l-.08.07h0l-.07.08a.56.56,0,0,0-.05.08c-.09.16-.2.37-.31.61l-.07.15v0l-.09.18h0l-.31.64h0l0,.08h0v0l0,0a.77.77,0,0,0-.07.28h0a.07.07,0,0,0,0,.05.57.57,0,0,0,.06.25l.07.15a.15.15,0,0,0,.18.08l.15-.05h0a.64.64,0,0,0,.2-.08.55.55,0,0,0,.17-.2l.18-.29a1.54,1.54,0,0,1,.18-.23h0a1.84,1.84,0,0,1,.26-.24l0,0s0,0,0,0a1.9,1.9,0,0,1,.89-.23h.2l.2,0h0a4.24,4.24,0,0,1,1.16.35l.24.11.25.13h0a4.37,4.37,0,0,1,1.63,1.59,3.13,3.13,0,0,1,.2.41,2.87,2.87,0,0,1,.17.44l0,0a5.12,5.12,0,0,1,.07,2.64c0,.18-.09.37-.15.56l-.1.31-2.77-1.54-.58-.32-.28-.17-.21-.15v0l0,0a.58.58,0,0,1-.17-.14l-.05,0c.05,0,0,0,0,0l0,0h0l-.11-.18a.65.65,0,0,0-.16-.17h0a.48.48,0,0,0-.24-.07h0a.47.47,0,0,0-.3.14h0l-.12.14h0v0l0,0-.25.26-.32.36,0,0-.42.48a2.91,2.91,0,0,0-.2.27l0,0a.48.48,0,0,0-.09.27.43.43,0,0,0,0,.19l0,.08.07.08.06,0a.54.54,0,0,0,.22.05.57.57,0,0,0,.25-.06h0l.05,0,0,0h0l0,0h0l.05,0,.12-.08-.05,0,.19-.11.13-.08h0a.67.67,0,0,1,.35-.1h.14a2.22,2.22,0,0,1,.59.22l.16.08.18.1h0l1.59.88,1.55.87a.54.54,0,0,1-.05.11,6.74,6.74,0,0,1-2,2.37,3.91,3.91,0,0,1-.44.26l-.45.2h0l-.08,0h0a4,4,0,0,1-1.19.19,4.28,4.28,0,0,1-1.2-.19l-.51-.19c-.17-.08-.34-.16-.51-.26h0a7,7,0,0,1-1.28-.87l-.16-.15-.14-.15h0a1.94,1.94,0,0,1-.4-.78,1.24,1.24,0,0,1,0-.33A1.77,1.77,0,0,1,169,29l.22-.54a.76.76,0,0,0,.06-.26v0a.41.41,0,0,0-.21-.35.46.46,0,0,0-.22-.07.52.52,0,0,0-.37.19h0l-.06.07h0l-.05.07h0l-.21.3,0,0-.26.37h0c-.13.19-.25.39-.38.61l0,0-.09.15v0l-.07.11v0h0a2.27,2.27,0,0,0-.19.39v0a.14.14,0,0,0,0,.06.21.21,0,0,1,0,.06h0v0s0,0,0,.08a.87.87,0,0,0,.05.22A.77.77,0,0,0,167.22,30.6ZM176,22.09l0,0,0,0Zm-3.22,3.47h0Zm-28.54-2.13h0l2.55.32H147a.62.62,0,0,0,.36-.09.34.34,0,0,0,.12-.12.69.69,0,0,0,.07-.15h0l-.15,0h.15v0a.38.38,0,0,0-.16-.33.68.68,0,0,0-.29-.11h0l-.13,0h0l-.14,0h0l-.17-.05-.19-.07a1,1,0,0,1-.23-.19l-.06-.07-.06-.09h0a3,3,0,0,1-.31-.57,8.18,8.18,0,0,1-.3-.82c-.18-.65-.35-1.28-.52-1.87s-.32-1.18-.48-1.79v0c-.21-.8-.46-1.73-.75-2.82l-.18-.69-.19-.73h0v0c-.1-.36-.2-.75-.31-1.17s-.21-.8-.31-1.16v0a3.59,3.59,0,0,0-.14-.45v-.06h0l0-.05h0a.74.74,0,0,0-.15-.19h0a.55.55,0,0,0-.26-.1h-.05a.46.46,0,0,0-.23.06.61.61,0,0,0-.17.15h0a2.62,2.62,0,0,0-.21.35h0l-.05.09,0,0-.08.15h0l-4.77,9.76a5,5,0,0,1-.44.74l-.07.09v0l0,.06h0a1,1,0,0,1-.41.26l-.1,0h-.14l-.43-.05h-.08a.46.46,0,0,0-.23.05.41.41,0,0,0-.22.33h0v0a.43.43,0,0,0,.24.39.8.8,0,0,0,.33.09h0l.46,0,.48,0h0l.64.06h.23l1.27.18h.11a.61.61,0,0,0,.24,0,.43.43,0,0,0,.28-.33v0h0v0s0,0,0,0a.43.43,0,0,0-.17-.33h0a.56.56,0,0,0-.29-.1l-.16,0-.18-.05h0l0,0h0l0,0v0h0a2.85,2.85,0,0,1,.17-.65.77.77,0,0,0,.06-.15s.05-.09.08-.16v0l1.24-2.67,3.26.34,1.06,4v.06l0,0-.12.09a.38.38,0,0,0-.13.24v0h0v0h0a.45.45,0,0,0,.32.39h0a2.33,2.33,0,0,0,.4.08ZM140,16.9l1.51-3.38.87,3.63Zm3.76,5.7ZM134.46,22Zm12.91,1.69h0Z"/><path class="cls-4" d="M49,72.81a2.24,2.24,0,1,1-2.77,1.53A2.24,2.24,0,0,1,49,72.81Z"/><polygon points="0 237.22 0 228.63 1.14 228.63 1.14 232.15 5.6 232.15 5.6 228.63 6.74 228.63 6.74 237.22 5.6 237.22 5.6 233.17 1.14 233.17 1.14 237.22 0 237.22 0 237.22"/><path d="M8.35,237.22l3.3-8.59h1.23l3.51,8.59H15.1l-1-2.61H10.5l-.94,2.61Zm2.48-3.53h2.92l-.9-2.38c-.27-.72-.48-1.32-.61-1.78a10.84,10.84,0,0,1-.46,1.64l-.95,2.52Z"/><polygon points="17.98 228.63 19.11 228.63 19.11 236.2 23.59 236.2 23.59 228.63 24.73 228.63 24.73 236.2 25.52 236.2 25.52 239.6 24.51 239.6 24.51 237.22 17.98 237.22 17.98 228.63 17.98 228.63"/><polygon points="27.53 228.63 28.56 228.63 28.56 235.43 33.13 228.63 34.27 228.63 34.27 237.22 33.24 237.22 33.24 230.43 28.67 237.22 27.53 237.22 27.53 228.63 27.53 228.63"/><path d="M36.46,233a4.67,4.67,0,0,1,1.15-3.35,3.91,3.91,0,0,1,3-1.21,4.14,4.14,0,0,1,2.15.57,3.72,3.72,0,0,1,1.45,1.59,5,5,0,0,1,.5,2.3,5.1,5.1,0,0,1-.52,2.34,3.59,3.59,0,0,1-1.5,1.56,4.18,4.18,0,0,1-2.08.53,4.05,4.05,0,0,1-2.17-.58,3.8,3.8,0,0,1-1.45-1.6,4.84,4.84,0,0,1-.49-2.15Zm1.17,0a3.48,3.48,0,0,0,.83,2.45,2.78,2.78,0,0,0,2.1.89,2.73,2.73,0,0,0,2.11-.9,3.67,3.67,0,0,0,.83-2.56,4.57,4.57,0,0,0-.35-1.84,2.8,2.8,0,0,0-1-1.21,3,3,0,0,0-3.61.4,3.71,3.71,0,0,0-.87,2.77Z"/><polygon points="46.84 237.22 46.84 228.63 47.98 228.63 47.98 232.15 52.44 232.15 52.44 228.63 53.58 228.63 53.58 237.22 52.44 237.22 52.44 233.17 47.98 233.17 47.98 237.22 46.84 237.22 46.84 237.22"/><path d="M55.19,237.22l3.3-8.59h1.23l3.51,8.59H61.94l-1-2.61h-3.6l-.94,2.61Zm2.48-3.53h2.92l-.9-2.38c-.27-.72-.48-1.32-.61-1.78a10.84,10.84,0,0,1-.46,1.64l-.95,2.52Z"/><path d="M65.7,228.63h5.38v8.59H69.94v-7.58h-3.1v4.42a11.44,11.44,0,0,1-.13,2,1.62,1.62,0,0,1-.53,1,1.48,1.48,0,0,1-1,.35,3.74,3.74,0,0,1-.9-.14l.19-1a1.29,1.29,0,0,0,.49.12.67.67,0,0,0,.58-.29,3.12,3.12,0,0,0,.19-1.37v-6Z"/><path d="M73.65,228.63h1.14v3.66h2a4.81,4.81,0,0,1,2.08.34,2,2,0,0,1,.93.91,2.59,2.59,0,0,1,.28,1.18,2.55,2.55,0,0,1-.68,1.75,3.35,3.35,0,0,1-2.53.75H73.65v-8.59Zm1.14,7.62h2.08a2.17,2.17,0,0,0,1.65-.45,1.59,1.59,0,0,0,.38-1.08,1.44,1.44,0,0,0-.27-.88,1.29,1.29,0,0,0-.74-.46,8.07,8.07,0,0,0-1.58-.11H74.79v3Z"/><polygon points="82.19 237.22 82.19 228.63 83.33 228.63 83.33 232.15 87.79 232.15 87.79 228.63 88.93 228.63 88.93 237.22 87.79 237.22 87.79 233.17 83.33 233.17 83.33 237.22 82.19 237.22 82.19 237.22"/><path d="M91.55,228.63h1.14v3.66h2a3.48,3.48,0,0,1,2.65.75,2.57,2.57,0,0,1,0,3.43,3.33,3.33,0,0,1-2.52.75H91.55v-8.59Zm1.14,7.62h2.08a2.62,2.62,0,0,0,1.55-.36,1.58,1.58,0,0,0,.19-2,1.28,1.28,0,0,0-.75-.47,8.06,8.06,0,0,0-1.55-.1H92.69v3Zm6.36-7.62h1.14v8.59H99.05v-8.59Z"/><path d="M102.8,228.63h1v6.8l4.57-6.8h1.14v8.59h-1v-6.79l-4.58,6.79H102.8v-8.59Zm4.27-2h.72a1.59,1.59,0,0,1-1.73,1.52,1.77,1.77,0,0,1-1.2-.39,1.7,1.7,0,0,1-.53-1.13h.72a.93.93,0,0,0,.33.6,1,1,0,0,0,.65.19,1.11,1.11,0,0,0,.71-.19.91.91,0,0,0,.33-.6Z"/><polygon points="117.43 228.63 118.46 228.63 118.46 235.43 123.03 228.63 124.17 228.63 124.17 237.22 123.14 237.22 123.14 230.43 118.56 237.22 117.43 237.22 117.43 228.63 117.43 228.63"/><path d="M132.83,234.2l1.14.29a3.86,3.86,0,0,1-1.29,2.14,3.55,3.55,0,0,1-2.27.73,4.13,4.13,0,0,1-2.26-.56,3.55,3.55,0,0,1-1.32-1.64,5.73,5.73,0,0,1-.46-2.3,5,5,0,0,1,.51-2.34,3.52,3.52,0,0,1,1.46-1.52,4.24,4.24,0,0,1,2.09-.52,3.47,3.47,0,0,1,2.16.66,3.36,3.36,0,0,1,1.23,1.84l-1.12.26a2.68,2.68,0,0,0-.87-1.36,2.27,2.27,0,0,0-1.43-.43,2.73,2.73,0,0,0-1.65.48,2.46,2.46,0,0,0-.94,1.27,5.1,5.1,0,0,0-.27,1.65,5.27,5.27,0,0,0,.32,1.91,2.36,2.36,0,0,0,1,1.22,2.69,2.69,0,0,0,1.46.41,2.42,2.42,0,0,0,1.61-.55,2.8,2.8,0,0,0,.9-1.64Z"/><path d="M142.16,234.2l1.14.29a3.86,3.86,0,0,1-1.29,2.14,3.53,3.53,0,0,1-2.27.73,4.16,4.16,0,0,1-2.26-.56,3.55,3.55,0,0,1-1.32-1.64,5.9,5.9,0,0,1-.45-2.3,5,5,0,0,1,.51-2.34,3.41,3.41,0,0,1,1.46-1.52,4.2,4.2,0,0,1,2.08-.52,3.52,3.52,0,0,1,2.17.66,3.4,3.4,0,0,1,1.22,1.84l-1.12.26a2.74,2.74,0,0,0-.86-1.36,2.29,2.29,0,0,0-1.43-.43,2.78,2.78,0,0,0-1.66.48,2.49,2.49,0,0,0-.93,1.27,5.52,5.52,0,0,0,0,3.56,2.3,2.3,0,0,0,1,1.22,2.69,2.69,0,0,0,1.46.41,2.4,2.4,0,0,0,1.61-.55,2.8,2.8,0,0,0,.9-1.64Z"/><path d="M145.59,228.63H151v8.59h-1.13v-7.58h-3.11v4.42a11.68,11.68,0,0,1-.12,2,1.73,1.73,0,0,1-.53,1,1.5,1.5,0,0,1-1,.35,3.74,3.74,0,0,1-.9-.14l.19-1a1.29,1.29,0,0,0,.48.12.66.66,0,0,0,.58-.29,3,3,0,0,0,.19-1.37v-6Z"/><polygon points="153.53 237.22 153.53 228.63 159.74 228.63 159.74 229.64 154.67 229.64 154.67 232.27 159.42 232.27 159.42 233.28 154.67 233.28 154.67 236.2 159.94 236.2 159.94 237.22 153.53 237.22 153.53 237.22"/><path d="M163,228.63h5.23v7.57H169v3h-1v-2h-5.68v2h-1v-3h.67c.7-1,1-3.15,1-6.32v-1.25Zm4.09,1h-3v.44c0,.73-.06,1.73-.19,3a9.81,9.81,0,0,1-.77,3.12h4v-6.56Z"/><path d="M170.63,233a4.67,4.67,0,0,1,1.15-3.35,3.91,3.91,0,0,1,3-1.21,4.14,4.14,0,0,1,2.15.57,3.72,3.72,0,0,1,1.45,1.59,5,5,0,0,1,.5,2.3,5.1,5.1,0,0,1-.52,2.34,3.59,3.59,0,0,1-1.5,1.56,4.18,4.18,0,0,1-2.08.53,4.05,4.05,0,0,1-2.17-.58,3.8,3.8,0,0,1-1.45-1.6,4.84,4.84,0,0,1-.49-2.15Zm1.17,0a3.48,3.48,0,0,0,.83,2.45,2.78,2.78,0,0,0,2.1.89,2.73,2.73,0,0,0,2.11-.9,3.67,3.67,0,0,0,.83-2.56,4.57,4.57,0,0,0-.35-1.84,2.8,2.8,0,0,0-1-1.21,3,3,0,0,0-3.61.4,3.71,3.71,0,0,0-.87,2.77Z"/><path d="M180.93,237.22v-8.59h3.22a3.89,3.89,0,0,1,1.58.26,2,2,0,0,1,.93.8,2.16,2.16,0,0,1,.34,1.13,1.93,1.93,0,0,1-.3,1,2.1,2.1,0,0,1-.9.78,2.31,2.31,0,0,1,1.19.78,2.09,2.09,0,0,1,.42,1.3,2.53,2.53,0,0,1-.25,1.13,2.24,2.24,0,0,1-.63.8,2.71,2.71,0,0,1-.94.42,5.52,5.52,0,0,1-1.39.15Zm1.13-5h1.86a4.66,4.66,0,0,0,1.09-.09,1.27,1.27,0,0,0,.65-.43,1.28,1.28,0,0,0,.22-.75,1.32,1.32,0,0,0-.21-.75,1,1,0,0,0-.58-.45,4.94,4.94,0,0,0-1.31-.12h-1.72v2.59Zm0,4h2.14a4.72,4.72,0,0,0,.78,0,1.84,1.84,0,0,0,.65-.23,1.28,1.28,0,0,0,.44-.48,1.54,1.54,0,0,0,.17-.73,1.48,1.48,0,0,0-.25-.83,1.29,1.29,0,0,0-.68-.5,4.46,4.46,0,0,0-1.26-.14h-2v2.95Z"/><path d="M188.3,237.22l3.3-8.59h1.23l3.51,8.59h-1.29l-1-2.61h-3.59l-.94,2.61Zm2.48-3.53h2.91l-.89-2.38c-.28-.72-.48-1.32-.61-1.78a10.88,10.88,0,0,1-.47,1.64l-.94,2.52Z"/><polygon points="199.16 237.22 199.16 229.64 196.34 229.64 196.34 228.63 203.14 228.63 203.14 229.64 200.3 229.64 200.3 237.22 199.16 237.22 199.16 237.22"/><polygon points="205 237.22 205 228.63 211.21 228.63 211.21 229.64 206.14 229.64 206.14 232.27 210.89 232.27 210.89 233.28 206.14 233.28 206.14 236.2 211.41 236.2 211.41 237.22 205 237.22 205 237.22"/><path d="M214.27,228.63h5.38v8.59h-1.14v-7.58h-3.1v4.42a10.5,10.5,0,0,1-.13,2,1.62,1.62,0,0,1-.53,1,1.47,1.47,0,0,1-1,.35,3.74,3.74,0,0,1-.9-.14l.19-1a1.29,1.29,0,0,0,.48.12.66.66,0,0,0,.58-.29,3,3,0,0,0,.19-1.37v-6Z"/><path d="M222.23,228.63h1.14v3.66h2a4.81,4.81,0,0,1,2.08.34,1.94,1.94,0,0,1,.92.91,2.6,2.6,0,0,1,.29,1.18,2.55,2.55,0,0,1-.68,1.75,3.38,3.38,0,0,1-2.54.75h-3.26v-8.59Zm1.14,7.62h2.08a2.2,2.2,0,0,0,1.65-.45,1.64,1.64,0,0,0,.38-1.08,1.38,1.38,0,0,0-.28-.88,1.23,1.23,0,0,0-.74-.46,8,8,0,0,0-1.57-.11h-1.52v3Z"/><path d="M236.6,234.2l1.13.29a3.79,3.79,0,0,1-1.28,2.14,3.55,3.55,0,0,1-2.27.73,4.13,4.13,0,0,1-2.26-.56,3.63,3.63,0,0,1-1.33-1.64,5.9,5.9,0,0,1-.45-2.3,5,5,0,0,1,.51-2.34,3.46,3.46,0,0,1,1.46-1.52,4.23,4.23,0,0,1,2.08-.52,3.5,3.5,0,0,1,2.17.66,3.36,3.36,0,0,1,1.23,1.84l-1.12.26a2.68,2.68,0,0,0-.87-1.36,2.27,2.27,0,0,0-1.43-.43,2.73,2.73,0,0,0-1.65.48,2.46,2.46,0,0,0-.94,1.27,5.1,5.1,0,0,0-.27,1.65,5.27,5.27,0,0,0,.32,1.91,2.3,2.3,0,0,0,1,1.22,2.71,2.71,0,0,0,1.46.41,2.43,2.43,0,0,0,1.62-.55,2.85,2.85,0,0,0,.9-1.64Z"/><path d="M239.82,228.63H241v3.76a1.58,1.58,0,0,0,1.09-.3,5.33,5.33,0,0,0,.81-1.45,7.81,7.81,0,0,1,.59-1.2,1.71,1.71,0,0,1,.66-.58,1.88,1.88,0,0,1,.94-.24h.69v1h-.45a1.07,1.07,0,0,0-.81.27,3.5,3.5,0,0,0-.62,1.12,4.44,4.44,0,0,1-.73,1.38,2.46,2.46,0,0,1-.71.45,3.14,3.14,0,0,1,1.63,1.54l1.77,2.86h-1.41L243,234.88a7.38,7.38,0,0,0-1-1.33,1.53,1.53,0,0,0-1-.35v4h-1.14v-8.59Z"/><polygon points="247.48 228.63 248.51 228.63 248.51 235.43 253.07 228.63 254.22 228.63 254.22 237.22 253.19 237.22 253.19 230.43 248.61 237.22 247.48 237.22 247.48 228.63 247.48 228.63"/><path d="M256.77,228.63h1v6.8l4.57-6.8h1.14v8.59h-1v-6.79l-4.58,6.79h-1.13v-8.59Zm4.27-2h.72A1.59,1.59,0,0,1,260,228.1a1.77,1.77,0,0,1-1.2-.39,1.7,1.7,0,0,1-.53-1.13H259a1,1,0,0,0,.32.6,1,1,0,0,0,.66.19,1.11,1.11,0,0,0,.71-.19.91.91,0,0,0,.33-.6Z"/><path d="M84.1,246.05h1.15L88,251.31l2.46-5.26h1.12l-3.22,6.68a6.5,6.5,0,0,1-1,1.64,1.48,1.48,0,0,1-1.1.39,3.51,3.51,0,0,1-1.08-.21v-1a1.84,1.84,0,0,0,1,.27,1,1,0,0,0,.72-.27,3.48,3.48,0,0,0,.67-1.22l-3.48-6.31Z"/><polygon points="93.29 254.64 93.29 246.05 94.43 246.05 94.43 249.58 98.89 249.58 98.89 246.05 100.03 246.05 100.03 254.64 98.89 254.64 98.89 250.59 94.43 250.59 94.43 254.64 93.29 254.64 93.29 254.64"/><polygon points="102.6 246.05 103.63 246.05 103.63 252.85 108.2 246.05 109.35 246.05 109.35 254.64 108.32 254.64 108.32 247.86 103.74 254.64 102.6 254.64 102.6 246.05 102.6 246.05"/><path d="M111.83,254.64v-8.59h3.22a4,4,0,0,1,1.58.26,2,2,0,0,1,.93.81,2,2,0,0,1,.34,1.13,2,2,0,0,1-.3,1,2.17,2.17,0,0,1-.9.78,2.22,2.22,0,0,1,1.2.78,2.09,2.09,0,0,1,.42,1.3,2.49,2.49,0,0,1-.26,1.12,2.08,2.08,0,0,1-.63.8,2.64,2.64,0,0,1-.94.43,6,6,0,0,1-1.38.14Zm1.14-5h1.86a4,4,0,0,0,1.08-.1,1.13,1.13,0,0,0,.65-.42,1.25,1.25,0,0,0,.22-.75,1.46,1.46,0,0,0-.2-.76,1,1,0,0,0-.59-.44,4.86,4.86,0,0,0-1.3-.12H113v2.59Zm0,4h2.14a6.16,6.16,0,0,0,.77,0,2,2,0,0,0,.66-.24,1.23,1.23,0,0,0,.43-.47,1.54,1.54,0,0,0,.17-.73,1.36,1.36,0,0,0-.25-.83,1.24,1.24,0,0,0-.68-.5,4.12,4.12,0,0,0-1.26-.14h-2v2.95Z"/><polygon points="120.57 254.64 120.57 246.05 126.78 246.05 126.78 247.07 121.71 247.07 121.71 249.7 126.46 249.7 126.46 250.71 121.71 250.71 121.71 253.63 126.98 253.63 126.98 254.64 120.57 254.64 120.57 254.64"/><path d="M129.22,254.64v-8.59h3.24a7.18,7.18,0,0,1,1.31.09,2.58,2.58,0,0,1,1.06.4,2.12,2.12,0,0,1,.69.83,2.78,2.78,0,0,1-.44,3,3.34,3.34,0,0,1-2.52.76h-2.2v3.49Zm1.14-4.5h2.22a2.37,2.37,0,0,0,1.56-.41,1.47,1.47,0,0,0,.46-1.16,1.54,1.54,0,0,0-.27-.92,1.24,1.24,0,0,0-.72-.51,5,5,0,0,0-1.06-.07h-2.19v3.07Z"/><path d="M143.88,251.63l1.14.29a3.88,3.88,0,0,1-1.28,2.13,3.51,3.51,0,0,1-2.28.74,4,4,0,0,1-2.25-.57,3.49,3.49,0,0,1-1.33-1.63,6,6,0,0,1-.45-2.31,5.11,5.11,0,0,1,.51-2.34,3.49,3.49,0,0,1,1.46-1.51,4.2,4.2,0,0,1,2.08-.52,3.58,3.58,0,0,1,2.17.65,3.41,3.41,0,0,1,1.22,1.85l-1.11.26a2.64,2.64,0,0,0-.87-1.36,2.29,2.29,0,0,0-1.43-.43,2.85,2.85,0,0,0-1.66.47,2.52,2.52,0,0,0-.93,1.28,5.1,5.1,0,0,0-.27,1.65,5.31,5.31,0,0,0,.32,1.91,2.37,2.37,0,0,0,1,1.22,2.8,2.8,0,0,0,1.46.41,2.48,2.48,0,0,0,1.62-.55,2.82,2.82,0,0,0,.89-1.64Z"/><polygon points="147.11 246.05 148.14 246.05 148.14 252.85 152.71 246.05 153.85 246.05 153.85 254.64 152.82 254.64 152.82 247.86 148.24 254.64 147.11 254.64 147.11 246.05 147.11 246.05"/><polygon points="158.57 254.64 158.57 247.07 155.74 247.07 155.74 246.05 162.55 246.05 162.55 247.07 159.7 247.07 159.7 254.64 158.57 254.64 158.57 254.64"/><polygon points="164.4 254.64 164.4 246.05 170.61 246.05 170.61 247.07 165.54 247.07 165.54 249.7 170.29 249.7 170.29 250.71 165.54 250.71 165.54 253.63 170.81 253.63 170.81 254.64 164.4 254.64 164.4 254.64"/><polygon points="175.23 254.64 175.23 247.07 172.41 247.07 172.41 246.05 179.21 246.05 179.21 247.07 176.37 247.07 176.37 254.64 175.23 254.64 175.23 254.64"/><path class="cls-1" d="M131.27,29a73.24,73.24,0,1,0,73.24,73.24A73.24,73.24,0,0,0,131.27,29Zm-5.45,23.29h5.53c10,0,14.11,1.75,18.82,5.38C157,63,158.1,70.81,158.1,74.71A21.31,21.31,0,0,1,153,88.83a23.93,23.93,0,0,1-16.53,9,58.88,58.88,0,0,1-13.21.23V93.14a34.12,34.12,0,0,0,4.61.28,16.79,16.79,0,0,0,13.34-6.49A16.2,16.2,0,0,0,145,76.61H127.87V71.77h17a15.59,15.59,0,0,0-3.71-8.22c-3.9-4.84-9.41-5.64-13-5.64l-24.5,0-2.9-5.64ZM102,150.32l3-5.89V62h13.37v82.32h9.46V112.19h12.34V144.3h10.7V129.67c0-8.87-.46-21.21-10.44-27.58l5.81-2.13c12,4.47,18.05,16.15,18.05,31.54v12.93l3,5.89Z"/></g></g></svg>