<svg xmlns="http://www.w3.org/2000/svg" viewBox="0 0 198.32 112.81"><title>Ресурс 16</title><g id="Слой_2" data-name="Слой 2"><g id="содержание"><polygon points="46.54 1.74 46.54 28.75 124.72 28.75 124.72 1.74 130.81 1.74 130.81 59.79 124.72 59.79 124.72 34.83 46.54 34.83 46.54 59.79 40.45 59.79 40.45 1.74 46.54 1.74 46.54 1.74"/><path d="M139.5,53.7l7-49.34.37-2.62h18.73v52h3.95v6.09h-34.2V53.7Zm20,0V7.82h-7.38l-6.5,45.88Z"/><polygon points="198.18 59.79 177.72 59.79 174.67 59.79 174.67 1.74 198.32 1.74 198.32 7.82 180.76 7.82 180.76 24.11 180.76 28.79 196.57 28.79 196.57 34.88 180.76 34.88 180.76 53.7 198.18 53.7 198.18 59.79 198.18 59.79"/><polygon points="6.09 1.74 6.09 40.63 33.05 0 33.05 59.79 26.97 59.79 26.97 20.77 0 61.4 0 1.74 6.09 1.74 6.09 1.74"/><path d="M32.18,87.65v5.57L36,87.65h1.33v7.41H36.12V89.49l-3.84,5.57H30.94V87.65Z"/><path d="M46.64,87.65v7.41H45.4V91.68H41.87v3.38H40.64V87.65h1.23v2.91H45.4V87.65Z"/><path d="M49.41,87.65h6.68v1.12H53.37v6.29H52.13V88.77H49.41Z"/><path d="M65.32,91.62H59.53a2.31,2.31,0,0,0,2.28,2.44,2.56,2.56,0,0,0,2.38-1.47l1,.51a3.5,3.5,0,0,1-3.37,2.07,3.83,3.83,0,0,1,0-7.64,3.35,3.35,0,0,1,3.51,3.57Zm-5.7-1.12H64a2.09,2.09,0,0,0-2.21-1.85A2.15,2.15,0,0,0,59.62,90.5Z"/><path d="M71.68,95.17a2.88,2.88,0,0,1-2.27-1v3.94H68.18V87.65h1.23v1a2.86,2.86,0,0,1,2.27-1.1c2.17,0,3.39,1.56,3.39,3.82S73.85,95.17,71.68,95.17Zm-.12-6.52c-1.41,0-2.25,1.12-2.25,2.7s.84,2.71,2.25,2.71,2.25-1.12,2.25-2.71S73,88.65,71.56,88.65Z"/><path d="M83.85,87.65v7.41H82.62V91.68H79.09v3.38H77.86V87.65h1.23v2.91h3.53V87.65Z"/><path d="M93.86,91.62H88.07a2.3,2.3,0,0,0,2.28,2.44,2.56,2.56,0,0,0,2.38-1.47l1,.51a3.48,3.48,0,0,1-3.36,2.07,3.83,3.83,0,0,1,0-7.64,3.35,3.35,0,0,1,3.51,3.57Zm-5.7-1.12h4.39a2.08,2.08,0,0,0-2.2-1.85A2.15,2.15,0,0,0,88.16,90.5Z"/><path d="M96,87.65h6.68v1.12H100v6.29H98.73V88.77H96Z"/><path d="M104.47,89.85h5.13v1.09h-5.13Z"/><path d="M116.22,87.65v3.1l2-3.1h1.46L117.43,91l2.55,4h-1.44l-2.32-3.72v3.72H115V91.34l-2.32,3.72h-1.45l2.56-4-2.28-3.39H113l2,3.1v-3.1Z"/><path d="M129.29,87.65l-4.4,10.41h-1.23l1.44-3.5-3.21-6.91h1.39l2.48,5.42L128,87.65Z"/><path d="M135.29,95.17a2.84,2.84,0,0,1-2.26-1v3.94H131.8V87.65H133v1a2.84,2.84,0,0,1,2.26-1.1c2.18,0,3.4,1.56,3.4,3.82S137.47,95.17,135.29,95.17Zm-.11-6.52c-1.41,0-2.25,1.12-2.25,2.7s.84,2.71,2.25,2.71,2.24-1.12,2.24-2.71S136.59,88.65,135.18,88.65Z"/><path d="M147.47,87.65v7.41h-1.23V91.68h-3.53v3.38h-1.24V87.65h1.24v2.91h3.53V87.65Z"/><path d="M156.75,95.06h-1l-.18-1A3.25,3.25,0,0,1,153,95.17a2.13,2.13,0,0,1-2.3-2.24c0-1.65,1.33-2.43,3.36-2.43h1.49v-.32c0-1.15-.8-1.53-1.7-1.53a1.8,1.8,0,0,0-1.75,1.26L151,89.62a2.83,2.83,0,0,1,2.84-2.09c1.73,0,2.94.81,2.94,2.85Zm-3.6-1a2.25,2.25,0,0,0,2.36-2.27v-.23H153.9c-1.27,0-2,.53-2,1.37A1.1,1.1,0,0,0,153.15,94.06Z"/><path d="M161.14,87.65h5.41v7.41h-1.24V88.77h-3.14L161.73,93c-.15,1.38-1,2-2.59,2V93.94c1,0,1.42-.4,1.51-1.35Z"/><path d="M68.28,105.29h3.5v6.32h2.73v1.09H68v-1.09h2.56v-5.24H68.28Zm2.8-3a1,1,0,0,1,1,1,1,1,0,0,1-1,1,1,1,0,0,1-1-1A1,1,0,0,1,71.08,102.29Z"/><path d="M83.58,112.7H82.35v-4.9c0-1-.49-1.51-1.37-1.51-1.16,0-2.17,1.26-2.17,3.42v3H77.57v-7.41h1.24v1.36a3,3,0,0,1,2.51-1.48,2.1,2.1,0,0,1,2.26,2.37Z"/><path d="M90.2,105.17a2.82,2.82,0,0,1,2.26,1.06v-3.94H93.7V112.7H92.46v-1a2.84,2.84,0,0,1-2.26,1.1c-2.18,0-3.4-1.56-3.4-3.82S88,105.17,90.2,105.17Zm.12,6.53c1.41,0,2.25-1.12,2.25-2.71s-.84-2.7-2.25-2.7-2.25,1.11-2.25,2.7S88.91,111.7,90.32,111.7Z"/><path d="M103.9,109.26H98.11a2.3,2.3,0,0,0,2.28,2.44,2.57,2.57,0,0,0,2.38-1.47l1,.51a3.49,3.49,0,0,1-3.36,2.07,3.83,3.83,0,0,1,0-7.64,3.35,3.35,0,0,1,3.51,3.57Zm-5.7-1.12h4.39a2.08,2.08,0,0,0-2.2-1.85A2.15,2.15,0,0,0,98.2,108.14Z"/><path d="M108.71,110.4a1.18,1.18,0,1,1-1.18,1.18A1.14,1.14,0,0,1,108.71,110.4Z"/><path d="M114.16,105.29h3.5v6.32h2.73v1.09h-6.53v-1.09h2.56v-5.24h-2.26Zm2.79-3a1,1,0,0,1,1,1,1,1,0,0,1-2,0A1,1,0,0,1,117,102.29Z"/><path d="M126.34,105.17A3.82,3.82,0,1,1,122.7,109,3.62,3.62,0,0,1,126.34,105.17Zm0,6.53A2.73,2.73,0,1,0,124,109,2.47,2.47,0,0,0,126.34,111.7Z"/></g></g></svg>