<svg xmlns="http://www.w3.org/2000/svg" xmlns:xlink="http://www.w3.org/1999/xlink" viewBox="0 0 130.54 128.57"><defs><style>.cls-1{fill:none;}.cls-2{fill:#ffd800;}.cls-3{clip-path:url(#clip-path);}</style><clipPath id="clip-path"><ellipse class="cls-1" cx="65.27" cy="64.28" rx="65.27" ry="64.28"/></clipPath></defs><title>Ресурс 7</title><g id="Слой_2" data-name="Слой 2"><g id="содержание"><ellipse class="cls-2" cx="65.27" cy="64.28" rx="65.27" ry="64.28"/><path d="M65.27,112.46c-27,0-48.89-21.61-48.89-48.18S38.31,16.11,65.27,16.11s48.89,21.61,48.89,48.17S92.23,112.46,65.27,112.46Zm0-93.83C39.7,18.63,18.9,39.11,18.9,64.28s20.8,45.65,46.37,45.65,46.37-20.47,46.37-45.65S90.84,18.63,65.27,18.63Z"/><g class="cls-3"><path class="cls-2" d="M130.54,50.58c0,35.5-43.14,78-79.19,78L65.27,64.28Z"/><path class="cls-2" d="M0,78C0,42.49,43.14,0,79.19,0L65.27,64.28Z"/></g><path d="M66.6,116l-2.83.19-.84-11.84,10.2-.7L74,115.46l-2.83.19-.68-9.54-4.53.31Z"/><path d="M80.62,101.09a8.1,8.1,0,0,1,1.69-.44,4,4,0,0,1,1.58.08,3.24,3.24,0,0,1,1.35.75,4,4,0,0,1,1,1.59,4.57,4.57,0,0,1,.36,1.56,3.73,3.73,0,0,1-.19,1.25,3.12,3.12,0,0,1-.58,1,4.91,4.91,0,0,1-.81.71,5.54,5.54,0,0,1-.87.5,7.47,7.47,0,0,1-.78.33l-2.52,1,1.48,3.81-2.65,1-4.32-11.09Zm-.6,6.09,2.07-.78a2.6,2.6,0,0,0,1.29-.89,1.47,1.47,0,0,0,0-1.35,1.57,1.57,0,0,0-.55-.78,1.32,1.32,0,0,0-.67-.23,2.26,2.26,0,0,0-.69.1l-.55.19-2.07.78Z"/><path d="M95.92,97.22,97.26,99l-4.69,3.5,1.63,2.13,5.47-4.08,1.41,1.84-7.73,5.77-7.28-9.47L93.66,93l1.42,1.84-5.33,4,1.48,1.92Z"/><path d="M107.47,87.89a7.61,7.61,0,0,1,1,1.13,4.19,4.19,0,0,1,.68,1.57,4.55,4.55,0,0,1,0,2,6.27,6.27,0,0,1-1.2,2.36,8.06,8.06,0,0,1-1.56,1.58,4.84,4.84,0,0,1-1.93.91,5.16,5.16,0,0,1-2.3-.08A7.73,7.73,0,0,1,99.45,96a9.06,9.06,0,0,1-2-1.86,6.38,6.38,0,0,1-.95-1.79,4.28,4.28,0,0,1-.19-1.63,5.48,5.48,0,0,1,.79-2.5c.19-.3.35-.53.46-.68a6.65,6.65,0,0,1,1.93-1.83,4.89,4.89,0,0,1,1.88-.66,4,4,0,0,1,1.67.16,5.87,5.87,0,0,1,1.33.63L102.75,88a2.58,2.58,0,0,0-1.19-.36,2.19,2.19,0,0,0-.92.18,2.23,2.23,0,0,0-.67.47c-.17.19-.31.34-.41.47a7.11,7.11,0,0,0-.36.62,2.13,2.13,0,0,0-.18,1,3.33,3.33,0,0,0,.49,1.39,6.26,6.26,0,0,0,1.68,1.66,6,6,0,0,0,1.38.78,3.58,3.58,0,0,0,1.32.27,2.66,2.66,0,0,0,2.2-1.09,2.74,2.74,0,0,0,.51-1,2.23,2.23,0,0,0,0-.93,2.29,2.29,0,0,0-.34-.76,3.58,3.58,0,0,0-.47-.58Z"/><path d="M112.67,74.51a7.88,7.88,0,0,1,1.29.79,4.17,4.17,0,0,1,1.12,1.3,4.62,4.62,0,0,1,.56,1.89,6.38,6.38,0,0,1-.43,2.6,8,8,0,0,1-1,2,4.67,4.67,0,0,1-1.57,1.43,5.14,5.14,0,0,1-2.22.61,7.89,7.89,0,0,1-3-.5A9.48,9.48,0,0,1,105,83.4,6.29,6.29,0,0,1,103.59,82a4.58,4.58,0,0,1-.69-1.5,6.11,6.11,0,0,1-.15-1.43,4.76,4.76,0,0,1,.16-1.19c.09-.34.17-.6.23-.79a6.61,6.61,0,0,1,1.29-2.31A4.83,4.83,0,0,1,106,73.57a3.89,3.89,0,0,1,1.65-.33,5.77,5.77,0,0,1,1.45.2l-.91,2.6A2.62,2.62,0,0,0,107,76a2.19,2.19,0,0,0-.83.44,2.43,2.43,0,0,0-.49.64,5.19,5.19,0,0,0-.24.57,3.7,3.7,0,0,0-.16.7,2.1,2.1,0,0,0,.14,1,3.19,3.19,0,0,0,.89,1.17,6,6,0,0,0,2.1,1.1,6.2,6.2,0,0,0,1.55.34,3.93,3.93,0,0,0,1.35-.13,2.88,2.88,0,0,0,1.07-.6,3,3,0,0,0,.86-2.24,2,2,0,0,0-.29-.89,2.06,2.06,0,0,0-.55-.62,3.83,3.83,0,0,0-.63-.42Z"/><path d="M105.66,64.69l12.24-3.92-.13,3-2.29.66-.2,4.3,2.22.85-.14,3-11.83-5Zm7.74.23-4.66,1.32L113.26,68Z"/><path d="M63.9,12.6l2.83-.19.84,11.84L57.36,25l-.83-11.84,2.83-.2L60,22.45l4.54-.31Z"/><path d="M49.88,27.47a7.67,7.67,0,0,1-1.69.44,4.14,4.14,0,0,1-1.58-.07,3.16,3.16,0,0,1-1.35-.76,4.16,4.16,0,0,1-1-1.58,4.83,4.83,0,0,1-.35-1.57,3.44,3.44,0,0,1,.19-1.24,2.9,2.9,0,0,1,.58-1,4.55,4.55,0,0,1,.81-.72,5.54,5.54,0,0,1,.87-.5,7.47,7.47,0,0,1,.78-.33l2.52-.95-1.48-3.82,2.65-1,4.31,11.08Zm.6-6.09-2.08.78a2.47,2.47,0,0,0-1.28.9,1.45,1.45,0,0,0,0,1.34,1.62,1.62,0,0,0,.54.78,1.29,1.29,0,0,0,.68.23,2,2,0,0,0,.69-.1l.55-.19,2.07-.78Z"/><path d="M34.56,31.36l-1.34-1.75,4.69-3.5L36.28,24l-5.46,4.08L29.4,26.23l7.73-5.77,7.28,9.46-7.59,5.67-1.41-1.84,5.32-4-1.48-1.92Z"/><path d="M23,40.67a6.71,6.71,0,0,1-1-1.13A4.21,4.21,0,0,1,21.35,38a4.56,4.56,0,0,1,0-2,6.24,6.24,0,0,1,1.2-2.35,8.06,8.06,0,0,1,1.55-1.59,4.75,4.75,0,0,1,1.93-.9,5.06,5.06,0,0,1,2.31.07,7.86,7.86,0,0,1,2.66,1.35,8.61,8.61,0,0,1,2,1.86A6,6,0,0,1,34,36.23a4.08,4.08,0,0,1,.2,1.63,5.43,5.43,0,0,1-.29,1.4,5,5,0,0,1-.5,1.09c-.19.3-.35.53-.47.69A6.49,6.49,0,0,1,31,42.86a4.68,4.68,0,0,1-1.88.66,4,4,0,0,1-1.66-.16,5.67,5.67,0,0,1-1.33-.62l1.66-2.21a2.55,2.55,0,0,0,1.19.36,2.19,2.19,0,0,0,.92-.18,2,2,0,0,0,.66-.47,3.51,3.51,0,0,0,.77-1.09,1.92,1.92,0,0,0,.18-1A3,3,0,0,0,31,36.73a5.93,5.93,0,0,0-1.67-1.67,6.37,6.37,0,0,0-1.38-.77A3.87,3.87,0,0,0,26.6,34a2.91,2.91,0,0,0-1.2.26,2.79,2.79,0,0,0-1,.84,2.7,2.7,0,0,0-.51,1,2.07,2.07,0,0,0,0,.93,2.24,2.24,0,0,0,.34.77,4.74,4.74,0,0,0,.47.58Z"/><path d="M17.83,54.05a7.12,7.12,0,0,1-1.29-.79A4.28,4.28,0,0,1,15.41,52a4.71,4.71,0,0,1-.55-1.9,6.22,6.22,0,0,1,.43-2.6,8.3,8.3,0,0,1,1-2,4.7,4.7,0,0,1,1.58-1.43,5.05,5.05,0,0,1,2.21-.6,7.74,7.74,0,0,1,3,.5,8.94,8.94,0,0,1,2.42,1.2,5.8,5.8,0,0,1,1.45,1.43,4.19,4.19,0,0,1,.68,1.5,5.13,5.13,0,0,1,.15,1.42,5.22,5.22,0,0,1-.15,1.19c-.09.34-.17.61-.23.79a6.61,6.61,0,0,1-1.3,2.31A4.83,4.83,0,0,1,24.47,55a3.89,3.89,0,0,1-1.64.34,5.83,5.83,0,0,1-1.46-.21l.92-2.59a2.48,2.48,0,0,0,1.25,0,2.14,2.14,0,0,0,.82-.44,2.07,2.07,0,0,0,.49-.64,5.59,5.59,0,0,0,.25-.57,6.46,6.46,0,0,0,.16-.7,2,2,0,0,0-.15-1.05A3.15,3.15,0,0,0,24.23,48a6.11,6.11,0,0,0-2.11-1.1,5.67,5.67,0,0,0-1.55-.33,3.63,3.63,0,0,0-1.34.12,2.88,2.88,0,0,0-1.07.6,2.6,2.6,0,0,0-.7,1.09,2.75,2.75,0,0,0-.17,1.15,2.23,2.23,0,0,0,.29.89,2.6,2.6,0,0,0,.55.63,6.07,6.07,0,0,0,.63.41Z"/><path d="M24.84,63.87,12.59,67.79l.14-3L15,64.16l.2-4.3L13,59l.13-2.94L25,61Zm-7.75-.22,4.67-1.32-4.52-1.77Z"/><path d="M65.22,90.51a26.73,26.73,0,0,1-12.44-3.07,26.07,26.07,0,0,1-13-15.59,25.72,25.72,0,0,1,2-19.88,26.86,26.86,0,0,1,36-10.85h0a26.15,26.15,0,0,1,13,15.6,25.72,25.72,0,0,1-2,19.88A26.7,26.7,0,0,1,65.22,90.51ZM65.31,40A24.81,24.81,0,0,0,43.44,52.87,23.81,23.81,0,0,0,41.6,71.29,24.27,24.27,0,0,0,53.66,85.77,25,25,0,0,0,87.1,75.7a23.84,23.84,0,0,0,1.84-18.43A24.25,24.25,0,0,0,76.88,42.8h0A24.92,24.92,0,0,0,65.31,40Z"/><path d="M73.49,84A36.06,36.06,0,0,1,57,79.63C49,75.47,43.08,69,41.06,62.43A13.38,13.38,0,0,1,41.77,52c4.57-8.46,18.82-9.82,31.77-3h0c8,4.17,13.92,10.6,15.93,17.21a13.33,13.33,0,0,1-.71,10.46C86.16,81.43,80.38,84,73.49,84ZM57,46.47c-6.16,0-11.25,2.18-13.53,6.4a11.51,11.51,0,0,0-.56,9C44.75,68,50.36,74,57.88,78c12,6.3,25.14,5.29,29.22-2.26a11.55,11.55,0,0,0,.56-9c-1.87-6.13-7.48-12.14-15-16.08A34.5,34.5,0,0,0,57,46.47Z"/><path d="M84.14,78.48c-5.39,0-14.27-3.2-22.47-7.5-10.7-5.59-18.75-12.2-20-16.42A3.31,3.31,0,0,1,41.77,52c2.37-4.39,15.43-.5,27.1,5.61,10.69,5.6,18.74,12.2,20,16.43a3.27,3.27,0,0,1-.15,2.59C88.06,77.9,86.41,78.48,84.14,78.48ZM46.27,52c-1.54,0-2.52.31-2.83.89a1.45,1.45,0,0,0,0,1.13c1,3.14,7.83,9.4,19.1,15.31C76.07,76.39,86,77.8,87.1,75.7a1.57,1.57,0,0,0,0-1.14c-1-3.13-7.83-9.39-19.11-15.3h0C58.2,54.13,50.3,52,46.27,52Z"/><path d="M55.9,88.18a6.62,6.62,0,0,1-3.12-.74,7.48,7.48,0,0,1-3.57-4.71C47.46,77,49.45,67.5,54.3,58.52c7-13,17.31-20.61,23.46-17.4a7.53,7.53,0,0,1,3.57,4.71c1.75,5.74-.25,15.24-5.09,24.21C70.32,81,62,88.18,55.9,88.18Zm18.72-45.9c-5.3,0-13.21,7.06-18.66,17.14C51.35,68,49.41,76.91,51,82.18a5.68,5.68,0,0,0,2.64,3.59c5.05,2.64,14.63-5,20.92-16.63h0c4.61-8.55,6.55-17.48,4.94-22.75a5.71,5.71,0,0,0-2.64-3.59A4.88,4.88,0,0,0,74.62,42.28Z"/></g></g></svg>