<svg xmlns="http://www.w3.org/2000/svg" viewBox="0 0 284.13 1930.16"><defs><style>.cls-1{fill:none;stroke:#000;stroke-miterlimit:10;stroke-width:2px;}</style></defs><title>Ресурс 9</title><g id="Слой_2" data-name="Слой 2"><g id="содержание"><path class="cls-1" d="M49.57.71,4.82,45.11a12.93,12.93,0,0,0,0,18.35l35.5,35.22a13,13,0,0,1,0,18.36L4.82,152.25a13,13,0,0,0,0,18.36l35.5,35.22a13,13,0,0,1,0,18.35L4.82,259.4a12.93,12.93,0,0,0,0,18.35L40.32,313a13,13,0,0,1,0,18.36L4.82,366.55a12.93,12.93,0,0,0,0,18.35l35.5,35.23a13,13,0,0,1,0,18.35L4.82,473.7a13,13,0,0,0,0,18.36l35.5,35.22a13,13,0,0,1,0,18.35L4.82,580.85a13,13,0,0,0,0,18.36l35.5,35.22a13,13,0,0,1,0,18.35L4.82,688a13,13,0,0,0,0,18.36l35.5,35.22a13,13,0,0,1,0,18.35L4.82,795.15a13,13,0,0,0,0,18.36l35.5,35.22a13,13,0,0,1,0,18.35L4.82,902.3a13,13,0,0,0,0,18.36l35.5,35.22a13,13,0,0,1,0,18.35l-35.5,35.23a12.93,12.93,0,0,0,0,18.35L40.32,1063a13,13,0,0,1,0,18.36L4.82,1116.6a13,13,0,0,0,0,18.36l35.5,35.22a13,13,0,0,1,0,18.36l-35.5,35.21a13,13,0,0,0,0,18.36l35.5,35.22a13,13,0,0,1,0,18.35L4.82,1330.9a13,13,0,0,0,0,18.36l35.5,35.22a13,13,0,0,1,0,18.35l-35.5,35.22a13,13,0,0,0,0,18.36l35.5,35.22a13,13,0,0,1,0,18.36l-35.5,35.22a13,13,0,0,0,0,18.36l35.5,35.22a13,13,0,0,1,0,18.35l-35.5,35.23a12.93,12.93,0,0,0,0,18.35L40.32,1706a13,13,0,0,1,0,18.35l-35.5,35.22a13,13,0,0,0,0,18.36l35.5,35.22a13,13,0,0,1,0,18.36l-35.5,35.22a13,13,0,0,0,0,18.36l44.75,44.41"/><path class="cls-1" d="M28.57.71l44.75,44.4a13,13,0,0,1,0,18.35L37.82,98.68a13,13,0,0,0,0,18.36l35.5,35.21a13,13,0,0,1,0,18.36l-35.5,35.22a12.93,12.93,0,0,0,0,18.35l35.5,35.22a13,13,0,0,1,0,18.35L37.82,313a13,13,0,0,0,0,18.36l35.5,35.22a13,13,0,0,1,0,18.35l-35.5,35.23a12.93,12.93,0,0,0,0,18.35l35.5,35.22a13,13,0,0,1,0,18.36l-35.5,35.22a12.93,12.93,0,0,0,0,18.35l35.5,35.22a13,13,0,0,1,0,18.36l-35.5,35.22a12.93,12.93,0,0,0,0,18.35L73.32,688a13,13,0,0,1,0,18.36l-35.5,35.22a12.93,12.93,0,0,0,0,18.35l35.5,35.22a13,13,0,0,1,0,18.36l-35.5,35.22a12.93,12.93,0,0,0,0,18.35l35.5,35.22a13,13,0,0,1,0,18.36l-35.5,35.22a12.93,12.93,0,0,0,0,18.35l35.5,35.23a13,13,0,0,1,0,18.35L37.82,1063a13,13,0,0,0,0,18.36l35.5,35.21a13,13,0,0,1,0,18.36l-35.5,35.22a13,13,0,0,0,0,18.36l35.5,35.21a13,13,0,0,1,0,18.36l-35.5,35.22a12.93,12.93,0,0,0,0,18.35l35.5,35.22a13,13,0,0,1,0,18.36l-35.5,35.22a12.93,12.93,0,0,0,0,18.35l35.5,35.22a13,13,0,0,1,0,18.36l-35.5,35.22a13,13,0,0,0,0,18.36l35.5,35.22a13,13,0,0,1,0,18.36l-35.5,35.22a12.93,12.93,0,0,0,0,18.35l35.5,35.23a13,13,0,0,1,0,18.35L37.82,1706a12.93,12.93,0,0,0,0,18.35l35.5,35.22a13,13,0,0,1,0,18.36l-35.5,35.22a13,13,0,0,0,0,18.36l35.5,35.22a13,13,0,0,1,0,18.36l-44.75,44.41"/><path class="cls-1" d="M118.23.71,73.48,45.11a13,13,0,0,0,0,18.35L109,98.68A13,13,0,0,1,109,117l-35.5,35.21a13,13,0,0,0,0,18.36L109,205.83a12.93,12.93,0,0,1,0,18.35L73.48,259.4a13,13,0,0,0,0,18.35L109,313a13,13,0,0,1,0,18.36l-35.5,35.22a13,13,0,0,0,0,18.35L109,420.13a12.93,12.93,0,0,1,0,18.35L73.48,473.7a13,13,0,0,0,0,18.36L109,527.28a12.93,12.93,0,0,1,0,18.35l-35.5,35.22a13,13,0,0,0,0,18.36L109,634.43a12.93,12.93,0,0,1,0,18.35L73.48,688a13,13,0,0,0,0,18.36L109,741.58a12.93,12.93,0,0,1,0,18.35l-35.5,35.22a13,13,0,0,0,0,18.36L109,848.73a12.93,12.93,0,0,1,0,18.35L73.48,902.3a13,13,0,0,0,0,18.36L109,955.88a12.93,12.93,0,0,1,0,18.35l-35.5,35.23a13,13,0,0,0,0,18.35L109,1063a13,13,0,0,1,0,18.36l-35.5,35.21a13,13,0,0,0,0,18.36l35.5,35.22a13,13,0,0,1,0,18.36l-35.5,35.21a13,13,0,0,0,0,18.36l35.5,35.22a12.93,12.93,0,0,1,0,18.35l-35.5,35.22a13,13,0,0,0,0,18.36l35.5,35.22a12.93,12.93,0,0,1,0,18.35l-35.5,35.22a13,13,0,0,0,0,18.36l35.5,35.22a13,13,0,0,1,0,18.36l-35.5,35.22a13,13,0,0,0,0,18.36l35.5,35.22a12.93,12.93,0,0,1,0,18.35l-35.5,35.23a12.94,12.94,0,0,0,0,18.35L109,1706a12.93,12.93,0,0,1,0,18.35l-35.5,35.22a13,13,0,0,0,0,18.36L109,1813.1a13,13,0,0,1,0,18.36l-35.5,35.22a13,13,0,0,0,0,18.36l44.75,44.41"/><path class="cls-1" d="M97.23.71,142,45.11a12.93,12.93,0,0,1,0,18.35l-35.5,35.22a13,13,0,0,0,0,18.36L142,152.25a13,13,0,0,1,0,18.36l-35.5,35.22a13,13,0,0,0,0,18.35L142,259.4a12.93,12.93,0,0,1,0,18.35L106.48,313a13,13,0,0,0,0,18.36L142,366.55a12.93,12.93,0,0,1,0,18.35l-35.5,35.23a13,13,0,0,0,0,18.35L142,473.7a13,13,0,0,1,0,18.36l-35.5,35.22a13,13,0,0,0,0,18.35L142,580.85a13,13,0,0,1,0,18.36l-35.5,35.22a13,13,0,0,0,0,18.35L142,688a13,13,0,0,1,0,18.36l-35.5,35.22a13,13,0,0,0,0,18.35L142,795.15a13,13,0,0,1,0,18.36l-35.5,35.22a13,13,0,0,0,0,18.35L142,902.3a13,13,0,0,1,0,18.36l-35.5,35.22a13,13,0,0,0,0,18.35l35.5,35.23a12.93,12.93,0,0,1,0,18.35L106.48,1063a13,13,0,0,0,0,18.36L142,1116.6a13,13,0,0,1,0,18.36l-35.5,35.22a13,13,0,0,0,0,18.36l35.5,35.21a13,13,0,0,1,0,18.36l-35.5,35.22a13,13,0,0,0,0,18.35L142,1330.9a13,13,0,0,1,0,18.36l-35.5,35.22a13,13,0,0,0,0,18.35l35.5,35.22a13,13,0,0,1,0,18.36l-35.5,35.22a13,13,0,0,0,0,18.36l35.5,35.22a13,13,0,0,1,0,18.36l-35.5,35.22a12.94,12.94,0,0,0,0,18.35l35.5,35.23a12.93,12.93,0,0,1,0,18.35L106.48,1706a13,13,0,0,0,0,18.35l35.5,35.22a13,13,0,0,1,0,18.36l-35.5,35.22a13,13,0,0,0,0,18.36l35.5,35.22a13,13,0,0,1,0,18.36l-44.75,44.41"/><path class="cls-1" d="M186.9.71l-44.75,44.4a12.93,12.93,0,0,0,0,18.35l35.5,35.22a13,13,0,0,1,0,18.36l-35.5,35.21a13,13,0,0,0,0,18.36l35.5,35.22a12.93,12.93,0,0,1,0,18.35l-35.5,35.22a12.93,12.93,0,0,0,0,18.35L177.65,313a13,13,0,0,1,0,18.36l-35.5,35.22a12.93,12.93,0,0,0,0,18.35l35.5,35.23a12.93,12.93,0,0,1,0,18.35l-35.5,35.22a13,13,0,0,0,0,18.36l35.5,35.22a12.93,12.93,0,0,1,0,18.35l-35.5,35.22a13,13,0,0,0,0,18.36l35.5,35.22a12.93,12.93,0,0,1,0,18.35L142.15,688a13,13,0,0,0,0,18.36l35.5,35.22a12.93,12.93,0,0,1,0,18.35l-35.5,35.22a13,13,0,0,0,0,18.36l35.5,35.22a12.93,12.93,0,0,1,0,18.35l-35.5,35.22a13,13,0,0,0,0,18.36l35.5,35.22a12.93,12.93,0,0,1,0,18.35l-35.5,35.23a12.93,12.93,0,0,0,0,18.35l35.5,35.22a13,13,0,0,1,0,18.36l-35.5,35.21a13,13,0,0,0,0,18.36l35.5,35.22a13,13,0,0,1,0,18.36l-35.5,35.21a13,13,0,0,0,0,18.36l35.5,35.22a12.93,12.93,0,0,1,0,18.35l-35.5,35.22a13,13,0,0,0,0,18.36l35.5,35.22a12.93,12.93,0,0,1,0,18.35l-35.5,35.22a13,13,0,0,0,0,18.36l35.5,35.22a13,13,0,0,1,0,18.36l-35.5,35.22a13,13,0,0,0,0,18.36l35.5,35.22a12.93,12.93,0,0,1,0,18.35l-35.5,35.23a12.93,12.93,0,0,0,0,18.35l35.5,35.23a12.93,12.93,0,0,1,0,18.35l-35.5,35.22a13,13,0,0,0,0,18.36l35.5,35.22a13,13,0,0,1,0,18.36l-35.5,35.22a13,13,0,0,0,0,18.36l44.75,44.41"/><path class="cls-1" d="M165.9.71l44.75,44.4a12.93,12.93,0,0,1,0,18.35l-35.5,35.22a13,13,0,0,0,0,18.36l35.5,35.21a13,13,0,0,1,0,18.36l-35.5,35.22a12.93,12.93,0,0,0,0,18.35l35.5,35.22a12.93,12.93,0,0,1,0,18.35L175.15,313a13,13,0,0,0,0,18.36l35.5,35.22a12.93,12.93,0,0,1,0,18.35l-35.5,35.23a12.93,12.93,0,0,0,0,18.35l35.5,35.22a13,13,0,0,1,0,18.36l-35.5,35.22a12.93,12.93,0,0,0,0,18.35l35.5,35.22a13,13,0,0,1,0,18.36l-35.5,35.22a12.93,12.93,0,0,0,0,18.35L210.65,688a13,13,0,0,1,0,18.36l-35.5,35.22a12.93,12.93,0,0,0,0,18.35l35.5,35.22a13,13,0,0,1,0,18.36l-35.5,35.22a12.93,12.93,0,0,0,0,18.35l35.5,35.22a13,13,0,0,1,0,18.36l-35.5,35.22a12.93,12.93,0,0,0,0,18.35l35.5,35.23a12.93,12.93,0,0,1,0,18.35L175.15,1063a13,13,0,0,0,0,18.36l35.5,35.21a13,13,0,0,1,0,18.36l-35.5,35.22a13,13,0,0,0,0,18.36l35.5,35.21a13,13,0,0,1,0,18.36l-35.5,35.22a12.93,12.93,0,0,0,0,18.35l35.5,35.22a13,13,0,0,1,0,18.36l-35.5,35.22a12.93,12.93,0,0,0,0,18.35l35.5,35.22a13,13,0,0,1,0,18.36l-35.5,35.22a13,13,0,0,0,0,18.36l35.5,35.22a13,13,0,0,1,0,18.36l-35.5,35.22a12.93,12.93,0,0,0,0,18.35l35.5,35.23a12.93,12.93,0,0,1,0,18.35L175.15,1706a12.93,12.93,0,0,0,0,18.35l35.5,35.22a13,13,0,0,1,0,18.36l-35.5,35.22a13,13,0,0,0,0,18.36l35.5,35.22a13,13,0,0,1,0,18.36l-44.75,44.41"/><path class="cls-1" d="M255.57.71l-44.75,44.4a12.93,12.93,0,0,0,0,18.35l35.5,35.22a13,13,0,0,1,0,18.36l-35.5,35.21a13,13,0,0,0,0,18.36l35.5,35.22a13,13,0,0,1,0,18.35l-35.5,35.22a12.93,12.93,0,0,0,0,18.35L246.32,313a13,13,0,0,1,0,18.36l-35.5,35.22a12.93,12.93,0,0,0,0,18.35l35.5,35.23a13,13,0,0,1,0,18.35l-35.5,35.22a13,13,0,0,0,0,18.36l35.5,35.22a13,13,0,0,1,0,18.35l-35.5,35.22a13,13,0,0,0,0,18.36l35.5,35.22a13,13,0,0,1,0,18.35L210.82,688a13,13,0,0,0,0,18.36l35.5,35.22a13,13,0,0,1,0,18.35l-35.5,35.22a13,13,0,0,0,0,18.36l35.5,35.22a13,13,0,0,1,0,18.35l-35.5,35.22a13,13,0,0,0,0,18.36l35.5,35.22a13,13,0,0,1,0,18.35l-35.5,35.23a12.93,12.93,0,0,0,0,18.35l35.5,35.22a13,13,0,0,1,0,18.36l-35.5,35.21a13,13,0,0,0,0,18.36l35.5,35.22a13,13,0,0,1,0,18.36l-35.5,35.21a13,13,0,0,0,0,18.36l35.5,35.22a13,13,0,0,1,0,18.35l-35.5,35.22a13,13,0,0,0,0,18.36l35.5,35.22a13,13,0,0,1,0,18.35l-35.5,35.22a13,13,0,0,0,0,18.36l35.5,35.22a13,13,0,0,1,0,18.36l-35.5,35.22a13,13,0,0,0,0,18.36l35.5,35.22a13,13,0,0,1,0,18.35l-35.5,35.23a12.93,12.93,0,0,0,0,18.35l35.5,35.23a13,13,0,0,1,0,18.35l-35.5,35.22a13,13,0,0,0,0,18.36l35.5,35.22a13,13,0,0,1,0,18.36l-35.5,35.22a13,13,0,0,0,0,18.36l44.75,44.41"/><path class="cls-1" d="M234.57.71l44.75,44.4a13,13,0,0,1,0,18.35l-35.5,35.22a13,13,0,0,0,0,18.36l35.5,35.21a13,13,0,0,1,0,18.36l-35.5,35.22a12.93,12.93,0,0,0,0,18.35l35.5,35.22a13,13,0,0,1,0,18.35L243.82,313a13,13,0,0,0,0,18.36l35.5,35.22a13,13,0,0,1,0,18.35l-35.5,35.23a12.93,12.93,0,0,0,0,18.35l35.5,35.22a13,13,0,0,1,0,18.36l-35.5,35.22a12.93,12.93,0,0,0,0,18.35l35.5,35.22a13,13,0,0,1,0,18.36l-35.5,35.22a12.93,12.93,0,0,0,0,18.35L279.32,688a13,13,0,0,1,0,18.36l-35.5,35.22a12.93,12.93,0,0,0,0,18.35l35.5,35.22a13,13,0,0,1,0,18.36l-35.5,35.22a12.93,12.93,0,0,0,0,18.35l35.5,35.22a13,13,0,0,1,0,18.36l-35.5,35.22a12.93,12.93,0,0,0,0,18.35l35.5,35.23a13,13,0,0,1,0,18.35L243.82,1063a13,13,0,0,0,0,18.36l35.5,35.21a13,13,0,0,1,0,18.36l-35.5,35.22a13,13,0,0,0,0,18.36l35.5,35.21a13,13,0,0,1,0,18.36l-35.5,35.22a12.93,12.93,0,0,0,0,18.35l35.5,35.22a13,13,0,0,1,0,18.36l-35.5,35.22a12.93,12.93,0,0,0,0,18.35l35.5,35.22a13,13,0,0,1,0,18.36l-35.5,35.22a13,13,0,0,0,0,18.36l35.5,35.22a13,13,0,0,1,0,18.36l-35.5,35.22a12.93,12.93,0,0,0,0,18.35l35.5,35.23a13,13,0,0,1,0,18.35L243.82,1706a12.93,12.93,0,0,0,0,18.35l35.5,35.22a13,13,0,0,1,0,18.36l-35.5,35.22a13,13,0,0,0,0,18.36l35.5,35.22a13,13,0,0,1,0,18.36l-44.75,44.41"/></g></g></svg>