<svg xmlns="http://www.w3.org/2000/svg" viewBox="0 0 257 142"><title>Asset 7</title><g id="Layer_2" data-name="Layer 2"><g id="содержание"><path d="M0,0V142H257V0ZM255,28H172V2h83ZM206.62,56q1.15-2.82,2.28-5.64c1.6-4,.74-8.63-3.27-10.8-3.45-1.86-9-.7-10.61,3.31-1.74,4.36-3.49,8.77-5.38,13.13H163.53a7.05,7.05,0,0,0-1.76-9c-2.24-2-2.45-4.7-2.71-7.58-.29-3.12-.43-6.26-.57-9.4H212V56ZM172.7,84H172V58h16.76c-4,9-8.67,17.65-15.15,25ZM97.19,58a28,28,0,0,0,8.15,7.56c6.34,3.9,12.3-1.82,12.34-7.56H149.2c.26.26.53.51.8.75,4.08,3.63,9.16,2.33,12.08-.75H170V84H87V58Zm16.55-6.82c-6.44-4-6.46-12.3-5.14-18.92a8.82,8.82,0,0,0,.16-2.26H128V56H117.43A7.86,7.86,0,0,0,113.74,51.18Zm28-21.18c.23,8.92.36,19,5.69,26H130V30ZM128,86v17a67.93,67.93,0,0,1-15,.44c-7.4-.78-14-4.47-20.56-7.83-6.1-3.15-11.5-5.88-15.76-9.64Zm2,16.77V86h40.76c-9.5,9.3-21.24,14-34.51,15.9C134.2,102.19,132.11,102.5,130,102.77ZM158.39,28q-.06-1.5-.15-3c-.59-10.65-17.24-10.72-16.64,0q.08,1.47.12,3h-33.3c-2.23-7.2-14.09-9.11-15.87-.17,0,.06,0,.11,0,.17H87V2h83V28ZM92.16,30c-1.46,9.11-.71,18.48,3.73,26H45V30ZM43,56H2V30H43Zm42,2V84H74.57c-3.38-3.63-5.83-8.24-7-14.8-.78-4.24-6.2-6.36-9.87-5.17-4.45,1.45-5.86,5.79-5.07,10a44.41,44.41,0,0,0,3,9.92H2V58ZM43,86v26H2V86Zm2,0H56.53c5.24,10.22,14.27,16.27,25.41,22.13,2.43,1.28,4.89,2.6,7.39,3.87H45Zm48.45,28a57.74,57.74,0,0,0,14.25,4.77c9.07,1.59,18.41.51,27.46-.68A106.24,106.24,0,0,0,154,114h16v26H87V114Zm66-2a66.9,66.9,0,0,0,23.06-15.3A82,82,0,0,0,191.27,86H212v26ZM214,86h41v26H214Zm-21.39-2c5.3-8.1,9.43-17,13.18-26H255V84ZM214,56V30h41V56ZM85,2V28H2V2ZM2,114H85v26H2Zm170,26V114h83v26Z"/></g></g></svg>