<svg xmlns="http://www.w3.org/2000/svg" viewBox="0 0 229.24 66.98"><title>Ресурс 14</title><g id="Слой_2" data-name="Слой 2"><g id="содержание"><path d="M20.45,27.52c-.67-.34-2.86-1.6-3.54-2-3.28-1.86-5.55-4-5.55-11.28,0-4.63.42-7.07,2.94-7.07,2.7,0,3.37,1.85,3.37,8,0,1.93-.42,5.3-.59,7.06l9.93-1a35.09,35.09,0,0,0,.84-6.72C27.85,5,23.14,0,14.13,0,5,0,0,5.72,0,16.74c0,7.58,2.19,14,8.58,17.67.76.43,2.27,1.26,2.95,1.69,5.21,3,7.06,5.47,7.06,14.55,0,7.16-1.17,8.42-3.19,8.42-2.61,0-3.62-2.1-3.62-9.34a75.78,75.78,0,0,1,.76-9l-10.1.43A39.52,39.52,0,0,0,1,50.23C1,62.86,6.48,67,15.31,67c10.6,0,15.07-6.4,15.07-18.26,0-11.62-4-17.84-9.93-21.2"/><path d="M45.53,55.45v-30h6.06v-5.8H45.53v-14h-10l-.17,14.05H30.64v5.8h4.62C35.1,48.8,35,56.12,35,57.72c0,6.65,2.78,8.76,9.09,8.76,3.53,0,6.9-1,8.08-2.11V58.31a14.15,14.15,0,0,1-4.13.67c-1.85,0-2.52-1.18-2.52-3.53"/><path d="M70.07,18.85c-3,0-4.37,1.6-5.55,5.22V19.61H54.59v46h10.1V35.34c0-7.66.5-8.75,2-8.75s2.1,1.68,2.1,4.8A46,46,0,0,1,67.38,40l8.33-.34a32.89,32.89,0,0,0,1.85-9.93c0-7.74-3.28-10.85-7.49-10.85"/><path d="M102.92,44.43a20.53,20.53,0,0,0,.42-4c0-14.55-3.2-21.62-11.61-21.62S79.28,24.4,79.28,44.68c0,18.59,4,21.8,13.12,21.8,7.24,0,10.77-3.54,10.77-12.46a43,43,0,0,0-.5-5.89L94.25,48a21.83,21.83,0,0,1,.26,3.28c0,8.42-.51,9.26-2.44,9.26-2.44,0-2.69-2-2.69-11.61V44.43ZM89.2,38.54V35c.43-9,.59-10.35,2.53-10.35,1.68,0,1.93,1.27,2.27,9.09a44.08,44.08,0,0,1-.08,4.8Z"/><path d="M129.88,44.43a20.53,20.53,0,0,0,.42-4c0-14.55-3.19-21.62-11.61-21.62s-12.45,5.55-12.45,25.83c0,18.59,4,21.8,13.12,21.8,7.24,0,10.77-3.54,10.77-12.46a43,43,0,0,0-.5-5.89L121.21,48a23.23,23.23,0,0,1,.26,3.28c0,8.42-.51,9.26-2.44,9.26-2.44,0-2.7-2-2.7-11.61V44.43Zm-13.71-5.89V35c.42-9,.58-10.35,2.52-10.35,1.68,0,1.94,1.27,2.27,9.09a46.76,46.76,0,0,1-.08,4.8Z"/><path d="M145.67,55.45v-30h6.06v-5.8h-6.06v-14h-10l-.17,14.05h-4.71v5.8h4.63c-.17,23.39-.25,30.71-.25,32.31,0,6.65,2.77,8.76,9.09,8.76,3.53,0,6.9-1,8.07-2.11V58.31a14.09,14.09,0,0,1-4.12.67c-1.85,0-2.53-1.18-2.53-3.53"/><path d="M178.32,56.46V29.7c0-8.41-3.95-10.85-11.78-10.85-7.65,0-11.36,3.53-11.36,10.18a16.81,16.81,0,0,0,1,5.72l8.42-.25a25.08,25.08,0,0,1-.51-4.88c0-3.2.34-4.29,2.27-4.29,1.52,0,2.78,1.26,2.78,5.21v7c-1.89.4-3.38.77-5.89,1.51-5.47,1.61-9.09,4.38-9.09,13.63,0,12.12,5.81,13.8,10.35,13.8,2.78,0,5.39-.92,6.9-3.53.59,1.85,1.94,3.53,5.13,3.53a14.57,14.57,0,0,0,5-1.09V58.56a3.89,3.89,0,0,1-1.68.34c-1.18,0-1.6-.93-1.6-2.44m-9.17-1.6c0,2.61-.51,4.71-2.36,4.71-1.6,0-2.18-1.6-2.18-6.22,0-6.23.84-7.49,4.54-9.17Z"/><path d="M199.28,18.85c-3,0-4.38,1.6-5.55,5.22V19.61H183.8v46h10.09V35.34c0-7.66.51-8.75,2-8.75s2.11,1.68,2.11,4.8A46,46,0,0,1,196.59,40l8.33-.34a33.2,33.2,0,0,0,1.85-9.93c0-7.74-3.28-10.85-7.49-10.85"/><path d="M225.12,59c-1.85,0-2.52-1.17-2.52-3.53v-30h6.05v-5.8H222.6v-14h-10l-.16,14.05H207.7v5.8h4.63c-.17,23.4-.25,30.71-.25,32.31,0,6.65,2.77,8.76,9.09,8.76,3.53,0,6.89-1,8.07-2.11V58.31a14.09,14.09,0,0,1-4.12.67"/></g></g></svg>