<svg xmlns="http://www.w3.org/2000/svg" viewBox="0 0 378.71 79.01"><defs><style>.cls-1{fill-rule:evenodd;}</style></defs><title>Ресурс 15</title><g id="Слой_2" data-name="Слой 2"><g id="содержание"><path class="cls-1" d="M297.16,33.49V32.08h-3.71V30.39h3.63V29h-3.63V27.4h3.71V26h-5.3v7.49ZM136.4,6.4c1.13,0,1.51,1.06,1.66,2.64l-3.46.86c0-2,.38-3.5,1.8-3.5Zm5.2,7.23-.68-.52a5.74,5.74,0,0,1-3.39,1.35c-2.15,0-2.83-1.54-2.92-3.67l6.24-.47c-.08-3-1.66-5-4.22-5-3.09,0-5.12,2.11-5.12,5.8,0,3.31,1.88,5.65,5.2,5.65,2.18,0,3.69-1.28,4.89-3.17ZM123.68,50.84c-1.28,1.73-3.17,3.16-5,3.16-2.94,0-4.45-2.26-4.45-5.19,0-3.32,1.81-5.12,4.67-6.63A26.13,26.13,0,0,0,123.68,39V50.84ZM132.26,31c0-6.56-5.65-9.8-12.2-9.8s-14.46,5-14.46,11.53a9.49,9.49,0,0,0,.53,3.24c2.48,0,7-1.73,8.28-3-.15-4.51.3-6.92.68-7.75a5.26,5.26,0,0,1,3.16-.83c3.39,0,5.43,3.69,5.43,8.21v3a16.67,16.67,0,0,1-5.35,3.62c-7.84,3.76-13.26,6-13.26,12.42,0,4.37,2.26,8.06,8.44,8.06,4.37,0,8.13-3.16,10.17-5.72v5h10.39c-1-2-1.81-7.16-1.81-10.62V31Zm27.42,42.85c-6,0-12.73-1.2-12.73-5.8,0-1.72,1.25-3.72,2.55-5.12h14.25c4.59,0,6.25,1.06,6.25,3,0,2.63-4.6,6.25-10.32,7.9ZM155.14,79h0c8.59-1.81,21.69-10.85,21.69-17.62,0-4.6-4-6.93-10.62-6.93H148.61A22.5,22.5,0,0,1,151,49.2a18.78,18.78,0,0,0,3.31.29c9.11,0,15.37-5.28,15.37-15.22A13.26,13.26,0,0,0,168,27.6l8.29,1v-6.7a82.67,82.67,0,0,1-9.94,3.45c-2.52-2.66-6.37-4.21-11.22-4.21-9.72,0-15.14,6.11-15.14,14.62,0,6.69,3.48,11,8.6,12.8-3,2.93-6.77,7.32-8.52,11.3.64,2.23,2.88,2.95,6.89,3-3.67,2.47-6.52,4.9-6.52,8.29,0,4.66,5.27,7.83,14.67,7.83Zm-.73-54.91c4.37,0,6.25,6.33,6.25,12.88,0,5.35-1.43,9.79-5,9.79-4.75,0-6.25-6.93-6.25-13.25,0-5.12,1.43-9.42,5-9.42Zm37.73.23c3.77,0,5.65,4.37,6.25,9.34l-12.2,2.84c.05-7.25,2.08-12.18,5.95-12.18Zm32.09,13.41c-2.19,0-5.12,2-6.25,3.31l-.08.6a18.84,18.84,0,0,1,4.29,6.25c-2.25,3.92-9,7.54-16.64,7.54-12.06,0-18.57-5.75-19.29-16.6,5.51-.58,16.82-1.75,20.42-1.86,0-9.79-3.92-15.66-13.11-15.66-9.49,0-16,7.83-16,18.75,0,13.26,8.28,22.37,23.27,22.37C213,62.44,226,54.38,226,43.16c0-1.66-.53-4.37-1.73-5.42ZM241.4,10.39v7.46l-9.49-.3.3,10.54h-7.83l.3-10.54-9.49.3V10.39l9.49.31L224.38.15h7.83l-.3,10.55,9.49-.31ZM97.54.15H85.49l-.23.6C86.47,1.51,89.1,7,89.1,8.51V44.89L88.35,59H99.8c-1.06-2.72-2.26-10-2.26-14.09V.15Zm11.22,1.21H111V11.67a33.13,33.13,0,0,1-.46,4.9h4.3a20.14,20.14,0,0,1-.45-5V1.36h2.11a7.34,7.34,0,0,1,3.17,1.42,6.92,6.92,0,0,1,.06.76v9.72l-.3,3.31h4a13.28,13.28,0,0,1-.52-3.39V8.4a3.47,3.47,0,0,1,2-.94c1.81,0,1.81,1.35,1.81,3.16v6h3.69a10.93,10.93,0,0,1-.53-3.31V9.11c0-2.26-1.2-3.84-3.39-3.84a4.57,4.57,0,0,0-3.61,2V0H104.77V3.62h.3c1.21-1,3.09-2.26,3.69-2.26ZM60.11,12.65a6.08,6.08,0,0,0-6.18,6c0,2.94,1.51,4.9,4.9,4.9a6.18,6.18,0,0,0,6-6.18,4.43,4.43,0,0,0-4.74-4.75Zm-9-12.5H39l-.3.6c1.43,2.34,4.66,9.64,4.21,11L30.43,46.84,18.3,15.74C17.47,13.71,15.59,4,15.06.15H.3L0,.75l7.31,15L25.31,59h4.14L46.7,11.22,51.07.15ZM52.8,52.72C54.38,51.9,60.86,48,60.86,48l1.28,1.73-5.5,4.9C54,57,51.29,59.35,47.83,59.35s-5.2-3.16-3.84-6.63l7.38-19.2c.53-1.36-1.13-3.84-2-4.82l.3-.61h12L52.57,52.5l.23.22ZM78.94.15H66.88l-.22.6c1.2.76,3.84,6.25,3.84,7.76V44.89L69.75,59H81.2c-1.06-2.72-2.26-10-2.26-14.09V.15Zm190.92,0h1.66V59h-1.66V.15ZM305.1,33.49l-3.18-4,3-3.51h-2l-2.65,3.34V26h-1.59v7.49h1.59V31.18l.59-.69,2.27,3Zm8,0L310.22,26h-2l-2.9,7.49h1.82l.47-1.27h3.21l.46,1.27Zm-2.72-2.68h-2.33l1.17-3.22,1.16,3.22Zm6.32,2.68h-1.6V27.4h-2.19V26h6v1.4H316.7v6.09Zm8.79,0V32.08h-3.71V30.39h3.63V29h-3.63V27.4h3.71V26h-5.3v7.49Zm3.13,0V30.82h1.91a2.41,2.41,0,1,0,0-4.82H327v7.49Zm1.69-4.07h-1.69v-2h1.69a1,1,0,1,1,0,2Zm5.55,4.07,3.57-5v5H341V26h-1.64l-3.47,4.84V26h-1.59v7.49Zm13.67,0V26h-1.61v2.94h-3.53V26h-1.6v7.49h1.6V30.34h3.53v3.15ZM351.29,26v7.49h3.53a2.39,2.39,0,1,0,0-4.77h-1.94V27.4h3.88V26Zm3.32,4.13a1,1,0,1,1,0,1.95h-1.73V30.13Zm5,3.49A2.5,2.5,0,0,0,362,32.05l3.09-6h-1.81l-1.86,4-1.86-4h-1.8l2.76,5.43c-.29.55-.54.78-1.09.78a1.63,1.63,0,0,1-1-.41l-.6,1.28a2.72,2.72,0,0,0,1.69.54Zm8.12-.13V30.82h1.9a2.41,2.41,0,1,0,0-4.82h-3.5v7.49Zm1.69-4.07h-1.69v-2h1.69a1,1,0,1,1,0,2Zm5.6,4.07V27.4h3.71V26h-5.3v7.49Z"/></g></g></svg>