<svg xmlns="http://www.w3.org/2000/svg" viewBox="0 0 257.07 420.99"><defs><style>.cls-1{fill:none;stroke:#000;stroke-miterlimit:10;stroke-width:2px;}</style></defs><title>Ресурс 12</title><g id="Слой_2" data-name="Слой 2"><g id="содержание"><rect class="cls-1" x="1.05" y="36.03" width="254.96" height="383.92"/><rect class="cls-1" x="1.1" y="1.03" width="254.96" height="35"/><line class="cls-1" x1="229.28" y1="8.56" x2="249.12" y2="28.56"/><line class="cls-1" x1="249.12" y1="8.56" x2="229.27" y2="28.56"/><rect class="cls-1" x="197.53" y="9.05" width="19.84" height="20"/><line class="cls-1" x1="166.77" y1="29.04" x2="186.62" y2="29.05"/><rect class="cls-1" x="25.88" y="168.02" width="124.01" height="72"/><line class="cls-1" x1="166.77" y1="168.04" x2="231.05" y2="168.06"/><line class="cls-1" x1="166.76" y1="178.04" x2="231.04" y2="178.06"/><line class="cls-1" x1="166.76" y1="188.04" x2="231.04" y2="188.06"/><line class="cls-1" x1="166.76" y1="198.04" x2="231.04" y2="198.06"/><line class="cls-1" x1="166.76" y1="208.04" x2="212.54" y2="208.05"/><line class="cls-1" x1="166.74" y1="263.04" x2="231.02" y2="263.06"/><line class="cls-1" x1="166.74" y1="273.04" x2="231.02" y2="273.06"/><line class="cls-1" x1="166.74" y1="283.04" x2="231.02" y2="283.06"/><line class="cls-1" x1="166.73" y1="293.04" x2="231.02" y2="293.06"/><line class="cls-1" x1="166.73" y1="303.04" x2="231.01" y2="303.06"/><line class="cls-1" x1="166.73" y1="313.04" x2="231.01" y2="313.06"/><line class="cls-1" x1="166.73" y1="323.04" x2="212.52" y2="323.05"/><rect class="cls-1" x="25.85" y="263.02" width="124.01" height="133"/><line class="cls-1" x1="25.87" y1="263.01" x2="149.84" y2="396.04"/><line class="cls-1" x1="149.88" y1="263.04" x2="25.83" y2="396.01"/><line class="cls-1" x1="25.89" y1="168.01" x2="149.88" y2="240.04"/><line class="cls-1" x1="149.9" y1="168.04" x2="25.87" y2="240.01"/><rect class="cls-1" x="25.89" y="61.05" width="205.13" height="83.96"/><line class="cls-1" x1="25.9" y1="61.03" x2="230.05" y2="145.03"/><line class="cls-1" x1="230.08" y1="61.07" x2="25.87" y2="145"/></g></g></svg>