<svg xmlns="http://www.w3.org/2000/svg" viewBox="0 0 66.39 109"><defs><style>.cls-1{fill:#fff;}.cls-2{fill:none;stroke:#fff;stroke-miterlimit:10;stroke-width:2px;}</style></defs><title>Ресурс 8</title><g id="Слой_2" data-name="Слой 2"><g id="содержание"><path class="cls-1" d="M21.8,33.26H0a14,14,0,0,1,.81-5A12,12,0,0,1,3.1,24.47a19.2,19.2,0,0,1,3.49-3q2-1.38,4.37-2.85l2.17-1.38a12.29,12.29,0,0,0,2.15-1.75,8.64,8.64,0,0,0,1.64-2.37,7.26,7.26,0,0,0,.65-3.2,5.77,5.77,0,0,0-1.8-4.6,6.94,6.94,0,0,0-4.71-1.56A6.7,6.7,0,0,0,6.17,5.48a6.16,6.16,0,0,0-1.8,4.64v1.2H.09v-1A15.16,15.16,0,0,1,.44,7.52,9.16,9.16,0,0,1,1.93,4.14,9.6,9.6,0,0,1,5.27,1.29,12.18,12.18,0,0,1,11.13.09a14,14,0,0,1,4.46.67A9.7,9.7,0,0,1,19,2.67a8.33,8.33,0,0,1,2.17,3.06,10.69,10.69,0,0,1,.76,4.12,11.87,11.87,0,0,1-.56,3.86,8.51,8.51,0,0,1-1.79,3,18.31,18.31,0,0,1-3.22,2.74q-2,1.35-4.78,3.15a25.22,25.22,0,0,0-4.79,3.68,7.86,7.86,0,0,0-2,3.36h17Z"/><path class="cls-1" d="M30.17,28.25h4.6v5h-4.6Z"/><line class="cls-2" x1="65.39" x2="65.39" y2="109"/></g></g></svg>