<svg xmlns="http://www.w3.org/2000/svg" viewBox="0 0 1394.63 7156.83"><defs><style>.cls-1{fill:#fb3439;}</style></defs><title>Ресурс 3</title><g id="Слой_2" data-name="Слой 2"><g id="стикеры_2" data-name="стикеры 2"><polygon class="cls-1" points="1258.31 1215.43 1233.18 1266.83 1239.82 1210 1190.88 1239.65 1227.19 1195.43 1170 1193.92 1224.45 1176.35 1177.15 1144.16 1232.46 1158.82 1210.08 1106.16 1248.67 1148.39 1258.31 1092 1267.95 1148.39 1306.55 1106.16 1284.17 1158.82 1339.47 1144.16 1292.18 1176.35 1346.63 1193.92 1289.43 1195.43 1325.74 1239.65 1276.81 1210 1283.45 1266.83 1258.31 1215.43"/><polygon class="cls-1" points="207.31 123.44 182.18 174.83 188.82 118 139.88 147.65 176.19 103.44 119 101.92 173.45 84.35 126.16 52.16 181.46 66.82 159.08 14.16 197.68 56.4 207.31 0 216.95 56.4 255.55 14.16 233.17 66.82 288.47 52.16 241.18 84.35 295.63 101.92 238.44 103.44 274.74 147.65 225.81 118 232.45 174.83 207.31 123.44"/><polygon class="cls-1" points="402.31 752.43 377.18 803.83 383.82 747 334.88 776.65 371.19 732.43 314 730.92 368.45 713.35 321.15 681.16 376.46 695.82 354.08 643.16 392.68 685.39 402.31 629 411.95 685.39 450.55 643.16 428.17 695.82 483.47 681.16 436.18 713.35 490.63 730.92 433.44 732.43 469.74 776.65 420.81 747 427.45 803.83 402.31 752.43"/><polygon class="cls-1" points="247.31 866.43 222.18 917.83 228.82 861 179.88 890.65 216.19 846.43 159 844.92 213.45 827.35 166.16 795.16 221.46 809.82 199.08 757.16 237.68 799.39 247.31 743 256.95 799.39 295.55 757.16 273.17 809.82 328.47 795.16 281.18 827.35 335.63 844.92 278.44 846.43 314.74 890.65 265.81 861 272.45 917.83 247.31 866.43"/><polygon class="cls-1" points="382.31 5774.44 407.45 5825.83 400.81 5769 449.74 5798.65 413.44 5754.44 470.63 5752.92 416.18 5735.35 463.47 5703.16 408.17 5717.82 430.55 5665.16 391.95 5707.4 382.31 5651 372.68 5707.4 334.08 5665.16 356.46 5717.82 301.15 5703.16 348.45 5735.35 294 5752.92 351.19 5754.44 314.88 5798.65 363.82 5769 357.18 5825.83 382.31 5774.44"/><polygon class="cls-1" points="151.31 5951.44 176.45 6002.83 169.81 5946 218.74 5975.65 182.44 5931.44 239.63 5929.92 185.18 5912.35 232.47 5880.16 177.17 5894.82 199.55 5842.16 160.95 5884.4 151.31 5828 141.68 5884.4 103.08 5842.16 125.46 5894.82 70.16 5880.16 117.45 5912.35 63 5929.92 120.19 5931.44 83.88 5975.65 132.82 5946 126.18 6002.83 151.31 5951.44"/><polygon class="cls-1" points="1151.31 5117.44 1176.45 5168.83 1169.81 5112 1218.74 5141.65 1182.43 5097.44 1239.63 5095.92 1185.18 5078.35 1232.47 5046.16 1177.17 5060.82 1199.55 5008.16 1160.95 5050.4 1151.31 4994 1141.67 5050.4 1103.08 5008.16 1125.46 5060.82 1070.15 5046.16 1117.45 5078.35 1063 5095.92 1120.19 5097.44 1083.88 5141.65 1132.82 5112 1126.18 5168.83 1151.31 5117.44"/><polygon class="cls-1" points="1306.31 5231.44 1331.45 5282.83 1324.81 5226 1373.74 5255.65 1337.43 5211.44 1394.63 5209.92 1340.18 5192.35 1387.47 5160.16 1332.17 5174.82 1354.55 5122.16 1315.95 5164.4 1306.31 5108 1296.67 5164.4 1258.08 5122.16 1280.46 5174.82 1225.15 5160.16 1272.45 5192.35 1218 5209.92 1275.19 5211.44 1238.88 5255.65 1287.82 5226 1281.18 5282.83 1306.31 5231.44"/><polygon class="cls-1" points="1151.31 6991.44 1176.45 7042.83 1169.81 6986 1218.74 7015.65 1182.43 6971.44 1239.63 6969.92 1185.18 6952.35 1232.47 6920.16 1177.17 6934.82 1199.55 6882.16 1160.95 6924.4 1151.31 6868 1141.67 6924.4 1103.08 6882.16 1125.46 6934.82 1070.15 6920.16 1117.45 6952.35 1063 6969.92 1120.19 6971.44 1083.88 7015.65 1132.82 6986 1126.18 7042.83 1151.31 6991.44"/><polygon class="cls-1" points="433.31 6553.44 458.45 6604.83 451.81 6548 500.74 6577.65 464.44 6533.44 521.63 6531.92 467.18 6514.35 514.47 6482.16 459.17 6496.82 481.55 6444.16 442.95 6486.4 433.31 6430 423.68 6486.4 385.08 6444.16 407.46 6496.82 352.15 6482.16 399.45 6514.35 345 6531.92 402.19 6533.44 365.88 6577.65 414.82 6548 408.18 6604.83 433.31 6553.44"/><polygon class="cls-1" points="1306.31 7105.44 1331.45 7156.83 1324.81 7100 1373.74 7129.65 1337.43 7085.44 1394.63 7083.92 1340.18 7066.35 1387.47 7034.16 1332.17 7048.82 1354.55 6996.16 1315.95 7038.4 1306.31 6982 1296.67 7038.4 1258.08 6996.16 1280.46 7048.82 1225.15 7034.16 1272.45 7066.35 1218 7083.92 1275.19 7085.44 1238.88 7129.65 1287.82 7100 1281.18 7156.83 1306.31 7105.44"/><polygon class="cls-1" points="424.31 3988.43 399.18 4039.83 405.82 3983 356.88 4012.65 393.19 3968.43 336 3966.92 390.45 3949.35 343.15 3917.16 398.46 3931.82 376.08 3879.16 414.68 3921.39 424.31 3865 433.95 3921.39 472.55 3879.16 450.17 3931.82 505.47 3917.16 458.18 3949.35 512.63 3966.92 455.44 3968.43 491.74 4012.65 442.81 3983 449.45 4039.83 424.31 3988.43"/><polygon class="cls-1" points="1259.31 6189.44 1234.18 6240.83 1240.82 6184 1191.88 6213.65 1228.19 6169.44 1171 6167.92 1225.45 6150.35 1178.15 6118.16 1233.46 6132.82 1211.08 6080.16 1249.67 6122.4 1259.31 6066 1268.95 6122.4 1307.55 6080.16 1285.17 6132.82 1340.47 6118.16 1293.18 6150.35 1347.63 6167.92 1290.43 6169.44 1326.74 6213.65 1277.81 6184 1284.45 6240.83 1259.31 6189.44"/><polygon class="cls-1" points="88.31 4119.44 63.18 4170.83 69.82 4114 20.88 4143.65 57.19 4099.44 0 4097.92 54.45 4080.35 7.16 4048.16 62.46 4062.82 40.08 4010.16 78.67 4052.39 88.31 3996 97.95 4052.39 136.55 4010.16 114.17 4062.82 169.47 4048.16 122.18 4080.35 176.63 4097.92 119.44 4099.44 155.74 4143.65 106.81 4114 113.45 4170.83 88.31 4119.44"/><polygon class="cls-1" points="1295.31 2311.43 1270.18 2362.83 1276.82 2306 1227.88 2335.65 1264.19 2291.43 1207 2289.92 1261.45 2272.35 1214.15 2240.16 1269.46 2254.82 1247.08 2202.16 1285.67 2244.39 1295.31 2188 1304.95 2244.39 1343.55 2202.16 1321.17 2254.82 1376.47 2240.16 1329.18 2272.35 1383.63 2289.92 1326.43 2291.43 1362.74 2335.65 1313.81 2306 1320.45 2362.83 1295.31 2311.43"/><polygon class="cls-1" points="1055.31 3201.43 1030.18 3252.83 1036.82 3196 987.88 3225.65 1024.19 3181.43 967 3179.92 1021.45 3162.35 974.15 3130.16 1029.46 3144.82 1007.08 3092.16 1045.67 3134.39 1055.31 3078 1064.95 3134.39 1103.55 3092.16 1081.17 3144.82 1136.47 3130.16 1089.18 3162.35 1143.63 3179.92 1086.43 3181.43 1122.74 3225.65 1073.81 3196 1080.45 3252.83 1055.31 3201.43"/><polygon class="cls-1" points="198.83 1814.91 250.23 1840.05 193.4 1833.41 223.05 1882.35 178.83 1846.04 177.32 1903.23 159.75 1848.78 127.56 1896.08 142.22 1840.77 89.56 1863.15 131.79 1824.55 75.4 1814.91 131.79 1805.28 89.56 1766.68 142.22 1789.06 127.56 1733.76 159.75 1781.05 177.32 1726.6 178.83 1783.79 223.05 1747.48 193.4 1796.42 250.23 1789.78 198.83 1814.91"/><polygon class="cls-1" points="381.83 2023.91 433.23 2049.05 376.4 2042.41 406.05 2091.34 361.83 2055.04 360.32 2112.23 342.75 2057.78 310.56 2105.07 325.22 2049.77 272.56 2072.15 314.79 2033.55 258.4 2023.91 314.79 2014.28 272.56 1975.68 325.22 1998.06 310.56 1942.76 342.75 1990.05 360.32 1935.6 361.83 1992.79 406.05 1956.48 376.4 2005.42 433.23 1998.78 381.83 2023.91"/></g></g></svg>