<svg xmlns="http://www.w3.org/2000/svg" viewBox="0 0 95.61 142.08"><defs><style>.cls-1{fill:#fff;}</style></defs><title>Asset 4</title><g id="Layer_2" data-name="Layer 2"><g id="содержание"><path class="cls-1" d="M84.13,103.28c-2.37,9.53-2.89,18.5,1.43,27.93-11.1-6.11-20.22-14.49-32.76-16.16,2.28-4.45,2.14-9.11,1-13.8,2.67-5-.66-9-1.71-13.85L41.43,88c-.72,5.44-.47,9.89,3.38,13.34.25,3.65.49,7.25.74,11.13-9.64-3.86-18.82-9.56-30.69-8.47,4.28-4.4,5.81-9.28,6.2-14.59-1.56-1-5.56-4.21-5.56-4.21a54.9,54.9,0,0,0,6.35-.44,46.89,46.89,0,0,0,1.47-5.7c.73-5.47,1.4-11,1.82-16.44a10.58,10.58,0,0,1,2.55-6.27C34.36,48.41,43.87,43,53.5,40.2c1,3,4,8,8,9C59,55.46,60,63.07,62.59,69.45Q67,80.31,71.67,91.1C74.1,96.75,77.6,101.44,84.13,103.28ZM41.48,83.74h9.15l-7-17.09-1.12.16ZM26.73,35.56c-1,.32-2.18.39-2.87,1C20.17,40,16.6,43.52,12.65,47.34l-5.18-2C17.05,38.76,25.07,31,26.16,18.2c9.27,3.72,18.43,4.53,28.11.08l-2.11,4.39a24.28,24.28,0,0,0-16,5.77c5-1.13,9.82-3.45,15-1.57.22,1.49,0,1.86-3.64,5.78l5.73-.72-2,3L53,36.81c-12.9,4-23.59,10.66-31.34,21.93l-2.72-5.17,2.88-4.3-.25-.57-4.06,1.6c-1.84-.54-1.29-1.75-.62-3a36.68,36.68,0,0,1,10-11.76l.07-.1Zm6.71,3c-2.82,0-4.85.7-5.51,3.13A3.69,3.69,0,0,0,29.05,45c1.84,1,3.79.56,5.22-1.45l-3.51-1ZM30.07,27.71l1.08-.6-2.22-3.76-.85.48Zm6,13.88c1-2.1,1-2.1-1.14-2.89ZM51.16,96.27,49.34,98c.95,4.63,2.83,9.11.84,14.46-2.6-4.64-1.59-9-1.33-13.39-2-1.8-4.06-3.7-3.45-7.29l4.15-.21C50.11,93.15,50.59,94.58,51.16,96.27Zm-1.77-.53c-.62-2.91-.62-2.91-2.75-2.36C47.27,95.87,47.27,95.87,49.39,95.74Zm-.85,22.52c6.08.16,10.33,1.68,17.5,6.12,8.79,5.45,17.63,10.82,26.46,16.2.78.48,1.65.8,3.11,1.5-.74-1.62-1.21-2.57-1.63-3.54-2-4.65-4.23-9.22-6-14-1.9-5.25-2.6-10.76-1-16.25a74.85,74.85,0,0,1,3.2-7.91c-1.41-.24-2.72-.37-4-.69-5.23-1.33-8.53-4.94-10.61-9.66Q69.69,76.61,64.17,63a11.84,11.84,0,0,1-.57-5.82c.46-3.1,1.4-7.45,3.4-10.45-4,0-8.74-4.68-8.62-4.86l.22-3.05L55,35l.23-2.63c-3-8.09,2.68-13.51,5.68-20.36l-11,5L45.5,0a9.72,9.72,0,0,0-1.88,3.33c-1.26,3.17-2.39,6.4-3.82,9.49-1,2.17-2.11,4.44-5.72,5.21l-10-4.73a7.06,7.06,0,0,0-.22,1.18,29.34,29.34,0,0,1-9.93,21.61c-3.23,3-6.85,5.53-10.26,8.3C2.7,45.15.9,45.88,0,46.7c0,.24,1,.61,1.05.85C8,47.6,14,49,15.81,56.8a5.31,5.31,0,0,1,3.49,5.48,9.69,9.69,0,0,0,.75,2.49,22,22,0,0,1,1,4.67,35.88,35.88,0,0,1-.59,5.92c-.33,2.24-.8,4.46-1.21,6.72l-8.79.42c2.29,3.73,4.22,6.88,6.06,9.86C15,98.7,10,102.7,7.06,106.8,21.84,106.12,35.85,110.49,48.54,118.26Zm-2-37.06-2-1v-5Zm-5-64,3-6,2,6Z"/></g></g></svg>