<svg xmlns="http://www.w3.org/2000/svg" viewBox="0 0 30.39 30.7"><defs><style>.cls-1{fill:#fff;}</style></defs><title>Ресурс 5</title><g id="Слой_2" data-name="Слой 2"><g id="содержание"><path class="cls-1" d="M22.6,19.41l5.64,4.25-1.18,1.68c-1.07-.82-2.15-1.6-3.18-2.44a14.28,14.28,0,0,0-5.78-3A12.32,12.32,0,0,0,7.85,22.06c-1.25.88-2.44,1.86-3.67,2.78-.66.5-.85.46-1.31-.22l-.65-1L8,19.29l-1.7-2a1.44,1.44,0,0,0-1.82-.46,4.41,4.41,0,0,0-.94.6c-.78.61-1.54,1.25-2.32,1.86a7.6,7.6,0,0,1-.8.49C.25,19.14.09,18.55,0,18a.85.85,0,0,1,.27-.59,22.33,22.33,0,0,1,11-5.77,20.25,20.25,0,0,1,6.9-.22,21.49,21.49,0,0,1,7.63,2.73,28.34,28.34,0,0,1,4,2.89,1.6,1.6,0,0,1,.55,1.73c-.06.3-.16.59-.27,1-.8-.61-1.55-1.18-2.29-1.76-.31-.25-.59-.55-.91-.79a1.55,1.55,0,0,0-2.28.18c-.34.34-.67.7-1,1ZM11.83,17.84a4.87,4.87,0,0,1-.64-4.17l-.06-.05c-1.49.5-3,1-4.47,1.52-.22.07-.18.2,0,.35.38.34.76.7,1.13,1.07.53.54,1,1.1,1.59,1.63a.63.63,0,0,0,.48.19C10.5,18.23,11.13,18,11.83,17.84ZM19,13.57a4.89,4.89,0,0,1-.61,4.27c.71.2,1.35.39,2,.55a.6.6,0,0,0,.42-.16c.36-.34.69-.7,1-1.05l1.64-1.65c.07-.08.13-.17.2-.26a2.29,2.29,0,0,0-.29-.18c-1.18-.42-2.37-.82-3.55-1.23Zm-4,3.81a2,2,0,0,0,2-2,2,2,0,0,0-4-.07A2,2,0,0,0,15,17.38Z"/><path class="cls-1" d="M23.68,28.07c-.62.37-1.1.68-1.6,1-.34.2-.6,0-.86-.2-.66-.56-1.3-1.15-2-1.66a6.38,6.38,0,0,0-3.72-1.41,6.47,6.47,0,0,0-4.6,1.72c-.5.44-1,.86-1.54,1.28a1.22,1.22,0,0,1-1.62,0L6.62,28l.76-.56c1.24-.88,2.46-1.81,3.74-2.63a7.65,7.65,0,0,1,5-1.21,7.11,7.11,0,0,1,3.46,1.25C20.93,25.86,22.24,27,23.68,28.07Z"/><path class="cls-1" d="M6.7,2.61c.44-.28.84-.55,1.26-.79a1.1,1.1,0,0,1,1.31.09c.46.36.9.75,1.34,1.14A7.48,7.48,0,0,0,13.68,4.8,6.2,6.2,0,0,0,19.1,3.71c.67-.5,1.29-1.07,1.93-1.62A1.09,1.09,0,0,1,22.55,2c.35.22.69.46,1.07.71-.42.35-.81.69-1.21,1-1,.77-1.91,1.6-3,2.27a8.3,8.3,0,0,1-9.54-.68C8.85,4.4,7.81,3.53,6.7,2.61Z"/><path class="cls-1" d="M2.19,7,3.45,5.25l5.22,4c-.75.29-1.42.57-2.1.8A.66.66,0,0,1,6,10C4.76,9,3.48,8,2.19,7Z"/><path class="cls-1" d="M22.09,9.14,27,5.31,28.17,7c-1.2,1-2.37,1.91-3.56,2.82a1,1,0,0,1-.72.07C23.3,9.66,22.73,9.4,22.09,9.14Z"/><path class="cls-1" d="M12.64.19a15.29,15.29,0,0,1,5,0,2.31,2.31,0,0,1-2.46,1.6A2.32,2.32,0,0,1,12.64.19Z"/><path class="cls-1" d="M17.7,30.46a16.92,16.92,0,0,1-5.12.09,2.43,2.43,0,0,1,2.36-1.62A2.73,2.73,0,0,1,17.7,30.46Z"/><path class="cls-1" d="M.37,10.86l2.19,1.53c-.55.37-1,.77-1.57,1.06s-1-.21-.95-.81A17,17,0,0,1,.37,10.86Z"/><path class="cls-1" d="M28.17,12.24,30,11c.14.66.3,1.25.38,1.86a.45.45,0,0,1-.73.4C29.16,13,28.7,12.61,28.17,12.24Z"/></g></g></svg>