<svg xmlns="http://www.w3.org/2000/svg" viewBox="0 0 109.23 98.66"><defs><style>.cls-1{fill:#fff;}</style></defs><title>Asset 5</title><g id="Layer_2" data-name="Layer 2"><g id="содержание"><path class="cls-1" d="M34.53,30.17H27V58.22H29v4.16H27v1h53v-1h-2V58.21h2v-28h-7.5v1.95H62.83v-.4c0-1.13,0-2.27,0-3.4a.45.45,0,0,0-.38-.52L53.82,25a1,1,0,0,0-.54,0c-2.92,1-5.83,1.91-8.75,2.85a.33.33,0,0,0-.26.38c0,1.17,0,2.33,0,3.5v.39H34.53ZM11,84.91a2.18,2.18,0,0,0-1-2.65,6.84,6.84,0,0,0-2.74-1A3.35,3.35,0,0,1,6.43,81a.43.43,0,0,1-.21-.32,2.33,2.33,0,0,1,.53-1.9c1.47-1.72,2.95-3.45,4.36-5.22a16.08,16.08,0,0,0,3.16-5c.52-1.63,1.21-3.21,1.66-4.85s.61-3.12.9-4.69l.39-2.12-.43-.16a19.72,19.72,0,0,1-5.69-3A10.37,10.37,0,0,1,7,47c-.09-.55-.11-1.11-.16-1.7H8.08c0,.13,0,.21,0,.29a9.09,9.09,0,0,0,3.23,6.72,20,20,0,0,0,8,4A1.85,1.85,0,0,0,20.76,56a6.63,6.63,0,0,0,2-1.93,26.37,26.37,0,0,0,2.79-4.83,2.06,2.06,0,0,0,.19-.84c0-1.68,0-3.35,0-5a2.64,2.64,0,0,0-.05-.33,6.33,6.33,0,0,0-.59.75c-.45.82-.87,1.64-1.29,2.48a5.9,5.9,0,0,1-1.27,2c-.81.71-1.59,1.44-2.39,2.16a.62.62,0,0,1-.17.07l-1.59-2.71a.66.66,0,0,1,0-.37,16,16,0,0,0-.09-5.77c-.31-1.51-.83-3-1.24-4.46a.57.57,0,0,0-.49-.46A45.17,45.17,0,0,0,6.29,35.44a2.06,2.06,0,0,0-1.92,1C3.61,37.55,2.81,38.66,2,39.77a8.85,8.85,0,0,0-1.6,4A46,46,0,0,0,.28,55a1.17,1.17,0,0,0,.14.35A7.71,7.71,0,0,1,1,56.57a7.53,7.53,0,0,1,.19,1.71c0,3.18,0,6.36,0,9.53A1.88,1.88,0,0,0,2,69.47a1.52,1.52,0,0,1,.6,1.2,9.28,9.28,0,0,1-.49,4.18c-.28.7-.5,1.42-.78,2.13a3.7,3.7,0,0,0-.12,2.52,4.93,4.93,0,0,1-.1,3.13A1.71,1.71,0,0,0,2,84.74a.56.56,0,0,0,.44,0,3.83,3.83,0,0,1,1.91-.59,2.71,2.71,0,0,1,2,.58.77.77,0,0,0,.6.22H8.43a.83.83,0,0,0,.35,0,2.81,2.81,0,0,1,1.6-.09ZM95.71,73.8c.08.6.12,1.17.23,1.72a11.09,11.09,0,0,0,2.77,5.18c.67.76,1.37,1.49,2.07,2.22a2.69,2.69,0,0,0,2,.9,5.4,5.4,0,0,0,2.67-.73,6.58,6.58,0,0,0,3-4.25,15.56,15.56,0,0,0,.33-4c.06-3.39.08-6.77.13-10.16,0-2.37.06-4.74.09-7.12l.12-10.86c0-1.63,0-3.26.07-4.89a1.06,1.06,0,0,0-.06-.22c-.48.9-1,1.75-1.38,2.61-.87,1.77-1.74,3.53-2.55,5.33a3.22,3.22,0,0,0-.3,1.64,49.92,49.92,0,0,1,.54,7.33,20.57,20.57,0,0,1-1.45,7.6c-.49,1.19-1.07,2.34-1.59,3.52a2.57,2.57,0,0,0-.3,1c0,.84.09,1.69.18,2.53s.31,1.93.36,2.9a3,3,0,0,1-1,2.39,1.22,1.22,0,0,1-2-.26,2.79,2.79,0,0,1-.32-.7,5.46,5.46,0,0,1,.1-3.78c.74-1.86,1.5-3.72,2.33-5.54a27.18,27.18,0,0,0,2-5.15,23.64,23.64,0,0,0,.5-6.5,33.07,33.07,0,0,0-1-7q-.7-2.58-1.34-5.17a16,16,0,0,1-.32-6.39c.11-.7.25-1.39.38-2.1l-.24-.08a11.48,11.48,0,0,0-3.41-.2,15.27,15.27,0,0,0-4,.75.35.35,0,0,0-.29.37,12.32,12.32,0,0,1-.13,1.48,7.52,7.52,0,0,1-1,2.94,1.43,1.43,0,0,1-1.61.69,5.1,5.1,0,0,1-1-.3,3,3,0,0,1-2.15-3A3.89,3.89,0,0,0,86,35c-1.15-.71-2.33-1.39-3.5-2.07-.36-.21-.73-.39-1.16-.62,0,1.17,0,2.26,0,3.34a.47.47,0,0,0,.28.47c1,.6,1.94,1.21,2.89,1.85a3.91,3.91,0,0,1,1.78,2.85c.1.7.18,1.4.28,2.1A2.72,2.72,0,0,0,87.61,45c1.52,1,2.75,2.34,4.16,3.46a9.23,9.23,0,0,1,3.43,5.92c.09.57.19,1.14.32,1.7.37,1.57.79,3.13,1.11,4.72a6.42,6.42,0,0,1-2.7,6.91,18.62,18.62,0,0,1-5.12,2.61,1.65,1.65,0,0,0-1.22,1.48,6.52,6.52,0,0,0,.39,3.3c.33.82.67,1.64.92,2.48a3.93,3.93,0,0,1-.47,3.62,1.77,1.77,0,0,1-1.65.84c-.37,0-.74,0-1.1-.06a1.79,1.79,0,0,0-1.63.59,4,4,0,0,0-.93,2.57A11.46,11.46,0,0,0,86.27,85a5.16,5.16,0,0,1,3.57,0,4.62,4.62,0,0,0,1.72.27,1.43,1.43,0,0,0,1.22-.7,2.39,2.39,0,0,0,0-2.4c-.38-1-.81-2-1.09-3a3.17,3.17,0,0,1,.47-2.83A8.07,8.07,0,0,1,95.71,73.8ZM47.4,89.38l0-.09c-.39-.39-.79-.77-1.17-1.18a.68.68,0,0,1-.19-.42q0-1.77,0-3.54c0-.08,0-.16,0-.26H50a.55.55,0,0,1,.32.18c.39.4.78.81,1.16,1.22l.09-.06V84.9c0-1.38,0-2.77,0-4.15a.79.79,0,0,1,.2-.48c.68-.71,1.38-1.39,2.07-2.09.19-.19.35-.41.53-.63,1,1,1.89,1.88,2.78,2.79a.62.62,0,0,1,.12.41c0,1.37,0,2.74,0,4.11,0,.12,0,.25,0,.39.42-.41.81-.8,1.22-1.16A.75.75,0,0,1,59,83.9c1.16,0,2.31,0,3.47,0l.29,0c0,.06,0,.09,0,.11,0,.8,0,1.6,0,2.41a4.48,4.48,0,0,1,0,1.47c-.18.42-.66.72-1,1.08l-.39.4a7.59,7.59,0,0,0,.85,0,.84.84,0,0,1,.77.31c.36.4.74.77,1.13,1.13a.55.55,0,0,0,.4.14,35.24,35.24,0,0,0,4.11-.69c3.66-1,7.3-2.17,10.94-3.28a.4.4,0,0,0,.24-.25,9.41,9.41,0,0,0,.32-1.81c0-2.11,0-4.22,0-6.33V77.34C78.71,76.9,77.34,76.45,76,76a6.13,6.13,0,0,0-3.6,0c-1,.3-2,.62-3,1a9.54,9.54,0,0,1-6.78,0c-.68-.25-1.37-.45-2-.69a7.75,7.75,0,0,0-5.51,0c-.62.23-1.25.41-1.87.65a9.72,9.72,0,0,1-7,0c-.82-.3-1.65-.56-2.48-.83a7.08,7.08,0,0,0-4.39-.05l-3.13,1a8.28,8.28,0,0,1-3.72.46,25.06,25.06,0,0,1-2.82-.66c-.85-.24-1.67-.56-2.55-.85,0,.15,0,.26,0,.36,0,2.75,0,5.5,0,8.25a14.18,14.18,0,0,0,.19,1.58c0,.27.18.38.44.46,2.69.81,5.38,1.62,8.05,2.47A36.73,36.73,0,0,0,44.19,91a.65.65,0,0,0,.59-.2q.59-.64,1.23-1.23a.83.83,0,0,1,.48-.2A6.91,6.91,0,0,1,47.4,89.38Zm-23.63,2.9a.49.49,0,0,1,.14,0,56,56,0,0,1,6.69,3.62,27,27,0,0,0,2.62,1.6,11.47,11.47,0,0,0,5.63,1.11c3-.07,6-.05,9-.06H54l.43,0-2.3-2.29c-.31-.32-.73-.59-.53-1.18H46.49a.59.59,0,0,1-.38-.11L43.42,92.3a.73.73,0,0,0-.34-.17c-.89-.14-1.79-.2-2.65-.42-2.14-.55-4.26-1.13-6.37-1.76-4.09-1.23-8.17-2.5-12.25-3.74a5.8,5.8,0,0,0-2.58-.32c-.71.1-1.37.3-1.6,1.1-.09.32-.33.25-.55.24a29.09,29.09,0,0,1-4.64-.73c-.87-.21-1.75-.4-2.63-.55a.84.84,0,0,0-1,.91c0,.34,0,.69-.07,1.06l-3.2-1c0-.34,0-.66,0-1s-.11-.42-.38-.49A2.5,2.5,0,0,0,3,85.79a.63.63,0,0,0-.31.59q0,3.41,0,6.83c0,.92.18,1.1,1.12,1.17h.1a24.15,24.15,0,0,1,2.71.3c1.13.26,2.22.69,3.35,1a9,9,0,0,0,1.56.23c.31,0,.49-.12.5-.48,0-.7.08-1.4.12-2.09l.07,0,.3.12a13.68,13.68,0,0,0,3.9,1.2c1.43.14,2.87.27,4.3.37a22.09,22.09,0,0,0,2.44.07c.64,0,.74-.2.7-.82S23.81,93,23.77,92.28Zm75.55-4.36c0-.38,0-.71,0-1A.85.85,0,0,0,98.22,86c-.57.08-1.14.21-1.7.34a32.39,32.39,0,0,1-5.54.94c-.26,0-.51,0-.6-.3a1.38,1.38,0,0,0-1.16-1,5.43,5.43,0,0,0-3,.24c-3.71,1.13-7.42,2.28-11.13,3.4-3.19,1-6.33,2.14-9.59,2.44a2.18,2.18,0,0,1-.26.38c-.79.8-1.59,1.58-2.37,2.39a.83.83,0,0,1-.69.27H57.24c.15.54-.16.82-.47,1.13-.71.69-1.41,1.4-2.11,2.1-.07.07-.12.14-.21.25l.3,0,5,0h6.27c1,0,2,0,3,0A11.53,11.53,0,0,0,76.3,96.7a53.6,53.6,0,0,1,7.64-4.3l.35-.13c0,.69-.08,1.34-.13,2s.07.76.67.83a8.53,8.53,0,0,0,1.13,0c1.38-.1,2.75-.24,4.13-.33a13.1,13.1,0,0,0,5-1.17c.25-.12.51-.2.82-.33,0,.75.11,1.44.12,2.13,0,.39.2.52.51.49a7,7,0,0,0,1.6-.25,19.67,19.67,0,0,1,6.2-1.3,1.81,1.81,0,0,0,.77-.23.49.49,0,0,0,.23-.37q0-3.74,0-7.47a.56.56,0,0,0-.16-.4,2.47,2.47,0,0,0-2.34-.41.32.32,0,0,0-.25.36,6,6,0,0,1,0,.85c0,.09-.08.24-.15.26ZM27,64.64c0,.71,0,1.38,0,2,0,.08.12.19.2.22,1.11.37,2.23.71,3.33,1.09a7.59,7.59,0,0,0,5,0c.83-.28,1.66-.54,2.48-.83a9.4,9.4,0,0,1,6.32-.11l2.85,1a7.24,7.24,0,0,0,4.69,0l2.58-.86a9,9,0,0,1,5.22-.38c1.05.28,2.09.6,3.1,1a8.34,8.34,0,0,0,6.25,0c.67-.26,1.36-.47,2-.69a8.35,8.35,0,0,1,4.25-.45c1.12.22,2.21.59,3.3.9.48.14,1,.31,1.43.47V64.64Zm53.07,8.58c-1.3-.41-2.58-.84-3.88-1.23a6.85,6.85,0,0,0-4,0c-1,.31-2,.64-3.06,1A9,9,0,0,1,63,73c-.91-.32-1.83-.61-2.75-.91a7.72,7.72,0,0,0-5,0L52.73,73a8.63,8.63,0,0,1-5.29.3c-.92-.27-1.82-.58-2.73-.88a8.39,8.39,0,0,0-4-.65,31.48,31.48,0,0,0-3.11.79c-1.16.31-2.3.71-3.47.94a8.4,8.4,0,0,1-4.34-.57L27,72c0,1,0,1.83,0,2.71,0,.07.11.17.19.2L30.67,76a7.66,7.66,0,0,0,4.87,0l2.65-.88a8.43,8.43,0,0,1,4.94-.38c1.09.29,2.17.63,3.23,1a8.66,8.66,0,0,0,6.39,0c.63-.24,1.27-.44,1.91-.65a8.5,8.5,0,0,1,5.18-.29c1.06.31,2.12.65,3.16,1a8.16,8.16,0,0,0,5.78,0c.73-.27,1.48-.5,2.21-.75a8.52,8.52,0,0,1,4.94-.38c1,.27,2,.62,3,.93l1.14.36Zm0-1.25c0-.85,0-1.64,0-2.43a.33.33,0,0,0-.17-.24l-3.33-1.1a7.57,7.57,0,0,0-4.73,0c-.89.28-1.78.57-2.65.88a9,9,0,0,1-6.27.05c-.9-.32-1.81-.61-2.72-.9a7.55,7.55,0,0,0-4.7,0c-1,.31-1.93.62-2.89,1a8.86,8.86,0,0,1-6,0c-.93-.32-1.86-.62-2.79-.93a7.64,7.64,0,0,0-4.93,0c-.57.19-1.15.38-1.71.58a13.18,13.18,0,0,1-3.71.86,11,11,0,0,1-4-.76L27,68.09c0,.88,0,1.7,0,2.51,0,.06.12.16.2.19L30.85,72a7.11,7.11,0,0,0,4.42.05c.82-.26,1.65-.51,2.45-.82a9.74,9.74,0,0,1,6.89-.12c1,.34,1.92.65,2.89,1a6.57,6.57,0,0,0,3.9.06c.93-.28,1.86-.56,2.76-.9A9.68,9.68,0,0,1,61,71.07c.79.29,1.59.53,2.38.8a7.46,7.46,0,0,0,5,.06c.69-.24,1.39-.45,2.08-.71a9.78,9.78,0,0,1,7.12-.1C78.39,71.42,79.21,71.67,80.09,72ZM54.4,79.32c-.5.5-1,1-1.42,1.45a.8.8,0,0,0-.21.51c0,2.17,0,4.35,0,6.52v.44L52.45,88c-.78-.78-1.58-1.53-2.32-2.34a1.43,1.43,0,0,0-1.29-.53c-.51,0-1,0-1.55,0,0,.72,0,1.38,0,2a.9.9,0,0,0,.22.52c.77.79,1.56,1.57,2.35,2.36.16.16.34.31.58.54l-.45,0H47a.62.62,0,0,0-.37.07c-.53.51-1,1-1.59,1.58.49.49,1,1,1.44,1.41a.84.84,0,0,0,.51.22h5.74c0,.4,0,.74,0,1.08a.55.55,0,0,0,.09.32c.5.53,1,1,1.55,1.58.53-.54,1.05-1,1.54-1.56a.58.58,0,0,0,.11-.35c0-.35,0-.7,0-1.07h.48l5.31,0a.55.55,0,0,0,.36-.1c.51-.5,1-1,1.54-1.54-.48-.49-1-1-1.44-1.43a.86.86,0,0,0-.49-.2c-1,0-2,0-3,0h-.45l.31-.32,2.63-2.63c.08-.09.19-.19.19-.28,0-.74,0-1.48,0-2.25H59.34a.54.54,0,0,0-.3.15c-.55.56-1.09,1.12-1.64,1.67s-.85.86-1.35,1.35v-.49c0-2.16,0-4.32,0-6.48a.69.69,0,0,0-.13-.45C55.44,80.34,54.93,79.85,54.4,79.32Zm-40.19-54c0-.16,0-.32.07-.48a.57.57,0,0,0-.45-.72.84.84,0,0,0-1.11,1,.34.34,0,0,1-.21.47,12.18,12.18,0,0,0-4.91,4.2c-.39.58-.72,1.2-1.09,1.81l.14.05A44.56,44.56,0,0,1,17.43,33a.32.32,0,0,0,.25,0c.84-.6,1.67-1.22,2.52-1.81a1.59,1.59,0,0,1,.64-.23.88.88,0,0,0,.79-.51,8.43,8.43,0,0,0,.44-1.08A.4.4,0,0,0,22,29a7.77,7.77,0,0,0-2.5-1.57,3.47,3.47,0,0,1-1.56-1,1.29,1.29,0,0,0-1.37-.44A.94.94,0,0,1,16,26C15.41,25.77,14.82,25.54,14.21,25.3Zm.17,46-4.19,5.37.2.16a5.74,5.74,0,0,1,1.94,3.81,2.11,2.11,0,0,1,0,.35c0,.78-.06,1.56,0,2.33a1.61,1.61,0,0,0,1.62,1.57c.91,0,1.82,0,2.73,0a7.83,7.83,0,0,0,2.1-.19,5.52,5.52,0,0,1,2.49,0,2.28,2.28,0,0,0-.94-2.43,5.66,5.66,0,0,0-2.69-1.08A1.25,1.25,0,0,1,16.33,80a5.64,5.64,0,0,1,.22-2.38,4.65,4.65,0,0,0-.85-4.8Zm87.93-39.83v-.3a7,7,0,0,0-2.26-4.78,6.73,6.73,0,0,1-1.86-2.63,1,1,0,0,0-.86-.59,1.64,1.64,0,0,1-1.11,1.41,9.51,9.51,0,0,0-1.5.91,4.17,4.17,0,0,1-1.92.85c-.35,0-.7.12-1,.16a.8.8,0,0,0-.74.65,2,2,0,0,0,2,2.71,1.25,1.25,0,0,1,1.43,1.15c.07.3.11.61.16.92A17.18,17.18,0,0,1,102.31,31.51ZM19,39c0,.11.06.2.08.29.22,1.15.51,2.28.64,3.44a22.47,22.47,0,0,1,.08,3c0,.35.09.48.43.56a1.57,1.57,0,0,0,1.41-.4,10.93,10.93,0,0,0,3.31-4.38,8,8,0,0,0,.88-3.15c0-2,0-4,0-6a1.9,1.9,0,0,0,0-.25L25.64,32c-.34.64-.71,1.27-1,1.92s-.6,1.44-.88,2.17a6.36,6.36,0,0,1-2,2.78A2.13,2.13,0,0,1,19,39Zm62.36,5.6c0,1.09,0,2.08,0,3.07a.44.44,0,0,0,.18.3q2.79,1.8,5.6,3.57a1.87,1.87,0,0,0,2,.06c.86-.49,1.69-1,2.59-1.59-.88-.74-1.73-1.45-2.6-2.14-.06,0-.24,0-.33,0-.43.26-.86.53-1.27.82a.37.37,0,0,1-.52,0c-1.54-1.14-3.09-2.25-4.64-3.38Zm12.76,40c1,0,1.87,0,2.76,0A1.4,1.4,0,0,0,98.16,84a6.89,6.89,0,0,0,.48-1.19c.1-.25,0-.41-.19-.58a14.59,14.59,0,0,1-3-4.29.92.92,0,0,0-.11-.14A4.19,4.19,0,0,1,94,81a.4.4,0,0,0-.07.37A4.21,4.21,0,0,1,94.08,84.65ZM16.78,35.51l.15-1.37L16.56,34c-1.29-.25-2.58-.53-3.89-.74a35.4,35.4,0,0,0-6.34-.45c-.12,0-.31.06-.34.15-.16.4-.27.81-.41,1.26A46.76,46.76,0,0,1,16.78,35.51Zm85.47-.88c0-.44.12-.88.14-1.33s.1-.5-.46-.61a15.71,15.71,0,0,0-6.51.3c-.62.14-1,.36-1,1.07a5,5,0,0,1-.21,1A17.23,17.23,0,0,1,102.25,34.63ZM56.9,62.21v-.4q0-4.12,0-8.25a1.57,1.57,0,0,1,.16-.67c1.26-2.42,2.54-4.84,3.81-7.27a1.26,1.26,0,0,0,.13-.43V40.73a1.49,1.49,0,0,0,0-.17h-.83V36.7h8.58v3.82l-.41,0V41c0,1.34,0,2.69,0,4a.9.9,0,0,0,.23.64q3.07,3.65,6.14,7.32a.7.7,0,0,1,.19.43q0,4.32,0,8.64a1.91,1.91,0,0,1,0,.2Zm4-1.21v-.45c0-1.86,0-3.71,0-5.56a3.21,3.21,0,0,1,6.41.11c0,1.84,0,3.68,0,5.52V61h6.39c0-.11,0-.2,0-.29,0-2.28,0-4.56,0-6.84a.85.85,0,0,0-.2-.49c-2-2.46-4.11-4.9-6.16-7.36a.9.9,0,0,1-.19-.53c0-1.93,0-3.87,0-5.8v-.34l.4,0v-1.4H61.37v1.44h.85v.42c0,1.82,0,3.63,0,5.45a2.18,2.18,0,0,1-.23.9c-1.23,2.39-2.49,4.76-3.73,7.15a1.25,1.25,0,0,0-.13.57q0,3.39,0,6.8V61Zm5.18,0a1.16,1.16,0,0,0,0-.17c0-1.92,0-3.84,0-5.76a2,2,0,0,0-2-2,2,2,0,0,0-2,2.08c0,1.83,0,3.66,0,5.48,0,.13,0,.25,0,.39Zm-13.2-13.1v2h1.08v1.51H51.34V50.32l-1.22.29V53.4h1.82v8.75H34.47c.08-.36-.09-.53-.39-.71a1.24,1.24,0,0,1-.33-1.75c0-.08.11-.15.16-.22-.51-.83-.51-1.22,0-1.91-.51-.84-.51-1.2,0-1.91a1.32,1.32,0,0,1-.14-1.71c.41-.62,1.08-.52,1.72-.53V50.53H34.16V49.2h-2v-2H31.12V45.66h2.57v2h.46V46.5h1.36V44.72h4.33v1.75h5.92V44.74H50.1v1.77c1.14-.21,1.46.52,1.65,1.4ZM34.7,60.43l.74.21c.08,0,.21.06.21.1,0,.32.28.23.46.23H50.73V54.6h-1.8V49.32h1.3a.4.4,0,0,0,.42-.47c0-.27-.08-.54-.12-.81s-.13-.37-.42-.35-.79,0-1.22,0V46H47v1.71H38.63V46h-1.9v1.76H35.39v1.61h1.33v5.31H34.79l0,.09,1,.92-1.06,1,1.06.95-1.06,1,1.06,1ZM47,54.61H38.67V49.35H47Zm-1.2-1.21V50.56H39.88V53.4Zm-28.71-25a.59.59,0,0,1-.58-.58.58.58,0,0,1,1.15,0A.56.56,0,0,1,17.05,28.43Zm79-1.58a.59.59,0,0,1,0-1.17.6.6,0,0,1,.57.6A.59.59,0,0,1,96,26.85Z"/><path class="cls-1" d="M68.5,1.66l-.08-.06L61.79.49c-.06,0-.15,0-.17,0-.3.36-.78.58-.84,1.13-.19,1.73-.39,3.47-.59,5.2-.12,1.07-.25,2.13-.37,3.22l-2.91-.25c.11-3.26.22-6.48.32-9.72a69.49,69.49,0,0,0-7.36,0l.32,9.71-2.88.24a3.35,3.35,0,0,1-.07-.37c-.29-2.52-.6-5-.85-7.56A2,2,0,0,0,45.66.67.67.67,0,0,0,45.2.52c-1.47.21-2.94.42-4.41.66-.73.12-1.45.28-2.19.43l1.68,7.32-2.74.61C37,7.9,36.47,6.3,36,4.69a1.72,1.72,0,0,0-.9-1.18c-.33-.16-.63-.41-1-.59a.67.67,0,0,0-.48-.06c-1.12.36-2.24.74-3.35,1.14-.71.26-1.42.57-2.07.83l4,9.36A7.3,7.3,0,0,1,34.7,13c1.15-.31,2.31-.63,3.48-.84a86.08,86.08,0,0,1,14-1.15,100.08,100.08,0,0,1,14,.72A36.65,36.65,0,0,1,72,12.84a8.81,8.81,0,0,1,3,1.35c1.33-3.13,2.64-6.23,4-9.35,0,0,0,0,0,0-1.81-.67-3.62-1.34-5.44-2a.59.59,0,0,0-.42.09c-.47.27-.93.56-1.37.87a.87.87,0,0,0-.31.4c-.55,1.64-1.08,3.29-1.62,4.94,0,.13-.09.26-.14.41l-2.73-.61Zm4.39,18L74.31,16c.2-.53.18-.69-.31-1a11.82,11.82,0,0,0-2-.87,35.63,35.63,0,0,0-7-1.35,101.51,101.51,0,0,0-13.5-.59A87.05,87.05,0,0,0,40,13.07a25.66,25.66,0,0,0-5.74,1.36,8.54,8.54,0,0,0-1.39.76c-.23.14-.27.35-.16.64.47,1.16.9,2.33,1.35,3.5,0,.11.1.22.16.35a7.35,7.35,0,0,1,2.64-1.31A37.15,37.15,0,0,1,44.35,17a93.13,93.13,0,0,1,14.17-.32,65.21,65.21,0,0,1,9.14,1A12.33,12.33,0,0,1,72.89,19.68Zm-37.51.64,0,.11c.83.11,1.66.25,2.49.34,3.6.37,7.2.5,10.81.54s7.3,0,10.94,0c3.17-.08,6.34-.3,9.5-.49.86-.06,1.7-.22,2.55-.34v-.1l-.35-.2A14.2,14.2,0,0,0,67.83,19a62.48,62.48,0,0,0-11.32-1.18,84.34,84.34,0,0,0-14.9.76,24,24,0,0,0-5.29,1.27C36,20,35.7,20.17,35.38,20.32Z"/></g></g></svg>