<svg xmlns="http://www.w3.org/2000/svg" viewBox="0 0 158.52 76.64"><defs><style>.cls-1{fill:#fff;}</style></defs><title>Asset 3</title><g id="Layer_2" data-name="Layer 2"><g id="содержание"><path class="cls-1" d="M55.47,76.38H0V0L31.43,25.41H11.33S43.22,51.2,42.4,51.2H22.11L40.4,66.44c6.77,0,12.14,2,13.13-33.29,14.57,0,37.29-.24,37.29-.24V76.38H75.46V44.64H67.6S68,74.48,55.47,76.38Z"/><path class="cls-1" d="M99.58,32.71h15.83V45.63h12.48c4.22,0,13.63,5.68,13.63,15.35s-8.61,15.4-13.63,15.4H99.58Zm26,28.34A4.78,4.78,0,0,0,121,56h-5.63V66.09H121A4.75,4.75,0,0,0,125.58,61.05Z"/><circle class="cls-1" cx="151.55" cy="69.67" r="6.98"/></g></g></svg>