<svg xmlns="http://www.w3.org/2000/svg" viewBox="0 0 28.11 30.5"><defs><style>.cls-1{fill:#fff;}</style></defs><title>Ресурс 4</title><g id="Слой_2" data-name="Слой 2"><g id="содержание"><path class="cls-1" d="M0,30.5c0-.9,0-1.75,0-2.6s.57-.9,1-1c.17-.7.14-1.53.53-1.91s1.22-.34,1.94-.5V13c-.66-.14-1.52-.09-1.93-.48s-.37-1.25-.55-2l-1-.05a22.17,22.17,0,0,1,0-2.83,1.58,1.58,0,0,1,.84-1C4.5,4.81,14,0,14,0s9.5,4.8,13.1,6.6a1.52,1.52,0,0,1,1,1.6c-.05.73,0,1.47,0,2.25L27,10.5c-.13.68-.06,1.53-.45,1.95s-1.25.38-2,.57c0,0,0,.21,0,.39,0,3.52,0,7,0,10.55,0,.57.17.75.71.69a4.31,4.31,0,0,1,.72,0,1,1,0,0,1,.93,1c0,.39,0,.78,0,1.22,1,.18,1.28.8,1.19,1.74-.06.63,0,1.26,0,1.94Zm11.63-5.89V12.89H8.31V24.61Zm8.13,0V12.89H16.45V24.61Z"/></g></g></svg>