<svg xmlns="http://www.w3.org/2000/svg" viewBox="0 0 389.46 51.23"><defs><style>.cls-1{fill:#fff;}</style></defs><title>Ресурс 2</title><g id="Слой_2" data-name="Слой 2"><g id="содержание"><path class="cls-1" d="M25.61,51.23A25.62,25.62,0,1,1,51.23,25.62,25.62,25.62,0,0,1,25.61,51.23ZM39.54,38.37c0-.66,0-1.29,0-1.9.09-.92-.21-1.53-1.18-1.7,0-.43,0-.82,0-1.2a.94.94,0,0,0-.93-.94,4.19,4.19,0,0,0-.71,0c-.53.06-.71-.12-.7-.67,0-3.45,0-6.89,0-10.34,0-.18,0-.36,0-.38.76-.19,1.61-.16,2-.57s.32-1.24.45-1.9l1-.05c0-.76,0-1.49,0-2.21a1.49,1.49,0,0,0-1-1.56c-3.56-1.76-13-6.47-13-6.47s-9.47,4.72-13,6.53a1.63,1.63,0,0,0-.84.94,21.21,21.21,0,0,0,0,2.77l1,.05c.18.73.14,1.57.55,1.95s1.25.34,1.91.48c0,3.75,0,7.54,0,11.24-.7.16-1.52.11-1.91.49s-.36,1.19-.53,1.88c-.42.12-1,.29-1,1s0,1.67,0,2.55ZM19.92,32.6V21.12h3.31V32.6Zm8.07,0V21.12h3.3V32.6Z"/><path class="cls-1" d="M64.31,22.76a13.87,13.87,0,0,1,9.41-11,13.57,13.57,0,0,1,14.09,2.65,2.42,2.42,0,0,1,.29.31l-2.73,2.8A10,10,0,0,0,77.75,15a9.84,9.84,0,0,0-6,2.56,10.37,10.37,0,0,0-2.29,12,10.11,10.11,0,0,0,10.81,5.54,8.19,8.19,0,0,0,7.35-7.35H78.52V23.86h13c.06.44.18.91.2,1.38.24,5.22-1.46,9.57-6.2,12.18-5,2.73-10.05,2.42-14.84-.56a13.62,13.62,0,0,1-6.43-9.75A16.26,16.26,0,0,1,64.14,25,17.12,17.12,0,0,1,64.31,22.76Z"/><path class="cls-1" d="M140.17,47.3a9.61,9.61,0,0,1-6.28-4.74l-.33-.7L137,40.43c2.67,3.15,4.59,3.85,7.07,2.66,1.87-.9,2.76-3.07,2.3-5.64-4.11,2.64-8.25,2.14-11.23-1.37a9.16,9.16,0,0,1,.28-12.31,8,8,0,0,1,11-1c.09-.39.16-.73.26-1.15h3.73a10.11,10.11,0,0,1,.09,1.06c0,5,0,10.07,0,15.11a10.28,10.28,0,0,1-2.12,6.81c-1.28,1.55-3.09,2.1-4.87,2.74ZM146.76,30c0-3.09-2.18-5.46-4.89-5.4A5.28,5.28,0,0,0,137,30.1a5.18,5.18,0,0,0,5,5.37C144.69,35.48,146.78,33.13,146.76,30Z"/><path class="cls-1" d="M267.87,37.09a9.19,9.19,0,0,1-13.16-1.54c-2.89-3.87-2-8.36,2.51-12.44-1.29-1.85-2.32-3.84-1.21-6.19a6,6,0,0,1,3.4-3.13c3.28-1.24,6.46.33,7.71,3.88l-2.65,1.44c-.26-.42-.48-.79-.72-1.15a2.55,2.55,0,0,0-3.37-1.15,2.59,2.59,0,0,0-1.32,3.31,3.5,3.5,0,0,0,.55,1.07c2.66,3.48,5.33,6.94,8.14,10.6L270,28.22l2.56,1.55-2.82,4.54,2.24,3c-.78.6-1.53,1.2-2.39,1.87ZM259.1,25.57c-2.22,1.56-3.35,3.41-2.87,6a5.91,5.91,0,0,0,9.77,3Z"/><path class="cls-1" d="M191.75,14h3.74l9.28,24.49h-3.63c-.77-2.09-1.56-4.28-2.37-6.49H188.52l-2.42,6.53h-3.63Zm1.87,3.89-4,10.9h7.92Z"/><path class="cls-1" d="M175.9,27.85,163.83,32.8c1.74,3.47,5.42,3.53,8.81.23l2.57,1.69a4.12,4.12,0,0,1,.37.35c-1.78,3.45-6.66,5-10.8,3.54a9.18,9.18,0,0,1-5.48-11.27,8.48,8.48,0,0,1,9.76-6.23C172.78,21.78,174.66,24.39,175.9,27.85ZM171,26.43a3.66,3.66,0,0,0-4.59-1.59,4.51,4.51,0,0,0-3.15,4.76Z"/><path class="cls-1" d="M131.29,30.07A9.18,9.18,0,0,1,112.94,30a9.18,9.18,0,0,1,18.35.07ZM117.06,30a5.08,5.08,0,1,0,10.13.08A5.08,5.08,0,1,0,117.06,30Z"/><path class="cls-1" d="M111.39,30.07a9.2,9.2,0,1,1-9.1-9.1A9,9,0,0,1,111.39,30.07ZM107.27,30a5.07,5.07,0,1,0-10.12.15A5.07,5.07,0,1,0,107.27,30Z"/><path class="cls-1" d="M302.85,17.28l-1.92,2.4a9.65,9.65,0,0,0-14-.12c-3.29,3.63-3.3,10.08.13,13.6,3.88,4,9.54,3.75,14.55-.61l2.17,2.13c-3.89,5.32-12.89,6-18.18,1.53A13.08,13.08,0,0,1,284.9,17C290.06,12,298.67,12.2,302.85,17.28Z"/><path class="cls-1" d="M389.38,30.82H376.33a5.1,5.1,0,0,0,3.46,5.06c2.43.82,4.37.08,6.45-2.55L389,34.49a7.82,7.82,0,0,1-3.72,3.9A8.64,8.64,0,0,1,373,32.08a9.93,9.93,0,0,1,.86-6.31A8.25,8.25,0,0,1,384,21.55C387.65,22.69,389.94,26.5,389.38,30.82Zm-12.85-2.73H386a4.34,4.34,0,0,0-4.59-3.91A4.71,4.71,0,0,0,376.53,28.09Z"/><path class="cls-1" d="M343.89,21.79h3.32v1.64c0,2.79,0,5.58,0,8.37,0,2.59,1.09,4,3.22,4.29A4.21,4.21,0,0,0,355.32,33a8.36,8.36,0,0,0,.33-2.39c0-2.87,0-5.74,0-8.74h3.22V38.56h-3c0-.63-.07-1.26-.1-1.75a22,22,0,0,1-3.56,2c-4,1.43-7.68-1.06-8.27-5.48a12.13,12.13,0,0,1-.07-1.48Z"/><path class="cls-1" d="M306.31,21.79h3.16c0,.49.06.92.07,1.35,0,2.93,0,5.85,0,8.78,0,2.37,1,3.74,2.92,4.12a4.08,4.08,0,0,0,4.94-2.58,8.54,8.54,0,0,0,.54-3c.08-2.83,0-5.66,0-8.61h3.19V38.54h-3L318,36.61l-.82.74a6.67,6.67,0,0,1-6.94,1.46,5.43,5.43,0,0,1-3.91-5.18C306.18,29.73,306.31,25.83,306.31,21.79Z"/><path class="cls-1" d="M244.17,25.19l-2.66,1.09c-1.77-2.06-3.61-2.74-5.62-1.87a3,3,0,0,0-1.58,1.75c-.26,1,.66,1.49,1.53,1.73,1.48.41,3,.7,4.48,1.11,3.06.87,4.64,3.22,4,5.93a5.07,5.07,0,0,1-3.09,3.54,8,8,0,0,1-10.91-4.15l2.74-1.25c.25.37.47.69.68,1a4.64,4.64,0,0,0,5.71,1.8,3.3,3.3,0,0,0,1.56-2c.25-1-.6-1.65-1.52-1.94-1.17-.36-2.38-.58-3.55-.93a12.14,12.14,0,0,1-2.52-1c-3.53-2-3.49-5.9,0-7.93C237.3,20,242.49,21.35,244.17,25.19Z"/><path class="cls-1" d="M153.12,12h4V38.58h-4Z"/><path class="cls-1" d="M334.05,24.69h-2.92V21.77H334V16.65h3.34v5.06h4.06v3h-4c0,3.25-.07,6.34,0,9.42,0,1.2.95,1.78,2.17,1.76a14.26,14.26,0,0,0,1.43-.15l1.06,2.56c-3.77,2-7.88-.3-8.05-4.35-.07-1.53,0-3.06,0-4.59Z"/><path class="cls-1" d="M221.42,16.65h3.27v5h4.06v3h-4v7.92c0,2.91.7,3.53,3.7,3.16l1.08,2.5a5.23,5.23,0,0,1-8-4.11c-.1-3,0-6.1,0-9.3l-2.9-.14v-3h2.85Z"/><path class="cls-1" d="M325.08,14.05h3.11V38.56h-3.11Z"/><path class="cls-1" d="M362.42,38.57V21.8h3c.05.66.09,1.36.13,1.88a28,28,0,0,1,3.34-2.07,5,5,0,0,1,4,.17c-.46,1.06-.86,2-1.24,2.89-4.27-.35-6.06,1.31-6.06,5.48q0,4.07,0,8.11c0,.07-.08.15-.16.31Z"/><path class="cls-1" d="M206.6,21.78h2.94c0,.7.09,1.42.15,2.34a6.27,6.27,0,0,1,6.5-2.7v3.13c-.58,0-1.11,0-1.63,0a4.62,4.62,0,0,0-4.79,4.92c0,2.56,0,5.12,0,7.68v1.41H206.6Z"/></g></g></svg>