<svg xmlns="http://www.w3.org/2000/svg" viewBox="0 0 1112 307.21"><defs><style>.cls-1,.cls-8{fill:none;stroke:#fff;stroke-miterlimit:10;}.cls-1{stroke-width:2px;}.cls-2{font-size:21.78px;font-family:Pragmatica;}.cls-2,.cls-5{fill:#fff;}.cls-3{letter-spacing:-0.07em;}.cls-4{letter-spacing:-0.07em;}.cls-6{fill:#fb3439;}.cls-7{fill:#fcd600;}.cls-8{stroke-width:2.5px;}</style></defs><title>Ресурс 1</title><g id="Слой_2" data-name="Слой 2"><g id="содержание"><line class="cls-1" x1="134.63" y1="25.82" x2="6.11" y2="25.82"/><line class="cls-1" x1="273.38" y1="25.82" x2="144.85" y2="25.82"/><line class="cls-1" x1="412.12" y1="25.82" x2="283.6" y2="25.82"/><line class="cls-1" x1="550.87" y1="25.82" x2="422.34" y2="25.82"/><line class="cls-1" x1="1" y1="37.84" x2="1" y2="152.11"/><line class="cls-1" x1="36.38" y1="72.69" x2="104.36" y2="72.69"/><line class="cls-1" x1="30.56" y1="68.54" x2="10.37" y2="37.43"/><line class="cls-1" x1="30.56" y1="78.96" x2="5.79" y2="152.11"/><line class="cls-1" x1="139.74" y1="37.84" x2="139.74" y2="152.11"/><line class="cls-1" x1="110.19" y1="68.54" x2="130.37" y2="37.43"/><line class="cls-1" x1="110.19" y1="78.96" x2="134.96" y2="152.11"/><line class="cls-1" x1="134.63" y1="166.01" x2="6.11" y2="166.01"/><line class="cls-1" x1="273.38" y1="166.01" x2="144.85" y2="166.01"/><line class="cls-1" x1="412.12" y1="166.01" x2="283.6" y2="166.01"/><line class="cls-1" x1="550.87" y1="166.01" x2="422.34" y2="166.01"/><line class="cls-1" x1="555.98" y1="37.84" x2="555.98" y2="152.11"/><line class="cls-1" x1="1" y1="178.04" x2="1" y2="292.31"/><line class="cls-1" x1="36.38" y1="212.89" x2="104.36" y2="212.89"/><line class="cls-1" x1="30.56" y1="208.74" x2="10.37" y2="177.62"/><line class="cls-1" x1="30.56" y1="219.15" x2="5.79" y2="292.31"/><line class="cls-1" x1="139.74" y1="178.04" x2="139.74" y2="292.31"/><line class="cls-1" x1="110.19" y1="208.74" x2="130.37" y2="177.62"/><line class="cls-1" x1="110.19" y1="219.15" x2="134.96" y2="292.31"/><line class="cls-1" x1="175.13" y1="212.89" x2="243.1" y2="212.89"/><line class="cls-1" x1="169.3" y1="208.74" x2="149.12" y2="177.62"/><line class="cls-1" x1="169.3" y1="219.15" x2="144.53" y2="292.31"/><line class="cls-1" x1="278.49" y1="178.04" x2="278.49" y2="292.31"/><line class="cls-1" x1="248.93" y1="208.74" x2="269.12" y2="177.62"/><line class="cls-1" x1="248.93" y1="219.15" x2="273.7" y2="292.31"/><line class="cls-1" x1="313.87" y1="212.89" x2="381.85" y2="212.89"/><line class="cls-1" x1="308.04" y1="208.74" x2="287.86" y2="177.62"/><line class="cls-1" x1="308.04" y1="219.15" x2="283.27" y2="292.31"/><line class="cls-1" x1="417.23" y1="178.04" x2="417.23" y2="292.31"/><line class="cls-1" x1="387.68" y1="208.74" x2="407.86" y2="177.62"/><line class="cls-1" x1="387.68" y1="219.15" x2="412.45" y2="292.31"/><line class="cls-1" x1="134.63" y1="306.21" x2="6.11" y2="306.21"/><line class="cls-1" x1="273.38" y1="306.21" x2="144.85" y2="306.21"/><line class="cls-1" x1="412.12" y1="306.21" x2="283.6" y2="306.21"/><line class="cls-1" x1="550.87" y1="306.21" x2="422.34" y2="306.21"/><line class="cls-1" x1="452.62" y1="212.89" x2="520.59" y2="212.89"/><line class="cls-1" x1="446.79" y1="208.74" x2="426.6" y2="177.62"/><line class="cls-1" x1="446.79" y1="219.15" x2="422.02" y2="292.31"/><line class="cls-1" x1="555.98" y1="178.04" x2="555.98" y2="292.31"/><line class="cls-1" x1="526.42" y1="208.74" x2="546.61" y2="177.62"/><line class="cls-1" x1="526.42" y1="219.15" x2="551.19" y2="292.31"/><line class="cls-1" x1="689.66" y1="25.82" x2="561.13" y2="25.82"/><line class="cls-1" x1="828.4" y1="25.82" x2="699.88" y2="25.82"/><line class="cls-1" x1="967.15" y1="25.82" x2="838.62" y2="25.82"/><line class="cls-1" x1="1105.89" y1="25.82" x2="977.37" y2="25.82"/><line class="cls-1" x1="591.41" y1="72.69" x2="659.38" y2="72.69"/><line class="cls-1" x1="585.58" y1="68.54" x2="565.39" y2="37.43"/><line class="cls-1" x1="585.58" y1="78.96" x2="560.81" y2="152.11"/><line class="cls-1" x1="694.77" y1="37.84" x2="694.77" y2="152.11"/><line class="cls-1" x1="665.21" y1="68.54" x2="685.4" y2="37.43"/><line class="cls-1" x1="665.21" y1="78.96" x2="689.98" y2="152.11"/><line class="cls-1" x1="730.15" y1="72.69" x2="798.13" y2="72.69"/><line class="cls-1" x1="724.32" y1="68.54" x2="704.14" y2="37.43"/><line class="cls-1" x1="724.32" y1="78.96" x2="699.55" y2="152.11"/><line class="cls-1" x1="833.51" y1="37.84" x2="833.51" y2="152.11"/><line class="cls-1" x1="803.96" y1="68.54" x2="824.14" y2="37.43"/><line class="cls-1" x1="803.96" y1="78.96" x2="828.73" y2="152.11"/><line class="cls-1" x1="868.9" y1="72.69" x2="936.87" y2="72.69"/><line class="cls-1" x1="863.07" y1="68.54" x2="842.88" y2="37.43"/><line class="cls-1" x1="863.07" y1="78.96" x2="838.3" y2="152.11"/><line class="cls-1" x1="972.26" y1="37.84" x2="972.26" y2="152.11"/><line class="cls-1" x1="942.7" y1="68.54" x2="962.88" y2="37.43"/><line class="cls-1" x1="942.7" y1="78.96" x2="967.47" y2="152.11"/><line class="cls-1" x1="1007.64" y1="72.69" x2="1075.62" y2="72.69"/><line class="cls-1" x1="1001.81" y1="68.54" x2="981.63" y2="37.43"/><line class="cls-1" x1="1001.81" y1="78.96" x2="977.04" y2="152.11"/><line class="cls-1" x1="1111" y1="37.84" x2="1111" y2="152.11"/><line class="cls-1" x1="1081.44" y1="68.54" x2="1101.63" y2="37.43"/><line class="cls-1" x1="1081.44" y1="78.96" x2="1106.21" y2="152.11"/><line class="cls-1" x1="689.66" y1="166.01" x2="561.13" y2="166.01"/><line class="cls-1" x1="828.4" y1="166.01" x2="699.88" y2="166.01"/><line class="cls-1" x1="967.15" y1="166.01" x2="838.62" y2="166.01"/><line class="cls-1" x1="1105.89" y1="166.01" x2="977.37" y2="166.01"/><line class="cls-1" x1="591.41" y1="212.89" x2="659.38" y2="212.89"/><line class="cls-1" x1="585.58" y1="208.74" x2="565.39" y2="177.62"/><line class="cls-1" x1="585.58" y1="219.15" x2="560.81" y2="292.31"/><line class="cls-1" x1="694.77" y1="178.04" x2="694.77" y2="292.31"/><line class="cls-1" x1="665.21" y1="208.74" x2="685.4" y2="177.62"/><line class="cls-1" x1="665.21" y1="219.15" x2="689.98" y2="292.31"/><line class="cls-1" x1="1111" y1="178.04" x2="1111" y2="292.31"/><line class="cls-1" x1="689.66" y1="306.21" x2="561.13" y2="306.21"/><line class="cls-1" x1="828.4" y1="306.21" x2="699.88" y2="306.21"/><line class="cls-1" x1="967.15" y1="306.21" x2="838.62" y2="306.21"/><line class="cls-1" x1="1105.89" y1="306.21" x2="977.37" y2="306.21"/><text class="cls-2" transform="translate(855.61 217.15)">STENOGRAFFIA 2020 <tspan x="0" y="27.58">INTERN</tspan><tspan class="cls-3" x="78.66" y="27.58">A</tspan><tspan x="90.75" y="27.58">TIONAL</tspan><tspan x="0" y="55.15">STREET ART FESTI</tspan><tspan class="cls-4" x="190.12" y="55.15">V</tspan><tspan x="201.6" y="55.15">AL</tspan></text><rect class="cls-5" x="830.47" y="185.13" width="6.68" height="101.35"/><rect class="cls-5" x="789.39" y="235.65" width="6.68" height="56.78" transform="translate(45.48 637.88) rotate(-45)"/><rect class="cls-5" x="707.91" y="260.79" width="56.52" height="6.68" transform="translate(28.85 597.91) rotate(-45)"/><rect class="cls-5" x="732.83" y="179.22" width="6.68" height="56.52" transform="translate(68.91 581.32) rotate(-45)"/><rect class="cls-5" x="764.34" y="204.23" width="56.78" height="6.68" transform="translate(85.41 621.34) rotate(-45)"/><path class="cls-5" d="M181.51,113.79a20.89,20.89,0,0,0,2,10.19,25.44,25.44,0,0,0,4.34,6.34,22.91,22.91,0,0,0,10.4,6.07,44,44,0,0,0,12.06,1.79,41.11,41.11,0,0,0,11.44-1.59,21,21,0,0,0,8.95-4.89,19,19,0,0,0,3.86-5.65,17.31,17.31,0,0,0,1.52-7.3,17.07,17.07,0,0,0-1.24-6.48,16.45,16.45,0,0,0-3-5,15.09,15.09,0,0,0-4.21-3.1,46,46,0,0,0-10.33-3.79c-1.61-.37-2.92-.64-3.93-.83l-9.65-1.79q-3-.54-6.33-1.31a55,55,0,0,1-6.55-1.93,37.6,37.6,0,0,1-6.2-2.89,21,21,0,0,1-5.17-4.2,27,27,0,0,1-3.86-6,21.14,21.14,0,0,1-1.79-9.3,24.56,24.56,0,0,1,3.31-13,26,26,0,0,1,8.27-8.61,27.93,27.93,0,0,1,6.82-3.24,48.9,48.9,0,0,1,7-1.73,57,57,0,0,1,6.06-.68c1.79-.09,3.19-.14,4.2-.14a49.24,49.24,0,0,1,9.44.82,43.68,43.68,0,0,1,7.37,2.07,28.18,28.18,0,0,1,5.52,2.83,33.89,33.89,0,0,1,4,3.1c.28.27.83.89,1.66,1.86a27.19,27.19,0,0,1,2.61,3.79,32.17,32.17,0,0,1,4.14,13.23H234a21.3,21.3,0,0,0-6.34-13.37,19.09,19.09,0,0,0-8.61-4.41,44.27,44.27,0,0,0-10.4-1.24c-.56,0-1.43,0-2.62.07A29.24,29.24,0,0,0,202,54a48.5,48.5,0,0,0-4.82,1.17,20.14,20.14,0,0,0-4.62,2,16.18,16.18,0,0,0-5.92,6.13,16.84,16.84,0,0,0-2.07,8.2,12.56,12.56,0,0,0,1.24,5.93,18.69,18.69,0,0,0,2.48,3.72,17.84,17.84,0,0,0,7.51,4.54,78.58,78.58,0,0,0,9.58,2.49L214.44,90a110.77,110.77,0,0,1,14.4,3.72,29.47,29.47,0,0,1,11,6.34,23.28,23.28,0,0,1,7,17.77,30.77,30.77,0,0,1-2.21,11.92,25.07,25.07,0,0,1-6.06,8.89,25.84,25.84,0,0,1-6.62,4.41,36.14,36.14,0,0,1-7.3,2.48,51.86,51.86,0,0,1-7.17,1.1q-3.43.28-6.2.28-3.72,0-7.78-.35a52.77,52.77,0,0,1-8.2-1.37,36.21,36.21,0,0,1-8-3,29,29,0,0,1-7.17-5.3,34.44,34.44,0,0,1-6.06-9,31.15,31.15,0,0,1-2.9-14Z"/><path class="cls-5" d="M269.5,91.32h163v6.62h-163Z"/><path class="cls-5" d="M455.65,144.24h-11l36.65-96.46h11.44l36.65,96.46H518.21L508,116.54H466ZM505,107.86l-18.05-50.3-18.05,50.3Z"/></g><g id="стикеры"><circle class="cls-6" cx="1061.13" cy="154.53" r="24.87" transform="translate(-6.06 259.37) rotate(-13.9)"/><circle class="cls-7" cx="804.3" cy="52.7" r="52.7" transform="translate(198.31 584.16) rotate(-45)"/><circle class="cls-8" cx="804.3" cy="52.7" r="41.99" transform="translate(198.31 584.16) rotate(-45)"/><ellipse class="cls-8" cx="804.3" cy="52.7" rx="27.3" ry="41.99" transform="translate(22.13 247.34) rotate(-17.72)"/><ellipse class="cls-8" cx="804.3" cy="52.7" rx="11.02" ry="41.99" transform="translate(22.13 247.34) rotate(-17.72)"/><ellipse class="cls-8" cx="804.3" cy="52.7" rx="41.99" ry="18.79" transform="translate(22.13 247.34) rotate(-17.72)"/><line class="cls-8" x1="764.87" y1="67.25" x2="844.75" y2="41.71"/></g></g></svg>