<svg xmlns="http://www.w3.org/2000/svg" viewBox="0 0 1112 307.21"><defs><style>.cls-1,.cls-5{fill:none;stroke:#fff;stroke-miterlimit:10;}.cls-1{stroke-width:2px;}.cls-2{fill:#fff;}.cls-3{fill:#fb3439;}.cls-4{fill:#fcd600;}.cls-5{stroke-width:2.5px;}</style></defs><title>Ресурс 18</title><g id="Слой_2" data-name="Слой 2"><g id="содержание"><line class="cls-1" x1="134.63" y1="25.82" x2="6.11" y2="25.82"/><line class="cls-1" x1="273.38" y1="25.82" x2="144.85" y2="25.82"/><line class="cls-1" x1="412.12" y1="25.82" x2="283.6" y2="25.82"/><line class="cls-1" x1="550.87" y1="25.82" x2="422.34" y2="25.82"/><line class="cls-1" x1="1" y1="37.84" x2="1" y2="152.11"/><line class="cls-1" x1="36.38" y1="72.69" x2="104.36" y2="72.69"/><line class="cls-1" x1="30.56" y1="68.54" x2="10.37" y2="37.43"/><line class="cls-1" x1="30.56" y1="78.96" x2="5.79" y2="152.11"/><line class="cls-1" x1="139.74" y1="37.84" x2="139.74" y2="152.11"/><line class="cls-1" x1="110.19" y1="68.54" x2="130.37" y2="37.43"/><line class="cls-1" x1="110.19" y1="78.96" x2="134.96" y2="152.11"/><line class="cls-1" x1="134.63" y1="166.01" x2="6.11" y2="166.01"/><line class="cls-1" x1="273.38" y1="166.01" x2="144.85" y2="166.01"/><line class="cls-1" x1="412.12" y1="166.01" x2="283.6" y2="166.01"/><line class="cls-1" x1="550.87" y1="166.01" x2="422.34" y2="166.01"/><line class="cls-1" x1="555.98" y1="37.84" x2="555.98" y2="152.11"/><line class="cls-1" x1="1" y1="178.04" x2="1" y2="292.31"/><line class="cls-1" x1="36.38" y1="212.89" x2="104.36" y2="212.89"/><line class="cls-1" x1="30.56" y1="208.74" x2="10.37" y2="177.62"/><line class="cls-1" x1="30.56" y1="219.15" x2="5.79" y2="292.31"/><line class="cls-1" x1="139.74" y1="178.04" x2="139.74" y2="292.31"/><line class="cls-1" x1="110.19" y1="208.74" x2="130.37" y2="177.62"/><line class="cls-1" x1="110.19" y1="219.15" x2="134.96" y2="292.31"/><line class="cls-1" x1="175.13" y1="212.89" x2="243.1" y2="212.89"/><line class="cls-1" x1="169.3" y1="208.74" x2="149.12" y2="177.62"/><line class="cls-1" x1="169.3" y1="219.15" x2="144.53" y2="292.31"/><line class="cls-1" x1="278.49" y1="178.04" x2="278.49" y2="292.31"/><line class="cls-1" x1="248.93" y1="208.74" x2="269.12" y2="177.62"/><line class="cls-1" x1="248.93" y1="219.15" x2="273.7" y2="292.31"/><line class="cls-1" x1="313.87" y1="212.89" x2="381.85" y2="212.89"/><line class="cls-1" x1="308.04" y1="208.74" x2="287.86" y2="177.62"/><line class="cls-1" x1="308.04" y1="219.15" x2="283.27" y2="292.31"/><line class="cls-1" x1="417.23" y1="178.04" x2="417.23" y2="292.31"/><line class="cls-1" x1="387.68" y1="208.74" x2="407.86" y2="177.62"/><line class="cls-1" x1="387.68" y1="219.15" x2="412.45" y2="292.31"/><line class="cls-1" x1="134.63" y1="306.21" x2="6.11" y2="306.21"/><line class="cls-1" x1="273.38" y1="306.21" x2="144.85" y2="306.21"/><line class="cls-1" x1="412.12" y1="306.21" x2="283.6" y2="306.21"/><line class="cls-1" x1="550.87" y1="306.21" x2="422.34" y2="306.21"/><line class="cls-1" x1="452.62" y1="212.89" x2="520.59" y2="212.89"/><line class="cls-1" x1="446.79" y1="208.74" x2="426.6" y2="177.62"/><line class="cls-1" x1="446.79" y1="219.15" x2="422.02" y2="292.31"/><line class="cls-1" x1="555.98" y1="178.04" x2="555.98" y2="292.31"/><line class="cls-1" x1="526.42" y1="208.74" x2="546.61" y2="177.62"/><line class="cls-1" x1="526.42" y1="219.15" x2="551.19" y2="292.31"/><line class="cls-1" x1="689.66" y1="25.82" x2="561.13" y2="25.82"/><line class="cls-1" x1="828.4" y1="25.82" x2="699.88" y2="25.82"/><line class="cls-1" x1="967.15" y1="25.82" x2="838.62" y2="25.82"/><line class="cls-1" x1="1105.89" y1="25.82" x2="977.37" y2="25.82"/><line class="cls-1" x1="591.41" y1="72.69" x2="659.38" y2="72.69"/><line class="cls-1" x1="585.58" y1="68.54" x2="565.39" y2="37.43"/><line class="cls-1" x1="585.58" y1="78.96" x2="560.81" y2="152.11"/><line class="cls-1" x1="694.77" y1="37.84" x2="694.77" y2="152.11"/><line class="cls-1" x1="665.21" y1="68.54" x2="685.4" y2="37.43"/><line class="cls-1" x1="665.21" y1="78.96" x2="689.98" y2="152.11"/><line class="cls-1" x1="730.15" y1="72.69" x2="798.13" y2="72.69"/><line class="cls-1" x1="724.32" y1="68.54" x2="704.14" y2="37.43"/><line class="cls-1" x1="724.32" y1="78.96" x2="699.55" y2="152.11"/><line class="cls-1" x1="833.51" y1="37.84" x2="833.51" y2="152.11"/><line class="cls-1" x1="803.96" y1="68.54" x2="824.14" y2="37.43"/><line class="cls-1" x1="803.96" y1="78.96" x2="828.73" y2="152.11"/><line class="cls-1" x1="868.9" y1="72.69" x2="936.87" y2="72.69"/><line class="cls-1" x1="863.07" y1="68.54" x2="842.88" y2="37.43"/><line class="cls-1" x1="863.07" y1="78.96" x2="838.3" y2="152.11"/><line class="cls-1" x1="972.26" y1="37.84" x2="972.26" y2="152.11"/><line class="cls-1" x1="942.7" y1="68.54" x2="962.88" y2="37.43"/><line class="cls-1" x1="942.7" y1="78.96" x2="967.47" y2="152.11"/><line class="cls-1" x1="1007.64" y1="72.69" x2="1075.62" y2="72.69"/><line class="cls-1" x1="1001.81" y1="68.54" x2="981.63" y2="37.43"/><line class="cls-1" x1="1001.81" y1="78.96" x2="977.04" y2="152.11"/><line class="cls-1" x1="1111" y1="37.84" x2="1111" y2="152.11"/><line class="cls-1" x1="1081.44" y1="68.54" x2="1101.63" y2="37.43"/><line class="cls-1" x1="1081.44" y1="78.96" x2="1106.21" y2="152.11"/><line class="cls-1" x1="689.66" y1="166.01" x2="561.13" y2="166.01"/><line class="cls-1" x1="828.4" y1="166.01" x2="699.88" y2="166.01"/><line class="cls-1" x1="967.15" y1="166.01" x2="838.62" y2="166.01"/><line class="cls-1" x1="1105.89" y1="166.01" x2="977.37" y2="166.01"/><line class="cls-1" x1="591.41" y1="212.89" x2="659.38" y2="212.89"/><line class="cls-1" x1="585.58" y1="208.74" x2="565.39" y2="177.62"/><line class="cls-1" x1="585.58" y1="219.15" x2="560.81" y2="292.31"/><line class="cls-1" x1="694.77" y1="178.04" x2="694.77" y2="292.31"/><line class="cls-1" x1="665.21" y1="208.74" x2="685.4" y2="177.62"/><line class="cls-1" x1="665.21" y1="219.15" x2="689.98" y2="292.31"/><line class="cls-1" x1="1111" y1="178.04" x2="1111" y2="292.31"/><line class="cls-1" x1="689.66" y1="306.21" x2="561.13" y2="306.21"/><line class="cls-1" x1="828.4" y1="306.21" x2="699.88" y2="306.21"/><line class="cls-1" x1="967.15" y1="306.21" x2="838.62" y2="306.21"/><line class="cls-1" x1="1105.89" y1="306.21" x2="977.37" y2="306.21"/><path class="cls-2" d="M868.4,206.22h-2.6c-.16-1.82-1.28-2.72-3.37-2.72a3.64,3.64,0,0,0-2.18.57,1.86,1.86,0,0,0-.78,1.58,1.39,1.39,0,0,0,.57,1.29,12.06,12.06,0,0,0,2.56.85l.81.21a16.77,16.77,0,0,1,3.53,1.18,3.67,3.67,0,0,1,2.07,3.46,4.73,4.73,0,0,1-.35,1.85,4.11,4.11,0,0,1-.94,1.39,5,5,0,0,1-1.39.92,7.16,7.16,0,0,1-1.68.54,10.6,10.6,0,0,1-1.81.16,7.56,7.56,0,0,1-4.72-1.39,4.85,4.85,0,0,1-1.81-4.1H859a2.94,2.94,0,0,0,1.11,2.52,4.79,4.79,0,0,0,2.9.81,4.1,4.1,0,0,0,2.45-.64,2.12,2.12,0,0,0,.88-1.8,1.63,1.63,0,0,0-.47-1.2,2.66,2.66,0,0,0-1-.67c-.37-.13-1-.31-1.9-.54l-.24-.07a20.89,20.89,0,0,1-3.81-1.22,3.46,3.46,0,0,1-2-3v-.3a4,4,0,0,1,1.55-3.3,6.55,6.55,0,0,1,4.17-1.23,6.65,6.65,0,0,1,4.12,1.2A4.53,4.53,0,0,1,868.4,206.22Z"/><path class="cls-2" d="M882.49,201.64V204h-5v13.15h-2.72V204h-4.94v-2.36Z"/><path class="cls-2" d="M895.42,201.64v2.29H887v4.12h7.86v2.2H887v4.57h8.6v2.33h-11.3V201.64Z"/><path class="cls-2" d="M910.56,201.64v15.51h-2.81l-7.23-11.41v11.41H898V201.64h2.85l7.14,11.44V201.64Z"/><path class="cls-2" d="M920.4,201.27a6.93,6.93,0,0,1,5.35,2.26,9.38,9.38,0,0,1,0,11.74,7.58,7.58,0,0,1-10.77,0,8.38,8.38,0,0,1-2.06-5.88,8.54,8.54,0,0,1,2-5.83A6.93,6.93,0,0,1,920.4,201.27Zm0,2.29a4.18,4.18,0,0,0-3.42,1.58,6.45,6.45,0,0,0-1.29,4.21,6.67,6.67,0,0,0,1.28,4.29,4.2,4.2,0,0,0,3.47,1.59,4.11,4.11,0,0,0,3.39-1.6,6.6,6.6,0,0,0,1.27-4.25,6.54,6.54,0,0,0-1.27-4.24A4.2,4.2,0,0,0,920.36,203.56Z"/><path class="cls-2" d="M943.88,208.85v8.3h-1.74l-.42-1.85a6,6,0,0,1-4.83,2.22,6.88,6.88,0,0,1-5.31-2.22,8.26,8.26,0,0,1-2-5.79,8.54,8.54,0,0,1,2.05-5.85,7,7,0,0,1,5.53-2.34,7.17,7.17,0,0,1,4.41,1.41,5.33,5.33,0,0,1,2.14,3.86h-2.63a3.32,3.32,0,0,0-1.3-2.19,4.75,4.75,0,0,0-6.17.77,6.57,6.57,0,0,0-1.29,4.29,6.48,6.48,0,0,0,1.3,4.3,4.41,4.41,0,0,0,3.6,1.56,4,4,0,0,0,3.13-1.26,4.59,4.59,0,0,0,1.1-3.12h-4.18v-2.09Z"/><path class="cls-2" d="M946.77,201.64h7.34a6.37,6.37,0,0,1,3.77,1,3.75,3.75,0,0,1,1.46,3.28,4.19,4.19,0,0,1-.67,2.38,3.82,3.82,0,0,1-1.9,1.43,3.09,3.09,0,0,1,1,.39,2.12,2.12,0,0,1,.64.57,2.36,2.36,0,0,1,.38.78,5.13,5.13,0,0,1,.21.84c0,.24.07.55.1,1,0,.1,0,.29,0,.58s0,.49,0,.58,0,.26,0,.49,0,.4,0,.49,0,.23.08.41.07.32.1.42.06.2.11.33a1.28,1.28,0,0,0,.15.31,1.16,1.16,0,0,0,.2.24H957a.72.72,0,0,1-.12-.21,1.57,1.57,0,0,1-.1-.26,1.38,1.38,0,0,1-.06-.26q0-.12-.06-.33a2.63,2.63,0,0,1,0-.33c0-.09,0-.22,0-.4s0-.3,0-.39,0-.24,0-.45,0-.37,0-.46a4.11,4.11,0,0,0-.8-2.6,3.58,3.58,0,0,0-2.6-.71h-3.62v6.4h-2.7Zm2.7,2.23v4.85h3.6a10,10,0,0,0,1.33-.08,5.24,5.24,0,0,0,1.1-.32,1.68,1.68,0,0,0,.85-.75,2.76,2.76,0,0,0,.29-1.33,2.67,2.67,0,0,0-.26-1.23,1.7,1.7,0,0,0-.75-.73,3.73,3.73,0,0,0-1-.33,8.3,8.3,0,0,0-1.2-.08Z"/><path class="cls-2" d="M969.21,201.62l6,15.53h-2.91L970.8,213h-6.15l-1.52,4.12h-2.81l6-15.53Zm.87,9.37-2.31-6.54L965.35,211Z"/><path class="cls-2" d="M987.39,201.64V204h-8v4.23h7v2.2h-7v6.77h-2.75V201.64Z"/><path class="cls-2" d="M1000.3,201.64V204h-8v4.23h7v2.2h-7v6.77h-2.74V201.64Z"/><path class="cls-2" d="M1005.25,201.64v15.51h-2.75V201.64Z"/><path class="cls-2" d="M1015.61,201.62l6,15.53h-2.92L1017.2,213h-6.14l-1.52,4.12h-2.81l6-15.53Zm.87,9.37-2.3-6.54-2.42,6.54Z"/><path class="cls-2" d="M1038.39,215v2.2H1028a7.28,7.28,0,0,1,.89-3.32,4.84,4.84,0,0,1,1-1.22,14.72,14.72,0,0,1,1.19-1c.36-.27.85-.62,1.48-1l.64-.42.71-.48.58-.46a2.55,2.55,0,0,0,.6-.58l.39-.58a2.23,2.23,0,0,0,.34-.76,3.47,3.47,0,0,0,.09-.81,2.58,2.58,0,0,0-.67-1.89,2.4,2.4,0,0,0-1.79-.68,2.93,2.93,0,0,0-1.13.2,2.08,2.08,0,0,0-.76.54,2.56,2.56,0,0,0-.44.84,4.12,4.12,0,0,0-.23,1c0,.3-.06.66-.08,1.06h-2.41v-.39a5.44,5.44,0,0,1,1.38-3.91,4.94,4.94,0,0,1,3.73-1.45,5,5,0,0,1,3.57,1.26,4.31,4.31,0,0,1,1.36,3.32,4.49,4.49,0,0,1-.27,1.56,5.69,5.69,0,0,1-.55,1.2,5.58,5.58,0,0,1-1,1.07c-.48.41-.84.69-1.07.85l-1.29.87q-2.71,1.77-3.26,3.07Z"/><path class="cls-2" d="M1045.6,201.78q5.31,0,5.32,7.9a10.46,10.46,0,0,1-1.33,5.79,4.42,4.42,0,0,1-3.9,2q-5.31,0-5.31-7.82a10.68,10.68,0,0,1,1.32-5.86A4.38,4.38,0,0,1,1045.6,201.78Zm0,2.09a2.38,2.38,0,0,0-1.13.25,1.82,1.82,0,0,0-.77.76,5.8,5.8,0,0,0-.47,1,5.66,5.66,0,0,0-.25,1.3c0,.52-.08,1-.1,1.29s0,.78,0,1.3a10.21,10.21,0,0,0,.66,4.27,2.36,2.36,0,0,0,3.14,1.1,2.32,2.32,0,0,0,.73-.56,2.75,2.75,0,0,0,.48-.87,7,7,0,0,0,.29-1,7.12,7.12,0,0,0,.15-1.11c0-.44.06-.78.07-1s0-.55,0-.93,0-.87,0-1.14,0-.68-.08-1.22a4.62,4.62,0,0,0-.25-1.32,7.91,7.91,0,0,0-.48-1.05,1.93,1.93,0,0,0-.79-.81A2.45,2.45,0,0,0,1045.62,203.87Z"/><path class="cls-2" d="M1062.61,215v2.2H1052.2a6.79,6.79,0,0,1,.28-1.87,8,8,0,0,1,.6-1.45,5.32,5.32,0,0,1,1-1.22c.45-.41.85-.76,1.2-1s.85-.62,1.47-1l.64-.42.71-.48.59-.46a2.77,2.77,0,0,0,.6-.58c.09-.14.22-.34.39-.58a2.23,2.23,0,0,0,.34-.76,3.47,3.47,0,0,0,.09-.81,2.63,2.63,0,0,0-.67-1.89,2.4,2.4,0,0,0-1.79-.68,3,3,0,0,0-1.14.2,2,2,0,0,0-.75.54,2.77,2.77,0,0,0-.45.84,4.63,4.63,0,0,0-.22,1,10,10,0,0,0-.08,1.06h-2.42v-.39a5.41,5.41,0,0,1,1.39-3.91,4.92,4.92,0,0,1,3.73-1.45,5,5,0,0,1,3.57,1.26,4.3,4.3,0,0,1,1.35,3.32,4.48,4.48,0,0,1-.26,1.56,5.69,5.69,0,0,1-.55,1.2,5.38,5.38,0,0,1-1,1.07c-.48.41-.83.69-1.06.85l-1.29.87q-2.71,1.77-3.27,3.07Z"/><path class="cls-2" d="M1069.82,201.78q5.31,0,5.31,7.9a10.37,10.37,0,0,1-1.33,5.79,4.39,4.39,0,0,1-3.89,2q-5.33,0-5.32-7.82a10.59,10.59,0,0,1,1.33-5.86A4.38,4.38,0,0,1,1069.82,201.78Zm0,2.09a2.38,2.38,0,0,0-1.13.25,1.82,1.82,0,0,0-.77.76,5.16,5.16,0,0,0-.47,1,5.66,5.66,0,0,0-.25,1.3c0,.52-.09,1-.1,1.29s0,.78,0,1.3a10.21,10.21,0,0,0,.66,4.27,2.23,2.23,0,0,0,2.12,1.33,2.25,2.25,0,0,0,1-.23,2.44,2.44,0,0,0,.73-.56,3,3,0,0,0,.48-.87,8.7,8.7,0,0,0,.29-1,8.57,8.57,0,0,0,.15-1.11c0-.44.06-.78.07-1s0-.55,0-.93,0-.87,0-1.14,0-.68-.08-1.22a5,5,0,0,0-.25-1.32,7.91,7.91,0,0,0-.48-1.05,1.93,1.93,0,0,0-.79-.81A2.48,2.48,0,0,0,1069.84,203.87Z"/><path class="cls-2" d="M860,229.22v15.51h-2.74V229.22Z"/><path class="cls-2" d="M875.87,229.22v15.51h-2.81l-7.23-11.41v11.41h-2.57V229.22h2.85l7.14,11.44V229.22Z"/><path class="cls-2" d="M890.15,229.22v2.35h-4.94v13.16h-2.72V231.57h-5v-2.35Z"/><path class="cls-2" d="M903.09,229.22v2.29h-8.47v4.11h7.86v2.2h-7.86v4.58h8.6v2.33h-11.3V229.22Z"/><path class="cls-2" d="M905.64,229.22H913a6.37,6.37,0,0,1,3.77,1,3.74,3.74,0,0,1,1.46,3.27,4.15,4.15,0,0,1-.67,2.39,3.76,3.76,0,0,1-1.9,1.42,3,3,0,0,1,1,.4,2.24,2.24,0,0,1,.64.56,2.77,2.77,0,0,1,.39.79,5,5,0,0,1,.2.84c0,.24.07.55.1.94,0,.1,0,.3,0,.59s0,.48,0,.58,0,.26,0,.49,0,.39.06.49,0,.23.07.41.07.32.1.42l.11.32a1.19,1.19,0,0,0,.15.32,1.16,1.16,0,0,0,.2.24h-2.92a2,2,0,0,1-.12-.21,2,2,0,0,1-.1-.26,1.38,1.38,0,0,1-.06-.26q0-.12-.06-.33c0-.14,0-.25,0-.34s0-.21,0-.39,0-.3,0-.39,0-.24,0-.46,0-.37,0-.45a4.08,4.08,0,0,0-.8-2.61,3.61,3.61,0,0,0-2.6-.7h-3.61v6.4h-2.7Zm2.7,2.22v4.86h3.59a8.42,8.42,0,0,0,1.33-.09,5.2,5.2,0,0,0,1.1-.31,1.78,1.78,0,0,0,.85-.75,2.78,2.78,0,0,0,.29-1.33,2.61,2.61,0,0,0-.26-1.23,1.65,1.65,0,0,0-.75-.73,3.79,3.79,0,0,0-1-.33,7.12,7.12,0,0,0-1.21-.09Z"/><path class="cls-2" d="M933.56,229.22v15.51h-2.81l-7.23-11.41v11.41H921V229.22h2.85l7.14,11.44V229.22Z"/><path class="cls-2" d="M943.79,229.2l6,15.53h-2.92l-1.48-4.12h-6.14l-1.53,4.12H934.9l6-15.53Zm.87,9.36L942.35,232l-2.41,6.53Z"/><path class="cls-2" d="M962.37,229.22v2.35h-5v13.16H954.7V231.57h-4.94v-2.35Z"/><path class="cls-2" d="M966.92,229.22v15.51h-2.75V229.22Z"/><path class="cls-2" d="M976.89,228.85a6.89,6.89,0,0,1,5.35,2.26,9.36,9.36,0,0,1,0,11.73,7.56,7.56,0,0,1-10.77,0A8.35,8.35,0,0,1,969.4,237a8.47,8.47,0,0,1,2-5.82A6.9,6.9,0,0,1,976.89,228.85Zm0,2.29a4.18,4.18,0,0,0-3.42,1.58,6.43,6.43,0,0,0-1.28,4.21,6.66,6.66,0,0,0,1.27,4.29,4.21,4.21,0,0,0,3.47,1.59,4.11,4.11,0,0,0,3.39-1.6,6.65,6.65,0,0,0,1.27-4.26,6.52,6.52,0,0,0-1.27-4.23A4.16,4.16,0,0,0,976.85,231.14Z"/><path class="cls-2" d="M999.32,229.22v15.51h-2.81l-7.23-11.41v11.41h-2.57V229.22h2.86l7.14,11.44V229.22Z"/><path class="cls-2" d="M1009.56,229.2l6,15.53h-2.92l-1.48-4.12H1005l-1.53,4.12h-2.81l6-15.53Zm.87,9.36-2.31-6.53-2.42,6.53Z"/><path class="cls-2" d="M1027.61,242.38v2.35H1017V229.22h2.74v13.16Z"/><path class="cls-2" d="M868.4,261.37h-2.6q-.24-2.72-3.37-2.72a3.58,3.58,0,0,0-2.18.58,1.85,1.85,0,0,0-.78,1.58,1.38,1.38,0,0,0,.57,1.28,11.49,11.49,0,0,0,2.56.85l.81.22a16.91,16.91,0,0,1,3.53,1.17A3.68,3.68,0,0,1,869,267.8a4.77,4.77,0,0,1-.35,1.85,4.16,4.16,0,0,1-.94,1.38,5.28,5.28,0,0,1-1.39.93,7.63,7.63,0,0,1-1.68.53,9.67,9.67,0,0,1-1.81.16,7.5,7.5,0,0,1-4.72-1.39,4.83,4.83,0,0,1-1.81-4.09H859a2.9,2.9,0,0,0,1.11,2.51,4.73,4.73,0,0,0,2.9.82,4.1,4.1,0,0,0,2.45-.65,2.09,2.09,0,0,0,.88-1.79,1.64,1.64,0,0,0-.47-1.21,2.76,2.76,0,0,0-1-.66c-.37-.14-1-.32-1.9-.55l-.24-.06a21.74,21.74,0,0,1-3.81-1.22,3.48,3.48,0,0,1-2-3V261a4,4,0,0,1,1.55-3.3,6.55,6.55,0,0,1,4.17-1.23,6.65,6.65,0,0,1,4.12,1.2A4.54,4.54,0,0,1,868.4,261.37Z"/><path class="cls-2" d="M882.49,256.8v2.35h-5v13.16h-2.72V259.15h-4.94V256.8Z"/><path class="cls-2" d="M884.25,256.8h7.34a6.39,6.39,0,0,1,3.77,1,3.76,3.76,0,0,1,1.46,3.28,4.15,4.15,0,0,1-.68,2.39,3.73,3.73,0,0,1-1.89,1.42,3.46,3.46,0,0,1,1,.39,2.59,2.59,0,0,1,.64.57,2.7,2.7,0,0,1,.38.78,6.41,6.41,0,0,1,.21.84c0,.24.07.56.09.95a5.75,5.75,0,0,1,.06.59c0,.29,0,.48,0,.58s0,.25.05.49,0,.39,0,.49,0,.23.08.41a2.72,2.72,0,0,0,.1.41,3,3,0,0,0,.1.33,1.91,1.91,0,0,0,.16.32,2,2,0,0,0,.19.24h-2.92a2,2,0,0,1-.12-.21l-.09-.26c0-.1,0-.18-.07-.26s0-.19,0-.33a3.11,3.11,0,0,1,0-.34c0-.09,0-.22,0-.39s0-.31,0-.39,0-.24,0-.46,0-.37,0-.46a4.07,4.07,0,0,0-.79-2.6,3.64,3.64,0,0,0-2.6-.71H887v6.41h-2.7ZM887,259v4.86h3.59a8.24,8.24,0,0,0,1.33-.09,4.57,4.57,0,0,0,1.1-.32,1.64,1.64,0,0,0,.85-.75,2.64,2.64,0,0,0,.3-1.33,2.54,2.54,0,0,0-.27-1.23,1.66,1.66,0,0,0-.75-.73,3.64,3.64,0,0,0-1-.32,7,7,0,0,0-1.21-.09Z"/><path class="cls-2" d="M910.75,256.8v2.29h-8.47v4.11h7.86v2.2h-7.86V270h8.6v2.34h-11.3V256.8Z"/><path class="cls-2" d="M924.47,256.8v2.29H916v4.11h7.86v2.2H916V270h8.6v2.34H913.3V256.8Z"/><path class="cls-2" d="M938.17,256.8v2.35h-4.94v13.16h-2.72V259.15h-5V256.8Z"/><path class="cls-2" d="M953.09,256.78l6,15.53h-2.92l-1.48-4.12h-6.14L947,272.31H944.2l6-15.53Zm.87,9.36-2.31-6.53-2.42,6.53Z"/><path class="cls-2" d="M960.52,256.8h7.33a6.36,6.36,0,0,1,3.77,1,3.73,3.73,0,0,1,1.46,3.28,4.15,4.15,0,0,1-.67,2.39,3.76,3.76,0,0,1-1.9,1.42,3.24,3.24,0,0,1,1,.39,2.42,2.42,0,0,1,.64.57,2.71,2.71,0,0,1,.39.78,5,5,0,0,1,.2.84c0,.24.07.56.1.95l.06.59c0,.29,0,.48,0,.58s0,.25,0,.49,0,.39.06.49,0,.23.07.41.07.32.1.41l.11.33a1.35,1.35,0,0,0,.15.32l.2.24h-2.92a2,2,0,0,1-.12-.21,2,2,0,0,1-.1-.26,1.58,1.58,0,0,1-.06-.26q0-.12-.06-.33c0-.14,0-.25,0-.34s0-.22,0-.39,0-.31,0-.39,0-.24,0-.46,0-.37,0-.46a4.07,4.07,0,0,0-.8-2.6,3.61,3.61,0,0,0-2.6-.71h-3.61v6.41h-2.7Zm2.7,2.22v4.86h3.59a8.42,8.42,0,0,0,1.33-.09,4.71,4.71,0,0,0,1.1-.32,1.68,1.68,0,0,0,.85-.75,2.76,2.76,0,0,0,.29-1.33,2.67,2.67,0,0,0-.26-1.23,1.66,1.66,0,0,0-.75-.73,3.76,3.76,0,0,0-1-.32,7.12,7.12,0,0,0-1.21-.09Z"/><path class="cls-2" d="M987,256.8v2.35h-5v13.16h-2.72V259.15h-4.94V256.8Z"/><path class="cls-2" d="M1005.57,256.8v2.31h-8v4.22h7v2.2h-7v6.78h-2.74V256.8Z"/><path class="cls-2" d="M1018.9,256.8v2.29h-8.47v4.11h7.86v2.2h-7.86V270h8.6v2.34h-11.3V256.8Z"/><path class="cls-2" d="M1032.62,261.37H1030c-.16-1.81-1.28-2.72-3.38-2.72a3.56,3.56,0,0,0-2.17.58,1.84,1.84,0,0,0-.79,1.58,1.38,1.38,0,0,0,.58,1.28,11.3,11.3,0,0,0,2.56.85l.8.22a16.7,16.7,0,0,1,3.53,1.17,3.68,3.68,0,0,1,2.07,3.47,4.59,4.59,0,0,1-.35,1.85A4,4,0,0,1,1032,271a5.18,5.18,0,0,1-1.4.93,7.39,7.39,0,0,1-1.67.53,9.75,9.75,0,0,1-1.81.16,7.53,7.53,0,0,1-4.73-1.39,4.85,4.85,0,0,1-1.8-4.09h2.67a2.9,2.9,0,0,0,1.11,2.51,4.75,4.75,0,0,0,2.9.82,4.08,4.08,0,0,0,2.45-.65,2.07,2.07,0,0,0,.88-1.79,1.6,1.6,0,0,0-.47-1.21,2.68,2.68,0,0,0-1-.66,19.19,19.19,0,0,0-1.89-.55l-.24-.06a21.74,21.74,0,0,1-3.81-1.22,3.49,3.49,0,0,1-2-3V261a4,4,0,0,1,1.56-3.3,6.55,6.55,0,0,1,4.17-1.23,6.67,6.67,0,0,1,4.12,1.2A4.56,4.56,0,0,1,1032.62,261.37Z"/><path class="cls-2" d="M1046.71,256.8v2.35h-4.94v13.16h-2.72V259.15h-5V256.8Z"/><path class="cls-2" d="M1051.26,256.8v15.51h-2.74V256.8Z"/><path class="cls-2" d="M1052.81,256.8h2.85l3.92,12.26,4-12.26h2.77L1061,272.31h-3Z"/><path class="cls-2" d="M1074.94,256.78l6,15.53H1078l-1.48-4.12h-6.15l-1.52,4.12h-2.81l6-15.53Zm.87,9.36-2.31-6.53-2.42,6.53Z"/><path class="cls-2" d="M1093,270v2.36h-10.63V256.8h2.75V270Z"/><rect class="cls-2" x="830.47" y="185.13" width="6.68" height="101.35"/><rect class="cls-2" x="789.39" y="235.65" width="6.68" height="56.78" transform="translate(45.48 637.88) rotate(-45)"/><rect class="cls-2" x="707.91" y="260.79" width="56.52" height="6.68" transform="translate(28.85 597.91) rotate(-45)"/><rect class="cls-2" x="732.83" y="179.22" width="6.68" height="56.52" transform="translate(68.91 581.32) rotate(-45)"/><rect class="cls-2" x="764.34" y="204.23" width="56.78" height="6.68" transform="translate(85.41 621.34) rotate(-45)"/><path class="cls-2" d="M181.51,113.79a20.89,20.89,0,0,0,2,10.19,25.44,25.44,0,0,0,4.34,6.34,22.91,22.91,0,0,0,10.4,6.07,44,44,0,0,0,12.06,1.79,41.11,41.11,0,0,0,11.44-1.59,21,21,0,0,0,8.95-4.89,19,19,0,0,0,3.86-5.65,17.31,17.31,0,0,0,1.52-7.3,17.07,17.07,0,0,0-1.24-6.48,16.45,16.45,0,0,0-3-5,15.09,15.09,0,0,0-4.21-3.1,46,46,0,0,0-10.33-3.79c-1.61-.37-2.92-.64-3.93-.83l-9.65-1.79q-3-.54-6.33-1.31a55,55,0,0,1-6.55-1.93,37.6,37.6,0,0,1-6.2-2.89,21,21,0,0,1-5.17-4.2,27,27,0,0,1-3.86-6,21.14,21.14,0,0,1-1.79-9.3,24.56,24.56,0,0,1,3.31-13,26,26,0,0,1,8.27-8.61,27.93,27.93,0,0,1,6.82-3.24,48.9,48.9,0,0,1,7-1.73,57,57,0,0,1,6.06-.68c1.79-.09,3.19-.14,4.2-.14a49.24,49.24,0,0,1,9.44.82,43.68,43.68,0,0,1,7.37,2.07,28.18,28.18,0,0,1,5.52,2.83,33.89,33.89,0,0,1,4,3.1c.28.27.83.89,1.66,1.86a27.19,27.19,0,0,1,2.61,3.79,32.17,32.17,0,0,1,4.14,13.23H234a21.3,21.3,0,0,0-6.34-13.37,19.09,19.09,0,0,0-8.61-4.41,44.27,44.27,0,0,0-10.4-1.24c-.56,0-1.43,0-2.62.07A29.24,29.24,0,0,0,202,54a48.5,48.5,0,0,0-4.82,1.17,20.14,20.14,0,0,0-4.62,2,16.18,16.18,0,0,0-5.92,6.13,16.84,16.84,0,0,0-2.07,8.2,12.56,12.56,0,0,0,1.24,5.93,18.69,18.69,0,0,0,2.48,3.72,17.84,17.84,0,0,0,7.51,4.54,78.58,78.58,0,0,0,9.58,2.49L214.44,90a110.77,110.77,0,0,1,14.4,3.72,29.47,29.47,0,0,1,11,6.34,23.28,23.28,0,0,1,7,17.77,30.77,30.77,0,0,1-2.21,11.92,25.07,25.07,0,0,1-6.06,8.89,25.84,25.84,0,0,1-6.62,4.41,36.14,36.14,0,0,1-7.3,2.48,51.86,51.86,0,0,1-7.17,1.1q-3.43.28-6.2.28-3.72,0-7.78-.35a52.77,52.77,0,0,1-8.2-1.37,36.21,36.21,0,0,1-8-3,29,29,0,0,1-7.17-5.3,34.44,34.44,0,0,1-6.06-9,31.15,31.15,0,0,1-2.9-14Z"/><path class="cls-2" d="M269.5,91.32h163v6.62h-163Z"/><path class="cls-2" d="M455.65,144.24h-11l36.65-96.46h11.44l36.65,96.46H518.21L508,116.54H466ZM505,107.86l-18.05-50.3-18.05,50.3Z"/></g><g id="стикеры"><circle class="cls-3" cx="1061.13" cy="154.53" r="24.87" transform="translate(-6.06 259.37) rotate(-13.9)"/><circle class="cls-4" cx="804.3" cy="52.7" r="52.7" transform="translate(198.31 584.16) rotate(-45)"/><circle class="cls-5" cx="804.3" cy="52.7" r="41.99" transform="translate(198.31 584.16) rotate(-45)"/><ellipse class="cls-5" cx="804.3" cy="52.7" rx="27.3" ry="41.99" transform="translate(22.13 247.34) rotate(-17.72)"/><ellipse class="cls-5" cx="804.3" cy="52.7" rx="11.02" ry="41.99" transform="translate(22.13 247.34) rotate(-17.72)"/><ellipse class="cls-5" cx="804.3" cy="52.7" rx="41.99" ry="18.79" transform="translate(22.13 247.34) rotate(-17.72)"/><line class="cls-5" x1="764.87" y1="67.25" x2="844.75" y2="41.71"/></g></g></svg>