<svg xmlns="http://www.w3.org/2000/svg" viewBox="0 0 1112 282.39"><defs><style>.cls-1{fill:none;stroke:#fff;stroke-miterlimit:10;stroke-width:2px;}.cls-2{fill:#fff;}</style></defs><title>Ресурс 1</title><g id="Слой_2" data-name="Слой 2"><g id="Слой_1-2" data-name="Слой 1"><g id="содержание"><line class="cls-1" x1="134.63" y1="1" x2="6.11" y2="1"/><line class="cls-1" x1="273.38" y1="1" x2="144.85" y2="1"/><line class="cls-1" x1="412.12" y1="1" x2="283.6" y2="1"/><line class="cls-1" x1="550.87" y1="1" x2="422.34" y2="1"/><line class="cls-1" x1="1" y1="13.02" x2="1" y2="127.29"/><line class="cls-1" x1="36.38" y1="47.87" x2="104.36" y2="47.87"/><line class="cls-1" x1="30.56" y1="43.72" x2="10.37" y2="12.61"/><line class="cls-1" x1="30.56" y1="54.14" x2="5.79" y2="127.29"/><line class="cls-1" x1="139.74" y1="13.02" x2="139.74" y2="127.29"/><line class="cls-1" x1="110.19" y1="43.72" x2="130.37" y2="12.61"/><line class="cls-1" x1="110.19" y1="54.14" x2="134.96" y2="127.29"/><line class="cls-1" x1="134.63" y1="141.19" x2="6.11" y2="141.19"/><line class="cls-1" x1="273.38" y1="141.19" x2="144.85" y2="141.19"/><line class="cls-1" x1="412.12" y1="141.19" x2="283.6" y2="141.19"/><line class="cls-1" x1="550.87" y1="141.19" x2="422.34" y2="141.19"/><line class="cls-1" x1="555.98" y1="13.02" x2="555.98" y2="127.29"/><line class="cls-1" x1="1" y1="153.22" x2="1" y2="267.49"/><line class="cls-1" x1="36.38" y1="188.07" x2="104.36" y2="188.07"/><line class="cls-1" x1="30.56" y1="183.92" x2="10.37" y2="152.8"/><line class="cls-1" x1="30.56" y1="194.33" x2="5.79" y2="267.49"/><line class="cls-1" x1="139.74" y1="153.22" x2="139.74" y2="267.49"/><line class="cls-1" x1="110.19" y1="183.92" x2="130.37" y2="152.8"/><line class="cls-1" x1="110.19" y1="194.33" x2="134.96" y2="267.49"/><line class="cls-1" x1="175.13" y1="188.07" x2="243.1" y2="188.07"/><line class="cls-1" x1="169.3" y1="183.92" x2="149.12" y2="152.8"/><line class="cls-1" x1="169.3" y1="194.33" x2="144.53" y2="267.49"/><line class="cls-1" x1="278.49" y1="153.22" x2="278.49" y2="267.49"/><line class="cls-1" x1="248.93" y1="183.92" x2="269.12" y2="152.8"/><line class="cls-1" x1="248.93" y1="194.33" x2="273.7" y2="267.49"/><line class="cls-1" x1="313.87" y1="188.07" x2="381.85" y2="188.07"/><line class="cls-1" x1="308.04" y1="183.92" x2="287.86" y2="152.8"/><line class="cls-1" x1="308.04" y1="194.33" x2="283.27" y2="267.49"/><line class="cls-1" x1="417.23" y1="153.22" x2="417.23" y2="267.49"/><line class="cls-1" x1="387.68" y1="183.92" x2="407.86" y2="152.8"/><line class="cls-1" x1="387.68" y1="194.33" x2="412.45" y2="267.49"/><line class="cls-1" x1="134.63" y1="281.39" x2="6.11" y2="281.39"/><line class="cls-1" x1="273.38" y1="281.39" x2="144.85" y2="281.39"/><line class="cls-1" x1="412.12" y1="281.39" x2="283.6" y2="281.39"/><line class="cls-1" x1="550.87" y1="281.39" x2="422.34" y2="281.39"/><line class="cls-1" x1="452.62" y1="188.07" x2="520.59" y2="188.07"/><line class="cls-1" x1="446.79" y1="183.92" x2="426.6" y2="152.8"/><line class="cls-1" x1="446.79" y1="194.33" x2="422.02" y2="267.49"/><line class="cls-1" x1="555.98" y1="153.22" x2="555.98" y2="267.49"/><line class="cls-1" x1="526.42" y1="183.92" x2="546.61" y2="152.8"/><line class="cls-1" x1="526.42" y1="194.33" x2="551.19" y2="267.49"/><line class="cls-1" x1="689.66" y1="1" x2="561.13" y2="1"/><line class="cls-1" x1="828.4" y1="1" x2="699.88" y2="1"/><line class="cls-1" x1="967.15" y1="1" x2="838.62" y2="1"/><line class="cls-1" x1="1105.89" y1="1" x2="977.37" y2="1"/><line class="cls-1" x1="591.41" y1="47.87" x2="659.38" y2="47.87"/><line class="cls-1" x1="585.58" y1="43.72" x2="565.39" y2="12.61"/><line class="cls-1" x1="585.58" y1="54.14" x2="560.81" y2="127.29"/><line class="cls-1" x1="694.77" y1="13.02" x2="694.77" y2="127.29"/><line class="cls-1" x1="665.21" y1="43.72" x2="685.4" y2="12.61"/><line class="cls-1" x1="665.21" y1="54.14" x2="689.98" y2="127.29"/><line class="cls-1" x1="730.15" y1="47.87" x2="798.13" y2="47.87"/><line class="cls-1" x1="724.32" y1="43.72" x2="704.14" y2="12.61"/><line class="cls-1" x1="724.32" y1="54.14" x2="699.55" y2="127.29"/><line class="cls-1" x1="833.51" y1="13.02" x2="833.51" y2="127.29"/><line class="cls-1" x1="803.96" y1="43.72" x2="824.14" y2="12.61"/><line class="cls-1" x1="803.96" y1="54.14" x2="828.73" y2="127.29"/><line class="cls-1" x1="868.9" y1="47.87" x2="936.87" y2="47.87"/><line class="cls-1" x1="863.07" y1="43.72" x2="842.88" y2="12.61"/><line class="cls-1" x1="863.07" y1="54.14" x2="838.3" y2="127.29"/><line class="cls-1" x1="972.26" y1="13.02" x2="972.26" y2="127.29"/><line class="cls-1" x1="942.7" y1="43.72" x2="962.88" y2="12.61"/><line class="cls-1" x1="942.7" y1="54.14" x2="967.47" y2="127.29"/><line class="cls-1" x1="1007.64" y1="47.87" x2="1075.62" y2="47.87"/><line class="cls-1" x1="1001.81" y1="43.72" x2="981.63" y2="12.61"/><line class="cls-1" x1="1001.81" y1="54.14" x2="977.04" y2="127.29"/><line class="cls-1" x1="1111" y1="13.02" x2="1111" y2="127.29"/><line class="cls-1" x1="1081.44" y1="43.72" x2="1101.63" y2="12.61"/><line class="cls-1" x1="1081.44" y1="54.14" x2="1106.21" y2="127.29"/><line class="cls-1" x1="689.66" y1="141.19" x2="561.13" y2="141.19"/><line class="cls-1" x1="828.4" y1="141.19" x2="699.88" y2="141.19"/><line class="cls-1" x1="967.15" y1="141.19" x2="838.62" y2="141.19"/><line class="cls-1" x1="1105.89" y1="141.19" x2="977.37" y2="141.19"/><line class="cls-1" x1="591.41" y1="188.07" x2="659.38" y2="188.07"/><line class="cls-1" x1="585.58" y1="183.92" x2="565.39" y2="152.8"/><line class="cls-1" x1="585.58" y1="194.33" x2="560.81" y2="267.49"/><line class="cls-1" x1="694.77" y1="153.22" x2="694.77" y2="267.49"/><line class="cls-1" x1="665.21" y1="183.92" x2="685.4" y2="152.8"/><line class="cls-1" x1="665.21" y1="194.33" x2="689.98" y2="267.49"/><line class="cls-1" x1="1111" y1="153.22" x2="1111" y2="267.49"/><line class="cls-1" x1="689.66" y1="281.39" x2="561.13" y2="281.39"/><line class="cls-1" x1="828.4" y1="281.39" x2="699.88" y2="281.39"/><line class="cls-1" x1="967.15" y1="281.39" x2="838.62" y2="281.39"/><line class="cls-1" x1="1105.89" y1="281.39" x2="977.37" y2="281.39"/><path class="cls-2" d="M868.4,181.4h-2.6c-.16-1.82-1.28-2.72-3.37-2.72a3.58,3.58,0,0,0-2.18.57,1.86,1.86,0,0,0-.78,1.58,1.38,1.38,0,0,0,.57,1.29,12.21,12.21,0,0,0,2.56.85l.81.21a16.84,16.84,0,0,1,3.53,1.18,3.68,3.68,0,0,1,2.07,3.46,4.72,4.72,0,0,1-.35,1.85,4,4,0,0,1-.94,1.39,5.17,5.17,0,0,1-1.39.92,7.16,7.16,0,0,1-1.68.54,10,10,0,0,1-1.81.16,7.51,7.51,0,0,1-4.72-1.39,4.85,4.85,0,0,1-1.81-4.1H859a3,3,0,0,0,1.11,2.52,4.8,4.8,0,0,0,2.9.81,4.09,4.09,0,0,0,2.45-.64,2.1,2.1,0,0,0,.88-1.8,1.67,1.67,0,0,0-.47-1.2,2.6,2.6,0,0,0-1-.67c-.37-.13-1-.31-1.9-.54l-.24-.07a20.37,20.37,0,0,1-3.81-1.22,3.45,3.45,0,0,1-2-3v-.3a4,4,0,0,1,1.55-3.3,6.55,6.55,0,0,1,4.17-1.23,6.64,6.64,0,0,1,4.12,1.2A4.54,4.54,0,0,1,868.4,181.4Z"/><path class="cls-2" d="M882.49,176.82v2.36h-5v13.15h-2.72V179.18h-4.94v-2.36Z"/><path class="cls-2" d="M895.42,176.82v2.29H887v4.12h7.86v2.2H887V190h8.6v2.33H884.3V176.82Z"/><path class="cls-2" d="M910.56,176.82v15.51h-2.81l-7.23-11.41v11.41H898V176.82h2.85L908,188.26V176.82Z"/><path class="cls-2" d="M920.4,176.45a6.92,6.92,0,0,1,5.35,2.26,9.38,9.38,0,0,1,0,11.74,7.58,7.58,0,0,1-10.72.05l0-.05a8.39,8.39,0,0,1-2.06-5.88,8.56,8.56,0,0,1,2-5.83A6.91,6.91,0,0,1,920.4,176.45Zm0,2.29a4.16,4.16,0,0,0-3.42,1.58,6.44,6.44,0,0,0-1.29,4.21,6.67,6.67,0,0,0,1.28,4.29,4.19,4.19,0,0,0,3.47,1.59,4.12,4.12,0,0,0,3.39-1.6,7.73,7.73,0,0,0,0-8.49,4.21,4.21,0,0,0-3.47-1.58Z"/><path class="cls-2" d="M943.88,184v8.3h-1.74l-.42-1.85a6,6,0,0,1-4.83,2.22,6.88,6.88,0,0,1-5.31-2.22,8.27,8.27,0,0,1-2-5.79,8.55,8.55,0,0,1,2-5.85,7,7,0,0,1,5.53-2.34,7.19,7.19,0,0,1,4.41,1.41,5.31,5.31,0,0,1,2.14,3.86h-2.63a3.3,3.3,0,0,0-1.3-2.19,4.76,4.76,0,0,0-6.17.77,7.77,7.77,0,0,0,0,8.59,4.43,4.43,0,0,0,3.6,1.56,4,4,0,0,0,3.13-1.26,4.62,4.62,0,0,0,1.1-3.12h-4.18V184Z"/><path class="cls-2" d="M946.77,176.82h7.34a6.36,6.36,0,0,1,3.77,1,3.76,3.76,0,0,1,1.46,3.28,4.19,4.19,0,0,1-.67,2.38,3.76,3.76,0,0,1-1.9,1.43,3.06,3.06,0,0,1,1,.39,2.06,2.06,0,0,1,.64.57,2.46,2.46,0,0,1,.38.78,5.73,5.73,0,0,1,.21.84c0,.24.07.55.1,1v2.14a.93.93,0,0,0,.08.41,2,2,0,0,1,.1.42c0,.1.06.2.11.33a1.77,1.77,0,0,0,.15.31,1.16,1.16,0,0,0,.2.24H957a.72.72,0,0,1-.12-.21,2,2,0,0,1-.1-.26,1.1,1.1,0,0,1-.06-.26,1.29,1.29,0,0,0-.06-.33,1.82,1.82,0,0,1,0-.33v-1.7a4.11,4.11,0,0,0-.8-2.6,3.56,3.56,0,0,0-2.6-.71h-3.62v6.4h-2.7Zm2.7,2.23v4.85h3.6a9.89,9.89,0,0,0,1.33-.08,5.15,5.15,0,0,0,1.1-.32,1.68,1.68,0,0,0,.85-.75,2.67,2.67,0,0,0,.29-1.33,2.75,2.75,0,0,0-.26-1.23,1.71,1.71,0,0,0-.75-.73,3.56,3.56,0,0,0-1-.33,8.06,8.06,0,0,0-1.2-.08Z"/><path class="cls-2" d="M969.21,176.8l6,15.53H972.3l-1.5-4.15h-6.15l-1.52,4.12h-2.81l6-15.53Zm.87,9.37-2.31-6.54-2.42,6.55Z"/><path class="cls-2" d="M987.39,176.82v2.36h-8v4.23h7v2.2h-7v6.77h-2.75V176.82Z"/><path class="cls-2" d="M1000.3,176.82v2.36h-8v4.23h7v2.2h-7v6.77h-2.74V176.82Z"/><path class="cls-2" d="M1005.25,176.82v15.51h-2.75V176.82Z"/><path class="cls-2" d="M1015.61,176.8l6,15.53h-2.92l-1.49-4.15h-6.14l-1.52,4.12h-2.81l6-15.53Zm.87,9.37-2.3-6.54-2.42,6.54Z"/><path class="cls-2" d="M1038.39,190.18v2.2H1028a7.29,7.29,0,0,1,.89-3.32,4.69,4.69,0,0,1,1-1.22c.38-.35.78-.69,1.19-1a17.48,17.48,0,0,1,1.48-1l.64-.42.71-.48.58-.46a2.75,2.75,0,0,0,.6-.58l.39-.58a2.17,2.17,0,0,0,.34-.76,3.72,3.72,0,0,0,.09-.81,2.58,2.58,0,0,0-.67-1.89,2.4,2.4,0,0,0-1.79-.68,2.9,2.9,0,0,0-1.13.2,2,2,0,0,0-.76.54,2.51,2.51,0,0,0-.44.84,3.82,3.82,0,0,0-.23,1c0,.3-.06.66-.08,1.06h-2.41v-.39a5.46,5.46,0,0,1,1.38-3.91,5,5,0,0,1,3.73-1.45,5,5,0,0,1,3.57,1.26,4.34,4.34,0,0,1,1.36,3.32,4.61,4.61,0,0,1-.27,1.56,5.92,5.92,0,0,1-.55,1.2,5.64,5.64,0,0,1-1,1.07c-.48.41-.84.69-1.07.85l-1.29.87c-1.81,1.18-2.89,2.2-3.26,3.07Z"/><path class="cls-2" d="M1045.6,177q5.31,0,5.32,7.9a10.45,10.45,0,0,1-1.33,5.79,4.42,4.42,0,0,1-3.9,2q-5.31,0-5.31-7.82a10.7,10.7,0,0,1,1.32-5.86A4.37,4.37,0,0,1,1045.6,177Zm0,2.09a2.34,2.34,0,0,0-1.13.25,1.77,1.77,0,0,0-.77.76,5.36,5.36,0,0,0-.47,1,5.75,5.75,0,0,0-.25,1.3c0,.52-.08,1-.1,1.29s0,.78,0,1.3a10.21,10.21,0,0,0,.66,4.27,2.33,2.33,0,0,0,3.87.54,2.85,2.85,0,0,0,.48-.87,7.12,7.12,0,0,0,.29-1,7,7,0,0,0,.15-1.11c0-.44.06-.78.07-1s0-.55,0-.93v-1.14a7.8,7.8,0,0,0-.08-1.22,4.6,4.6,0,0,0-.25-1.32,7.08,7.08,0,0,0-.48-1,2,2,0,0,0-.79-.81,2.54,2.54,0,0,0-1.18-.26Z"/><path class="cls-2" d="M1062.61,190.18v2.2H1052.2a7,7,0,0,1,.28-1.87,7.64,7.64,0,0,1,.6-1.45,5.34,5.34,0,0,1,1-1.22,12.13,12.13,0,0,1,1.2-1c.35-.24.85-.62,1.47-1l.64-.42.71-.48.59-.46a2.75,2.75,0,0,0,.6-.58c.09-.14.22-.34.39-.58a2.17,2.17,0,0,0,.34-.76,3.72,3.72,0,0,0,.09-.81,2.68,2.68,0,0,0-.67-1.89,2.4,2.4,0,0,0-1.79-.68,3,3,0,0,0-1.14.2,1.93,1.93,0,0,0-.75.54,2.73,2.73,0,0,0-.45.84,4.82,4.82,0,0,0-.22,1,9.45,9.45,0,0,0-.08,1.06h-2.42v-.39a5.41,5.41,0,0,1,1.39-3.91,4.91,4.91,0,0,1,3.73-1.45,5,5,0,0,1,3.57,1.26,4.33,4.33,0,0,1,1.35,3.32,4.37,4.37,0,0,1-.26,1.56,5.92,5.92,0,0,1-.55,1.2,5.34,5.34,0,0,1-1,1.07c-.48.41-.83.69-1.06.85l-1.29.87q-2.71,1.77-3.27,3.07Z"/><path class="cls-2" d="M1069.82,177q5.31,0,5.31,7.9a10.36,10.36,0,0,1-1.33,5.79,4.4,4.4,0,0,1-3.89,2q-5.33,0-5.32-7.82a10.6,10.6,0,0,1,1.33-5.86A4.37,4.37,0,0,1,1069.82,177Zm0,2.09a2.34,2.34,0,0,0-1.13.25,1.77,1.77,0,0,0-.77.76,5.36,5.36,0,0,0-.47,1,5.75,5.75,0,0,0-.25,1.3c0,.52-.09,1-.1,1.29s0,.78,0,1.3a10.21,10.21,0,0,0,.66,4.27,2.23,2.23,0,0,0,2.12,1.33,2.29,2.29,0,0,0,1-.23,2.5,2.5,0,0,0,.73-.56,3,3,0,0,0,.48-.87,8.78,8.78,0,0,0,.29-1,10.56,10.56,0,0,0,.15-1.11c0-.44.06-.78.07-1s0-.55,0-.93v-1.14a7.8,7.8,0,0,0-.08-1.22,5,5,0,0,0-.25-1.32,7.08,7.08,0,0,0-.48-1,2,2,0,0,0-.79-.81,2.46,2.46,0,0,0-1.16-.26Z"/><path class="cls-2" d="M860,204.4v15.51h-2.74V204.4Z"/><path class="cls-2" d="M875.87,204.4v15.51h-2.81l-7.23-11.41v11.41h-2.57V204.4h2.85l7.14,11.44V204.4Z"/><path class="cls-2" d="M890.15,204.4v2.35h-4.94v13.16h-2.72V206.75h-5V204.4Z"/><path class="cls-2" d="M903.09,204.4v2.29h-8.47v4.11h7.86V213h-7.86v4.58h8.6v2.33h-11.3V204.4Z"/><path class="cls-2" d="M905.64,204.4H913a6.36,6.36,0,0,1,3.77,1,3.74,3.74,0,0,1,1.46,3.27,4.13,4.13,0,0,1-.67,2.39,3.75,3.75,0,0,1-1.9,1.42,3.09,3.09,0,0,1,1,.4,2.14,2.14,0,0,1,.64.56,2.91,2.91,0,0,1,.39.79,4.68,4.68,0,0,1,.2.84c0,.24.07.55.1.94v1.66a1.06,1.06,0,0,0,.06.49c.06.1,0,.23.07.41a3,3,0,0,1,.1.42l.11.32a1,1,0,0,0,.15.32,1.16,1.16,0,0,0,.2.24h-2.92l-.12-.21a2,2,0,0,1-.1-.26,1.1,1.1,0,0,1-.06-.26,1.29,1.29,0,0,0-.06-.33v-2a4.07,4.07,0,0,0-.8-2.61,3.61,3.61,0,0,0-2.6-.7h-3.61v6.4h-2.7Zm2.7,2.22v4.86h3.59a7.37,7.37,0,0,0,1.33-.09,5.13,5.13,0,0,0,1.1-.31,1.73,1.73,0,0,0,.85-.75,2.67,2.67,0,0,0,.29-1.33,2.6,2.6,0,0,0-.26-1.23,1.66,1.66,0,0,0-.75-.73,3.56,3.56,0,0,0-1-.33,8.11,8.11,0,0,0-1.21-.09Z"/><path class="cls-2" d="M933.56,204.4v15.51h-2.81l-7.23-11.41v11.41H921V204.4h2.85L931,215.84V204.4Z"/><path class="cls-2" d="M943.79,204.38l6,15.53h-2.92l-1.48-4.12h-6.14l-1.53,4.12H934.9l6-15.53Zm.87,9.36-2.31-6.56-2.41,6.53Z"/><path class="cls-2" d="M962.37,204.4v2.35h-5v13.16H954.7V206.75h-4.94V204.4Z"/><path class="cls-2" d="M966.92,204.4v15.51h-2.75V204.4Z"/><path class="cls-2" d="M976.89,204a6.91,6.91,0,0,1,5.35,2.26,9.37,9.37,0,0,1,0,11.73,7.56,7.56,0,0,1-10.69.08l-.08-.08a9.37,9.37,0,0,1-.07-11.66A6.87,6.87,0,0,1,976.89,204Zm0,2.29a4.16,4.16,0,0,0-3.42,1.58,6.43,6.43,0,0,0-1.28,4.21,6.66,6.66,0,0,0,1.27,4.29,4.25,4.25,0,0,0,3.47,1.59,4.12,4.12,0,0,0,3.39-1.6,6.64,6.64,0,0,0,1.27-4.26,6.55,6.55,0,0,0-1.27-4.23,4.14,4.14,0,0,0-3.47-1.58Z"/><path class="cls-2" d="M999.32,204.4v15.51h-2.81l-7.23-11.41v11.41h-2.57V204.4h2.86l7.14,11.44V204.4Z"/><path class="cls-2" d="M1009.56,204.38l6,15.53h-2.92l-1.48-4.12H1005l-1.53,4.12h-2.81l6-15.53Zm.87,9.36-2.31-6.53-2.42,6.53Z"/><path class="cls-2" d="M1027.61,217.56v2.35H1017V204.4h2.74v13.16Z"/><path class="cls-2" d="M868.4,236.55h-2.6q-.24-2.72-3.37-2.72a3.59,3.59,0,0,0-2.18.58,1.86,1.86,0,0,0-.78,1.58,1.37,1.37,0,0,0,.57,1.28,11.66,11.66,0,0,0,2.56.85l.81.22a16.81,16.81,0,0,1,3.53,1.17A3.67,3.67,0,0,1,869,243a4.72,4.72,0,0,1-.35,1.85,4.23,4.23,0,0,1-.94,1.38,5.21,5.21,0,0,1-1.39.93,7.63,7.63,0,0,1-1.68.53,10,10,0,0,1-1.81.16,7.51,7.51,0,0,1-4.72-1.39,4.83,4.83,0,0,1-1.81-4.09H859a2.91,2.91,0,0,0,1.11,2.51,4.74,4.74,0,0,0,2.9.82,4.1,4.1,0,0,0,2.45-.65,2.08,2.08,0,0,0,.88-1.79,1.61,1.61,0,0,0-.47-1.21,2.69,2.69,0,0,0-1-.66c-.37-.14-1-.32-1.9-.55l-.24-.06a22.24,22.24,0,0,1-3.81-1.22,3.5,3.5,0,0,1-2-3v-.36a4,4,0,0,1,1.55-3.3,6.55,6.55,0,0,1,4.17-1.23,6.64,6.64,0,0,1,4.12,1.2A4.55,4.55,0,0,1,868.4,236.55Z"/><path class="cls-2" d="M882.49,232v2.35h-5v13.16h-2.72V234.33h-4.94V232Z"/><path class="cls-2" d="M884.25,232h7.34a6.36,6.36,0,0,1,3.77,1,3.77,3.77,0,0,1,1.46,3.28,4.13,4.13,0,0,1-.68,2.39,3.72,3.72,0,0,1-1.89,1.42,3.59,3.59,0,0,1,1,.39,2.67,2.67,0,0,1,.64.57,2.57,2.57,0,0,1,.38.78,6.07,6.07,0,0,1,.21.84c0,.24.07.56.09.95a5.9,5.9,0,0,1,.06.59v.58a2.17,2.17,0,0,0,0,.49,1.54,1.54,0,0,1,0,.49.91.91,0,0,0,.08.41,2.73,2.73,0,0,0,.1.41c0,.11.06.22.1.33a1.91,1.91,0,0,0,.16.32l.19.24h-2.92l-.12-.21-.09-.26a.35.35,0,0,0-.07-.26c-.07-.08,0-.19,0-.33a1.93,1.93,0,0,1,0-.34v-1.7a4.11,4.11,0,0,0-.79-2.6,3.65,3.65,0,0,0-2.6-.71H887v6.41h-2.7Zm2.75,2.2V239h3.59a7.37,7.37,0,0,0,1.33-.09,4.63,4.63,0,0,0,1.1-.32,1.68,1.68,0,0,0,.85-.75,2.68,2.68,0,0,0,.3-1.33,2.6,2.6,0,0,0-.27-1.23,1.66,1.66,0,0,0-.75-.73,3.89,3.89,0,0,0-1-.32,6.11,6.11,0,0,0-1.21-.09Z"/><path class="cls-2" d="M910.75,232v2.29h-8.47v4.11h7.86v2.2h-7.86v4.6h8.6v2.34h-11.3V232Z"/><path class="cls-2" d="M924.47,232v2.29H916v4.11h7.86v2.2H916v4.6h8.6v2.34H913.3V232Z"/><path class="cls-2" d="M938.17,232v2.35h-4.94v13.16h-2.72V234.33h-5V232Z"/><path class="cls-2" d="M953.09,232l6,15.53h-2.92l-1.48-4.12h-6.14L947,247.49h-2.8l6-15.53Zm.87,9.36-2.31-6.53-2.42,6.53Z"/><path class="cls-2" d="M960.52,232h7.33a6.36,6.36,0,0,1,3.77,1,3.71,3.71,0,0,1,1.46,3.28,4.13,4.13,0,0,1-.67,2.39,3.75,3.75,0,0,1-1.9,1.42,3.3,3.3,0,0,1,1,.39,2.32,2.32,0,0,1,.64.57,2.85,2.85,0,0,1,.39.78,4.68,4.68,0,0,1,.2.84c0,.24.07.56.1.95l.06.59v1.07a1,1,0,0,0,.06.49c.06.1,0,.23.07.41a3.29,3.29,0,0,1,.1.41l.11.33a1.87,1.87,0,0,0,.15.32l.2.24h-2.92l-.12-.21a2,2,0,0,1-.1-.26,1.1,1.1,0,0,1-.06-.26,1.29,1.29,0,0,0-.06-.33v-2a4.06,4.06,0,0,0-.8-2.6,3.61,3.61,0,0,0-2.6-.71h-3.61v6.41h-2.7Zm2.7,2.22v4.86h3.59a7.37,7.37,0,0,0,1.33-.09,4.63,4.63,0,0,0,1.1-.32,1.68,1.68,0,0,0,.85-.75,2.67,2.67,0,0,0,.29-1.33,2.75,2.75,0,0,0-.26-1.23,1.66,1.66,0,0,0-.75-.73,3.89,3.89,0,0,0-1-.32,8.11,8.11,0,0,0-1.21-.09Z"/><path class="cls-2" d="M987,232v2.35h-5v13.16h-2.72V234.33h-4.94V232Z"/><path class="cls-2" d="M1005.57,232v2.31h-8v4.22h7v2.2h-7v6.78h-2.74V232Z"/><path class="cls-2" d="M1018.9,232v2.29h-8.47v4.11h7.86v2.2h-7.86v4.6h8.6v2.34h-11.3V232Z"/><path class="cls-2" d="M1032.62,236.55H1030c-.16-1.81-1.28-2.72-3.38-2.72a3.54,3.54,0,0,0-2.17.58,1.84,1.84,0,0,0-.79,1.58,1.4,1.4,0,0,0,.58,1.28,11.66,11.66,0,0,0,2.56.85l.8.22a16.81,16.81,0,0,1,3.53,1.17,3.68,3.68,0,0,1,2.07,3.47,4.72,4.72,0,0,1-.35,1.85,4.06,4.06,0,0,1-.85,1.35,5.26,5.26,0,0,1-1.4.93,7.39,7.39,0,0,1-1.67.53,10,10,0,0,1-1.81.16,7.54,7.54,0,0,1-4.73-1.39,4.86,4.86,0,0,1-1.8-4.09h2.67a2.91,2.91,0,0,0,1.11,2.51,4.74,4.74,0,0,0,2.9.82,4.1,4.1,0,0,0,2.45-.65,2.08,2.08,0,0,0,.88-1.79,1.61,1.61,0,0,0-.47-1.21,2.69,2.69,0,0,0-1-.66,17.75,17.75,0,0,0-1.89-.55l-.24-.06a22.24,22.24,0,0,1-3.81-1.22,3.5,3.5,0,0,1-2-3v-.33a4,4,0,0,1,1.56-3.3,6.55,6.55,0,0,1,4.17-1.23,6.71,6.71,0,0,1,4.12,1.2A4.55,4.55,0,0,1,1032.62,236.55Z"/><path class="cls-2" d="M1046.71,232v2.35h-4.94v13.16h-2.72V234.33h-5V232Z"/><path class="cls-2" d="M1051.26,232v15.51h-2.74V232Z"/><path class="cls-2" d="M1052.81,232h2.85l3.92,12.26,4-12.26h2.77L1061,247.49h-3Z"/><path class="cls-2" d="M1074.94,232l6,15.53H1078l-1.48-4.12h-6.15l-1.52,4.12H1066l6-15.53Zm.87,9.36-2.31-6.53-2.42,6.53Z"/><path class="cls-2" d="M1093,245.18v2.36h-10.63V232h2.75v13.2Z"/><rect class="cls-2" x="830.47" y="160.31" width="6.68" height="101.35"/><rect class="cls-2" x="789.39" y="210.83" width="6.68" height="56.78" transform="translate(63.03 630.61) rotate(-45)"/><rect class="cls-2" x="707.91" y="235.97" width="56.52" height="6.68" transform="translate(46.4 590.64) rotate(-45)"/><rect class="cls-2" x="732.83" y="154.4" width="6.68" height="56.52" transform="translate(86.46 574.05) rotate(-45)"/><rect class="cls-2" x="764.34" y="179.41" width="56.78" height="6.68" transform="translate(102.96 614.07) rotate(-45)"/><path class="cls-2" d="M181.51,89a20.94,20.94,0,0,0,2,10.19,25.48,25.48,0,0,0,4.34,6.34,22.91,22.91,0,0,0,10.4,6.07,44,44,0,0,0,12.06,1.79,41,41,0,0,0,11.44-1.59,21,21,0,0,0,8.95-4.89,18.85,18.85,0,0,0,3.86-5.65,17.32,17.32,0,0,0,1.52-7.3,17.13,17.13,0,0,0-1.24-6.48,16.33,16.33,0,0,0-3-5,15.1,15.1,0,0,0-4.21-3.1,46.38,46.38,0,0,0-10.33-3.79c-1.61-.37-2.92-.64-3.93-.83l-9.65-1.79q-3-.54-6.33-1.31a55.25,55.25,0,0,1-6.55-1.93,37.17,37.17,0,0,1-6.2-2.89,21,21,0,0,1-5.17-4.2,27.06,27.06,0,0,1-3.86-6,21.21,21.21,0,0,1-1.79-9.3,24.57,24.57,0,0,1,3.31-13,26,26,0,0,1,8.27-8.61,28.26,28.26,0,0,1,6.82-3.24,48.35,48.35,0,0,1,7-1.73,58.81,58.81,0,0,1,6.06-.68c1.79-.09,3.19-.14,4.2-.14a49,49,0,0,1,9.44.82,43.84,43.84,0,0,1,7.37,2.07,28.48,28.48,0,0,1,5.52,2.83,33.38,33.38,0,0,1,4,3.1c.28.27.83.89,1.66,1.86a27.14,27.14,0,0,1,2.61,3.79,32.07,32.07,0,0,1,4.14,13.23H234a21.34,21.34,0,0,0-6.34-13.37,19.16,19.16,0,0,0-8.61-4.41,44.48,44.48,0,0,0-10.4-1.24c-.56,0-1.43,0-2.62.07a28.85,28.85,0,0,0-4,.52c-1.63.31-3.23.7-4.82,1.17a19.94,19.94,0,0,0-4.62,2,16.13,16.13,0,0,0-5.92,6.13,16.79,16.79,0,0,0-2.07,8.2,12.54,12.54,0,0,0,1.24,5.93,18.83,18.83,0,0,0,2.48,3.72,17.78,17.78,0,0,0,7.51,4.54,79.29,79.29,0,0,0,9.58,2.49l9.06,1.82a111.47,111.47,0,0,1,14.4,3.72,29.46,29.46,0,0,1,11,6.34,23.26,23.26,0,0,1,7,17.77,30.8,30.8,0,0,1-2.21,11.92,25,25,0,0,1-6.06,8.89,26,26,0,0,1-6.62,4.41,36.32,36.32,0,0,1-7.3,2.48,52.61,52.61,0,0,1-7.17,1.1c-2.29.19-4.35.28-6.2.28q-3.72,0-7.78-.35a52.77,52.77,0,0,1-8.2-1.37,36.22,36.22,0,0,1-8-3,28.91,28.91,0,0,1-7.17-5.3,34.47,34.47,0,0,1-6.06-9,31.16,31.16,0,0,1-2.9-14Z"/><path class="cls-2" d="M269.5,66.5h163v6.62h-163Z"/><path class="cls-2" d="M455.65,119.42h-11L481.3,23h11.44l36.65,96.46H518.21L508,91.72H466ZM505,83,487,32.74,468.9,83Z"/></g></g></g></svg>