<svg xmlns="http://www.w3.org/2000/svg" viewBox="0 0 1112 307.21"><defs><style>.cls-1,.cls-5{fill:none;stroke:#fff;stroke-miterlimit:10;}.cls-1{stroke-width:2px;}.cls-2{fill:#fff;}.cls-3{fill:#fb3439;}.cls-4{fill:#fcd600;}.cls-5{stroke-width:2.5px;}</style></defs><title>Ресурс 1</title><g id="Слой_2" data-name="Слой 2"><g id="содержание"><line class="cls-1" x1="134.63" y1="25.82" x2="6.11" y2="25.82"/><line class="cls-1" x1="273.38" y1="25.82" x2="144.85" y2="25.82"/><line class="cls-1" x1="412.12" y1="25.82" x2="283.6" y2="25.82"/><line class="cls-1" x1="550.87" y1="25.82" x2="422.34" y2="25.82"/><line class="cls-1" x1="1" y1="37.84" x2="1" y2="152.11"/><line class="cls-1" x1="36.38" y1="72.69" x2="104.36" y2="72.69"/><line class="cls-1" x1="30.56" y1="68.54" x2="10.37" y2="37.43"/><line class="cls-1" x1="30.56" y1="78.96" x2="5.79" y2="152.11"/><line class="cls-1" x1="139.74" y1="37.84" x2="139.74" y2="152.11"/><line class="cls-1" x1="110.19" y1="68.54" x2="130.37" y2="37.43"/><line class="cls-1" x1="110.19" y1="78.96" x2="134.96" y2="152.11"/><line class="cls-1" x1="134.63" y1="166.01" x2="6.11" y2="166.01"/><line class="cls-1" x1="273.38" y1="166.01" x2="144.85" y2="166.01"/><line class="cls-1" x1="412.12" y1="166.01" x2="283.6" y2="166.01"/><line class="cls-1" x1="550.87" y1="166.01" x2="422.34" y2="166.01"/><line class="cls-1" x1="555.98" y1="37.84" x2="555.98" y2="152.11"/><line class="cls-1" x1="1" y1="178.04" x2="1" y2="292.31"/><line class="cls-1" x1="36.38" y1="212.89" x2="104.36" y2="212.89"/><line class="cls-1" x1="30.56" y1="208.74" x2="10.37" y2="177.62"/><line class="cls-1" x1="30.56" y1="219.15" x2="5.79" y2="292.31"/><line class="cls-1" x1="139.74" y1="178.04" x2="139.74" y2="292.31"/><line class="cls-1" x1="110.19" y1="208.74" x2="130.37" y2="177.62"/><line class="cls-1" x1="110.19" y1="219.15" x2="134.96" y2="292.31"/><line class="cls-1" x1="175.13" y1="212.89" x2="243.1" y2="212.89"/><line class="cls-1" x1="169.3" y1="208.74" x2="149.12" y2="177.62"/><line class="cls-1" x1="169.3" y1="219.15" x2="144.53" y2="292.31"/><line class="cls-1" x1="278.49" y1="178.04" x2="278.49" y2="292.31"/><line class="cls-1" x1="248.93" y1="208.74" x2="269.12" y2="177.62"/><line class="cls-1" x1="248.93" y1="219.15" x2="273.7" y2="292.31"/><line class="cls-1" x1="313.87" y1="212.89" x2="381.85" y2="212.89"/><line class="cls-1" x1="308.04" y1="208.74" x2="287.86" y2="177.62"/><line class="cls-1" x1="308.04" y1="219.15" x2="283.27" y2="292.31"/><line class="cls-1" x1="417.23" y1="178.04" x2="417.23" y2="292.31"/><line class="cls-1" x1="387.68" y1="208.74" x2="407.86" y2="177.62"/><line class="cls-1" x1="387.68" y1="219.15" x2="412.45" y2="292.31"/><line class="cls-1" x1="134.63" y1="306.21" x2="6.11" y2="306.21"/><line class="cls-1" x1="273.38" y1="306.21" x2="144.85" y2="306.21"/><line class="cls-1" x1="412.12" y1="306.21" x2="283.6" y2="306.21"/><line class="cls-1" x1="550.87" y1="306.21" x2="422.34" y2="306.21"/><line class="cls-1" x1="452.62" y1="212.89" x2="520.59" y2="212.89"/><line class="cls-1" x1="446.79" y1="208.74" x2="426.6" y2="177.62"/><line class="cls-1" x1="446.79" y1="219.15" x2="422.02" y2="292.31"/><line class="cls-1" x1="555.98" y1="178.04" x2="555.98" y2="292.31"/><line class="cls-1" x1="526.42" y1="208.74" x2="546.61" y2="177.62"/><line class="cls-1" x1="526.42" y1="219.15" x2="551.19" y2="292.31"/><line class="cls-1" x1="689.66" y1="25.82" x2="561.13" y2="25.82"/><line class="cls-1" x1="828.4" y1="25.82" x2="699.88" y2="25.82"/><line class="cls-1" x1="967.15" y1="25.82" x2="838.62" y2="25.82"/><line class="cls-1" x1="1105.89" y1="25.82" x2="977.37" y2="25.82"/><line class="cls-1" x1="591.41" y1="72.69" x2="659.38" y2="72.69"/><line class="cls-1" x1="585.58" y1="68.54" x2="565.39" y2="37.43"/><line class="cls-1" x1="585.58" y1="78.96" x2="560.81" y2="152.11"/><line class="cls-1" x1="694.77" y1="37.84" x2="694.77" y2="152.11"/><line class="cls-1" x1="665.21" y1="68.54" x2="685.4" y2="37.43"/><line class="cls-1" x1="665.21" y1="78.96" x2="689.98" y2="152.11"/><line class="cls-1" x1="730.15" y1="72.69" x2="798.13" y2="72.69"/><line class="cls-1" x1="724.32" y1="68.54" x2="704.14" y2="37.43"/><line class="cls-1" x1="724.32" y1="78.96" x2="699.55" y2="152.11"/><line class="cls-1" x1="833.51" y1="37.84" x2="833.51" y2="152.11"/><line class="cls-1" x1="803.96" y1="68.54" x2="824.14" y2="37.43"/><line class="cls-1" x1="803.96" y1="78.96" x2="828.73" y2="152.11"/><line class="cls-1" x1="868.9" y1="72.69" x2="936.87" y2="72.69"/><line class="cls-1" x1="863.07" y1="68.54" x2="842.88" y2="37.43"/><line class="cls-1" x1="863.07" y1="78.96" x2="838.3" y2="152.11"/><line class="cls-1" x1="972.26" y1="37.84" x2="972.26" y2="152.11"/><line class="cls-1" x1="942.7" y1="68.54" x2="962.88" y2="37.43"/><line class="cls-1" x1="942.7" y1="78.96" x2="967.47" y2="152.11"/><line class="cls-1" x1="1007.64" y1="72.69" x2="1075.62" y2="72.69"/><line class="cls-1" x1="1001.81" y1="68.54" x2="981.63" y2="37.43"/><line class="cls-1" x1="1001.81" y1="78.96" x2="977.04" y2="152.11"/><line class="cls-1" x1="1111" y1="37.84" x2="1111" y2="152.11"/><line class="cls-1" x1="1081.44" y1="68.54" x2="1101.63" y2="37.43"/><line class="cls-1" x1="1081.44" y1="78.96" x2="1106.21" y2="152.11"/><line class="cls-1" x1="689.66" y1="166.01" x2="561.13" y2="166.01"/><line class="cls-1" x1="828.4" y1="166.01" x2="699.88" y2="166.01"/><line class="cls-1" x1="967.15" y1="166.01" x2="838.62" y2="166.01"/><line class="cls-1" x1="1105.89" y1="166.01" x2="977.37" y2="166.01"/><line class="cls-1" x1="591.41" y1="212.89" x2="659.38" y2="212.89"/><line class="cls-1" x1="585.58" y1="208.74" x2="565.39" y2="177.62"/><line class="cls-1" x1="585.58" y1="219.15" x2="560.81" y2="292.31"/><line class="cls-1" x1="694.77" y1="178.04" x2="694.77" y2="292.31"/><line class="cls-1" x1="665.21" y1="208.74" x2="685.4" y2="177.62"/><line class="cls-1" x1="665.21" y1="219.15" x2="689.98" y2="292.31"/><line class="cls-1" x1="1111" y1="178.04" x2="1111" y2="292.31"/><line class="cls-1" x1="689.66" y1="306.21" x2="561.13" y2="306.21"/><line class="cls-1" x1="828.4" y1="306.21" x2="699.88" y2="306.21"/><line class="cls-1" x1="967.15" y1="306.21" x2="838.62" y2="306.21"/><line class="cls-1" x1="1105.89" y1="306.21" x2="977.37" y2="306.21"/><path class="cls-2" d="M858.64,212.32a3.17,3.17,0,0,0,.26,1.41,3,3,0,0,0,.85,1.13,4.36,4.36,0,0,0,1.38.76,6,6,0,0,0,1.87.27,5.47,5.47,0,0,0,1.73-.24,3.4,3.4,0,0,0,1.15-.63,2.36,2.36,0,0,0,.65-.91,2.73,2.73,0,0,0,.21-1.05,2.2,2.2,0,0,0-.28-1.17,2.38,2.38,0,0,0-.72-.76,3.77,3.77,0,0,0-1-.47,9.57,9.57,0,0,0-1.08-.28l-2.49-.54a8.4,8.4,0,0,1-2.09-.7,3.78,3.78,0,0,1-1.44-1.23,3.58,3.58,0,0,1-.53-2.08,4.12,4.12,0,0,1,.41-1.9,3.68,3.68,0,0,1,1.17-1.37,5.7,5.7,0,0,1,1.83-.83,9.2,9.2,0,0,1,2.36-.28,7.49,7.49,0,0,1,2.45.36,5,5,0,0,1,1.72,1,4.2,4.2,0,0,1,1,1.41,5.2,5.2,0,0,1,.43,1.68h-2a2.76,2.76,0,0,0-.56-1.48,2.91,2.91,0,0,0-1-.82,3.78,3.78,0,0,0-1.15-.34c-.39,0-.71-.06-.94-.06a4.4,4.4,0,0,0-2.56.68,2.19,2.19,0,0,0-1,1.87,1.84,1.84,0,0,0,.32,1.12,2.54,2.54,0,0,0,.84.7,4.91,4.91,0,0,0,1.21.42l1.44.31c.69.13,1.37.27,2.06.44a6.78,6.78,0,0,1,1.87.75,4.08,4.08,0,0,1,1.37,1.34,4.23,4.23,0,0,1,.52,2.21,4.57,4.57,0,0,1-.36,1.92,3.89,3.89,0,0,1-.93,1.29,4.08,4.08,0,0,1-1.26.8,6.77,6.77,0,0,1-1.36.41,8.44,8.44,0,0,1-1.24.16l-.88,0a13.58,13.58,0,0,1-1.87-.15,5.93,5.93,0,0,1-2-.69,4.69,4.69,0,0,1-1.64-1.59,5.71,5.71,0,0,1-.78-2.86Z"/><path class="cls-2" d="M870.18,203.63v-1.72h12v1.72h-4.95v13.52h-2V203.63Z"/><path class="cls-2" d="M894.31,208.42v1.72h-8v5.29h9.06v1.72H884.27V201.91h10.87v1.72h-8.82v4.79Z"/><path class="cls-2" d="M899.65,217.15h-2V201.91h2.27L908,214V201.91h2v15.24h-2.24l-8.12-12.09Z"/><path class="cls-2" d="M912.84,209.53a10.45,10.45,0,0,1,.55-3.52,7.12,7.12,0,0,1,1.5-2.53,6.21,6.21,0,0,1,2.3-1.52,8.16,8.16,0,0,1,2.93-.51,8.9,8.9,0,0,1,2.56.39,6.21,6.21,0,0,1,2.34,1.32,6.75,6.75,0,0,1,1.71,2.48,10,10,0,0,1,.66,3.89,10.29,10.29,0,0,1-.48,3.36,7.31,7.31,0,0,1-1.21,2.28,5.72,5.72,0,0,1-1.6,1.38,8.16,8.16,0,0,1-1.67.73,6.25,6.25,0,0,1-1.44.28l-.87.05-.88-.05a6.23,6.23,0,0,1-1.45-.28,8,8,0,0,1-1.68-.73,5.86,5.86,0,0,1-1.6-1.38,7.15,7.15,0,0,1-1.2-2.27A10.57,10.57,0,0,1,912.84,209.53Zm2.18,0a11.69,11.69,0,0,0,.19,2,6.07,6.07,0,0,0,.73,2.08,4.47,4.47,0,0,0,1.54,1.61,4.82,4.82,0,0,0,2.64.65c.17,0,.42,0,.74,0a4.41,4.41,0,0,0,1-.24,5.08,5.08,0,0,0,1.16-.59,4.32,4.32,0,0,0,1.07-1.1,6.32,6.32,0,0,0,.78-1.77,9.76,9.76,0,0,0,.3-2.61,10.12,10.12,0,0,0-.3-2.52,5.73,5.73,0,0,0-.93-2,4.32,4.32,0,0,0-1.59-1.34,4.9,4.9,0,0,0-2.27-.49,5,5,0,0,0-2,.36,4.59,4.59,0,0,0-1.41.92,4.5,4.5,0,0,0-.9,1.28,6.66,6.66,0,0,0-.51,1.41,7.85,7.85,0,0,0-.23,1.34Q915,209.11,915,209.53Z"/><path class="cls-2" d="M943.22,209.2v8h-1.59v-2.46h0a4.83,4.83,0,0,1-2,2.14,6,6,0,0,1-3.11.78,8.24,8.24,0,0,1-2.66-.43,5.84,5.84,0,0,1-2.29-1.39,7.2,7.2,0,0,1-1.61-2.55,10.89,10.89,0,0,1-.61-3.86,10.15,10.15,0,0,1,.53-3.42,6.49,6.49,0,0,1,1.5-2.49,6.34,6.34,0,0,1,2.35-1.51,8.75,8.75,0,0,1,3.07-.51,7.56,7.56,0,0,1,2.65.42,5.92,5.92,0,0,1,1.87,1.12,5.08,5.08,0,0,1,1.16,1.59,6.16,6.16,0,0,1,.53,1.83h-2a4.46,4.46,0,0,0-.26-1.1,2.94,2.94,0,0,0-.7-1,4,4,0,0,0-1.27-.79,5.39,5.39,0,0,0-2-.31,5.51,5.51,0,0,0-2.06.35,4.27,4.27,0,0,0-1.44.91,4.74,4.74,0,0,0-.92,1.27,6.4,6.4,0,0,0-.53,1.39,9.64,9.64,0,0,0-.23,1.32c0,.41-.05.76-.05,1s0,.48,0,.87a7.68,7.68,0,0,0,.22,1.3,9.92,9.92,0,0,0,.51,1.47,4.86,4.86,0,0,0,.91,1.38,4.46,4.46,0,0,0,1.43,1,4.8,4.8,0,0,0,2.07.41,4.58,4.58,0,0,0,2.3-.51,4.32,4.32,0,0,0,1.4-1.27,4.67,4.67,0,0,0,.7-1.62,7.25,7.25,0,0,0,.2-1.57H937V209.2Z"/><path class="cls-2" d="M946.34,201.91h6.75l.95,0a6.4,6.4,0,0,1,1.1.17,5.87,5.87,0,0,1,1.1.41,3.58,3.58,0,0,1,1,.7,3.36,3.36,0,0,1,.68,1.14,4.44,4.44,0,0,1,.26,1.64,4.86,4.86,0,0,1-.17,1.27,4.22,4.22,0,0,1-.51,1.14,3.44,3.44,0,0,1-.83.87,2.88,2.88,0,0,1-1.1.49v.06a3.92,3.92,0,0,1,1.21.68,2.61,2.61,0,0,1,.65.86,3.09,3.09,0,0,1,.28,1c0,.36.06.74.08,1.13s0,1,0,1.33,0,.68.05.95a2.93,2.93,0,0,0,.17.72,2.78,2.78,0,0,0,.36.64h-2.18a2.78,2.78,0,0,1-.31-.51,2,2,0,0,1-.17-.61c0-.24-.05-.53-.06-.86s0-.75,0-1.24a11.48,11.48,0,0,0-.07-1.17,2.47,2.47,0,0,0-.35-1,1.87,1.87,0,0,0-.86-.75,3.66,3.66,0,0,0-1.6-.29h-4.35v6.47h-2Zm2,7.05H953a4.38,4.38,0,0,0,.88-.1,2.77,2.77,0,0,0,1-.39,2.39,2.39,0,0,0,.81-.83,3.26,3.26,0,0,0,.07-2.66,2,2,0,0,0-.68-.81,2.76,2.76,0,0,0-1-.42,6.85,6.85,0,0,0-1.33-.12h-4.26Z"/><path class="cls-2" d="M961.41,217.15h-2.18L965,201.91h2.18L973,217.15h-2.18l-1.44-3.94h-6.48Zm7.35-5.66L966.09,204l-2.67,7.52Z"/><path class="cls-2" d="M983.93,208.59v1.72h-7.17v6.84h-2V201.91H985v1.72h-8.19v5Z"/><path class="cls-2" d="M996.3,208.59v1.72h-7.17v6.84h-2V201.91h10.23v1.72h-8.19v5Z"/><path class="cls-2" d="M1001.5,201.91v15.24h-2V201.91Z"/><path class="cls-2" d="M1005.44,217.15h-2.17l5.77-15.24h2.18l5.77,15.24h-2.18l-1.44-3.94h-6.48Zm7.36-5.66-2.67-7.52-2.67,7.52Z"/><path class="cls-2" d="M1033.49,217.15h-10.32a6.73,6.73,0,0,1,.38-2.37,5.74,5.74,0,0,1,1.09-1.79,9.32,9.32,0,0,1,1.65-1.44q1-.65,2.07-1.35l1-.65a6.08,6.08,0,0,0,1-.83,4.05,4.05,0,0,0,.77-1.12,3.39,3.39,0,0,0,.31-1.51,2.72,2.72,0,0,0-.85-2.18,3.3,3.3,0,0,0-2.23-.74,3.16,3.16,0,0,0-2.32.83,2.91,2.91,0,0,0-.85,2.2v.56h-2v-.45a7.06,7.06,0,0,1,.17-1.34,4.13,4.13,0,0,1,.71-1.6,4.41,4.41,0,0,1,1.57-1.36,5.91,5.91,0,0,1,2.78-.56,6.55,6.55,0,0,1,2.11.31,4.55,4.55,0,0,1,1.6.91,3.8,3.8,0,0,1,1,1.45,5,5,0,0,1,.36,1.95,5.7,5.7,0,0,1-.26,1.82,4.26,4.26,0,0,1-.85,1.42,8.58,8.58,0,0,1-1.53,1.3c-.62.42-1.38.92-2.26,1.49a12,12,0,0,0-2.27,1.74,3.65,3.65,0,0,0-.93,1.59h8Z"/><path class="cls-2" d="M1040.92,217.61a6.87,6.87,0,0,1-.78-.06,3.64,3.64,0,0,1-1.1-.3,5,5,0,0,1-1.21-.75,4.77,4.77,0,0,1-1.11-1.4,8.24,8.24,0,0,1-.82-2.25,17.38,17.38,0,0,1,0-6.64,8.45,8.45,0,0,1,.82-2.26,4.7,4.7,0,0,1,2.32-2.14,4,4,0,0,1,1.1-.31c.33,0,.59-.05.78-.05s.45,0,.78.05a4,4,0,0,1,1.1.31,4.7,4.7,0,0,1,2.32,2.14,8.45,8.45,0,0,1,.82,2.26,17.38,17.38,0,0,1,0,6.64,8.24,8.24,0,0,1-.82,2.25,4.77,4.77,0,0,1-1.11,1.4,5,5,0,0,1-1.21.75,3.64,3.64,0,0,1-1.1.3A6.87,6.87,0,0,1,1040.92,217.61Zm0-1.72a2.41,2.41,0,0,0,1.55-.51,3.74,3.74,0,0,0,1-1.38,7.7,7.7,0,0,0,.57-2,17.88,17.88,0,0,0,0-4.92,7.89,7.89,0,0,0-.57-2,3.7,3.7,0,0,0-1-1.37,2.61,2.61,0,0,0-3.1,0,3.7,3.7,0,0,0-1,1.37,7.89,7.89,0,0,0-.57,2,17.88,17.88,0,0,0,0,4.92,7.7,7.7,0,0,0,.57,2,3.74,3.74,0,0,0,1,1.38A2.39,2.39,0,0,0,1040.92,215.89Z"/><path class="cls-2" d="M1058.76,217.15h-10.33a6.5,6.5,0,0,1,.39-2.37,5.53,5.53,0,0,1,1.08-1.79,9.69,9.69,0,0,1,1.65-1.44q1-.65,2.07-1.35l1-.65a6.08,6.08,0,0,0,1-.83,4.31,4.31,0,0,0,.78-1.12,3.54,3.54,0,0,0,.3-1.51,2.72,2.72,0,0,0-.85-2.18,3.3,3.3,0,0,0-2.23-.74,3.16,3.16,0,0,0-2.32.83,3,3,0,0,0-.85,2.2v.56h-2v-.45a6.93,6.93,0,0,1,.16-1.34,4.13,4.13,0,0,1,.71-1.6,4.45,4.45,0,0,1,1.58-1.36,5.87,5.87,0,0,1,2.77-.56,6.66,6.66,0,0,1,2.12.31,4.74,4.74,0,0,1,1.6.91,3.89,3.89,0,0,1,1,1.45,5,5,0,0,1,.36,1.95,5.7,5.7,0,0,1-.26,1.82,4.26,4.26,0,0,1-.85,1.42,8.24,8.24,0,0,1-1.53,1.3c-.62.42-1.38.92-2.26,1.49a12,12,0,0,0-2.27,1.74,3.65,3.65,0,0,0-.93,1.59h8.06Z"/><path class="cls-2" d="M1066.18,217.61a6.87,6.87,0,0,1-.78-.06,3.64,3.64,0,0,1-1.1-.3,5.18,5.18,0,0,1-1.21-.75,4.77,4.77,0,0,1-1.11-1.4,8.24,8.24,0,0,1-.82-2.25,17.93,17.93,0,0,1,0-6.64A8.45,8.45,0,0,1,1062,204a4.72,4.72,0,0,1,1.11-1.39,4.87,4.87,0,0,1,1.21-.75,4,4,0,0,1,1.1-.31c.33,0,.59-.05.78-.05s.45,0,.79.05a4.1,4.1,0,0,1,1.1.31,4.82,4.82,0,0,1,1.2.75,4.9,4.9,0,0,1,1.12,1.39,8.82,8.82,0,0,1,.81,2.26,17.38,17.38,0,0,1,0,6.64,8.6,8.6,0,0,1-.81,2.25,5,5,0,0,1-1.12,1.4,5.13,5.13,0,0,1-1.2.75,3.72,3.72,0,0,1-1.1.3A7.19,7.19,0,0,1,1066.18,217.61Zm0-1.72a2.39,2.39,0,0,0,1.55-.51,3.74,3.74,0,0,0,1-1.38,7.7,7.7,0,0,0,.57-2,17.88,17.88,0,0,0,0-4.92,7.89,7.89,0,0,0-.57-2,3.7,3.7,0,0,0-1-1.37,2.39,2.39,0,0,0-1.55-.51,2.36,2.36,0,0,0-1.54.51,3.62,3.62,0,0,0-1,1.37,7.52,7.52,0,0,0-.56,2,16.9,16.9,0,0,0,0,4.92,7.34,7.34,0,0,0,.56,2,3.66,3.66,0,0,0,1,1.38A2.36,2.36,0,0,0,1066.18,215.89Z"/><path class="cls-2" d="M859.51,229.48v15.25h-2V229.48Z"/><path class="cls-2" d="M865.26,244.73h-2V229.48h2.27l8.1,12.09V229.48h2v15.25h-2.25l-8.12-12.09Z"/><path class="cls-2" d="M877.76,231.2v-1.72h12v1.72h-5v13.53h-2V231.2Z"/><path class="cls-2" d="M891.85,229.48h6.75c.28,0,.59,0,.95,0a6.4,6.4,0,0,1,1.1.17,5.58,5.58,0,0,1,1.1.4,3.62,3.62,0,0,1,1,.71,3.41,3.41,0,0,1,.68,1.13,5.12,5.12,0,0,1,.09,2.92A4.15,4.15,0,0,1,903,236a3.13,3.13,0,0,1-.83.87,2.74,2.74,0,0,1-1.1.49v.07a3.63,3.63,0,0,1,1.21.68,2.68,2.68,0,0,1,.66.86,3.35,3.35,0,0,1,.27,1c0,.36.06.74.08,1.13s0,1,0,1.33,0,.68.06,1a2.54,2.54,0,0,0,.16.72,2.78,2.78,0,0,0,.36.64h-2.18a3.67,3.67,0,0,1-.31-.51,1.76,1.76,0,0,1-.16-.61c0-.24-.06-.53-.07-.86s0-.75,0-1.25a8.92,8.92,0,0,0-.07-1.16,2.51,2.51,0,0,0-.35-1.05,1.94,1.94,0,0,0-.86-.75,3.64,3.64,0,0,0-1.6-.28H893.9v6.47h-2Zm2,7.06h4.57a4.38,4.38,0,0,0,.88-.1,2.77,2.77,0,0,0,1-.39,2.48,2.48,0,0,0,.81-.83,2.66,2.66,0,0,0,.33-1.42,2.9,2.9,0,0,0-.25-1.25,2.15,2.15,0,0,0-.69-.8,2.62,2.62,0,0,0-1-.43,6.74,6.74,0,0,0-1.32-.12H893.9Z"/><path class="cls-2" d="M908.73,244.73h-2.05V229.48H909l8.1,12.09V229.48h2v15.25h-2.24l-8.12-12.09Z"/><path class="cls-2" d="M923,244.73h-2.18l5.77-15.25h2.18l5.77,15.25H932.4L931,240.79h-6.48Zm7.35-5.66-2.67-7.52-2.67,7.52Z"/><path class="cls-2" d="M933.32,231.2v-1.72h11.95v1.72h-4.94v13.53h-2.05V231.2Z"/><path class="cls-2" d="M949.45,229.48v15.25h-2V229.48Z"/><path class="cls-2" d="M952.28,237.11a10.45,10.45,0,0,1,.55-3.52,7.12,7.12,0,0,1,1.5-2.53,6.21,6.21,0,0,1,2.3-1.52,8.16,8.16,0,0,1,2.93-.51,8.9,8.9,0,0,1,2.56.39,6.21,6.21,0,0,1,2.34,1.32,6.79,6.79,0,0,1,1.71,2.48,10,10,0,0,1,.66,3.89,10.29,10.29,0,0,1-.48,3.36,7.43,7.43,0,0,1-1.21,2.28,5.72,5.72,0,0,1-1.6,1.38,8.16,8.16,0,0,1-1.67.73,6.83,6.83,0,0,1-1.44.28l-.87.05-.88-.05a6.68,6.68,0,0,1-1.45-.28,8,8,0,0,1-1.68-.73,5.86,5.86,0,0,1-1.6-1.38,7.15,7.15,0,0,1-1.2-2.27A10.57,10.57,0,0,1,952.28,237.11Zm2.18,0a11.69,11.69,0,0,0,.19,2,6.15,6.15,0,0,0,.73,2.08,4.47,4.47,0,0,0,1.54,1.61,4.82,4.82,0,0,0,2.64.64c.17,0,.42,0,.74,0a4.41,4.41,0,0,0,1-.24,4.76,4.76,0,0,0,1.16-.6,4.17,4.17,0,0,0,1.07-1.1,6.13,6.13,0,0,0,.78-1.76,9.76,9.76,0,0,0,.3-2.61,10.12,10.12,0,0,0-.3-2.52,5.65,5.65,0,0,0-.93-2,4.23,4.23,0,0,0-1.59-1.34,4.9,4.9,0,0,0-2.27-.49,5,5,0,0,0-2,.36,4.42,4.42,0,0,0-1.41.92,4.37,4.37,0,0,0-.9,1.28,6.66,6.66,0,0,0-.51,1.41,7.68,7.68,0,0,0-.23,1.34Q954.46,236.69,954.46,237.11Z"/><path class="cls-2" d="M971.71,244.73h-2.05V229.48h2.27l8.1,12.09V229.48h2.05v15.25h-2.25l-8.12-12.09Z"/><path class="cls-2" d="M986,244.73h-2.18l5.77-15.25h2.18l5.77,15.25h-2.18l-1.44-3.94h-6.48Zm7.35-5.66-2.67-7.52L988,239.07Z"/><path class="cls-2" d="M1009.12,244.73h-9.8V229.48h2V243h7.75Z"/><path class="cls-2" d="M858.64,267.47a3.21,3.21,0,0,0,.26,1.42,3.1,3.1,0,0,0,.85,1.13,4.16,4.16,0,0,0,1.38.75A6,6,0,0,0,863,271a5.47,5.47,0,0,0,1.73-.24,3.4,3.4,0,0,0,1.15-.63,2.26,2.26,0,0,0,.65-.9,2.78,2.78,0,0,0,.21-1.06,2.19,2.19,0,0,0-.28-1.16,2.42,2.42,0,0,0-.72-.77,3.76,3.76,0,0,0-1-.46,9.67,9.67,0,0,0-1.08-.29l-2.49-.53a8.4,8.4,0,0,1-2.09-.71,3.62,3.62,0,0,1-1.44-1.23,3.56,3.56,0,0,1-.53-2.08,4.11,4.11,0,0,1,.41-1.89,3.71,3.71,0,0,1,1.17-1.38,5.69,5.69,0,0,1,1.83-.82,9.19,9.19,0,0,1,2.36-.29,7.49,7.49,0,0,1,2.45.36,5.19,5.19,0,0,1,1.72,1,4.24,4.24,0,0,1,1,1.42,5.08,5.08,0,0,1,.43,1.67h-2a2.79,2.79,0,0,0-.56-1.48,2.88,2.88,0,0,0-1-.81,3.52,3.52,0,0,0-1.15-.34c-.39,0-.71-.07-.94-.07a4.33,4.33,0,0,0-2.56.69,2.18,2.18,0,0,0-1,1.86,1.82,1.82,0,0,0,.32,1.12,2.32,2.32,0,0,0,.84.7,4.91,4.91,0,0,0,1.21.42c.45.11.94.21,1.44.31.69.13,1.37.28,2.06.45a6.21,6.21,0,0,1,1.87.75A4,4,0,0,1,868.4,266a4.2,4.2,0,0,1,.52,2.21,4.55,4.55,0,0,1-.36,1.91,3.83,3.83,0,0,1-.93,1.3,4.05,4.05,0,0,1-1.26.79,7.55,7.55,0,0,1-1.36.42,7.2,7.2,0,0,1-1.24.15l-.88,0a13.58,13.58,0,0,1-1.87-.15,5.72,5.72,0,0,1-2-.69,4.52,4.52,0,0,1-1.64-1.59,5.68,5.68,0,0,1-.78-2.86Z"/><path class="cls-2" d="M870.18,258.78v-1.72h12v1.72h-4.95v13.53h-2V258.78Z"/><path class="cls-2" d="M884.27,257.06H891l1,0a5.48,5.48,0,0,1,1.1.18,5.58,5.58,0,0,1,1.1.4,3.15,3.15,0,0,1,1,.71,3.31,3.31,0,0,1,.68,1.13,4.51,4.51,0,0,1,.27,1.64,4.6,4.6,0,0,1-.18,1.28,4,4,0,0,1-.51,1.13,3.44,3.44,0,0,1-.83.87,2.68,2.68,0,0,1-1.1.49V265a3.8,3.8,0,0,1,1.21.67,2.79,2.79,0,0,1,.66.86,3.14,3.14,0,0,1,.27,1c0,.36.06.74.08,1.13s0,1,0,1.33,0,.68.06.94a2.94,2.94,0,0,0,.16.72,2.83,2.83,0,0,0,.36.65h-2.17a2.71,2.71,0,0,1-.32-.52,1.93,1.93,0,0,1-.16-.61c0-.24,0-.52-.07-.86s0-.74,0-1.24a8.92,8.92,0,0,0-.07-1.16,2.6,2.6,0,0,0-.34-1.05,2.05,2.05,0,0,0-.86-.75,3.72,3.72,0,0,0-1.61-.28h-4.35v6.47h-2.05Zm2.05,7.06h4.57a5.26,5.26,0,0,0,.88-.1,3.15,3.15,0,0,0,1-.39,2.65,2.65,0,0,0,.8-.83,2.7,2.7,0,0,0,.33-1.43,2.88,2.88,0,0,0-.25-1.24,2.15,2.15,0,0,0-.69-.8,2.63,2.63,0,0,0-1-.43,6.92,6.92,0,0,0-1.33-.12h-4.27Z"/><path class="cls-2" d="M909.14,263.57v1.72h-8v5.29h9.06v1.73H899.1V257.06H910v1.72h-8.82v4.79Z"/><path class="cls-2" d="M922.47,263.57v1.72h-8v5.29h9.06v1.73H912.43V257.06H923.3v1.72h-8.82v4.79Z"/><path class="cls-2" d="M924.19,258.78v-1.72h12v1.72H931.2v13.53h-2V258.78Z"/><path class="cls-2" d="M943.6,272.31h-2.18l5.77-15.25h2.18l5.77,15.25H953l-1.44-3.95H945Zm7.35-5.67-2.67-7.51-2.67,7.51Z"/><path class="cls-2" d="M956.9,257.06h6.75l1,0a5.48,5.48,0,0,1,1.1.18,5.58,5.58,0,0,1,1.1.4,3.22,3.22,0,0,1,1.64,1.84,4.51,4.51,0,0,1,.27,1.64,4.6,4.6,0,0,1-.18,1.28,4.29,4.29,0,0,1-.51,1.13,3.44,3.44,0,0,1-.83.87,2.74,2.74,0,0,1-1.1.49V265a3.8,3.8,0,0,1,1.21.67,2.79,2.79,0,0,1,.66.86,3.41,3.41,0,0,1,.27,1c0,.36.06.74.08,1.13s0,1,0,1.33,0,.68.06.94a2.94,2.94,0,0,0,.16.72,2.83,2.83,0,0,0,.36.65h-2.17a2.71,2.71,0,0,1-.32-.52,1.7,1.7,0,0,1-.16-.61c0-.24-.06-.52-.07-.86s0-.74,0-1.24a8.92,8.92,0,0,0-.07-1.16,2.6,2.6,0,0,0-.34-1.05,2,2,0,0,0-.87-.75,3.64,3.64,0,0,0-1.6-.28H959v6.47H956.9Zm2.05,7.06h4.57a5.26,5.26,0,0,0,.88-.1,3.15,3.15,0,0,0,1-.39,2.65,2.65,0,0,0,.8-.83,2.7,2.7,0,0,0,.33-1.43,2.88,2.88,0,0,0-.25-1.24,2.15,2.15,0,0,0-.69-.8,2.63,2.63,0,0,0-1-.43,6.92,6.92,0,0,0-1.33-.12H959Z"/><path class="cls-2" d="M970.16,258.78v-1.72h12v1.72h-4.94v13.53h-2V258.78Z"/><path class="cls-2" d="M998.54,263.75v1.72h-7.16v6.84h-2V257.06h10.23v1.72h-8.18v5Z"/><path class="cls-2" d="M1011.74,263.57v1.72h-8v5.29h9.06v1.73H1001.7V257.06h10.87v1.72h-8.82v4.79Z"/><path class="cls-2" d="M1016.2,267.47a3.36,3.36,0,0,0,.26,1.42,3.21,3.21,0,0,0,.85,1.13,4.11,4.11,0,0,0,1.39.75,5.88,5.88,0,0,0,1.86.27,5.43,5.43,0,0,0,1.73-.24,3.31,3.31,0,0,0,1.15-.63,2.39,2.39,0,0,0,.66-.9,3,3,0,0,0,.2-1.06,2.19,2.19,0,0,0-.28-1.16,2.42,2.42,0,0,0-.72-.77,3.76,3.76,0,0,0-1-.46,9.67,9.67,0,0,0-1.08-.29l-2.49-.53a8.4,8.4,0,0,1-2.09-.71,3.76,3.76,0,0,1-1.44-1.23,3.64,3.64,0,0,1-.53-2.08,4.24,4.24,0,0,1,.41-1.89,3.74,3.74,0,0,1,1.18-1.38,5.69,5.69,0,0,1,1.83-.82,9.06,9.06,0,0,1,2.35-.29,7.49,7.49,0,0,1,2.45.36,5.19,5.19,0,0,1,1.72,1,4.14,4.14,0,0,1,1.05,1.42,5.07,5.07,0,0,1,.42,1.67h-2a2.87,2.87,0,0,0-.55-1.48,3,3,0,0,0-1-.81,3.45,3.45,0,0,0-1.15-.34c-.39,0-.7-.07-.94-.07a4.33,4.33,0,0,0-2.56.69,2.18,2.18,0,0,0-1,1.86,1.81,1.81,0,0,0,.31,1.12,2.32,2.32,0,0,0,.84.7,4.91,4.91,0,0,0,1.21.42c.46.11.94.21,1.45.31.68.13,1.37.28,2.06.45a6.43,6.43,0,0,1,1.87.75A4,4,0,0,1,1026,266a4.11,4.11,0,0,1,.52,2.21,4.55,4.55,0,0,1-.36,1.91,4,4,0,0,1-.92,1.3,4.1,4.1,0,0,1-1.27.79,7.31,7.31,0,0,1-1.36.42,7.09,7.09,0,0,1-1.24.15l-.88,0a13.33,13.33,0,0,1-1.86-.15,5.7,5.7,0,0,1-2-.69,4.6,4.6,0,0,1-1.64-1.59,5.58,5.58,0,0,1-.77-2.86Z"/><path class="cls-2" d="M1027.74,258.78v-1.72h12v1.72h-4.94v13.53h-2V258.78Z"/><path class="cls-2" d="M1043.88,257.06v15.25h-2.05V257.06Z"/><path class="cls-2" d="M1056.51,257.06h2.25l-5.34,15.25H1051l-5.33-15.25h2.24l4.31,13.13Z"/><path class="cls-2" d="M1059.3,272.31h-2.18l5.77-15.25h2.18l5.77,15.25h-2.17l-1.45-3.95h-6.48Zm7.35-5.67-2.67-7.51-2.67,7.51Z"/><path class="cls-2" d="M1082.41,272.31h-9.8V257.06h2v13.52h7.76Z"/><rect class="cls-2" x="830.47" y="185.13" width="6.68" height="101.35"/><rect class="cls-2" x="789.39" y="235.65" width="6.68" height="56.78" transform="translate(45.48 637.88) rotate(-45)"/><rect class="cls-2" x="707.91" y="260.79" width="56.52" height="6.68" transform="translate(28.85 597.91) rotate(-45)"/><rect class="cls-2" x="732.83" y="179.22" width="6.68" height="56.52" transform="translate(68.91 581.32) rotate(-45)"/><rect class="cls-2" x="764.34" y="204.23" width="56.78" height="6.68" transform="translate(85.41 621.34) rotate(-45)"/><path class="cls-2" d="M181.51,113.79a20.89,20.89,0,0,0,2,10.19,25.44,25.44,0,0,0,4.34,6.34,22.91,22.91,0,0,0,10.4,6.07,44,44,0,0,0,12.06,1.79,41.11,41.11,0,0,0,11.44-1.59,21,21,0,0,0,8.95-4.89,19,19,0,0,0,3.86-5.65,17.31,17.31,0,0,0,1.52-7.3,17.07,17.07,0,0,0-1.24-6.48,16.45,16.45,0,0,0-3-5,15.09,15.09,0,0,0-4.21-3.1,46,46,0,0,0-10.33-3.79c-1.61-.37-2.92-.64-3.93-.83l-9.65-1.79q-3-.54-6.33-1.31a55,55,0,0,1-6.55-1.93,37.6,37.6,0,0,1-6.2-2.89,21,21,0,0,1-5.17-4.2,27,27,0,0,1-3.86-6,21.14,21.14,0,0,1-1.79-9.3,24.56,24.56,0,0,1,3.31-13,26,26,0,0,1,8.27-8.61,27.93,27.93,0,0,1,6.82-3.24,48.9,48.9,0,0,1,7-1.73,57,57,0,0,1,6.06-.68c1.79-.09,3.19-.14,4.2-.14a49.24,49.24,0,0,1,9.44.82,43.68,43.68,0,0,1,7.37,2.07,28.18,28.18,0,0,1,5.52,2.83,33.89,33.89,0,0,1,4,3.1c.28.27.83.89,1.66,1.86a27.19,27.19,0,0,1,2.61,3.79,32.17,32.17,0,0,1,4.14,13.23H234a21.3,21.3,0,0,0-6.34-13.37,19.09,19.09,0,0,0-8.61-4.41,44.27,44.27,0,0,0-10.4-1.24c-.56,0-1.43,0-2.62.07A29.24,29.24,0,0,0,202,54a48.5,48.5,0,0,0-4.82,1.17,20.14,20.14,0,0,0-4.62,2,16.18,16.18,0,0,0-5.92,6.13,16.84,16.84,0,0,0-2.07,8.2,12.56,12.56,0,0,0,1.24,5.93,18.69,18.69,0,0,0,2.48,3.72,17.84,17.84,0,0,0,7.51,4.54,78.58,78.58,0,0,0,9.58,2.49L214.44,90a110.77,110.77,0,0,1,14.4,3.72,29.47,29.47,0,0,1,11,6.34,23.28,23.28,0,0,1,7,17.77,30.77,30.77,0,0,1-2.21,11.92,25.07,25.07,0,0,1-6.06,8.89,25.84,25.84,0,0,1-6.62,4.41,36.14,36.14,0,0,1-7.3,2.48,51.86,51.86,0,0,1-7.17,1.1q-3.43.28-6.2.28-3.72,0-7.78-.35a52.77,52.77,0,0,1-8.2-1.37,36.21,36.21,0,0,1-8-3,29,29,0,0,1-7.17-5.3,34.44,34.44,0,0,1-6.06-9,31.15,31.15,0,0,1-2.9-14Z"/><path class="cls-2" d="M269.5,91.32h163v6.62h-163Z"/><path class="cls-2" d="M455.65,144.24h-11l36.65-96.46h11.44l36.65,96.46H518.21L508,116.54H466ZM505,107.86l-18.05-50.3-18.05,50.3Z"/></g><g id="стикеры"><circle class="cls-3" cx="1061.13" cy="154.53" r="24.87" transform="translate(-6.06 259.37) rotate(-13.9)"/><circle class="cls-4" cx="804.3" cy="52.7" r="52.7" transform="translate(198.31 584.16) rotate(-45)"/><circle class="cls-5" cx="804.3" cy="52.7" r="41.99" transform="translate(198.31 584.16) rotate(-45)"/><ellipse class="cls-5" cx="804.3" cy="52.7" rx="27.3" ry="41.99" transform="translate(22.13 247.34) rotate(-17.72)"/><ellipse class="cls-5" cx="804.3" cy="52.7" rx="11.02" ry="41.99" transform="translate(22.13 247.34) rotate(-17.72)"/><ellipse class="cls-5" cx="804.3" cy="52.7" rx="41.99" ry="18.79" transform="translate(22.13 247.34) rotate(-17.72)"/><line class="cls-5" x1="764.87" y1="67.25" x2="844.75" y2="41.71"/></g></g></svg>