<svg xmlns="http://www.w3.org/2000/svg" viewBox="0 0 26.65 26.65"><defs><style>.cls-1{fill:#fff;}</style></defs><title>Ресурс 6</title><g id="Слой_2" data-name="Слой 2"><g id="содержание"><path class="cls-1" d="M19.62,0H7A7.12,7.12,0,0,0,0,7.17v12.3a7.12,7.12,0,0,0,7,7.18h12.6a7.13,7.13,0,0,0,7-7.18V7.17A7.13,7.13,0,0,0,19.62,0Zm4.64,19.29a4.93,4.93,0,0,1-4.86,5H7.25a4.93,4.93,0,0,1-4.87-5V7.35a4.94,4.94,0,0,1,4.87-5H19.4a4.93,4.93,0,0,1,4.86,5Z"/><path class="cls-1" d="M13.32,6.48a6.78,6.78,0,0,0-6.7,6.84,6.78,6.78,0,0,0,6.7,6.85A6.78,6.78,0,0,0,20,13.32,6.78,6.78,0,0,0,13.32,6.48Zm0,11.26a4.42,4.42,0,1,1,4.32-4.42A4.37,4.37,0,0,1,13.32,17.74Z"/><ellipse class="cls-1" cx="20.38" cy="6.11" rx="1.51" ry="1.54"/></g></g></svg>