<svg xmlns="http://www.w3.org/2000/svg" viewBox="0 0 226.09 65.01"><defs><style>.cls-1{fill:#fff;}</style></defs><title>Ресурс 26</title><g id="Слой_2" data-name="Слой 2"><g id="содержание"><path class="cls-1" d="M16.37,42.6v3.67h6V22h-6.5V33.05a20.44,20.44,0,0,1-.5,5.54A4.57,4.57,0,0,1,13.55,41a5.23,5.23,0,0,1-3,.91,3.85,3.85,0,0,1-2.25-.64,3.47,3.47,0,0,1-1.35-1.78,18.54,18.54,0,0,1-.42-5.06V22H0V37.09a19.5,19.5,0,0,0,.36,4.29,7,7,0,0,0,1.27,2.68A6.59,6.59,0,0,0,4.33,46a9.85,9.85,0,0,0,3.94.76A9.87,9.87,0,0,0,16.37,42.6ZM25.28,22h6.4v9h9.17V22h6.4v24.3h-6.4V36.14H31.68V46.27h-6.4V22Zm37.3,0h-13v7.6l6.5-2.51V46.31h6.51V27.06l6.51,2.51V22Zm16,5.87a6.12,6.12,0,0,1,4.36-1.65,5.3,5.3,0,0,1,4.22,1.87,6,6,0,0,1,1.26,2.66H76.76a6.75,6.75,0,0,1,1.81-2.88ZM89.3,38.31A8.32,8.32,0,0,1,86,41.91a6.88,6.88,0,0,1-3.07.61,5.9,5.9,0,0,1-5-2.44,8.35,8.35,0,0,1-1.62-4H94.58s.78-6.6-2.54-10.82a11,11,0,0,0-9.16-4.39A12.09,12.09,0,0,0,73.27,25,13.91,13.91,0,0,0,70,34.35a13.91,13.91,0,0,0,3.27,9.26,13,13,0,0,0,16.93,2,16.29,16.29,0,0,0,5.22-7.28Zm23.17,1.53a4.59,4.59,0,0,1-3.7,1.8,4.89,4.89,0,0,1-3.92-2c-1.08-1.31-1.61-3.33-1.61-6.07a8.2,8.2,0,0,1,1.54-5.41,4.85,4.85,0,0,1,3.88-1.82,4.68,4.68,0,0,1,3.76,1.86c1,1.24,1.52,3.13,1.52,5.69C113.94,36.67,113.45,38.63,112.47,39.84Zm5.06-15.19a9.17,9.17,0,0,0-7.13-3.32A8.5,8.5,0,0,0,106,22.5a9.26,9.26,0,0,0-3.13,3V22h-6V55.3h6.4V43.16a12.14,12.14,0,0,0,3.42,2.73,8.16,8.16,0,0,0,3.63.8,9.21,9.21,0,0,0,7.16-3.37q3-3.37,2.95-9.45Q120.46,28,117.53,24.65Zm42.76,12.8c-.15-4.65,7.21-7,12.31-4.4v8.71C167,44.1,160.58,42,160.29,37.45Zm12.31,8.82h7.18V34.33c0-3.94.25-6.51-1.39-9.06s-4.91-3.55-7.21-3.55H158c-1.23.05-.94-1.43-.84-1.73,3.12-11.77,5.64-15.23,9.89-14.88,1.83.25,3,.3,3.81,1.33.69.85.94.95,2.27-1.08.84-1.39,1.48-2.48,2-3.31s1.59-1.83-.1-2C154.8-.43,154.5,7.58,147.58,20.73c-.74,1.24-1.54,1.19-3.86,1.19H137c-9.15,0-13.89,7.17-14.44,11.18-.44,2.42-.69,4.49.5,7.07a13.69,13.69,0,0,0,6.57,6,1.32,1.32,0,0,0,1.49-.35c1-.89,4.05-3.61,4.94-4.3.55-.5-.1-.79-.49-.84-5.69-.69-7.77-2.23-8.75-6-.3-2.81,1-9.09,11.22-9.19,4.1.1,7.41-.39,5.88,3.26a226.37,226.37,0,0,1-12.61,27.39c-3.51,5.15-7.85,5.89-15,3.66a2,2,0,0,0-2.68,1.25c-.38.82-1,2.31-1.29,2.84-.4.8-.08,1.08.49,1.08,9.94-.1,19.8-2,27.36-10.61,7.07-9,8.71-16.31,13.35-25.51.75-1.63,1.84-3.11,3.72-3.11h11.16c3.58,0,4.21,1.48,4.21,3.41a17.57,17.57,0,0,0-7.81-.79c-6.58.69-10.74,3.36-11,9.29.05,4.46,4.35,9.05,11.91,8.9,3.14.15,5.26-.29,6.93-2v1.71Zm17.15,0V35.81a3.17,3.17,0,0,1,2.1.6,8.59,8.59,0,0,1,1.68,2.72l2.83,7.14h6.8L200,39.43a4.33,4.33,0,0,1-.25-.47c-1.39-2.94-3.08-4.69-5.09-5.25q2.08-.78,3.19-4.11a6.59,6.59,0,0,1,1.52-3,6.72,6.72,0,0,1,3.21-.48l0-4.26c-1.19-.07-2-.11-2.51-.11a6.59,6.59,0,0,0-3.8,1c-1,.67-1.85,2.19-2.67,4.58A13.31,13.31,0,0,1,192,30.83a3.29,3.29,0,0,1-2.24,1V22h-6.4v24.3Zm36-17.06-6.27,1.11a4.49,4.49,0,0,0-1.46-2.81,4.42,4.42,0,0,0-2.94-1,4.78,4.78,0,0,0-3.83,1.66c-1,1.1-1.44,3-1.44,5.53q0,4.34,1.45,6.1a4.77,4.77,0,0,0,3.89,1.79,4.28,4.28,0,0,0,3-1.06A6.34,6.34,0,0,0,219.81,37l6.28,1a11.35,11.35,0,0,1-3.75,6.62,11.47,11.47,0,0,1-7.43,2.23,11,11,0,0,1-8.44-3.35q-3.15-3.36-3.15-9.29t3.16-9.36A11.21,11.21,0,0,1,215,21.51a11.63,11.63,0,0,1,7,1.91,10.41,10.41,0,0,1,3.74,5.79Z"/></g></g></svg>