<?xml version="1.0" encoding="utf-8"?>
<!-- Generator: Adobe Illustrator 23.0.2, SVG Export Plug-In . SVG Version: 6.00 Build 0)  -->
<svg version="1.1" id="Слой_1" xmlns="http://www.w3.org/2000/svg" xmlns:xlink="http://www.w3.org/1999/xlink" x="0px" y="0px"
	 viewBox="0 0 669.5 18" style="enable-background:new 0 0 669.5 18;" xml:space="preserve">
<style type="text/css">
	.st0{fill:#FFFFFF;}
</style>
<g>
	<title>Ресурс 20</title>
	<g>
		<g id="содержание">
			<path class="st0" d="M555.1,14.5v1h-8.3c0-0.3,0.1-0.6,0.1-0.9c0-0.3,0.1-0.6,0.3-0.8l0.4-0.7c0.1-0.2,0.3-0.5,0.5-0.6l0.5-0.5
				c0.2-0.2,0.4-0.4,0.7-0.5L550,11l0.8-0.5l0.9-0.6c0.2-0.1,0.4-0.3,0.8-0.6c0.3-0.2,0.6-0.5,0.8-0.8s0.3-0.6,0.5-0.9
				c0.1-0.3,0.2-0.7,0.2-1.1c0-0.7-0.2-1.4-0.8-1.9c-0.5-0.5-1.3-0.7-2-0.7c-0.9-0.1-1.7,0.3-2.2,1s-0.7,1.6-0.7,2.5H547V7.1
				c-0.1-1.2,0.3-2.3,1.1-3.2c0.8-0.8,1.9-1.2,3-1.1c1,0,2.1,0.3,2.8,1c0.8,0.6,1.1,1.5,1.1,2.5c0,0.3-0.1,0.7-0.2,1
				c-0.1,0.3-0.2,0.6-0.3,0.9c-0.1,0.3-0.3,0.6-0.6,0.8l-0.6,0.7c-0.3,0.2-0.5,0.4-0.8,0.6l-0.8,0.5c-0.1,0.1-0.4,0.3-0.8,0.5
				l-1,0.6c-0.2,0.1-0.4,0.3-0.8,0.6c-0.3,0.2-0.6,0.5-0.8,0.9c-0.2,0.3-0.3,0.6-0.3,1L555.1,14.5L555.1,14.5z"/>
			<path class="st0" d="M561.4,2.8c3,0,4.4,2.2,4.4,6.6s-1.5,6.4-4.4,6.4s-4.4-2.1-4.4-6.3C557,5,558.5,2.8,561.4,2.8z M561.4,3.8
				c-0.5,0-1,0.1-1.5,0.4c-0.4,0.2-0.7,0.6-1,0.9c-0.2,0.4-0.4,0.9-0.5,1.4s-0.2,1-0.2,1.5c0,0.4,0,0.9,0,1.5c0,3.6,1.1,5.3,3.2,5.3
				c2.2,0,3.2-1.8,3.2-5.5S563.6,3.8,561.4,3.8L561.4,3.8z"/>
			<path class="st0" d="M575.8,14.5v1h-8.3c0-0.3,0.1-0.7,0.1-0.9c0.1-0.3,0.2-0.6,0.3-0.8l0.4-0.7c0.1-0.2,0.3-0.5,0.5-0.6l0.5-0.5
				c0.2-0.2,0.4-0.3,0.7-0.5l0.7-0.5l0.8-0.5l0.9-0.6c0.2-0.1,0.4-0.3,0.8-0.6c0.3-0.2,0.6-0.5,0.8-0.8s0.3-0.6,0.5-0.9
				c0.1-0.3,0.2-0.7,0.2-1.1c0-0.7-0.3-1.4-0.8-1.9c-0.6-0.5-1.3-0.7-2-0.7c-0.9-0.1-1.7,0.3-2.2,1S569,6.5,569,7.4h-1.1V7.1
				c-0.1-1.1,0.3-2.3,1-3.2c0.8-0.8,1.9-1.2,3-1.1c1,0,2.1,0.3,2.8,1s1.1,1.6,1,2.5c0,0.3-0.1,0.7-0.1,1c-0.1,0.3-0.2,0.6-0.3,0.9
				c-0.1,0.3-0.3,0.6-0.6,0.8c-0.3,0.3-0.5,0.5-0.6,0.7c-0.3,0.2-0.5,0.4-0.8,0.6l-0.8,0.5l-0.9,0.5l-1,0.6
				c-0.2,0.1-0.4,0.3-0.8,0.6c-0.3,0.2-0.6,0.5-0.8,0.9c-0.2,0.3-0.3,0.6-0.3,1L575.8,14.5L575.8,14.5z"/>
			<path class="st0" d="M582.2,2.8c2.9,0,4.4,2.2,4.4,6.6s-1.5,6.5-4.4,6.4c-2.9,0-4.4-2.1-4.4-6.3C577.8,5,579.2,2.8,582.2,2.8z
				 M582.2,3.8c-0.5,0-1,0.1-1.5,0.4c-0.4,0.2-0.7,0.6-1,0.9c-0.2,0.4-0.4,0.9-0.5,1.4S579,7.5,579,8c0,0.4,0,0.9,0,1.5
				c0,3.6,1.1,5.3,3.2,5.3c2.2,0,3.2-1.8,3.2-5.5S584.3,3.8,582.2,3.8L582.2,3.8z"/>
			<path class="st0" d="M640.3,3.6c1.1,1.2,2.3,2.3,3.5,3.2s2.5,1.6,4,2V9c-1.4,0.4-2.8,1.1-4,2c-1.3,1-2.5,2-3.5,3.2l1,1
				c0.9-1.4,2-2.6,3.3-3.6s2.7-1.8,4.2-2.4V8.6c-1.5-0.6-2.9-1.4-4.2-2.4s-2.4-2.2-3.3-3.6L640.3,3.6z M605.9,9.4h35.5l6.8-0.4V8.8
				l-6.8-0.4h-35.5V9.4z"/>
			<path class="st0" d="M522.3,3.6c1.1,1.2,2.3,2.3,3.5,3.2s2.6,1.6,4,2V9c-1.4,0.4-2.8,1.1-4,2c-1.3,1-2.5,2-3.5,3.2l1,1
				c0.9-1.3,2.1-2.5,3.3-3.6c1.3-1,2.7-1.8,4.2-2.4V8.6c-1.5-0.6-2.9-1.4-4.2-2.4s-2.4-2.2-3.3-3.6L522.3,3.6z M487.9,9.4h35.5
				l6.8-0.4V8.8l-6.8-0.4h-35.5L487.9,9.4L487.9,9.4z"/>
			<path class="st0" d="M220.3,14.5v1H212c0-0.3,0.1-0.6,0.1-0.9c0-0.3,0.1-0.6,0.3-0.8l0.4-0.7c0.1-0.2,0.3-0.5,0.5-0.6l0.6-0.5
				c0.2-0.2,0.4-0.3,0.7-0.5l0.7-0.5l0.8-0.5l0.9-0.6c0.2-0.1,0.4-0.3,0.8-0.6c0.3-0.2,0.5-0.5,0.8-0.8c0.2-0.3,0.3-0.6,0.5-0.9
				c0.1-0.3,0.2-0.7,0.2-1.1c0-0.7-0.2-1.4-0.8-1.9c-0.5-0.5-1.3-0.7-2-0.7c-0.9-0.1-1.7,0.3-2.2,1s-0.7,1.6-0.7,2.5h-1.2V7.1
				c-0.1-1.2,0.3-2.3,1.1-3.2c0.8-0.8,1.9-1.2,3-1.1c1,0,2.1,0.3,2.8,1s1.1,1.6,1.1,2.5c0,0.3-0.1,0.7-0.2,1
				c-0.1,0.3-0.2,0.6-0.3,0.9c-0.1,0.3-0.3,0.6-0.6,0.8l-0.6,0.7c-0.3,0.2-0.5,0.5-0.8,0.7l-0.8,0.6c-0.1,0.1-0.4,0.3-0.8,0.5
				l-1,0.6c-0.2,0.1-0.4,0.3-0.8,0.6c-0.3,0.2-0.6,0.5-0.8,0.9c-0.2,0.3-0.3,0.6-0.4,1L220.3,14.5L220.3,14.5z"/>
			<path class="st0" d="M226.6,2.8c3,0,4.4,2.2,4.4,6.6s-1.5,6.4-4.4,6.4s-4.4-2.1-4.4-6.3C222.3,5,223.7,2.8,226.6,2.8z M226.6,3.8
				c-0.5,0-1,0.1-1.5,0.4c-0.4,0.2-0.7,0.6-0.9,0.9c-0.2,0.4-0.4,0.9-0.5,1.4s-0.2,1-0.2,1.5c0,0.4,0,0.9,0,1.5
				c0,3.6,1.1,5.3,3.2,5.3c2.2,0,3.2-1.8,3.2-5.5C229.9,5.6,228.8,3.8,226.6,3.8L226.6,3.8z"/>
			<path class="st0" d="M238.2,2.9v12.6H237V6.1h-3.3V5.2c0.4,0,0.8,0,1,0s0.5,0,0.8-0.1c0.2,0,0.5-0.1,0.7-0.2
				c0.2-0.1,0.3-0.3,0.5-0.4c0.2-0.2,0.3-0.4,0.4-0.6c0.1-0.3,0.2-0.6,0.3-0.9L238.2,2.9z"/>
			<path class="st0" d="M247.4,2.8c3,0,4.4,2.2,4.4,6.5s-1.5,6.5-4.4,6.4c-3,0-4.5-2.1-4.5-6.3C242.9,5,244.4,2.8,247.4,2.8z
				 M247.4,3.8c-0.5,0-1,0.1-1.4,0.4c-0.4,0.2-0.7,0.6-0.9,0.9c-0.2,0.4-0.4,0.9-0.5,1.4s-0.2,1-0.2,1.5c0,0.4,0,0.9,0,1.5
				c0,3.6,1.1,5.3,3.2,5.3c2.2,0,3.2-1.8,3.1-5.5C250.6,5.6,249.5,3.8,247.4,3.8L247.4,3.8z"/>
			<path class="st0" d="M305.5,3.6c1.1,1.2,2.3,2.3,3.5,3.2s2.6,1.6,4,2V9c-1.4,0.4-2.8,1.1-4,2c-1.3,1-2.5,2-3.5,3.2l1,1
				c0.9-1.4,2.1-2.6,3.3-3.6c1.3-1,2.7-1.8,4.2-2.4V8.6c-1.5-0.6-2.9-1.4-4.2-2.4c-1.3-1-2.4-2.2-3.3-3.6L305.5,3.6z M271.1,9.4
				h35.5l6.8-0.4V8.8l-6.8-0.4h-35.5V9.4z"/>
			<path class="st0" d="M344.4,6.3h-1.2c0-0.8-0.4-1.6-1-2.2c-0.7-0.5-1.6-0.8-2.6-0.8c-0.8,0-1.7,0.2-2.4,0.6
				c-0.6,0.4-0.9,1.1-0.8,1.8c0,0.2,0,0.5,0.1,0.7c0.1,0.2,0.2,0.4,0.4,0.6c0.1,0.1,0.3,0.3,0.5,0.4s0.5,0.2,0.7,0.3l0.8,0.2l1,0.3
				l1.2,0.3c0.3,0.1,0.6,0.2,1,0.3c0.3,0.1,0.6,0.2,0.9,0.4c0.3,0.1,0.5,0.3,0.7,0.4c0.2,0.2,0.4,0.4,0.6,0.6
				c0.1,0.2,0.3,0.5,0.3,0.8c0.1,0.3,0.1,0.7,0.1,1c0,0.8-0.2,1.6-0.7,2.2c-0.5,0.6-1.1,1-1.8,1.2c-0.8,0.2-1.5,0.4-2.3,0.4
				c-1.4,0.1-2.7-0.3-3.8-1.2c-1-0.8-1.5-2.1-1.4-3.3v-0.1h1.2c-0.1,1,0.3,2,1.1,2.6c0.9,0.6,1.9,0.9,3,0.9c0.9,0.1,1.8-0.2,2.6-0.7
				c0.6-0.4,1-1.2,1-1.9c0.1-0.7-0.3-1.4-0.9-1.7c-1.1-0.5-2.3-0.9-3.5-1.1c-0.5-0.1-0.9-0.2-1.2-0.3c-0.3-0.1-0.7-0.2-1-0.4
				c-0.4-0.1-0.7-0.3-1-0.6c-0.5-0.6-0.8-1.3-0.8-2.1c-0.1-1,0.4-2,1.2-2.6c2-1.3,4.6-1.3,6.6,0.1C344,4.1,344.4,5.2,344.4,6.3z"/>
			<path class="st0" d="M356,2.6v1h-4.5v11.8h-1.2V3.7h-4.5v-1L356,2.6z"/>
			<path class="st0" d="M366.4,2.6v1h-7.7v4.7h7.2v1h-7.2v5.1h7.8v1h-9V2.6H366.4z"/>
			<path class="st0" d="M378.6,2.6v12.9h-1.4l-6-8.6c-0.6-0.9-1.2-1.8-1.7-2.8c0.1,0.9,0.1,1.9,0.1,3.1v8.3h-1.2V2.6h1.4l6,8.7
				c0.6,0.9,1.2,1.8,1.7,2.7c-0.1-1.9-0.1-3-0.1-3.4v-8L378.6,2.6z"/>
			<path class="st0" d="M386.9,2.3c1.7-0.1,3.3,0.6,4.4,1.9c1.2,1.4,1.8,3.1,1.7,4.9c0.1,1.8-0.5,3.5-1.7,4.8
				c-1.1,1.2-2.7,1.9-4.4,1.8c-1.7,0.1-3.3-0.6-4.4-1.9c-1.1-1.4-1.7-3.1-1.6-4.9c-0.1-1.8,0.5-3.5,1.7-4.9
				C383.7,2.9,385.3,2.3,386.9,2.3z M386.9,3.4c-1.3,0-2.6,0.5-3.5,1.5c-0.9,1.2-1.4,2.6-1.3,4.1c-0.1,1.5,0.4,3,1.3,4.1
				c1.7,1.9,4.7,2.1,6.7,0.3c0.1-0.1,0.2-0.2,0.3-0.3c0.9-1.2,1.4-2.6,1.3-4.1c0.1-1.5-0.4-3-1.3-4.1C389.6,3.9,388.3,3.3,386.9,3.4
				z"/>
			<path class="st0" d="M406.3,8.9v6.6h-0.8l-0.2-1.8v-0.6c-0.4,0.8-1,1.5-1.8,2s-1.8,0.7-2.8,0.7c-1.7,0.1-3.3-0.6-4.4-1.8
				c-1.2-1.3-1.8-3-1.7-4.8c-0.1-1.8,0.5-3.6,1.7-4.9c2.1-2.2,5.5-2.5,8-0.8c1,0.8,1.6,1.9,1.8,3.1h-1.2c-0.2-0.9-0.7-1.8-1.4-2.3
				c-2-1.4-4.7-1.1-6.3,0.7c-0.9,1.2-1.4,2.7-1.3,4.2c-0.1,1.5,0.4,2.9,1.3,4.1c0.9,1,2.2,1.6,3.5,1.5c1.1,0,2.1-0.3,2.9-1
				s1.3-1.6,1.5-2.7c0.1-0.4,0.1-0.8,0.1-1.1h-4.4V9L406.3,8.9z"/>
			<path class="st0" d="M408.9,2.6h5.8c1-0.1,2.1,0.2,2.9,0.9c0.8,0.6,1.2,1.6,1.1,2.6c0,0.7-0.2,1.5-0.7,2.1s-1.1,1-1.8,1.2
				c0.7,0.1,1.3,0.4,1.7,0.9c0.4,0.6,0.6,1.3,0.6,2c0,0,0,0.2,0,0.5s0,0.6,0,0.8c0,0.3,0,0.5,0.1,0.8c0,0.3,0.1,0.5,0.2,0.8
				c0.1,0.2,0.2,0.3,0.3,0.5h-1.4c-0.1-0.2-0.2-0.5-0.2-0.7c0-0.3-0.1-0.8-0.1-1.3s0-0.8,0-0.9c0.1-0.9-0.2-1.7-0.8-2.3
				c-0.8-0.5-1.7-0.7-2.6-0.6h-3.8v5.8H409V2.6H408.9z M410.2,3.7v5.1h3.6c0.5,0,0.9,0,1.4-0.1c0.4-0.1,0.8-0.2,1.2-0.4
				c0.4-0.2,0.7-0.4,0.9-0.8c0.2-0.4,0.3-0.9,0.3-1.4c0-1.7-1.1-2.5-3.2-2.5L410.2,3.7z"/>
			<path class="st0" d="M426.4,2.6l5.1,12.9h-1.4l-1.5-4h-5.9l-1.6,4h-1.3L425,2.6C425,2.6,426.4,2.6,426.4,2.6z M428.3,10.4
				l-2.5-6.7l-2.6,6.7H428.3z"/>
			<path class="st0" d="M441.2,2.6v1h-7v4.7h6.2v1h-6.2v6.1H433V2.6H441.2z"/>
			<path class="st0" d="M451.2,2.6v1h-7v4.7h6.2v1h-6.2v6.1H443V2.6H451.2z"/>
			<path class="st0" d="M454.4,2.6v12.9h-1.2V2.6H454.4z"/>
			<path class="st0" d="M462.5,2.6l5.1,12.9h-1.4l-1.5-4h-5.9l-1.6,4h-1.3l5.2-12.9C461.1,2.6,462.5,2.6,462.5,2.6z M464.3,10.4
				l-2.5-6.7l-2.6,6.7H464.3z"/>
		</g>
	</g>
	<path class="st0" d="M187.4,3.7c1.1,1.2,2.3,2.3,3.5,3.2s2.6,1.6,4,2v0.2c-1.4,0.4-2.8,1.1-4,2c-1.3,1-2.5,2-3.5,3.2l1,1
		c0.9-1.3,2.1-2.5,3.3-3.6c1.3-1,2.7-1.8,4.2-2.4V8.7c-1.5-0.6-2.9-1.4-4.2-2.4s-2.4-2.2-3.3-3.6L187.4,3.7z M153,9.4h35.5l6.8-0.4
		V8.8l-6.8-0.4H153V9.4z"/>
	<path class="st0" d="M9.6,6.3H8.4c0-0.8-0.4-1.6-1-2.2C6.7,3.6,5.8,3.4,4.8,3.4C4,3.4,3.2,3.6,2.5,4.1c-0.6,0.4-0.9,1-0.9,1.7
		c0,0.2,0,0.5,0.1,0.7s0.2,0.4,0.4,0.6c0.1,0.2,0.3,0.3,0.5,0.4c0.2,0.1,0.5,0.2,0.7,0.3L4.1,8l1,0.3l1.2,0.3c0.3,0.1,0.6,0.2,1,0.3
		C7.6,9,7.9,9.1,8.2,9.3c0.3,0.1,0.5,0.3,0.7,0.4c0.3,0.2,0.5,0.4,0.6,0.6s0.3,0.5,0.3,0.8c0.1,0.3,0.1,0.7,0.1,1
		c0,0.8-0.2,1.6-0.7,2.2c-0.5,0.6-1.1,1-1.8,1.2c-0.8,0.2-1.5,0.4-2.3,0.4c-1.4,0.1-2.7-0.3-3.8-1.2c-0.9-0.9-1.4-2.1-1.3-3.4l0,0
		h1.2c-0.1,1,0.3,2,1.1,2.6c0.9,0.6,1.9,0.9,3,0.9c0.9,0.1,1.8-0.2,2.6-0.7c0.6-0.4,1-1.2,1-1.9c0-0.8-0.3-1.4-0.9-1.8
		C6.8,9.9,5.7,9.6,4.5,9.3c-0.6-0.1-1-0.2-1.2-0.2C3,9,2.6,8.9,2.3,8.7c-0.4-0.2-0.7-0.4-1-0.6C0.7,7.5,0.4,6.7,0.4,6
		C0.3,5,0.8,4,1.6,3.4c2-1.3,4.6-1.3,6.6,0.1C9.1,4.1,9.6,5.2,9.6,6.3z"/>
	<path class="st0" d="M21.2,2.7v1h-4.5v11.8h-1.2V3.7H11v-1H21.2z"/>
	<path class="st0" d="M31.6,2.7v1h-7.7v4.6h7.2v1h-7.2v5.1h7.8v1h-9V2.7H31.6z"/>
	<path class="st0" d="M43.8,2.7v12.9h-1.4l-6-8.6c-0.6-0.9-1.2-1.8-1.7-2.8c0.1,0.9,0.1,1.9,0.1,3.1v8.3h-1.2V2.7H35l6,8.7
		c0.6,0.9,1.2,1.8,1.7,2.7c-0.1-1.9-0.1-3-0.1-3.4v-8L43.8,2.7z"/>
	<path class="st0" d="M52.1,2.3c1.7-0.1,3.3,0.6,4.4,1.9c1.2,1.4,1.8,3.1,1.7,4.9c0.1,1.8-0.5,3.5-1.7,4.8c-1.1,1.2-2.7,1.9-4.4,1.8
		c-1.7,0.1-3.3-0.6-4.4-1.9c-1.1-1.4-1.7-3.1-1.6-4.9c-0.1-1.6,0.5-3.3,1.7-4.7C48.9,3,50.5,2.3,52.1,2.3z M52.1,3.4
		c-1.3,0-2.6,0.5-3.5,1.5c-0.9,1.2-1.4,2.6-1.3,4.1c-0.1,1.5,0.4,3,1.3,4.1c1.7,1.9,4.7,2.1,6.7,0.3c0.1-0.1,0.2-0.2,0.3-0.3
		c0.9-1.2,1.4-2.6,1.3-4.1c0.1-1.5-0.4-3-1.3-4.1C54.7,3.9,53.4,3.4,52.1,3.4z"/>
	<path class="st0" d="M71.5,9v6.6h-0.8l-0.2-1.8v-0.6c-0.4,0.8-1,1.5-1.8,2s-1.8,0.7-2.8,0.7c-1.7,0.1-3.3-0.6-4.4-1.8
		c-1.2-1.3-1.8-3-1.7-4.8c-0.1-1.8,0.5-3.6,1.7-4.9c2.1-2.2,5.5-2.5,8-0.8c1,0.8,1.6,1.9,1.8,3.1h-1.2c-0.2-0.9-0.7-1.8-1.4-2.3
		c-2-1.4-4.7-1.1-6.3,0.7c-1,1.1-1.4,2.6-1.4,4.1s0.4,2.9,1.4,4.1c0.9,1,2.2,1.6,3.6,1.5c1.1,0,2.1-0.3,2.9-1s1.3-1.6,1.5-2.7
		c0.1-0.4,0.1-0.8,0.1-1.1H66V9H71.5z"/>
	<path class="st0" d="M74.1,2.7h5.8c1-0.1,2.1,0.2,2.9,0.9c0.8,0.6,1.2,1.6,1.1,2.6c0,0.7-0.2,1.5-0.7,2.1c-0.5,0.6-1.1,1-1.8,1.2
		c0.7,0.1,1.3,0.4,1.7,0.9c0.4,0.6,0.6,1.3,0.6,2c0,0,0,0.2,0,0.5s0,0.6,0,0.8c0,0.3,0,0.5,0.1,0.8c0,0.3,0.1,0.5,0.2,0.8
		c0.1,0.2,0.2,0.3,0.3,0.5h-1.4c-0.1-0.2-0.2-0.5-0.2-0.7c-0.1-0.3-0.1-0.8-0.1-1.3s0-0.8,0-0.9c0.1-0.9-0.2-1.7-0.8-2.3
		c-0.8-0.5-1.7-0.7-2.6-0.6h-3.8v5.8h-1.2L74.1,2.7L74.1,2.7z M75.3,3.7v5.1H79c0.5,0,0.9,0,1.4-0.1c0.4-0.1,0.8-0.2,1.2-0.4
		c0.4-0.2,0.7-0.4,0.9-0.8c0.2-0.4,0.3-0.9,0.3-1.4c0-1.7-1.1-2.5-3.2-2.5L75.3,3.7z"/>
	<path class="st0" d="M91.6,2.6l5.1,12.9h-1.4l-1.6-4h-5.9l-1.6,4H85l5.2-12.9C90.2,2.6,91.6,2.6,91.6,2.6z M93.4,10.5l-2.5-6.7
		l-2.6,6.7H93.4z"/>
	<path class="st0" d="M106.4,2.7v1h-7v4.6h6.2v1h-6.2v6.1h-1.2V2.7H106.4z"/>
	<path class="st0" d="M116.4,2.7v1h-7v4.6h6.2v1h-6.2v6.1h-1.2V2.7H116.4z"/>
	<path class="st0" d="M119.5,2.7v12.9h-1.2V2.7H119.5z"/>
	<path class="st0" d="M127.6,2.6l5.1,12.9h-1.4l-1.6-4H124l-1.6,4h-1.3l5.2-12.9C126.3,2.6,127.6,2.6,127.6,2.6z M129.5,10.5
		L127,3.8l-2.6,6.7H129.5z"/>
</g>
</svg>
