<?xml version="1.0" encoding="utf-8"?>
<!-- Generator: Adobe Illustrator 23.0.2, SVG Export Plug-In . SVG Version: 6.00 Build 0)  -->
<svg version="1.1" xmlns="http://www.w3.org/2000/svg" xmlns:xlink="http://www.w3.org/1999/xlink" x="0px" y="0px"
	 viewBox="0 0 669.5 13.5" style="enable-background:new 0 0 669.5 13.5;" xml:space="preserve">
<style type="text/css">
	.st0{fill:#FFFFFF;}
</style>
<g id="Слой_2">
</g>
<g id="Слой_1">
	<title>Ресурс 20</title>
	<g>
		<g id="содержание">
			<path class="st0" d="M555.1,12.2v1h-8.3c0-0.3,0.1-0.6,0.1-0.9c0-0.3,0.1-0.6,0.3-0.8l0.4-0.7c0.1-0.2,0.3-0.5,0.5-0.6l0.5-0.5
				c0.2-0.2,0.4-0.4,0.7-0.5l0.7-0.5l0.8-0.5l0.9-0.6c0.2-0.1,0.4-0.3,0.8-0.6c0.3-0.2,0.6-0.5,0.8-0.8c0.2-0.3,0.3-0.6,0.5-0.9
				c0.1-0.3,0.2-0.7,0.2-1.1c0-0.7-0.2-1.4-0.8-1.9c-0.5-0.5-1.3-0.7-2-0.7c-0.9-0.1-1.7,0.3-2.2,1c-0.5,0.7-0.7,1.6-0.7,2.5H547
				V4.8c-0.1-1.2,0.3-2.3,1.1-3.2c0.8-0.8,1.9-1.2,3-1.1c1,0,2.1,0.3,2.8,1C554.7,2.1,555,3,555,4c0,0.3-0.1,0.7-0.2,1
				c-0.1,0.3-0.2,0.6-0.3,0.9c-0.1,0.3-0.3,0.6-0.6,0.8l-0.6,0.7c-0.3,0.2-0.5,0.4-0.8,0.6l-0.8,0.5c-0.1,0.1-0.4,0.3-0.8,0.5
				l-1,0.6c-0.2,0.1-0.4,0.3-0.8,0.6c-0.3,0.2-0.6,0.5-0.8,0.9c-0.2,0.3-0.3,0.6-0.3,1L555.1,12.2L555.1,12.2z"/>
			<path class="st0" d="M561.4,0.5c3,0,4.4,2.2,4.4,6.6s-1.5,6.4-4.4,6.4s-4.4-2.1-4.4-6.3C557,2.7,558.5,0.5,561.4,0.5z M561.4,1.5
				c-0.5,0-1,0.1-1.5,0.4c-0.4,0.2-0.7,0.6-1,0.9c-0.2,0.4-0.4,0.9-0.5,1.4c-0.1,0.5-0.2,1-0.2,1.5c0,0.4,0,0.9,0,1.5
				c0,3.6,1.1,5.3,3.2,5.3c2.2,0,3.2-1.8,3.2-5.5S563.6,1.5,561.4,1.5L561.4,1.5z"/>
			<path class="st0" d="M575.8,12.2v1h-8.3c0-0.3,0.1-0.7,0.1-0.9c0.1-0.3,0.2-0.6,0.3-0.8l0.4-0.7c0.1-0.2,0.3-0.5,0.5-0.6l0.5-0.5
				c0.2-0.2,0.4-0.3,0.7-0.5l0.7-0.5l0.8-0.5l0.9-0.6c0.2-0.1,0.4-0.3,0.8-0.6c0.3-0.2,0.6-0.5,0.8-0.8c0.2-0.3,0.3-0.6,0.5-0.9
				c0.1-0.3,0.2-0.7,0.2-1.1c0-0.7-0.3-1.4-0.8-1.9c-0.6-0.5-1.3-0.7-2-0.7c-0.9-0.1-1.7,0.3-2.2,1c-0.5,0.7-0.7,1.6-0.7,2.5h-1.1
				V4.8c-0.1-1.1,0.3-2.3,1-3.2c0.8-0.8,1.9-1.2,3-1.1c1,0,2.1,0.3,2.8,1c0.7,0.7,1.1,1.6,1,2.5c0,0.3-0.1,0.7-0.1,1
				c-0.1,0.3-0.2,0.6-0.3,0.9c-0.1,0.3-0.3,0.6-0.6,0.8c-0.3,0.3-0.5,0.5-0.6,0.7c-0.3,0.2-0.5,0.4-0.8,0.6l-0.8,0.5L571.6,9l-1,0.6
				c-0.2,0.1-0.4,0.3-0.8,0.6c-0.3,0.2-0.6,0.5-0.8,0.9c-0.2,0.3-0.3,0.6-0.3,1L575.8,12.2L575.8,12.2z"/>
			<path class="st0" d="M582.2,0.5c2.9,0,4.4,2.2,4.4,6.6s-1.5,6.5-4.4,6.4c-2.9,0-4.4-2.1-4.4-6.3C577.8,2.7,579.2,0.5,582.2,0.5z
				 M582.2,1.5c-0.5,0-1,0.1-1.5,0.4c-0.4,0.2-0.7,0.6-1,0.9c-0.2,0.4-0.4,0.9-0.5,1.4c-0.1,0.5-0.2,1-0.2,1.5c0,0.4,0,0.9,0,1.5
				c0,3.6,1.1,5.3,3.2,5.3c2.2,0,3.2-1.8,3.2-5.5C585.4,3.3,584.3,1.5,582.2,1.5L582.2,1.5z"/>
			<path class="st0" d="M640.3,1.3c1.1,1.2,2.3,2.3,3.5,3.2c1.2,0.9,2.5,1.6,4,2v0.2c-1.4,0.4-2.8,1.1-4,2c-1.3,1-2.5,2-3.5,3.2l1,1
				c0.9-1.4,2-2.6,3.3-3.6c1.3-1,2.7-1.8,4.2-2.4V6.3c-1.5-0.6-2.9-1.4-4.2-2.4c-1.3-1-2.4-2.2-3.3-3.6L640.3,1.3z M605.9,7.1h35.5
				l6.8-0.4V6.5l-6.8-0.4h-35.5V7.1z"/>
			<path class="st0" d="M522.3,1.3c1.1,1.2,2.3,2.3,3.5,3.2c1.2,0.9,2.6,1.6,4,2v0.2c-1.4,0.4-2.8,1.1-4,2c-1.3,1-2.5,2-3.5,3.2l1,1
				c0.9-1.3,2.1-2.5,3.3-3.6c1.3-1,2.7-1.8,4.2-2.4V6.3c-1.5-0.6-2.9-1.4-4.2-2.4c-1.3-1-2.4-2.2-3.3-3.6L522.3,1.3z M487.9,7.1
				h35.5l6.8-0.4V6.5l-6.8-0.4h-35.5V7.1z"/>
			<path class="st0" d="M220.3,12.2v1h-8.3c0-0.3,0.1-0.6,0.1-0.9c0-0.3,0.1-0.6,0.3-0.8l0.4-0.7c0.1-0.2,0.3-0.5,0.5-0.6l0.6-0.5
				c0.2-0.2,0.4-0.3,0.7-0.5l0.7-0.5l0.8-0.5l0.9-0.6c0.2-0.1,0.4-0.3,0.8-0.6c0.3-0.2,0.5-0.5,0.8-0.8c0.2-0.3,0.3-0.6,0.5-0.9
				c0.1-0.3,0.2-0.7,0.2-1.1c0-0.7-0.2-1.4-0.8-1.9c-0.5-0.5-1.3-0.7-2-0.7c-0.9-0.1-1.7,0.3-2.2,1c-0.5,0.7-0.7,1.6-0.7,2.5h-1.2
				V4.8c-0.1-1.2,0.3-2.3,1.1-3.2c0.8-0.8,1.9-1.2,3-1.1c1,0,2.1,0.3,2.8,1c0.7,0.7,1.1,1.6,1.1,2.5c0,0.3-0.1,0.7-0.2,1
				c-0.1,0.3-0.2,0.6-0.3,0.9c-0.1,0.3-0.3,0.6-0.6,0.8l-0.6,0.7c-0.3,0.2-0.5,0.5-0.8,0.7l-0.8,0.6c-0.1,0.1-0.4,0.3-0.8,0.5
				l-1,0.6c-0.2,0.1-0.4,0.3-0.8,0.6c-0.3,0.2-0.6,0.5-0.8,0.9c-0.2,0.3-0.3,0.6-0.4,1L220.3,12.2L220.3,12.2z"/>
			<path class="st0" d="M226.6,0.5c3,0,4.4,2.2,4.4,6.6s-1.5,6.4-4.4,6.4c-2.9,0-4.4-2.1-4.4-6.3C222.3,2.7,223.7,0.5,226.6,0.5z
				 M226.6,1.5c-0.5,0-1,0.1-1.5,0.4c-0.4,0.2-0.7,0.6-0.9,0.9c-0.2,0.4-0.4,0.9-0.5,1.4c-0.1,0.5-0.2,1-0.2,1.5c0,0.4,0,0.9,0,1.5
				c0,3.6,1.1,5.3,3.2,5.3c2.2,0,3.2-1.8,3.2-5.5C229.9,3.3,228.8,1.5,226.6,1.5L226.6,1.5z"/>
			<path class="st0" d="M238.2,0.6v12.6H237V3.8h-3.3V2.9c0.4,0,0.8,0,1,0c0.2,0,0.5,0,0.8-0.1c0.2,0,0.5-0.1,0.7-0.2
				c0.2-0.1,0.3-0.3,0.5-0.4c0.2-0.2,0.3-0.4,0.4-0.6c0.1-0.3,0.2-0.6,0.3-0.9L238.2,0.6z"/>
			<path class="st0" d="M247.4,0.5c3,0,4.4,2.2,4.4,6.5s-1.5,6.5-4.4,6.4c-3,0-4.5-2.1-4.5-6.3C242.9,2.7,244.4,0.5,247.4,0.5z
				 M247.4,1.5c-0.5,0-1,0.1-1.4,0.4c-0.4,0.2-0.7,0.6-0.9,0.9c-0.2,0.4-0.4,0.9-0.5,1.4c-0.1,0.5-0.2,1-0.2,1.5c0,0.4,0,0.9,0,1.5
				c0,3.6,1.1,5.3,3.2,5.3c2.2,0,3.2-1.8,3.1-5.5C250.6,3.3,249.5,1.5,247.4,1.5L247.4,1.5z"/>
			<path class="st0" d="M305.5,1.3c1.1,1.2,2.3,2.3,3.5,3.2c1.2,0.9,2.6,1.6,4,2v0.2c-1.4,0.4-2.8,1.1-4,2c-1.3,1-2.5,2-3.5,3.2l1,1
				c0.9-1.4,2.1-2.6,3.3-3.6c1.3-1,2.7-1.8,4.2-2.4V6.3c-1.5-0.6-2.9-1.4-4.2-2.4c-1.3-1-2.4-2.2-3.3-3.6L305.5,1.3z M271.1,7.1
				h35.5l6.8-0.4V6.5l-6.8-0.4h-35.5V7.1z"/>
			<path class="st0" d="M344.4,4h-1.2c0-0.8-0.4-1.6-1-2.2c-0.7-0.5-1.6-0.8-2.6-0.8c-0.8,0-1.7,0.2-2.4,0.6
				c-0.6,0.4-0.9,1.1-0.8,1.8c0,0.2,0,0.5,0.1,0.7c0.1,0.2,0.2,0.4,0.4,0.6c0.1,0.1,0.3,0.3,0.5,0.4c0.2,0.1,0.5,0.2,0.7,0.3
				l0.8,0.2l1,0.3l1.2,0.3c0.3,0.1,0.6,0.2,1,0.3c0.3,0.1,0.6,0.2,0.9,0.4c0.3,0.1,0.5,0.3,0.7,0.4c0.2,0.2,0.4,0.4,0.6,0.6
				c0.1,0.2,0.3,0.5,0.3,0.8c0.1,0.3,0.1,0.7,0.1,1c0,0.8-0.2,1.6-0.7,2.2c-0.5,0.6-1.1,1-1.8,1.2c-0.8,0.2-1.5,0.4-2.3,0.4
				c-1.4,0.1-2.7-0.3-3.8-1.2c-1-0.8-1.5-2.1-1.4-3.3V8.9h1.2c-0.1,1,0.3,2,1.1,2.6c0.9,0.6,1.9,0.9,3,0.9c0.9,0.1,1.8-0.2,2.6-0.7
				c0.6-0.4,1-1.2,1-1.9c0.1-0.7-0.3-1.4-0.9-1.7c-1.1-0.5-2.3-0.9-3.5-1.1c-0.5-0.1-0.9-0.2-1.2-0.3c-0.3-0.1-0.7-0.2-1-0.4
				c-0.4-0.1-0.7-0.3-1-0.6c-0.5-0.6-0.8-1.3-0.8-2.1c-0.1-1,0.4-2,1.2-2.6c2-1.3,4.6-1.3,6.6,0.1C344,1.8,344.4,2.9,344.4,4z"/>
			<path class="st0" d="M356,0.3v1h-4.5v11.8h-1.2V1.4h-4.5v-1L356,0.3z"/>
			<path class="st0" d="M366.4,0.3v1h-7.7V6h7.2v1h-7.2v5.1h7.8v1h-9V0.3H366.4z"/>
			<path class="st0" d="M378.6,0.3v12.9h-1.4l-6-8.6c-0.6-0.9-1.2-1.8-1.7-2.8c0.1,0.9,0.1,1.9,0.1,3.1v8.3h-1.2V0.3h1.4l6,8.7
				c0.6,0.9,1.2,1.8,1.7,2.7c-0.1-1.9-0.1-3-0.1-3.4v-8L378.6,0.3z"/>
			<path class="st0" d="M386.9,0c1.7-0.1,3.3,0.6,4.4,1.9c1.2,1.4,1.8,3.1,1.7,4.9c0.1,1.8-0.5,3.5-1.7,4.8
				c-1.1,1.2-2.7,1.9-4.4,1.8c-1.7,0.1-3.3-0.6-4.4-1.9c-1.1-1.4-1.7-3.1-1.6-4.9c-0.1-1.8,0.5-3.5,1.7-4.9
				C383.7,0.6,385.3,0,386.9,0z M386.9,1.1c-1.3,0-2.6,0.5-3.5,1.5c-0.9,1.2-1.4,2.6-1.3,4.1c-0.1,1.5,0.4,3,1.3,4.1
				c1.7,1.9,4.7,2.1,6.7,0.3c0.1-0.1,0.2-0.2,0.3-0.3c0.9-1.2,1.4-2.6,1.3-4.1c0.1-1.5-0.4-3-1.3-4.1C389.6,1.6,388.3,1,386.9,1.1z"
				/>
			<path class="st0" d="M406.3,6.6v6.6h-0.8l-0.2-1.8v-0.6c-0.4,0.8-1,1.5-1.8,2c-0.8,0.5-1.8,0.7-2.8,0.7c-1.7,0.1-3.3-0.6-4.4-1.8
				c-1.2-1.3-1.8-3-1.7-4.8c-0.1-1.8,0.5-3.6,1.7-4.9c2.1-2.2,5.5-2.5,8-0.8c1,0.8,1.6,1.9,1.8,3.1h-1.2c-0.2-0.9-0.7-1.8-1.4-2.3
				c-2-1.4-4.7-1.1-6.3,0.7c-0.9,1.2-1.4,2.7-1.3,4.2c-0.1,1.5,0.4,2.9,1.3,4.1c0.9,1,2.2,1.6,3.5,1.5c1.1,0,2.1-0.3,2.9-1
				c0.8-0.7,1.3-1.6,1.5-2.7c0.1-0.4,0.1-0.8,0.1-1.1h-4.4v-1L406.3,6.6z"/>
			<path class="st0" d="M408.9,0.3h5.8c1-0.1,2.1,0.2,2.9,0.9c0.8,0.6,1.2,1.6,1.1,2.6c0,0.7-0.2,1.5-0.7,2.1
				c-0.5,0.6-1.1,1-1.8,1.2c0.7,0.1,1.3,0.4,1.7,0.9c0.4,0.6,0.6,1.3,0.6,2c0,0,0,0.2,0,0.5s0,0.6,0,0.8c0,0.3,0,0.5,0.1,0.8
				c0,0.3,0.1,0.5,0.2,0.8c0.1,0.2,0.2,0.3,0.3,0.5h-1.4c-0.1-0.2-0.2-0.5-0.2-0.7c0-0.3-0.1-0.8-0.1-1.3s0-0.8,0-0.9
				c0.1-0.9-0.2-1.7-0.8-2.3c-0.8-0.5-1.7-0.7-2.6-0.6h-3.8v5.8h-1.2V0.3z M410.2,1.4v5.1h3.6c0.5,0,0.9,0,1.4-0.1
				c0.4-0.1,0.8-0.2,1.2-0.4c0.4-0.2,0.7-0.4,0.9-0.8c0.2-0.4,0.3-0.9,0.3-1.4c0-1.7-1.1-2.5-3.2-2.5L410.2,1.4z"/>
			<path class="st0" d="M426.4,0.3l5.1,12.9h-1.4l-1.5-4h-5.9l-1.6,4h-1.3l5.2-12.9H426.4z M428.3,8.1l-2.5-6.7l-2.6,6.7H428.3z"/>
			<path class="st0" d="M441.2,0.3v1h-7V6h6.2v1h-6.2v6.1H433V0.3H441.2z"/>
			<path class="st0" d="M451.2,0.3v1h-7V6h6.2v1h-6.2v6.1H443V0.3H451.2z"/>
			<path class="st0" d="M454.4,0.3v12.9h-1.2V0.3H454.4z"/>
			<path class="st0" d="M462.5,0.3l5.1,12.9h-1.4l-1.5-4h-5.9l-1.6,4h-1.3l5.2-12.9H462.5z M464.3,8.1l-2.5-6.7l-2.6,6.7H464.3z"/>
		</g>
	</g>
	<path class="st0" d="M187.4,1.4c1.1,1.2,2.3,2.3,3.5,3.2c1.2,0.9,2.6,1.6,4,2v0.2c-1.4,0.4-2.8,1.1-4,2c-1.3,1-2.5,2-3.5,3.2l1,1
		c0.9-1.3,2.1-2.5,3.3-3.6c1.3-1,2.7-1.8,4.2-2.4V6.4c-1.5-0.6-2.9-1.4-4.2-2.4c-1.3-1-2.4-2.2-3.3-3.6L187.4,1.4z M153,7.1h35.5
		l6.8-0.4V6.5l-6.8-0.4H153V7.1z"/>
	<path class="st0" d="M9.6,4H8.4c0-0.8-0.4-1.6-1-2.2C6.7,1.3,5.8,1.1,4.8,1.1C4,1.1,3.2,1.3,2.5,1.8C1.9,2.2,1.6,2.8,1.6,3.5
		c0,0.2,0,0.5,0.1,0.7c0.1,0.2,0.2,0.4,0.4,0.6C2.2,5,2.4,5.1,2.6,5.2c0.2,0.1,0.5,0.2,0.7,0.3l0.8,0.2l1,0.3l1.2,0.3
		c0.3,0.1,0.6,0.2,1,0.3C7.6,6.7,7.9,6.8,8.2,7c0.3,0.1,0.5,0.3,0.7,0.4C9.2,7.6,9.4,7.8,9.5,8c0.1,0.2,0.3,0.5,0.3,0.8
		c0.1,0.3,0.1,0.7,0.1,1c0,0.8-0.2,1.6-0.7,2.2c-0.5,0.6-1.1,1-1.8,1.2c-0.8,0.2-1.5,0.4-2.3,0.4c-1.4,0.1-2.7-0.3-3.8-1.2
		C0.4,11.5-0.1,10.3,0,9V9h1.2c-0.1,1,0.3,2,1.1,2.6c0.9,0.6,1.9,0.9,3,0.9c0.9,0.1,1.8-0.2,2.6-0.7c0.6-0.4,1-1.2,1-1.9
		C8.9,9.1,8.6,8.5,8,8.1C6.8,7.6,5.7,7.3,4.5,7C3.9,6.9,3.5,6.8,3.3,6.8c-0.3-0.1-0.7-0.2-1-0.4C1.9,6.2,1.6,6,1.3,5.8
		C0.7,5.2,0.4,4.4,0.4,3.7c-0.1-1,0.4-2,1.2-2.6c2-1.3,4.6-1.3,6.6,0.1C9.1,1.8,9.6,2.9,9.6,4z"/>
	<path class="st0" d="M21.2,0.4v1h-4.5v11.8h-1.2V1.4h-4.5v-1L21.2,0.4z"/>
	<path class="st0" d="M31.6,0.4v1h-7.7V6h7.2v1h-7.2v5.1h7.8v1h-9V0.4H31.6z"/>
	<path class="st0" d="M43.8,0.4v12.9h-1.4l-6-8.6c-0.6-0.9-1.2-1.8-1.7-2.8c0.1,0.9,0.1,1.9,0.1,3.1v8.3h-1.2V0.4H35l6,8.7
		c0.6,0.9,1.2,1.8,1.7,2.7c-0.1-1.9-0.1-3-0.1-3.4v-8L43.8,0.4z"/>
	<path class="st0" d="M52.1,0c1.7-0.1,3.3,0.6,4.4,1.9c1.2,1.4,1.8,3.1,1.7,4.9c0.1,1.8-0.5,3.5-1.7,4.8c-1.1,1.2-2.7,1.9-4.4,1.8
		c-1.7,0.1-3.3-0.6-4.4-1.9c-1.1-1.4-1.7-3.1-1.6-4.9C46,5,46.6,3.3,47.8,1.9C48.9,0.7,50.5,0,52.1,0z M52.1,1.1
		c-1.3,0-2.6,0.5-3.5,1.5c-0.9,1.2-1.4,2.6-1.3,4.1c-0.1,1.5,0.4,3,1.3,4.1c1.7,1.9,4.7,2.1,6.7,0.3c0.1-0.1,0.2-0.2,0.3-0.3
		c0.9-1.2,1.4-2.6,1.3-4.1c0.1-1.5-0.4-3-1.3-4.1C54.7,1.6,53.4,1.1,52.1,1.1z"/>
	<path class="st0" d="M71.5,6.7v6.6h-0.8l-0.2-1.8v-0.6c-0.4,0.8-1,1.5-1.8,2c-0.8,0.5-1.8,0.7-2.8,0.7c-1.7,0.1-3.3-0.6-4.4-1.8
		c-1.2-1.3-1.8-3-1.7-4.8c-0.1-1.8,0.5-3.6,1.7-4.9c2.1-2.2,5.5-2.5,8-0.8c1,0.8,1.6,1.9,1.8,3.1h-1.2c-0.2-0.9-0.7-1.8-1.4-2.3
		c-2-1.4-4.7-1.1-6.3,0.7C61.4,3.9,61,5.4,61,6.9C61,8.4,61.4,9.8,62.4,11c0.9,1,2.2,1.6,3.6,1.5c1.1,0,2.1-0.3,2.9-1
		c0.8-0.7,1.3-1.6,1.5-2.7c0.1-0.4,0.1-0.8,0.1-1.1H66v-1L71.5,6.7z"/>
	<path class="st0" d="M74.1,0.4h5.8c1-0.1,2.1,0.2,2.9,0.9c0.8,0.6,1.2,1.6,1.1,2.6c0,0.7-0.2,1.5-0.7,2.1c-0.5,0.6-1.1,1-1.8,1.2
		c0.7,0.1,1.3,0.4,1.7,0.9c0.4,0.6,0.6,1.3,0.6,2c0,0,0,0.2,0,0.5s0,0.6,0,0.8c0,0.3,0,0.5,0.1,0.8c0,0.3,0.1,0.5,0.2,0.8
		c0.1,0.2,0.2,0.3,0.3,0.5h-1.4c-0.1-0.2-0.2-0.5-0.2-0.7c-0.1-0.3-0.1-0.8-0.1-1.3s0-0.8,0-0.9c0.1-0.9-0.2-1.7-0.8-2.3
		c-0.8-0.5-1.7-0.7-2.6-0.6h-3.8v5.8h-1.2V0.4z M75.3,1.4v5.1H79c0.5,0,0.9,0,1.4-0.1c0.4-0.1,0.8-0.2,1.2-0.4
		c0.4-0.2,0.7-0.4,0.9-0.8c0.2-0.4,0.3-0.9,0.3-1.4c0-1.7-1.1-2.5-3.2-2.5L75.3,1.4z"/>
	<path class="st0" d="M91.6,0.3l5.1,12.9h-1.4l-1.6-4h-5.9l-1.6,4H85l5.2-12.9H91.6z M93.4,8.2l-2.5-6.7l-2.6,6.7H93.4z"/>
	<path class="st0" d="M106.4,0.4v1h-7V6h6.2v1h-6.2v6.1h-1.2V0.4H106.4z"/>
	<path class="st0" d="M116.4,0.4v1h-7V6h6.2v1h-6.2v6.1h-1.2V0.4H116.4z"/>
	<path class="st0" d="M119.5,0.4v12.9h-1.2V0.4H119.5z"/>
	<path class="st0" d="M127.6,0.3l5.1,12.9h-1.4l-1.6-4H124l-1.6,4h-1.3l5.2-12.9H127.6z M129.5,8.2l-2.5-6.7l-2.6,6.7H129.5z"/>
</g>
</svg>
