<?xml version="1.0" encoding="utf-8"?>
<!-- Generator: Adobe Illustrator 23.0.2, SVG Export Plug-In . SVG Version: 6.00 Build 0)  -->
<svg version="1.1" xmlns="http://www.w3.org/2000/svg" xmlns:xlink="http://www.w3.org/1999/xlink" x="0px" y="0px"
	 viewBox="0 0 354.4 19.2" style="enable-background:new 0 0 354.4 19.2;" xml:space="preserve">
<style type="text/css">
	.st0{enable-background:new    ;}
	.st1{fill:#FFFFFF;}
	.st2{fill:#FFFFFF;stroke:#FFFFFF;stroke-width:5.000000e-02;stroke-miterlimit:10;}
</style>
<g id="Слой_2">
</g>
<g id="Слой_1">
	<title>Ресурс 19</title>
	<g class="st0">
		<path class="st1" d="M250.2,14.3v1h-8.3c0-0.3,0.1-0.7,0.1-0.9c0.1-0.3,0.2-0.6,0.3-0.8s0.3-0.5,0.4-0.7c0.1-0.2,0.3-0.4,0.5-0.7
			c0.2-0.2,0.4-0.4,0.6-0.5s0.3-0.3,0.7-0.5c0.3-0.2,0.6-0.4,0.7-0.5c0.1-0.1,0.4-0.2,0.8-0.5c0.4-0.3,0.7-0.5,0.9-0.6
			c0.2-0.1,0.4-0.3,0.8-0.6s0.6-0.6,0.8-0.8c0.2-0.2,0.3-0.5,0.5-0.9s0.2-0.7,0.2-1.1c0-0.8-0.3-1.4-0.8-1.9c-0.5-0.5-1.2-0.7-2-0.7
			c-1,0-1.8,0.3-2.2,1c-0.5,0.6-0.7,1.5-0.7,2.5h-1.1V6.9c0-1.3,0.4-2.4,1.1-3.2c0.7-0.8,1.7-1.1,3-1.1c1.2,0,2.1,0.3,2.8,1
			c0.7,0.7,1.1,1.5,1.1,2.6c0,0.3-0.1,0.7-0.2,1c-0.1,0.3-0.2,0.6-0.3,0.9c-0.1,0.2-0.3,0.5-0.6,0.8c-0.3,0.3-0.5,0.5-0.6,0.7
			c-0.2,0.2-0.4,0.4-0.8,0.6c-0.4,0.3-0.6,0.4-0.8,0.5c-0.1,0.1-0.4,0.3-0.8,0.5c-0.5,0.3-0.8,0.5-1,0.6c-0.2,0.1-0.4,0.3-0.8,0.6
			c-0.4,0.3-0.6,0.6-0.8,0.9c-0.2,0.3-0.3,0.6-0.3,1c0,0,0.1,0,0.2,0c0.1,0,0.1,0,0.1,0H250.2z"/>
		<path class="st1" d="M256.6,2.6c3,0,4.4,2.2,4.4,6.6c0,4.3-1.5,6.4-4.4,6.4c-2.9,0-4.4-2.1-4.4-6.3C252.2,4.9,253.7,2.6,256.6,2.6
			z M256.6,3.7c-0.6,0-1.1,0.1-1.5,0.4c-0.4,0.3-0.7,0.6-0.9,0.9c-0.2,0.4-0.4,0.8-0.5,1.4c-0.1,0.6-0.2,1-0.2,1.5
			c0,0.4,0,0.9,0,1.5c0,3.6,1.1,5.3,3.2,5.3c2.1,0,3.2-1.8,3.2-5.5C259.8,5.5,258.7,3.7,256.6,3.7z"/>
		<path class="st1" d="M271,14.3v1h-8.3c0-0.3,0.1-0.7,0.1-0.9c0.1-0.3,0.2-0.6,0.3-0.8s0.3-0.5,0.4-0.7c0.1-0.2,0.3-0.4,0.5-0.7
			c0.2-0.2,0.4-0.4,0.6-0.5s0.3-0.3,0.7-0.5c0.3-0.2,0.6-0.4,0.7-0.5c0.1-0.1,0.4-0.2,0.8-0.5c0.4-0.3,0.7-0.5,0.9-0.6
			c0.2-0.1,0.4-0.3,0.8-0.6s0.6-0.6,0.8-0.8c0.2-0.2,0.3-0.5,0.5-0.9s0.2-0.7,0.2-1.1c0-0.8-0.3-1.4-0.8-1.9c-0.5-0.5-1.2-0.7-2-0.7
			c-1,0-1.8,0.3-2.2,1c-0.5,0.6-0.7,1.5-0.7,2.5h-1.1V6.9c0-1.3,0.4-2.4,1.1-3.2c0.7-0.8,1.7-1.1,3-1.1c1.2,0,2.1,0.3,2.8,1
			c0.7,0.7,1.1,1.5,1.1,2.6c0,0.3-0.1,0.7-0.2,1c-0.1,0.3-0.2,0.6-0.3,0.9c-0.1,0.2-0.3,0.5-0.6,0.8c-0.3,0.3-0.5,0.5-0.6,0.7
			c-0.2,0.2-0.4,0.4-0.8,0.6c-0.4,0.3-0.6,0.4-0.8,0.5c-0.1,0.1-0.4,0.3-0.8,0.5c-0.5,0.3-0.8,0.5-1,0.6c-0.2,0.1-0.4,0.3-0.8,0.6
			c-0.4,0.3-0.6,0.6-0.8,0.9c-0.2,0.3-0.3,0.6-0.3,1c0,0,0.1,0,0.2,0c0.1,0,0.1,0,0.1,0H271z"/>
		<path class="st1" d="M277.4,2.6c3,0,4.4,2.2,4.4,6.6c0,4.3-1.5,6.4-4.4,6.4c-2.9,0-4.4-2.1-4.4-6.3C273,4.9,274.4,2.6,277.4,2.6z
			 M277.4,3.7c-0.6,0-1.1,0.1-1.5,0.4c-0.4,0.3-0.7,0.6-0.9,0.9c-0.2,0.4-0.4,0.8-0.5,1.4c-0.1,0.6-0.2,1-0.2,1.5c0,0.4,0,0.9,0,1.5
			c0,3.6,1.1,5.3,3.2,5.3c2.1,0,3.2-1.8,3.2-5.5C280.6,5.5,279.5,3.7,277.4,3.7z"/>
	</g>
	<path class="st1" d="M335.9,3.5c1.1,1.2,2.3,2.3,3.5,3.2c1.2,0.9,2.6,1.6,4,2v0.2c-1.4,0.4-2.8,1.1-4,2c-1.3,1-2.5,2-3.5,3.2l1,1
		c0.9-1.3,2.1-2.5,3.3-3.6c1.3-1,2.7-1.8,4.2-2.4V8.5c-1.5-0.6-2.9-1.4-4.2-2.4c-1.3-1-2.4-2.2-3.3-3.6L335.9,3.5z M301.4,9.3h35.5
		l6.8-0.4V8.6l-6.8-0.4h-35.5V9.3z"/>
	<rect x="161.4" y="2.3" class="st2" width="0.9" height="13"/>
	
		<rect x="156.3" y="8.8" transform="matrix(0.7071 -0.7071 0.7071 0.7071 37.1341 114.4316)" class="st2" width="0.9" height="7.3"/>
	<rect x="145.8" y="12" transform="matrix(0.7071 -0.7071 0.7071 0.7071 34.9997 109.313)" class="st2" width="7.2" height="0.9"/>
	<rect x="149" y="1.5" transform="matrix(0.7071 -0.7071 0.7071 0.7071 40.1277 107.1859)" class="st2" width="0.9" height="7.2"/>
	
		<rect x="153.1" y="4.7" transform="matrix(0.7071 -0.7071 0.7071 0.7071 42.2425 112.3137)" class="st2" width="7.3" height="0.9"/>
	<path class="st1" d="M9.6,6.2H8.4c0-0.8-0.4-1.7-1-2.2C6.6,3.5,5.7,3.2,4.8,3.2C4,3.2,3.1,3.4,2.4,3.9C1.9,4.3,1.6,5,1.6,5.7
		c0,0.3,0,0.5,0.1,0.7C1.8,6.6,1.9,6.8,2,7l0.5,0.4C2.8,7.5,3,7.6,3.3,7.7l0.8,0.2l1,0.2l1.2,0.3c0.3,0.1,0.6,0.2,1,0.3
		c0.3,0.1,0.6,0.2,0.9,0.4c0.3,0.1,0.5,0.3,0.7,0.4c0.2,0.2,0.4,0.4,0.6,0.6c0.1,0.2,0.3,0.5,0.3,0.8c0.1,0.3,0.1,0.7,0.1,1
		c0,0.8-0.2,1.6-0.7,2.2c-0.5,0.6-1.1,1-1.8,1.2c-0.8,0.2-1.5,0.4-2.3,0.3c-1.4,0.1-2.7-0.3-3.8-1.2c-0.9-0.8-1.4-2-1.3-3.3v-0.1
		h1.2c-0.1,1,0.3,2,1.1,2.6c0.9,0.6,1.9,1,3,0.9c0.9,0.1,1.8-0.2,2.6-0.7c0.7-0.4,1-1.2,1-2c0.1-0.7-0.3-1.4-0.9-1.7
		C6.8,9.7,5.7,9.4,4.4,9.1C3.9,9,3.4,8.9,3.2,8.9s-0.6-0.2-1-0.4c-0.4-0.1-0.7-0.3-1-0.6C1,7.6,0.8,7.3,0.7,7
		C0.5,6.6,0.4,6.2,0.4,5.8c0-1,0.4-2,1.2-2.6c1-0.7,2.1-1,3.3-1c1.2-0.1,2.4,0.3,3.3,1C9.1,4,9.6,5.1,9.6,6.2z"/>
	<path class="st1" d="M21.1,2.5v1h-4.5v11.9h-1.2V3.5h-4.5v-1L21.1,2.5z"/>
	<path class="st1" d="M31.6,2.5v1h-7.7v4.7h7.2v1h-7.2v5.1h7.8v1h-9V2.5H31.6z"/>
	<path class="st1" d="M43.8,2.5v12.9h-1.4l-6-8.6c-0.6-0.9-1.2-1.8-1.7-2.7c0.1,0.8,0.1,1.9,0.1,3.1v8.3h-1.2V2.5H35l6,8.7
		c0.6,0.9,1.2,1.8,1.7,2.7c-0.1-1.9-0.1-3-0.1-3.4v-8L43.8,2.5z"/>
	<path class="st1" d="M52.1,2.2c1.7-0.1,3.3,0.6,4.4,1.9c1.2,1.4,1.8,3.1,1.7,4.9c0.1,1.8-0.5,3.5-1.7,4.9c-1.1,1.2-2.7,1.9-4.4,1.9
		c-1.7,0.1-3.3-0.6-4.4-1.9c-1.2-1.4-1.8-3.1-1.7-4.9c-0.1-1.8,0.5-3.5,1.7-4.9C48.8,2.8,50.4,2.1,52.1,2.2z M52.1,3.2
		c-1.3,0-2.6,0.5-3.5,1.6c-0.9,1.1-1.4,2.6-1.3,4.1c-0.1,1.5,0.4,2.9,1.3,4.1c0.9,1,2.2,1.6,3.5,1.6c1.3,0.1,2.6-0.5,3.5-1.6
		c0.9-1.1,1.4-2.6,1.3-4c0.1-1.5-0.4-3-1.3-4.2C54.7,3.8,53.4,3.2,52.1,3.2L52.1,3.2z"/>
	<path class="st1" d="M71.4,8.8v6.5h-0.8l-0.2-1.8V13c-0.4,0.8-1,1.5-1.8,2c-0.8,0.5-1.8,0.7-2.8,0.7c-1.7,0.1-3.3-0.6-4.4-1.8
		c-1.2-1.3-1.8-3-1.7-4.8c-0.1-1.8,0.5-3.6,1.7-4.9c2.1-2.2,5.5-2.5,8-0.8c1,0.8,1.6,1.9,1.8,3.1h-1.2c-0.1-0.9-0.7-1.8-1.4-2.3
		c-2-1.4-4.7-1.1-6.3,0.7C61.4,6,60.9,7.5,61,9c-0.1,1.5,0.4,2.9,1.3,4.1c0.9,1,2.2,1.6,3.6,1.5c1.1,0,2.1-0.3,2.9-1
		c0.8-0.7,1.3-1.6,1.5-2.6c0.1-0.4,0.1-0.8,0.1-1.1H66v-1L71.4,8.8z"/>
	<path class="st1" d="M74.1,2.5h5.8c1-0.1,2.1,0.3,2.9,0.9C83.6,4,84,5,83.9,6c0,0.7-0.2,1.4-0.7,2c-0.5,0.6-1.1,1-1.8,1.1
		c0.6,0.1,1.2,0.4,1.7,0.9c0.4,0.6,0.6,1.3,0.6,2c0,0,0,0.2,0,0.5s0,0.6,0,0.8s0,0.5,0.1,0.8c0,0.3,0.1,0.5,0.2,0.8
		c0.1,0.2,0.2,0.3,0.3,0.5h-1.3c-0.1-0.2-0.2-0.4-0.2-0.7c-0.1-0.4-0.1-0.9-0.1-1.3c0-0.5,0-0.8,0-0.9c0-0.9-0.3-1.7-0.8-2.3
		c-0.8-0.5-1.7-0.7-2.6-0.6h-3.8v5.7h-1.2V2.5z M75.3,3.5v5.1H79c0.5,0,0.9,0,1.4-0.1c0.4-0.1,0.8-0.2,1.2-0.3
		c0.4-0.2,0.7-0.4,0.9-0.8c0.2-0.4,0.3-0.9,0.3-1.3c0-1.7-1.1-2.5-3.2-2.5L75.3,3.5z"/>
	<path class="st1" d="M91.6,2.5l5.1,12.9h-1.3l-1.6-4h-5.9l-1.6,4H85l5.2-12.9H91.6z M93.4,10.3l-2.5-6.7l-2.6,6.7H93.4z"/>
	<path class="st1" d="M106.3,2.5v1h-7v4.7h6.2v1.1h-6.2v6.1h-1.2V2.5H106.3z"/>
	<path class="st1" d="M116.4,2.5v1h-7v4.7h6.2v1.1h-6.2v6.1h-1.2V2.5H116.4z"/>
	<path class="st1" d="M119.5,2.5v12.9h-1.2V2.5H119.5z"/>
	<path class="st1" d="M127.6,2.5l5.1,12.9h-1.4l-1.6-4h-5.9l-1.6,4h-1.3l5.2-12.9H127.6z M129.4,10.3l-2.5-6.7l-2.6,6.7H129.4z"/>
	<path class="st1" d="M217.8,3.5c1.1,1.2,2.3,2.2,3.6,3.2c1.2,0.9,2.6,1.6,4,2v0.2c-1.4,0.4-2.8,1.1-4,2c-1.3,1-2.5,2-3.6,3.2l1,1
		c0.9-1.3,2-2.5,3.3-3.6c1.3-1,2.7-1.8,4.2-2.4V8.5c-1.5-0.6-2.9-1.4-4.2-2.4c-1.3-1-2.4-2.2-3.3-3.6L217.8,3.5z M183.4,9.3h35.5
		l6.8-0.4V8.6l-6.8-0.4h-35.5V9.3z"/>
</g>
</svg>
