<svg xmlns="http://www.w3.org/2000/svg" viewBox="0 0 278.99 898.36"><defs><style>.cls-1{fill:none;stroke:#fff;stroke-miterlimit:10;stroke-width:2px;}</style></defs><title>Ресурс 9</title><g id="Слой_2" data-name="Слой 2"><g id="содержание"><path class="cls-1" d="M49.25,897.68,3.81,848.93a10.91,10.91,0,0,1,0-14.62l38.62-41.44a10.92,10.92,0,0,0,0-14.63L3.81,736.81a10.92,10.92,0,0,1,0-14.63l38.62-41.43a10.92,10.92,0,0,0,0-14.63L3.81,624.68a10.92,10.92,0,0,1,0-14.63l38.62-41.43a10.92,10.92,0,0,0,0-14.63L3.81,512.56a10.92,10.92,0,0,1,0-14.63l38.62-41.44a10.92,10.92,0,0,0,0-14.63L3.81,400.43a10.92,10.92,0,0,1,0-14.63l38.62-41.43a10.92,10.92,0,0,0,0-14.63L3.81,288.31a10.92,10.92,0,0,1,0-14.63l38.62-41.44a10.92,10.92,0,0,0,0-14.63L3.81,176.18a10.92,10.92,0,0,1,0-14.63l38.62-41.43a10.92,10.92,0,0,0,0-14.63L3.81,64.06a10.92,10.92,0,0,1,0-14.63L49.25.68"/><path class="cls-1" d="M29.79,897.68l45.44-48.75a10.91,10.91,0,0,0,0-14.62L36.61,792.87a10.92,10.92,0,0,1,0-14.63l38.62-41.43a10.92,10.92,0,0,0,0-14.63L36.61,680.75a10.92,10.92,0,0,1,0-14.63l38.62-41.44a10.92,10.92,0,0,0,0-14.63L36.61,568.62a10.92,10.92,0,0,1,0-14.63l38.62-41.43a10.92,10.92,0,0,0,0-14.63L36.61,456.49a10.92,10.92,0,0,1,0-14.63l38.62-41.43a10.92,10.92,0,0,0,0-14.63L36.61,344.37a10.92,10.92,0,0,1,0-14.63l38.62-41.43a10.92,10.92,0,0,0,0-14.63L36.61,232.24a10.92,10.92,0,0,1,0-14.63l38.62-41.43a10.92,10.92,0,0,0,0-14.63L36.61,120.12a10.92,10.92,0,0,1,0-14.63L75.23,64.06a10.92,10.92,0,0,0,0-14.63L29.79.68"/><path class="cls-1" d="M115.9,897.68,70.46,848.93a10.91,10.91,0,0,1,0-14.62l38.62-41.44a10.92,10.92,0,0,0,0-14.63L70.46,736.81a10.92,10.92,0,0,1,0-14.63l38.62-41.43a10.92,10.92,0,0,0,0-14.63L70.46,624.68a10.92,10.92,0,0,1,0-14.63l38.62-41.43a10.92,10.92,0,0,0,0-14.63L70.46,512.56a10.92,10.92,0,0,1,0-14.63l38.62-41.44a10.92,10.92,0,0,0,0-14.63L70.46,400.43a10.92,10.92,0,0,1,0-14.63l38.62-41.43a10.92,10.92,0,0,0,0-14.63L70.46,288.31a10.92,10.92,0,0,1,0-14.63l38.62-41.44a10.92,10.92,0,0,0,0-14.63L70.46,176.18a10.92,10.92,0,0,1,0-14.63l38.62-41.43a10.92,10.92,0,0,0,0-14.63L70.46,64.06a10.92,10.92,0,0,1,0-14.63L115.9.68"/><path class="cls-1" d="M96.44,897.68l45.44-48.75a10.91,10.91,0,0,0,0-14.62l-38.62-41.44a10.92,10.92,0,0,1,0-14.63l38.62-41.43a10.92,10.92,0,0,0,0-14.63l-38.62-41.43a10.92,10.92,0,0,1,0-14.63l38.62-41.44a10.92,10.92,0,0,0,0-14.63l-38.62-41.43a10.92,10.92,0,0,1,0-14.63l38.62-41.43a10.92,10.92,0,0,0,0-14.63l-38.62-41.44a10.92,10.92,0,0,1,0-14.63l38.62-41.43a10.92,10.92,0,0,0,0-14.63l-38.62-41.43a10.92,10.92,0,0,1,0-14.63l38.62-41.43a10.92,10.92,0,0,0,0-14.63l-38.62-41.44a10.92,10.92,0,0,1,0-14.63l38.62-41.43a10.92,10.92,0,0,0,0-14.63l-38.62-41.43a10.92,10.92,0,0,1,0-14.63l38.62-41.43a10.92,10.92,0,0,0,0-14.63L96.44.68"/><path class="cls-1" d="M182.55,897.68l-45.44-48.75a10.91,10.91,0,0,1,0-14.62l38.62-41.44a10.92,10.92,0,0,0,0-14.63l-38.62-41.43a10.92,10.92,0,0,1,0-14.63l38.62-41.43a10.92,10.92,0,0,0,0-14.63l-38.62-41.44a10.92,10.92,0,0,1,0-14.63l38.62-41.43a10.92,10.92,0,0,0,0-14.63l-38.62-41.43a10.92,10.92,0,0,1,0-14.63l38.62-41.44a10.92,10.92,0,0,0,0-14.63l-38.62-41.43a10.92,10.92,0,0,1,0-14.63l38.62-41.43a10.92,10.92,0,0,0,0-14.63l-38.62-41.43a10.92,10.92,0,0,1,0-14.63l38.62-41.44a10.92,10.92,0,0,0,0-14.63l-38.62-41.43a10.92,10.92,0,0,1,0-14.63l38.62-41.43a10.92,10.92,0,0,0,0-14.63L137.11,64.06a10.92,10.92,0,0,1,0-14.63L182.55.68"/><path class="cls-1" d="M163.09,897.68l45.44-48.75a10.91,10.91,0,0,0,0-14.62l-38.62-41.44a10.92,10.92,0,0,1,0-14.63l38.62-41.43a10.92,10.92,0,0,0,0-14.63L169.9,680.75a10.92,10.92,0,0,1,0-14.63l38.62-41.44a10.92,10.92,0,0,0,0-14.63l-38.62-41.43a10.92,10.92,0,0,1,0-14.63l38.63-41.43a10.92,10.92,0,0,0,0-14.63l-38.62-41.44a10.92,10.92,0,0,1,0-14.63l38.62-41.43a10.92,10.92,0,0,0,0-14.63l-38.62-41.43a10.92,10.92,0,0,1,0-14.63l38.62-41.43a10.92,10.92,0,0,0,0-14.63L169.9,232.24a10.92,10.92,0,0,1,0-14.63l38.62-41.43a10.92,10.92,0,0,0,0-14.63l-38.62-41.43a10.92,10.92,0,0,1,0-14.63l38.62-41.43a10.92,10.92,0,0,0,0-14.63L163.09.68"/><path class="cls-1" d="M249.2,897.68l-45.44-48.75a10.91,10.91,0,0,1,0-14.62l38.62-41.44a10.92,10.92,0,0,0,0-14.63l-38.62-41.43a10.92,10.92,0,0,1,0-14.63l38.62-41.43a10.92,10.92,0,0,0,0-14.63l-38.62-41.44a10.92,10.92,0,0,1,0-14.63l38.62-41.43a10.92,10.92,0,0,0,0-14.63l-38.62-41.43a10.92,10.92,0,0,1,0-14.63l38.62-41.44a10.92,10.92,0,0,0,0-14.63l-38.62-41.43a10.92,10.92,0,0,1,0-14.63l38.62-41.43a10.92,10.92,0,0,0,0-14.63l-38.62-41.43a10.92,10.92,0,0,1,0-14.63l38.62-41.44a10.92,10.92,0,0,0,0-14.63l-38.62-41.43a10.92,10.92,0,0,1,0-14.63l38.62-41.43a10.92,10.92,0,0,0,0-14.63L203.76,64.06a10.92,10.92,0,0,1,0-14.63L249.2.68"/><path class="cls-1" d="M229.74,897.68l45.44-48.75a10.91,10.91,0,0,0,0-14.62l-38.63-41.44a10.92,10.92,0,0,1,0-14.63l38.63-41.43a10.92,10.92,0,0,0,0-14.63l-38.63-41.44a10.91,10.91,0,0,1,0-14.62l38.63-41.44a10.92,10.92,0,0,0,0-14.63l-38.63-41.43a10.92,10.92,0,0,1,0-14.63l38.63-41.43a10.92,10.92,0,0,0,0-14.63l-38.63-41.44a10.92,10.92,0,0,1,0-14.63l38.63-41.43a10.92,10.92,0,0,0,0-14.63l-38.63-41.43a10.92,10.92,0,0,1,0-14.63l38.63-41.43a10.92,10.92,0,0,0,0-14.63l-38.63-41.44a10.92,10.92,0,0,1,0-14.63l38.63-41.43a10.92,10.92,0,0,0,0-14.63l-38.63-41.43a10.92,10.92,0,0,1,0-14.63l38.63-41.43a10.92,10.92,0,0,0,0-14.63L229.74.68"/></g></g></svg>