<svg xmlns="http://www.w3.org/2000/svg" viewBox="0 0 222.38 222.38"><defs><style>.cls-1{fill:#fb3439;}</style></defs><title>Ресурс 19</title><g id="Слой_2" data-name="Слой 2"><g id="стикеры"><polygon class="cls-1" points="222.38 89.07 137.28 111.19 222.38 133.31 135.3 121.18 205.45 174.17 129.64 129.64 174.17 205.45 121.18 135.3 133.31 222.38 111.19 137.28 89.07 222.38 101.2 135.3 48.21 205.45 92.74 129.64 16.93 174.17 87.08 121.18 0 133.31 85.09 111.19 0 89.07 87.08 101.2 16.93 48.21 92.74 92.74 48.21 16.93 101.2 87.08 89.07 0 111.19 85.09 133.31 0 121.18 87.08 174.17 16.93 129.64 92.74 205.45 48.21 135.3 101.2 222.38 89.07"/></g></g></svg>