<svg xmlns="http://www.w3.org/2000/svg" viewBox="0 0 170.47 49.8"><defs><style>.cls-1{fill:#fff;}</style></defs><title>Ресурс 25</title><g id="Слой_2" data-name="Слой 2"><g id="содержание"><path class="cls-1" d="M15.2,20.46c-.5-.25-2.12-1.19-2.62-1.5-2.44-1.38-4.13-3-4.13-8.38,0-3.45.31-5.26,2.19-5.26s2.5,1.37,2.5,5.94c0,1.44-.31,3.94-.44,5.26l7.38-.75a25.62,25.62,0,0,0,.63-5C20.71,3.69,17.21,0,10.51,0S0,4.25,0,12.45c0,5.63,1.63,10.39,6.38,13.14.56.31,1.69.94,2.19,1.25,3.88,2.26,5.26,4.07,5.26,10.83,0,5.31-.88,6.25-2.38,6.25-1.94,0-2.69-1.56-2.69-6.94a56.9,56.9,0,0,1,.56-6.7l-7.5.32A28.77,28.77,0,0,0,.75,37.35c0,9.39,4.07,12.45,10.64,12.45,7.88,0,11.2-4.75,11.2-13.57,0-8.64-2.94-13.27-7.39-15.77"/><path class="cls-1" d="M33.86,41.23V18.9h4.5V14.58h-4.5V4.13H26.41l-.13,10.45h-3.5V18.9h3.44c-.12,17.39-.19,22.83-.19,24,0,4.94,2.07,6.51,6.76,6.51,2.63,0,5.13-.75,6-1.57v-4.5a10.6,10.6,0,0,1-3.07.5c-1.37,0-1.87-.88-1.87-2.63"/><path class="cls-1" d="M52.11,14C49.85,14,48.85,15.2,48,17.9V14.58H40.6V48.8h7.5V26.28c0-5.7.38-6.51,1.5-6.51s1.57,1.25,1.57,3.57a33.59,33.59,0,0,1-1.07,6.38l6.2-.25a24.51,24.51,0,0,0,1.38-7.38c0-5.76-2.44-8.07-5.57-8.07"/><path class="cls-1" d="M76.53,33a15,15,0,0,0,.31-2.94C76.84,19.27,74.47,14,68.21,14S59,18.15,59,33.22c0,13.83,2.94,16.21,9.76,16.21,5.38,0,8-2.63,8-9.26a33,33,0,0,0-.37-4.38l-6.26-.12a18,18,0,0,1,.18,2.43c0,6.26-.37,6.89-1.81,6.89-1.81,0-2-1.5-2-8.64V33Zm-10.2-4.38V26c.32-6.7.44-7.7,1.88-7.7,1.25,0,1.44.94,1.69,6.76a34.52,34.52,0,0,1-.06,3.57Z"/><path class="cls-1" d="M96.58,33a15,15,0,0,0,.31-2.94C96.89,19.27,94.52,14,88.26,14S79,18.15,79,33.22c0,13.83,2.94,16.21,9.76,16.21,5.38,0,8-2.63,8-9.26a31.33,31.33,0,0,0-.38-4.38l-6.26-.12a16.57,16.57,0,0,1,.19,2.43c0,6.26-.37,6.89-1.81,6.89-1.82,0-2-1.5-2-8.64V33Zm-10.2-4.38V26c.31-6.7.44-7.7,1.88-7.7,1.25,0,1.44.94,1.69,6.76a34.52,34.52,0,0,1-.06,3.57Z"/><path class="cls-1" d="M108.32,41.23V18.9h4.51V14.58h-4.51V4.13h-7.44l-.13,10.45h-3.5V18.9h3.44c-.12,17.39-.19,22.83-.19,24,0,4.94,2.07,6.51,6.76,6.51,2.63,0,5.13-.75,6-1.57v-4.5a10.6,10.6,0,0,1-3.07.5c-1.37,0-1.88-.88-1.88-2.63"/><path class="cls-1" d="M132.6,42V22.09c0-6.26-2.94-8.07-8.76-8.07s-8.45,2.62-8.45,7.57a12.58,12.58,0,0,0,.75,4.25l6.26-.19A18.83,18.83,0,0,1,122,22c0-2.37.25-3.19,1.69-3.19,1.13,0,2.07.94,2.07,3.88v5.2c-1.41.3-2.51.57-4.38,1.12-4.06,1.2-6.76,3.25-6.76,10.14,0,9,4.32,10.26,7.7,10.26a5.55,5.55,0,0,0,5.13-2.63,3.58,3.58,0,0,0,3.81,2.63,10.93,10.93,0,0,0,3.76-.81V43.55a3,3,0,0,1-1.25.25c-.88,0-1.19-.69-1.19-1.82m-6.82-1.19c0,1.94-.38,3.51-1.75,3.51-1.19,0-1.63-1.19-1.63-4.63,0-4.63.63-5.57,3.38-6.82Z"/><path class="cls-1" d="M148.18,14c-2.25,0-3.25,1.18-4.13,3.88V14.58h-7.38V48.8h7.51V26.28c0-5.7.38-6.51,1.5-6.51s1.57,1.25,1.57,3.57a33.59,33.59,0,0,1-1.07,6.38l6.2-.25a24.83,24.83,0,0,0,1.37-7.38c0-5.76-2.44-8.07-5.57-8.07"/><path class="cls-1" d="M167.4,43.86c-1.38,0-1.88-.88-1.88-2.63V18.9H170V14.58h-4.5V4.13h-7.44L158,14.58h-3.5V18.9h3.44c-.13,17.39-.19,22.83-.19,24,0,4.94,2.07,6.51,6.76,6.51,2.62,0,5.13-.75,6-1.57v-4.5a10.65,10.65,0,0,1-3.07.5"/></g></g></svg>