<svg xmlns="http://www.w3.org/2000/svg" viewBox="0 0 77.69 77.69"><defs><style>.cls-1{fill:#fff;fill-rule:evenodd;}</style></defs><title>Ресурс 17</title><g id="Слой_2" data-name="Слой 2"><g id="содержание"><path class="cls-1" d="M26.92,0H50.77C72.53,0,77.69,5.15,77.69,26.92V50.77c0,21.76-5.16,26.92-26.92,26.92H26.92C5.15,77.69,0,72.53,0,50.77V26.92C0,5.15,5.15,0,26.92,0M63.6,26.75c.38-1.2,0-2.08-1.7-2.08H56.25a2.52,2.52,0,0,0-2.47,1.59s-2.9,7-7,11.57c-1.31,1.32-1.92,1.75-2.63,1.75-.38,0-.88-.43-.88-1.64V26.7c0-1.43-.44-2.08-1.64-2.08H32.79a1.36,1.36,0,0,0-1.43,1.31c0,1.37,2,1.7,2.25,5.54V39.8c0,1.81-.33,2.14-1,2.14-1.92,0-6.58-7.07-9.38-15.13-.55-1.59-1.1-2.19-2.52-2.19H15c-1.65,0-1.92.76-1.92,1.59C13.05,27.69,15,35.14,22,45c4.66,6.75,11.29,10.36,17.27,10.36,3.61,0,4.05-.82,4.05-2.19v-5.1c0-1.64.33-1.92,1.48-1.92.82,0,2.31.44,5.65,3.68,3.84,3.83,4.5,5.59,6.63,5.59h5.65c1.65,0,2.41-.82,2-2.41s-2.35-3.9-4.77-6.64c-1.31-1.53-3.29-3.23-3.89-4.05-.82-1.1-.6-1.54,0-2.53-.05,0,6.85-9.76,7.57-13"/></g></g></svg>