<svg xmlns="http://www.w3.org/2000/svg" viewBox="0 0 37.18 22.31"><defs><style>.cls-1{fill:#fff;}</style></defs><title>Ресурс 9</title><g id="Слой_2" data-name="Слой 2"><g id="содержание"><path class="cls-1" d="M36.85,19.89c-.1-.18-.72-1.59-3.69-4.49s-2.7-2.55,1.05-7.81c2.28-3.2,3.2-5.15,2.91-6-.15-.5-1.95-.37-1.95-.37H29.58a1.47,1.47,0,0,0-1.22.59c-.62,1.09-.88,2.48-2.06,4.58-2.49,4.45-3.49,4.68-3.89,4.4-.95-.64-.71-2.58-.71-4,0-4.31.62-6.1-1.21-6.57A11.37,11.37,0,0,0,17.88,0c-2.08.05-3.69,0-4.64.5-.64.32-1.13,1.05-.83,1.1a2.46,2.46,0,0,1,1.65.87,6,6,0,0,1,.55,2.66s.33,5.07-.76,5.7c-.76.43-1.79-.45-4-4.48C8.7,4.28,8.59,2.94,7.84,2a2.46,2.46,0,0,0-1.32-.77H1.21S.31,1.16.12,1.4s0,1,0,1S4.26,12.63,9,17.79c4.32,4.73,9.22,4.51,9.22,4.51s2.85.13,3.24-.56a1.93,1.93,0,0,0,.3-1s0-3.14,1.34-3.6,3.12,3,5,4.37a3.25,3.25,0,0,0,2.47.81h5S38.08,22,36.85,19.89Z"/></g></g></svg>