<svg xmlns="http://www.w3.org/2000/svg" viewBox="0 0 257 907.03"><defs><style>.cls-1{fill:none;stroke:#fff;stroke-miterlimit:10;stroke-width:2px;}</style></defs><title>Ресурс 5</title><g id="Слой_2" data-name="Слой 2"><g id="содержание"><line class="cls-1" x1="1" y1="658.32" x2="1" y2="727.6"/><line class="cls-1" x1="22.68" y1="679.45" x2="64.32" y2="679.45"/><line class="cls-1" x1="19.11" y1="676.93" x2="6.74" y2="658.07"/><line class="cls-1" x1="19.11" y1="683.24" x2="3.93" y2="727.6"/><line class="cls-1" x1="86" y1="658.32" x2="86" y2="727.6"/><line class="cls-1" x1="67.89" y1="676.93" x2="80.26" y2="658.07"/><line class="cls-1" x1="67.89" y1="683.24" x2="83.07" y2="727.6"/><line class="cls-1" x1="107.68" y1="679.45" x2="149.32" y2="679.45"/><line class="cls-1" x1="104.11" y1="676.93" x2="91.74" y2="658.07"/><line class="cls-1" x1="104.11" y1="683.24" x2="88.93" y2="727.6"/><line class="cls-1" x1="171" y1="658.32" x2="171" y2="727.6"/><line class="cls-1" x1="152.89" y1="676.93" x2="165.26" y2="658.07"/><line class="cls-1" x1="152.89" y1="683.24" x2="168.07" y2="727.6"/><line class="cls-1" x1="192.68" y1="679.45" x2="234.32" y2="679.45"/><line class="cls-1" x1="189.11" y1="676.93" x2="176.74" y2="658.07"/><line class="cls-1" x1="189.11" y1="683.24" x2="173.93" y2="727.6"/><line class="cls-1" x1="256" y1="658.32" x2="256" y2="727.6"/><line class="cls-1" x1="237.89" y1="676.93" x2="250.26" y2="658.07"/><line class="cls-1" x1="237.89" y1="683.24" x2="253.07" y2="727.6"/><line class="cls-1" x1="82.87" y1="736.03" x2="4.13" y2="736.03"/><line class="cls-1" x1="167.87" y1="736.03" x2="89.13" y2="736.03"/><line class="cls-1" x1="252.87" y1="736.03" x2="174.13" y2="736.03"/><line class="cls-1" x1="82.87" y1="651.03" x2="4.13" y2="651.03"/><line class="cls-1" x1="167.87" y1="651.03" x2="89.13" y2="651.03"/><line class="cls-1" x1="252.87" y1="651.03" x2="174.13" y2="651.03"/><line class="cls-1" x1="1" y1="743.32" x2="1" y2="812.6"/><line class="cls-1" x1="22.68" y1="764.45" x2="64.32" y2="764.45"/><line class="cls-1" x1="19.11" y1="761.93" x2="6.74" y2="743.07"/><line class="cls-1" x1="19.11" y1="768.24" x2="3.93" y2="812.6"/><line class="cls-1" x1="86" y1="743.32" x2="86" y2="812.6"/><line class="cls-1" x1="67.89" y1="761.93" x2="80.26" y2="743.07"/><line class="cls-1" x1="67.89" y1="768.24" x2="83.07" y2="812.6"/><line class="cls-1" x1="107.68" y1="764.45" x2="149.32" y2="764.45"/><line class="cls-1" x1="104.11" y1="761.93" x2="91.74" y2="743.07"/><line class="cls-1" x1="104.11" y1="768.24" x2="88.93" y2="812.6"/><line class="cls-1" x1="171" y1="743.32" x2="171" y2="812.6"/><line class="cls-1" x1="152.89" y1="761.93" x2="165.26" y2="743.07"/><line class="cls-1" x1="152.89" y1="768.24" x2="168.07" y2="812.6"/><line class="cls-1" x1="192.68" y1="764.45" x2="234.32" y2="764.45"/><line class="cls-1" x1="189.11" y1="761.93" x2="176.74" y2="743.07"/><line class="cls-1" x1="189.11" y1="768.24" x2="173.93" y2="812.6"/><line class="cls-1" x1="256" y1="743.32" x2="256" y2="812.6"/><line class="cls-1" x1="237.89" y1="761.93" x2="250.26" y2="743.07"/><line class="cls-1" x1="237.89" y1="768.24" x2="253.07" y2="812.6"/><line class="cls-1" x1="82.87" y1="821.03" x2="4.13" y2="821.03"/><line class="cls-1" x1="167.87" y1="821.03" x2="89.13" y2="821.03"/><line class="cls-1" x1="252.87" y1="821.03" x2="174.13" y2="821.03"/><line class="cls-1" x1="1" y1="828.32" x2="1" y2="897.6"/><line class="cls-1" x1="22.68" y1="849.45" x2="64.32" y2="849.45"/><line class="cls-1" x1="19.11" y1="846.93" x2="6.74" y2="828.07"/><line class="cls-1" x1="19.11" y1="853.24" x2="3.93" y2="897.6"/><line class="cls-1" x1="86" y1="828.32" x2="86" y2="897.6"/><line class="cls-1" x1="67.89" y1="846.93" x2="80.26" y2="828.07"/><line class="cls-1" x1="67.89" y1="853.24" x2="83.07" y2="897.6"/><line class="cls-1" x1="107.68" y1="849.45" x2="149.32" y2="849.45"/><line class="cls-1" x1="104.11" y1="846.93" x2="91.74" y2="828.07"/><line class="cls-1" x1="104.11" y1="853.24" x2="88.93" y2="897.6"/><line class="cls-1" x1="171" y1="828.32" x2="171" y2="897.6"/><line class="cls-1" x1="152.89" y1="846.93" x2="165.26" y2="828.07"/><line class="cls-1" x1="152.89" y1="853.24" x2="168.07" y2="897.6"/><line class="cls-1" x1="192.68" y1="849.45" x2="234.32" y2="849.45"/><line class="cls-1" x1="189.11" y1="846.93" x2="176.74" y2="828.07"/><line class="cls-1" x1="189.11" y1="853.24" x2="173.93" y2="897.6"/><line class="cls-1" x1="256" y1="828.32" x2="256" y2="897.6"/><line class="cls-1" x1="237.89" y1="846.93" x2="250.26" y2="828.07"/><line class="cls-1" x1="237.89" y1="853.24" x2="253.07" y2="897.6"/><line class="cls-1" x1="82.87" y1="906.03" x2="4.13" y2="906.03"/><line class="cls-1" x1="167.87" y1="906.03" x2="89.13" y2="906.03"/><line class="cls-1" x1="252.87" y1="906.03" x2="174.13" y2="906.03"/><line class="cls-1" x1="1" y1="8.29" x2="1" y2="77.59"/><line class="cls-1" x1="86" y1="8.29" x2="86" y2="77.59"/><line class="cls-1" x1="171" y1="8.29" x2="171" y2="77.59"/><line class="cls-1" x1="256" y1="8.29" x2="256" y2="77.59"/><line class="cls-1" x1="82.87" y1="86.02" x2="4.13" y2="86.02"/><line class="cls-1" x1="167.87" y1="86.02" x2="89.13" y2="86.02"/><line class="cls-1" x1="252.87" y1="86.02" x2="174.13" y2="86.02"/><line class="cls-1" x1="82.87" y1="1" x2="4.13" y2="1"/><line class="cls-1" x1="167.87" y1="1" x2="89.13" y2="1"/><line class="cls-1" x1="252.87" y1="1" x2="174.13" y2="1"/><line class="cls-1" x1="1" y1="93.31" x2="1" y2="162.6"/><line class="cls-1" x1="86" y1="93.31" x2="86" y2="162.6"/><line class="cls-1" x1="171" y1="93.31" x2="171" y2="162.6"/><line class="cls-1" x1="256" y1="93.31" x2="256" y2="162.6"/><line class="cls-1" x1="82.87" y1="171.03" x2="4.13" y2="171.03"/><line class="cls-1" x1="167.87" y1="171.03" x2="89.13" y2="171.03"/><line class="cls-1" x1="252.87" y1="171.03" x2="174.13" y2="171.03"/><line class="cls-1" x1="1" y1="178.33" x2="1" y2="247.62"/><line class="cls-1" x1="86" y1="178.33" x2="86" y2="247.62"/><line class="cls-1" x1="171" y1="178.33" x2="171" y2="247.62"/><line class="cls-1" x1="256" y1="178.33" x2="256" y2="247.62"/><line class="cls-1" x1="82.87" y1="256.05" x2="4.13" y2="256.05"/><line class="cls-1" x1="167.87" y1="256.05" x2="89.13" y2="256.05"/><line class="cls-1" x1="252.87" y1="256.05" x2="174.13" y2="256.05"/><line class="cls-1" x1="5.72" y1="176.12" x2="39.72" y2="208.92"/><line class="cls-1" x1="47.28" y1="217.12" x2="81.28" y2="250.94"/><line class="cls-1" x1="81.28" y1="176.12" x2="47.28" y2="208.92"/><line class="cls-1" x1="39.72" y1="217.12" x2="5.72" y2="250.94"/><line class="cls-1" x1="90.72" y1="176.12" x2="124.72" y2="208.92"/><line class="cls-1" x1="132.28" y1="217.12" x2="166.28" y2="250.94"/><line class="cls-1" x1="166.28" y1="176.12" x2="132.28" y2="208.92"/><line class="cls-1" x1="124.72" y1="217.12" x2="90.72" y2="250.94"/><line class="cls-1" x1="175.72" y1="176.12" x2="209.72" y2="208.92"/><line class="cls-1" x1="217.28" y1="217.12" x2="251.28" y2="250.94"/><line class="cls-1" x1="251.28" y1="176.12" x2="217.28" y2="208.92"/><line class="cls-1" x1="209.72" y1="217.12" x2="175.72" y2="250.94"/><line class="cls-1" x1="5.72" y1="90.55" x2="39.72" y2="123.35"/><line class="cls-1" x1="47.28" y1="131.54" x2="81.28" y2="165.37"/><line class="cls-1" x1="81.28" y1="90.55" x2="47.28" y2="123.35"/><line class="cls-1" x1="39.72" y1="131.54" x2="5.72" y2="165.37"/><line class="cls-1" x1="90.72" y1="90.55" x2="124.72" y2="123.35"/><line class="cls-1" x1="132.28" y1="131.54" x2="166.28" y2="165.37"/><line class="cls-1" x1="166.28" y1="90.55" x2="132.28" y2="123.35"/><line class="cls-1" x1="124.72" y1="131.54" x2="90.72" y2="165.37"/><line class="cls-1" x1="175.72" y1="90.55" x2="209.72" y2="123.35"/><line class="cls-1" x1="217.28" y1="131.54" x2="251.28" y2="165.37"/><line class="cls-1" x1="251.28" y1="90.55" x2="217.28" y2="123.35"/><line class="cls-1" x1="209.72" y1="131.54" x2="175.72" y2="165.37"/><line class="cls-1" x1="5.72" y1="5.53" x2="39.72" y2="38.33"/><line class="cls-1" x1="47.28" y1="46.53" x2="81.28" y2="80.35"/><line class="cls-1" x1="81.28" y1="5.53" x2="47.28" y2="38.33"/><line class="cls-1" x1="39.72" y1="46.53" x2="5.72" y2="80.35"/><line class="cls-1" x1="90.72" y1="5.53" x2="124.72" y2="38.33"/><line class="cls-1" x1="132.28" y1="46.53" x2="166.28" y2="80.35"/><line class="cls-1" x1="166.28" y1="5.53" x2="132.28" y2="38.33"/><line class="cls-1" x1="124.72" y1="46.53" x2="90.72" y2="80.35"/><line class="cls-1" x1="175.72" y1="5.53" x2="209.72" y2="38.33"/><line class="cls-1" x1="217.28" y1="46.53" x2="251.28" y2="80.35"/><line class="cls-1" x1="251.28" y1="5.53" x2="217.28" y2="38.33"/><line class="cls-1" x1="209.72" y1="46.53" x2="175.72" y2="80.35"/><line class="cls-1" x1="251.28" y1="326.04" x2="5.72" y2="326.04"/><line class="cls-1" x1="1" y1="330.78" x2="1" y2="576.3"/><line class="cls-1" x1="251.28" y1="581.04" x2="5.72" y2="581.04"/><line class="cls-1" x1="256" y1="330.78" x2="256" y2="576.3"/><line class="cls-1" x1="236.67" y1="341.21" x2="20.33" y2="341.21"/><line class="cls-1" x1="16.17" y1="345.38" x2="16.17" y2="561.7"/><line class="cls-1" x1="236.67" y1="565.87" x2="20.33" y2="565.87"/><line class="cls-1" x1="240.83" y1="345.38" x2="240.83" y2="561.7"/><line class="cls-1" x1="234.28" y1="485.3" x2="22.72" y2="485.3"/><line class="cls-1" x1="234.28" y1="502.36" x2="22.72" y2="502.36"/><line class="cls-1" x1="234.28" y1="404.72" x2="22.72" y2="404.72"/><line class="cls-1" x1="234.28" y1="421.78" x2="22.72" y2="421.78"/></g></g></svg>