<svg xmlns="http://www.w3.org/2000/svg" viewBox="0 0 38.51 23.79"><defs><style>.cls-1{fill:#fff;}</style></defs><title>Ресурс 3</title><g id="Слой_2" data-name="Слой 2"><g id="содержание"><path class="cls-1" d="M11.75,0a.43.43,0,0,0-.4.4V1.87a.43.43,0,0,0,.4.4h1.63l4.86,9.08-3.85,6.91-7.3-16H8.66a.43.43,0,0,0,.4-.4V.4a.43.43,0,0,0-.4-.4H.4A.43.43,0,0,0,0,.4V1.87a.43.43,0,0,0,.4.4H2.84L13.38,23.59a.52.52,0,0,0,.4.2.54.54,0,0,0,.41-.2l5.37-9.67,5,9.67a.54.54,0,0,0,.41.2.52.52,0,0,0,.4-.2L35.77,2.17H38.1a.43.43,0,0,0,.41-.4V.4A.43.43,0,0,0,38.1,0H31a.43.43,0,0,0-.4.4V1.87a.43.43,0,0,0,.4.4H33l-7.6,16-3.95-7.9,4.87-8.09h1.56a.43.43,0,0,0,.4-.4V.4a.43.43,0,0,0-.4-.4h-6a.43.43,0,0,0-.4.4V1.87a.43.43,0,0,0,.4.4h1.59L20.17,7.8,17.43,2.27h1.42a.43.43,0,0,0,.4-.4V.4a.43.43,0,0,0-.4-.4Z"/></g></g></svg>