<svg xmlns="http://www.w3.org/2000/svg" viewBox="0 0 259 310"><defs><style>.cls-1{fill:none;stroke:#fff;stroke-miterlimit:10;stroke-width:2px;}</style></defs><title>Ресурс 4</title><g id="Слой_2" data-name="Слой 2"><g id="содержание"><rect class="cls-1" x="1" y="36" width="257" height="273"/><rect class="cls-1" x="1" y="1" width="257" height="35"/><line class="cls-1" x1="231" y1="8.5" x2="251" y2="28.5"/><line class="cls-1" x1="251" y1="8.5" x2="231" y2="28.5"/><rect class="cls-1" x="199" y="9" width="20" height="20"/><line class="cls-1" x1="168" y1="29" x2="188" y2="29"/><rect class="cls-1" x="26" y="61" width="125" height="72"/><line class="cls-1" x1="168" y1="61" x2="241" y2="61"/><line class="cls-1" x1="168" y1="71" x2="241" y2="71"/><line class="cls-1" x1="168" y1="81" x2="241" y2="81"/><line class="cls-1" x1="168" y1="91" x2="241" y2="91"/><line class="cls-1" x1="168" y1="101" x2="220" y2="101"/><line class="cls-1" x1="168" y1="156" x2="241" y2="156"/><line class="cls-1" x1="168" y1="166" x2="241" y2="166"/><line class="cls-1" x1="168" y1="176" x2="241" y2="176"/><line class="cls-1" x1="168" y1="186" x2="241" y2="186"/><line class="cls-1" x1="168" y1="196" x2="241" y2="196"/><line class="cls-1" x1="168" y1="206" x2="241" y2="206"/><line class="cls-1" x1="168" y1="216" x2="220" y2="216"/><rect class="cls-1" x="26" y="156" width="125" height="133"/><line class="cls-1" x1="26" y1="156" x2="151" y2="289"/><line class="cls-1" x1="151" y1="156" x2="26" y2="289"/><line class="cls-1" x1="26" y1="61" x2="151" y2="133"/><line class="cls-1" x1="151" y1="61" x2="26" y2="133"/></g></g></svg>