<svg xmlns="http://www.w3.org/2000/svg" viewBox="0 0 257 831"><defs><style>.cls-1{fill:none;stroke:#fff;stroke-miterlimit:10;stroke-width:2px;}</style></defs><title>Ресурс 3</title><g id="Слой_2" data-name="Слой 2"><g id="содержание"><line class="cls-1" x1="1" y1="8.12" x2="1" y2="75.72"/><line class="cls-1" x1="22.68" y1="28.73" x2="64.32" y2="28.73"/><line class="cls-1" x1="19.11" y1="26.28" x2="6.74" y2="7.87"/><line class="cls-1" x1="19.11" y1="32.44" x2="3.93" y2="75.72"/><line class="cls-1" x1="86" y1="8.12" x2="86" y2="75.72"/><line class="cls-1" x1="67.89" y1="26.28" x2="80.26" y2="7.87"/><line class="cls-1" x1="67.89" y1="32.44" x2="83.07" y2="75.72"/><line class="cls-1" x1="107.68" y1="28.73" x2="149.32" y2="28.73"/><line class="cls-1" x1="104.11" y1="26.28" x2="91.74" y2="7.87"/><line class="cls-1" x1="104.11" y1="32.44" x2="88.93" y2="75.72"/><line class="cls-1" x1="171" y1="8.12" x2="171" y2="75.72"/><line class="cls-1" x1="152.89" y1="26.28" x2="165.26" y2="7.87"/><line class="cls-1" x1="152.89" y1="32.44" x2="168.07" y2="75.72"/><line class="cls-1" x1="192.68" y1="28.73" x2="234.32" y2="28.73"/><line class="cls-1" x1="189.11" y1="26.28" x2="176.74" y2="7.87"/><line class="cls-1" x1="189.11" y1="32.44" x2="173.93" y2="75.72"/><line class="cls-1" x1="256" y1="8.12" x2="256" y2="75.72"/><line class="cls-1" x1="237.89" y1="26.28" x2="250.26" y2="7.87"/><line class="cls-1" x1="237.89" y1="32.44" x2="253.07" y2="75.72"/><line class="cls-1" x1="82.87" y1="83.94" x2="4.13" y2="83.94"/><line class="cls-1" x1="167.87" y1="83.94" x2="89.13" y2="83.94"/><line class="cls-1" x1="252.87" y1="83.94" x2="174.13" y2="83.94"/><line class="cls-1" x1="82.87" y1="1" x2="4.13" y2="1"/><line class="cls-1" x1="167.87" y1="1" x2="89.13" y2="1"/><line class="cls-1" x1="252.87" y1="1" x2="174.13" y2="1"/><line class="cls-1" x1="1" y1="91.06" x2="1" y2="158.66"/><line class="cls-1" x1="22.68" y1="111.68" x2="64.32" y2="111.68"/><line class="cls-1" x1="19.11" y1="109.22" x2="6.74" y2="90.81"/><line class="cls-1" x1="19.11" y1="115.38" x2="3.93" y2="158.66"/><line class="cls-1" x1="86" y1="91.06" x2="86" y2="158.66"/><line class="cls-1" x1="67.89" y1="109.22" x2="80.26" y2="90.81"/><line class="cls-1" x1="67.89" y1="115.38" x2="83.07" y2="158.66"/><line class="cls-1" x1="107.68" y1="111.68" x2="149.32" y2="111.68"/><line class="cls-1" x1="104.11" y1="109.22" x2="91.74" y2="90.81"/><line class="cls-1" x1="104.11" y1="115.38" x2="88.93" y2="158.66"/><line class="cls-1" x1="171" y1="91.06" x2="171" y2="158.66"/><line class="cls-1" x1="152.89" y1="109.22" x2="165.26" y2="90.81"/><line class="cls-1" x1="152.89" y1="115.38" x2="168.07" y2="158.66"/><line class="cls-1" x1="192.68" y1="111.68" x2="234.32" y2="111.68"/><line class="cls-1" x1="189.11" y1="109.22" x2="176.74" y2="90.81"/><line class="cls-1" x1="189.11" y1="115.38" x2="173.93" y2="158.66"/><line class="cls-1" x1="256" y1="91.06" x2="256" y2="158.66"/><line class="cls-1" x1="237.89" y1="109.22" x2="250.26" y2="90.81"/><line class="cls-1" x1="237.89" y1="115.38" x2="253.07" y2="158.66"/><line class="cls-1" x1="82.87" y1="166.89" x2="4.13" y2="166.89"/><line class="cls-1" x1="167.87" y1="166.89" x2="89.13" y2="166.89"/><line class="cls-1" x1="252.87" y1="166.89" x2="174.13" y2="166.89"/><line class="cls-1" x1="1" y1="174" x2="1" y2="241.61"/><line class="cls-1" x1="22.68" y1="194.62" x2="64.32" y2="194.62"/><line class="cls-1" x1="19.11" y1="192.17" x2="6.74" y2="173.76"/><line class="cls-1" x1="19.11" y1="198.33" x2="3.93" y2="241.61"/><line class="cls-1" x1="86" y1="174" x2="86" y2="241.61"/><line class="cls-1" x1="67.89" y1="192.17" x2="80.26" y2="173.76"/><line class="cls-1" x1="67.89" y1="198.33" x2="83.07" y2="241.61"/><line class="cls-1" x1="107.68" y1="194.62" x2="149.32" y2="194.62"/><line class="cls-1" x1="104.11" y1="192.17" x2="91.74" y2="173.76"/><line class="cls-1" x1="104.11" y1="198.33" x2="88.93" y2="241.61"/><line class="cls-1" x1="171" y1="174" x2="171" y2="241.61"/><line class="cls-1" x1="152.89" y1="192.17" x2="165.26" y2="173.76"/><line class="cls-1" x1="152.89" y1="198.33" x2="168.07" y2="241.61"/><line class="cls-1" x1="192.68" y1="194.62" x2="234.32" y2="194.62"/><line class="cls-1" x1="189.11" y1="192.17" x2="176.74" y2="173.76"/><line class="cls-1" x1="189.11" y1="198.33" x2="173.93" y2="241.61"/><line class="cls-1" x1="256" y1="174" x2="256" y2="241.61"/><line class="cls-1" x1="237.89" y1="192.17" x2="250.26" y2="173.76"/><line class="cls-1" x1="237.89" y1="198.33" x2="253.07" y2="241.61"/><line class="cls-1" x1="82.87" y1="249.83" x2="4.13" y2="249.83"/><line class="cls-1" x1="167.87" y1="249.83" x2="89.13" y2="249.83"/><line class="cls-1" x1="252.87" y1="249.83" x2="174.13" y2="249.83"/><line class="cls-1" x1="1" y1="256.95" x2="1" y2="324.55"/><line class="cls-1" x1="22.68" y1="277.56" x2="64.32" y2="277.56"/><line class="cls-1" x1="19.11" y1="275.11" x2="6.74" y2="256.7"/><line class="cls-1" x1="19.11" y1="281.27" x2="3.93" y2="324.55"/><line class="cls-1" x1="86" y1="256.95" x2="86" y2="324.55"/><line class="cls-1" x1="67.89" y1="275.11" x2="80.26" y2="256.7"/><line class="cls-1" x1="67.89" y1="281.27" x2="83.07" y2="324.55"/><line class="cls-1" x1="107.68" y1="277.56" x2="149.32" y2="277.56"/><line class="cls-1" x1="104.11" y1="275.11" x2="91.74" y2="256.7"/><line class="cls-1" x1="104.11" y1="281.27" x2="88.93" y2="324.55"/><line class="cls-1" x1="171" y1="256.95" x2="171" y2="324.55"/><line class="cls-1" x1="152.89" y1="275.11" x2="165.26" y2="256.7"/><line class="cls-1" x1="152.89" y1="281.27" x2="168.07" y2="324.55"/><line class="cls-1" x1="192.68" y1="277.56" x2="234.32" y2="277.56"/><line class="cls-1" x1="189.11" y1="275.11" x2="176.74" y2="256.7"/><line class="cls-1" x1="189.11" y1="281.27" x2="173.93" y2="324.55"/><line class="cls-1" x1="256" y1="256.95" x2="256" y2="324.55"/><line class="cls-1" x1="237.89" y1="275.11" x2="250.26" y2="256.7"/><line class="cls-1" x1="237.89" y1="281.27" x2="253.07" y2="324.55"/><line class="cls-1" x1="1" y1="339.7" x2="1" y2="407.31"/><line class="cls-1" x1="22.68" y1="360.32" x2="64.32" y2="360.32"/><line class="cls-1" x1="19.11" y1="357.87" x2="6.74" y2="339.46"/><line class="cls-1" x1="19.11" y1="364.03" x2="3.93" y2="407.31"/><line class="cls-1" x1="86" y1="339.7" x2="86" y2="407.31"/><line class="cls-1" x1="67.89" y1="357.87" x2="80.26" y2="339.46"/><line class="cls-1" x1="67.89" y1="364.03" x2="83.07" y2="407.31"/><line class="cls-1" x1="107.68" y1="360.32" x2="149.32" y2="360.32"/><line class="cls-1" x1="104.11" y1="357.87" x2="91.74" y2="339.46"/><line class="cls-1" x1="104.11" y1="364.03" x2="88.93" y2="407.31"/><line class="cls-1" x1="171" y1="339.7" x2="171" y2="407.31"/><line class="cls-1" x1="152.89" y1="357.87" x2="165.26" y2="339.46"/><line class="cls-1" x1="152.89" y1="364.03" x2="168.07" y2="407.31"/><line class="cls-1" x1="192.68" y1="360.32" x2="234.32" y2="360.32"/><line class="cls-1" x1="189.11" y1="357.87" x2="176.74" y2="339.46"/><line class="cls-1" x1="189.11" y1="364.03" x2="173.93" y2="407.31"/><line class="cls-1" x1="256" y1="339.7" x2="256" y2="407.31"/><line class="cls-1" x1="237.89" y1="357.87" x2="250.26" y2="339.46"/><line class="cls-1" x1="237.89" y1="364.03" x2="253.07" y2="407.31"/><line class="cls-1" x1="82.87" y1="415.53" x2="4.13" y2="415.53"/><line class="cls-1" x1="167.87" y1="415.53" x2="89.13" y2="415.53"/><line class="cls-1" x1="252.87" y1="415.53" x2="174.13" y2="415.53"/><line class="cls-1" x1="82.87" y1="332.59" x2="4.13" y2="332.59"/><line class="cls-1" x1="167.87" y1="332.59" x2="89.13" y2="332.59"/><line class="cls-1" x1="252.87" y1="332.59" x2="174.13" y2="332.59"/><line class="cls-1" x1="1" y1="422.65" x2="1" y2="490.25"/><line class="cls-1" x1="22.68" y1="443.27" x2="64.32" y2="443.27"/><line class="cls-1" x1="19.11" y1="440.81" x2="6.74" y2="422.4"/><line class="cls-1" x1="19.11" y1="446.97" x2="3.93" y2="490.25"/><line class="cls-1" x1="86" y1="422.65" x2="86" y2="490.25"/><line class="cls-1" x1="67.89" y1="440.81" x2="80.26" y2="422.4"/><line class="cls-1" x1="67.89" y1="446.97" x2="83.07" y2="490.25"/><line class="cls-1" x1="107.68" y1="443.27" x2="149.32" y2="443.27"/><line class="cls-1" x1="104.11" y1="440.81" x2="91.74" y2="422.4"/><line class="cls-1" x1="104.11" y1="446.97" x2="88.93" y2="490.25"/><line class="cls-1" x1="171" y1="422.65" x2="171" y2="490.25"/><line class="cls-1" x1="152.89" y1="440.81" x2="165.26" y2="422.4"/><line class="cls-1" x1="152.89" y1="446.97" x2="168.07" y2="490.25"/><line class="cls-1" x1="192.68" y1="443.27" x2="234.32" y2="443.27"/><line class="cls-1" x1="189.11" y1="440.81" x2="176.74" y2="422.4"/><line class="cls-1" x1="189.11" y1="446.97" x2="173.93" y2="490.25"/><line class="cls-1" x1="256" y1="422.65" x2="256" y2="490.25"/><line class="cls-1" x1="237.89" y1="440.81" x2="250.26" y2="422.4"/><line class="cls-1" x1="237.89" y1="446.97" x2="253.07" y2="490.25"/><line class="cls-1" x1="82.87" y1="498.48" x2="4.13" y2="498.48"/><line class="cls-1" x1="167.87" y1="498.48" x2="89.13" y2="498.48"/><line class="cls-1" x1="252.87" y1="498.48" x2="174.13" y2="498.48"/><line class="cls-1" x1="1" y1="505.59" x2="1" y2="573.2"/><line class="cls-1" x1="22.68" y1="526.21" x2="64.32" y2="526.21"/><line class="cls-1" x1="19.11" y1="523.75" x2="6.74" y2="505.35"/><line class="cls-1" x1="19.11" y1="529.92" x2="3.93" y2="573.2"/><line class="cls-1" x1="86" y1="505.59" x2="86" y2="573.2"/><line class="cls-1" x1="67.89" y1="523.75" x2="80.26" y2="505.35"/><line class="cls-1" x1="67.89" y1="529.92" x2="83.07" y2="573.2"/><line class="cls-1" x1="107.68" y1="526.21" x2="149.32" y2="526.21"/><line class="cls-1" x1="104.11" y1="523.75" x2="91.74" y2="505.35"/><line class="cls-1" x1="104.11" y1="529.92" x2="88.93" y2="573.2"/><line class="cls-1" x1="171" y1="505.59" x2="171" y2="573.2"/><line class="cls-1" x1="152.89" y1="523.75" x2="165.26" y2="505.35"/><line class="cls-1" x1="152.89" y1="529.92" x2="168.07" y2="573.2"/><line class="cls-1" x1="192.68" y1="526.21" x2="234.32" y2="526.21"/><line class="cls-1" x1="189.11" y1="523.75" x2="176.74" y2="505.35"/><line class="cls-1" x1="189.11" y1="529.92" x2="173.93" y2="573.2"/><line class="cls-1" x1="256" y1="505.59" x2="256" y2="573.2"/><line class="cls-1" x1="237.89" y1="523.75" x2="250.26" y2="505.35"/><line class="cls-1" x1="237.89" y1="529.92" x2="253.07" y2="573.2"/><line class="cls-1" x1="82.87" y1="581.42" x2="4.13" y2="581.42"/><line class="cls-1" x1="167.87" y1="581.42" x2="89.13" y2="581.42"/><line class="cls-1" x1="252.87" y1="581.42" x2="174.13" y2="581.42"/><line class="cls-1" x1="1" y1="588.54" x2="1" y2="656.14"/><line class="cls-1" x1="22.68" y1="609.15" x2="64.32" y2="609.15"/><line class="cls-1" x1="19.11" y1="606.7" x2="6.74" y2="588.29"/><line class="cls-1" x1="19.11" y1="612.86" x2="3.93" y2="656.14"/><line class="cls-1" x1="86" y1="588.54" x2="86" y2="656.14"/><line class="cls-1" x1="67.89" y1="606.7" x2="80.26" y2="588.29"/><line class="cls-1" x1="67.89" y1="612.86" x2="83.07" y2="656.14"/><line class="cls-1" x1="107.68" y1="609.15" x2="149.32" y2="609.15"/><line class="cls-1" x1="104.11" y1="606.7" x2="91.74" y2="588.29"/><line class="cls-1" x1="104.11" y1="612.86" x2="88.93" y2="656.14"/><line class="cls-1" x1="171" y1="588.54" x2="171" y2="656.14"/><line class="cls-1" x1="152.89" y1="606.7" x2="165.26" y2="588.29"/><line class="cls-1" x1="152.89" y1="612.86" x2="168.07" y2="656.14"/><line class="cls-1" x1="192.68" y1="609.15" x2="234.32" y2="609.15"/><line class="cls-1" x1="189.11" y1="606.7" x2="176.74" y2="588.29"/><line class="cls-1" x1="189.11" y1="612.86" x2="173.93" y2="656.14"/><line class="cls-1" x1="256" y1="588.54" x2="256" y2="656.14"/><line class="cls-1" x1="237.89" y1="606.7" x2="250.26" y2="588.29"/><line class="cls-1" x1="237.89" y1="612.86" x2="253.07" y2="656.14"/><line class="cls-1" x1="82.87" y1="664.37" x2="4.13" y2="664.37"/><line class="cls-1" x1="167.87" y1="664.37" x2="89.13" y2="664.37"/><line class="cls-1" x1="252.87" y1="664.37" x2="174.13" y2="664.37"/><line class="cls-1" x1="1" y1="671.35" x2="1" y2="738.95"/><line class="cls-1" x1="22.68" y1="691.96" x2="64.32" y2="691.96"/><line class="cls-1" x1="19.11" y1="689.51" x2="6.74" y2="671.1"/><line class="cls-1" x1="19.11" y1="695.67" x2="3.93" y2="738.95"/><line class="cls-1" x1="86" y1="671.35" x2="86" y2="738.95"/><line class="cls-1" x1="67.89" y1="689.51" x2="80.26" y2="671.1"/><line class="cls-1" x1="67.89" y1="695.67" x2="83.07" y2="738.95"/><line class="cls-1" x1="107.68" y1="691.96" x2="149.32" y2="691.96"/><line class="cls-1" x1="104.11" y1="689.51" x2="91.74" y2="671.1"/><line class="cls-1" x1="104.11" y1="695.67" x2="88.93" y2="738.95"/><line class="cls-1" x1="171" y1="671.35" x2="171" y2="738.95"/><line class="cls-1" x1="152.89" y1="689.51" x2="165.26" y2="671.1"/><line class="cls-1" x1="152.89" y1="695.67" x2="168.07" y2="738.95"/><line class="cls-1" x1="192.68" y1="691.96" x2="234.32" y2="691.96"/><line class="cls-1" x1="189.11" y1="689.51" x2="176.74" y2="671.1"/><line class="cls-1" x1="189.11" y1="695.67" x2="173.93" y2="738.95"/><line class="cls-1" x1="256" y1="671.35" x2="256" y2="738.95"/><line class="cls-1" x1="237.89" y1="689.51" x2="250.26" y2="671.1"/><line class="cls-1" x1="237.89" y1="695.67" x2="253.07" y2="738.95"/><line class="cls-1" x1="82.87" y1="747.18" x2="4.13" y2="747.18"/><line class="cls-1" x1="167.87" y1="747.18" x2="89.13" y2="747.18"/><line class="cls-1" x1="252.87" y1="747.18" x2="174.13" y2="747.18"/><line class="cls-1" x1="1" y1="754.17" x2="1" y2="821.77"/><line class="cls-1" x1="22.68" y1="774.79" x2="64.32" y2="774.79"/><line class="cls-1" x1="19.11" y1="772.33" x2="6.74" y2="753.93"/><line class="cls-1" x1="19.11" y1="778.49" x2="3.93" y2="821.77"/><line class="cls-1" x1="86" y1="754.17" x2="86" y2="821.77"/><line class="cls-1" x1="67.89" y1="772.33" x2="80.26" y2="753.93"/><line class="cls-1" x1="67.89" y1="778.49" x2="83.07" y2="821.77"/><line class="cls-1" x1="107.68" y1="774.79" x2="149.32" y2="774.79"/><line class="cls-1" x1="104.11" y1="772.33" x2="91.74" y2="753.93"/><line class="cls-1" x1="104.11" y1="778.49" x2="88.93" y2="821.77"/><line class="cls-1" x1="171" y1="754.17" x2="171" y2="821.77"/><line class="cls-1" x1="152.89" y1="772.33" x2="165.26" y2="753.93"/><line class="cls-1" x1="152.89" y1="778.49" x2="168.07" y2="821.77"/><line class="cls-1" x1="192.68" y1="774.79" x2="234.32" y2="774.79"/><line class="cls-1" x1="189.11" y1="772.33" x2="176.74" y2="753.93"/><line class="cls-1" x1="189.11" y1="778.49" x2="173.93" y2="821.77"/><line class="cls-1" x1="256" y1="754.17" x2="256" y2="821.77"/><line class="cls-1" x1="237.89" y1="772.33" x2="250.26" y2="753.93"/><line class="cls-1" x1="237.89" y1="778.49" x2="253.07" y2="821.77"/><line class="cls-1" x1="82.87" y1="830" x2="4.13" y2="830"/><line class="cls-1" x1="167.87" y1="830" x2="89.13" y2="830"/><line class="cls-1" x1="252.87" y1="830" x2="174.13" y2="830"/></g></g></svg>