<svg xmlns="http://www.w3.org/2000/svg" viewBox="0 0 286.89 752.97"><defs><style>.cls-1{fill:none;stroke:#fff;stroke-miterlimit:10;stroke-width:2px;}</style></defs><title>Ресурс 2</title><g id="Слой_2" data-name="Слой 2"><g id="содержание"><line class="cls-1" x1="285.89" x2="285.89" y2="28.36"/><line class="cls-1" x1="253.98" x2="253.98" y2="28.36"/><line class="cls-1" x1="282.55" y1="34.2" x2="257.33" y2="34.2"/><line class="cls-1" x1="227.14" y1="102.89" x2="249.68" y2="102.89"/><line class="cls-1" x1="285.89" y1="40.3" x2="256.54" y2="98.74"/><line class="cls-1" x1="253.98" y1="40.3" x2="224.63" y2="98.74"/><line class="cls-1" x1="221.98" x2="221.98" y2="28.36"/><line class="cls-1" x1="190.07" x2="190.07" y2="28.36"/><line class="cls-1" x1="218.64" y1="34.2" x2="193.41" y2="34.2"/><line class="cls-1" x1="163.23" y1="102.89" x2="185.77" y2="102.89"/><line class="cls-1" x1="250.94" y1="34.2" x2="225.71" y2="34.2"/><line class="cls-1" x1="195.52" y1="102.89" x2="218.06" y2="102.89"/><line class="cls-1" x1="221.98" y1="40.3" x2="192.63" y2="98.74"/><line class="cls-1" x1="190.07" y1="40.3" x2="160.71" y2="98.74"/><line class="cls-1" x1="158.07" x2="158.07" y2="28.36"/><line class="cls-1" x1="126.16" x2="126.16" y2="28.36"/><line class="cls-1" x1="154.73" y1="34.2" x2="129.5" y2="34.2"/><line class="cls-1" x1="99.32" y1="102.89" x2="121.86" y2="102.89"/><line class="cls-1" x1="187.02" y1="34.2" x2="161.8" y2="34.2"/><line class="cls-1" x1="131.61" y1="102.89" x2="154.15" y2="102.89"/><line class="cls-1" x1="158.07" y1="40.3" x2="128.72" y2="98.74"/><line class="cls-1" x1="126.16" y1="40.3" x2="96.8" y2="98.74"/><line class="cls-1" x1="94.16" x2="94.16" y2="28.36"/><line class="cls-1" x1="62.25" x2="62.25" y2="28.36"/><line class="cls-1" x1="90.82" y1="34.2" x2="65.59" y2="34.2"/><line class="cls-1" x1="35.41" y1="102.89" x2="57.94" y2="102.89"/><line class="cls-1" x1="123.11" y1="34.2" x2="97.89" y2="34.2"/><line class="cls-1" x1="67.7" y1="102.89" x2="90.24" y2="102.89"/><line class="cls-1" x1="94.16" y1="40.3" x2="64.8" y2="98.74"/><line class="cls-1" x1="62.25" y1="40.3" x2="32.89" y2="98.74"/><line class="cls-1" x1="30.25" x2="30.25" y2="28.36"/><line class="cls-1" x1="59.2" y1="34.2" x2="33.98" y2="34.2"/><line class="cls-1" x1="3.79" y1="102.89" x2="26.33" y2="102.89"/><line class="cls-1" x1="30.25" y1="40.3" x2="0.89" y2="98.74"/><line class="cls-1" x1="285.89" y1="269.46" x2="285.89" y2="177.41"/><line class="cls-1" x1="253.98" y1="269.46" x2="253.98" y2="177.41"/><line class="cls-1" x1="282.55" y1="171.57" x2="257.33" y2="171.57"/><line class="cls-1" x1="227.14" y1="102.89" x2="249.68" y2="102.89"/><line class="cls-1" x1="285.89" y1="165.47" x2="256.54" y2="107.03"/><line class="cls-1" x1="253.98" y1="165.47" x2="224.63" y2="107.03"/><line class="cls-1" x1="221.98" y1="269.46" x2="221.98" y2="177.41"/><line class="cls-1" x1="190.07" y1="269.46" x2="190.07" y2="177.41"/><line class="cls-1" x1="218.64" y1="171.57" x2="193.41" y2="171.57"/><line class="cls-1" x1="163.23" y1="102.89" x2="185.77" y2="102.89"/><line class="cls-1" x1="250.94" y1="171.57" x2="225.71" y2="171.57"/><line class="cls-1" x1="195.52" y1="102.89" x2="218.06" y2="102.89"/><line class="cls-1" x1="221.98" y1="165.47" x2="192.63" y2="107.03"/><line class="cls-1" x1="190.07" y1="165.47" x2="160.71" y2="107.03"/><line class="cls-1" x1="158.07" y1="269.46" x2="158.07" y2="177.41"/><line class="cls-1" x1="126.16" y1="269.46" x2="126.16" y2="177.41"/><line class="cls-1" x1="154.73" y1="171.57" x2="129.5" y2="171.57"/><line class="cls-1" x1="99.32" y1="102.89" x2="121.86" y2="102.89"/><line class="cls-1" x1="187.02" y1="171.57" x2="161.8" y2="171.57"/><line class="cls-1" x1="131.61" y1="102.89" x2="154.15" y2="102.89"/><line class="cls-1" x1="158.07" y1="165.47" x2="128.72" y2="107.03"/><line class="cls-1" x1="126.16" y1="165.47" x2="96.8" y2="107.03"/><line class="cls-1" x1="94.16" y1="269.46" x2="94.16" y2="177.41"/><line class="cls-1" x1="62.25" y1="269.46" x2="62.25" y2="177.41"/><line class="cls-1" x1="90.82" y1="171.57" x2="65.59" y2="171.57"/><line class="cls-1" x1="35.41" y1="102.89" x2="57.94" y2="102.89"/><line class="cls-1" x1="123.11" y1="171.57" x2="97.89" y2="171.57"/><line class="cls-1" x1="67.7" y1="102.89" x2="90.24" y2="102.89"/><line class="cls-1" x1="94.16" y1="165.47" x2="64.8" y2="107.03"/><line class="cls-1" x1="62.25" y1="165.47" x2="32.89" y2="107.03"/><line class="cls-1" x1="30.25" y1="269.46" x2="30.25" y2="177.41"/><line class="cls-1" x1="59.2" y1="171.57" x2="33.98" y2="171.57"/><line class="cls-1" x1="282.55" y1="274.45" x2="257.33" y2="274.45"/><line class="cls-1" x1="218.64" y1="274.45" x2="193.41" y2="274.45"/><line class="cls-1" x1="250.94" y1="274.45" x2="225.71" y2="274.45"/><line class="cls-1" x1="154.73" y1="274.45" x2="129.5" y2="274.45"/><line class="cls-1" x1="187.02" y1="274.45" x2="161.8" y2="274.45"/><line class="cls-1" x1="90.82" y1="274.45" x2="65.59" y2="274.45"/><line class="cls-1" x1="123.11" y1="274.45" x2="97.89" y2="274.45"/><line class="cls-1" x1="59.2" y1="274.45" x2="33.98" y2="274.45"/><line class="cls-1" x1="285.89" y1="372.77" x2="285.89" y2="280.72"/><line class="cls-1" x1="253.98" y1="372.77" x2="253.98" y2="280.72"/><line class="cls-1" x1="221.98" y1="372.77" x2="221.98" y2="280.72"/><line class="cls-1" x1="190.07" y1="372.77" x2="190.07" y2="280.72"/><line class="cls-1" x1="158.07" y1="372.77" x2="158.07" y2="280.72"/><line class="cls-1" x1="126.16" y1="372.77" x2="126.16" y2="280.72"/><line class="cls-1" x1="94.16" y1="372.77" x2="94.16" y2="280.72"/><line class="cls-1" x1="62.25" y1="372.77" x2="62.25" y2="280.72"/><line class="cls-1" x1="30.25" y1="372.77" x2="30.25" y2="280.72"/><line class="cls-1" x1="282.55" y1="377.76" x2="257.33" y2="377.76"/><line class="cls-1" x1="154.73" y1="377.76" x2="129.5" y2="377.76"/><line class="cls-1" x1="187.02" y1="377.76" x2="161.8" y2="377.76"/><line class="cls-1" x1="90.82" y1="377.76" x2="65.59" y2="377.76"/><line class="cls-1" x1="123.11" y1="377.76" x2="97.89" y2="377.76"/><line class="cls-1" x1="3.79" y1="102.89" x2="26.33" y2="102.89"/><line class="cls-1" x1="30.25" y1="165.47" x2="0.89" y2="107.03"/><line class="cls-1" x1="285.89" y1="475.78" x2="285.89" y2="383.73"/><line class="cls-1" x1="253.98" y1="475.78" x2="253.98" y2="383.73"/><line class="cls-1" x1="221.98" y1="475.78" x2="221.98" y2="383.73"/><line class="cls-1" x1="190.07" y1="475.78" x2="190.07" y2="383.73"/><line class="cls-1" x1="158.07" y1="475.78" x2="158.07" y2="383.73"/><line class="cls-1" x1="126.16" y1="475.78" x2="126.16" y2="383.73"/><line class="cls-1" x1="94.16" y1="475.78" x2="94.16" y2="383.73"/><line class="cls-1" x1="62.25" y1="475.78" x2="62.25" y2="383.73"/><line class="cls-1" x1="30.25" y1="475.78" x2="30.25" y2="383.73"/><line class="cls-1" x1="218.64" y1="377.89" x2="193.41" y2="377.89"/><line class="cls-1" x1="250.94" y1="377.89" x2="225.71" y2="377.89"/><line class="cls-1" x1="59.2" y1="377.89" x2="33.98" y2="377.89"/><line class="cls-1" x1="282.55" y1="480.77" x2="257.33" y2="480.77"/><line class="cls-1" x1="218.64" y1="480.77" x2="193.41" y2="480.77"/><line class="cls-1" x1="250.94" y1="480.77" x2="225.71" y2="480.77"/><line class="cls-1" x1="154.73" y1="480.77" x2="129.5" y2="480.77"/><line class="cls-1" x1="187.02" y1="480.77" x2="161.8" y2="480.77"/><line class="cls-1" x1="90.82" y1="480.77" x2="65.59" y2="480.77"/><line class="cls-1" x1="123.11" y1="480.77" x2="97.89" y2="480.77"/><line class="cls-1" x1="59.2" y1="480.77" x2="33.98" y2="480.77"/><line class="cls-1" x1="285.89" y1="578.66" x2="285.89" y2="486.61"/><line class="cls-1" x1="253.98" y1="578.66" x2="253.98" y2="486.61"/><line class="cls-1" x1="221.98" y1="578.66" x2="221.98" y2="486.61"/><line class="cls-1" x1="190.07" y1="578.66" x2="190.07" y2="486.61"/><line class="cls-1" x1="158.07" y1="578.66" x2="158.07" y2="486.61"/><line class="cls-1" x1="126.16" y1="578.66" x2="126.16" y2="486.61"/><line class="cls-1" x1="94.16" y1="578.66" x2="94.16" y2="486.61"/><line class="cls-1" x1="62.25" y1="578.66" x2="62.25" y2="486.61"/><line class="cls-1" x1="30.25" y1="578.66" x2="30.25" y2="486.61"/><line class="cls-1" x1="282.55" y1="583.66" x2="257.33" y2="583.66"/><line class="cls-1" x1="218.64" y1="583.66" x2="193.41" y2="583.66"/><line class="cls-1" x1="250.94" y1="583.66" x2="225.71" y2="583.66"/><line class="cls-1" x1="154.73" y1="583.66" x2="129.5" y2="583.66"/><line class="cls-1" x1="187.02" y1="583.66" x2="161.8" y2="583.66"/><line class="cls-1" x1="90.82" y1="583.66" x2="65.59" y2="583.66"/><line class="cls-1" x1="123.11" y1="583.66" x2="97.89" y2="583.66"/><line class="cls-1" x1="59.2" y1="583.66" x2="33.98" y2="583.66"/><line class="cls-1" x1="285.89" y1="752.97" x2="285.89" y2="724.61"/><line class="cls-1" x1="253.98" y1="752.97" x2="253.98" y2="724.61"/><line class="cls-1" x1="282.55" y1="718.77" x2="257.33" y2="718.77"/><line class="cls-1" x1="227.14" y1="650.09" x2="249.68" y2="650.09"/><line class="cls-1" x1="285.89" y1="712.67" x2="256.54" y2="654.24"/><line class="cls-1" x1="253.98" y1="712.67" x2="224.63" y2="654.24"/><line class="cls-1" x1="221.98" y1="752.97" x2="221.98" y2="724.61"/><line class="cls-1" x1="190.07" y1="752.97" x2="190.07" y2="724.61"/><line class="cls-1" x1="218.64" y1="718.77" x2="193.41" y2="718.77"/><line class="cls-1" x1="163.23" y1="650.09" x2="185.77" y2="650.09"/><line class="cls-1" x1="250.94" y1="718.77" x2="225.71" y2="718.77"/><line class="cls-1" x1="195.52" y1="650.09" x2="218.06" y2="650.09"/><line class="cls-1" x1="221.98" y1="712.67" x2="192.63" y2="654.24"/><line class="cls-1" x1="190.07" y1="712.67" x2="160.71" y2="654.24"/><line class="cls-1" x1="158.07" y1="752.97" x2="158.07" y2="724.61"/><line class="cls-1" x1="126.16" y1="752.97" x2="126.16" y2="724.61"/><line class="cls-1" x1="154.73" y1="718.77" x2="129.5" y2="718.77"/><line class="cls-1" x1="99.32" y1="650.09" x2="121.86" y2="650.09"/><line class="cls-1" x1="187.02" y1="718.77" x2="161.8" y2="718.77"/><line class="cls-1" x1="131.61" y1="650.09" x2="154.15" y2="650.09"/><line class="cls-1" x1="158.07" y1="712.67" x2="128.72" y2="654.24"/><line class="cls-1" x1="126.16" y1="712.67" x2="96.8" y2="654.24"/><line class="cls-1" x1="94.16" y1="752.97" x2="94.16" y2="724.61"/><line class="cls-1" x1="62.25" y1="752.97" x2="62.25" y2="724.61"/><line class="cls-1" x1="90.82" y1="718.77" x2="65.59" y2="718.77"/><line class="cls-1" x1="35.41" y1="650.09" x2="57.94" y2="650.09"/><line class="cls-1" x1="123.11" y1="718.77" x2="97.89" y2="718.77"/><line class="cls-1" x1="67.7" y1="650.09" x2="90.24" y2="650.09"/><line class="cls-1" x1="94.16" y1="712.67" x2="64.8" y2="654.24"/><line class="cls-1" x1="62.25" y1="712.67" x2="32.89" y2="654.24"/><line class="cls-1" x1="30.25" y1="752.97" x2="30.25" y2="724.61"/><line class="cls-1" x1="59.2" y1="718.77" x2="33.98" y2="718.77"/><line class="cls-1" x1="3.79" y1="650.09" x2="26.33" y2="650.09"/><line class="cls-1" x1="30.25" y1="712.67" x2="0.89" y2="654.24"/><line class="cls-1" x1="227.14" y1="650.09" x2="249.68" y2="650.09"/><line class="cls-1" x1="285.89" y1="587.5" x2="256.54" y2="645.94"/><line class="cls-1" x1="253.98" y1="587.5" x2="224.63" y2="645.94"/><line class="cls-1" x1="163.23" y1="650.09" x2="185.77" y2="650.09"/><line class="cls-1" x1="195.52" y1="650.09" x2="218.06" y2="650.09"/><line class="cls-1" x1="221.98" y1="587.5" x2="192.63" y2="645.94"/><line class="cls-1" x1="190.07" y1="587.5" x2="160.71" y2="645.94"/><line class="cls-1" x1="99.32" y1="650.09" x2="121.86" y2="650.09"/><line class="cls-1" x1="131.61" y1="650.09" x2="154.15" y2="650.09"/><line class="cls-1" x1="158.07" y1="587.5" x2="128.72" y2="645.94"/><line class="cls-1" x1="126.16" y1="587.5" x2="96.8" y2="645.94"/><line class="cls-1" x1="35.41" y1="650.09" x2="57.94" y2="650.09"/><line class="cls-1" x1="67.7" y1="650.09" x2="90.24" y2="650.09"/><line class="cls-1" x1="94.16" y1="587.5" x2="64.8" y2="645.94"/><line class="cls-1" x1="62.25" y1="587.5" x2="32.89" y2="645.94"/><line class="cls-1" x1="3.79" y1="650.09" x2="26.33" y2="650.09"/><line class="cls-1" x1="30.25" y1="587.5" x2="0.89" y2="645.94"/></g></g></svg>